<svg width="796" height="579" viewBox="0 0 796 579" fill="none" xmlns="http://www.w3.org/2000/svg">
<g clip-path="url(#clip0_742_3080)">
<path d="M643.303 44.1351V303.798C643.303 435.52 411.464 543.324 397.992 549.505C384.52 543.324 152.682 435.52 152.682 303.798V44.1351C232.803 32.7125 314.707 26.8135 397.992 26.8135C481.277 26.8135 563.182 32.7125 643.303 44.1351Z" fill="white"/>
<path d="M392.403 561.692C366.491 549.8 139.277 441.581 139.277 303.799V32.4985L150.792 30.8629C232.04 19.2794 315.204 13.4072 397.993 13.4072C480.782 13.4072 563.947 19.2794 645.194 30.8629L656.709 32.4985V303.799C656.709 441.581 429.495 549.8 403.583 561.692L397.993 564.253L392.403 561.692Z" fill="#592DA1"/>
<path d="M397.994 26.8136C481.279 26.8136 563.183 32.7126 643.305 44.1352V303.798C643.305 435.52 411.466 543.325 397.994 549.505C384.522 543.325 152.683 435.52 152.683 303.798V44.1352C232.804 32.7126 314.709 26.8136 397.994 26.8136ZM397.994 0C314.575 0 230.767 5.9124 148.903 17.5897L125.873 20.8744V303.798C125.873 339.943 139.988 376.745 167.817 413.171C188.85 440.709 217.965 468.327 254.333 495.275C314.454 539.812 375.246 568.57 386.814 573.879L397.994 579.013L409.173 573.879C420.755 568.57 481.547 539.812 541.655 495.275C578.022 468.327 607.138 440.709 628.17 413.171C655.999 376.745 670.114 339.943 670.114 303.798V20.8744L647.085 17.5897C565.221 5.9124 481.413 0 397.994 0Z" fill="#F7F3E9"/>
<path d="M645.194 30.8629C563.947 19.2794 480.782 13.4072 397.993 13.4072C315.204 13.4072 232.04 19.2794 150.792 30.8629L139.277 32.4985V174.289H152.682V44.1356C232.804 32.713 314.708 26.814 397.993 26.814C481.278 26.814 563.182 32.713 643.304 44.1356V168.926H643.599V187.696H643.304V303.799C643.304 310.301 642.741 316.736 641.655 323.105C640.14 332.194 637.567 341.137 634.108 349.918C590.944 459.868 409.857 544.062 397.993 549.505C386.13 544.062 205.042 459.868 161.878 349.918C158.42 341.137 155.846 332.194 154.331 323.105C153.245 316.736 152.682 310.301 152.682 303.799V201.103H139.277V303.799C139.277 310.207 139.773 316.643 140.765 323.105C142.106 331.993 144.385 340.936 147.575 349.918C154.09 368.205 164.412 386.626 178.473 405.034C198.742 431.566 226.946 458.299 262.308 484.509C321.357 528.256 381.036 556.477 392.403 561.692L397.993 564.253L403.583 561.692C414.95 556.477 474.629 528.256 533.678 484.509C569.04 458.299 597.244 431.566 617.526 405.034C631.588 386.626 641.91 368.205 648.411 349.918C651.602 340.936 653.88 331.993 655.221 323.105C656.213 316.643 656.709 310.207 656.709 303.799V32.4985L645.194 30.8629Z" fill="#D5C9E8"/>
<path d="M782.594 187.695H13.4043V336.511H782.594V187.695Z" fill="#F7F3E9"/>
<path d="M152.683 174.289V201.103H769.19V323.105H26.8099V201.103H139.278V174.289H0V349.918H796V174.289H152.683Z" fill="#F7F3E9"/>
<path d="M78.4472 305.62C70.4042 305.62 63.7285 303.918 58.4336 300.512C53.1386 297.107 49.4388 292.495 47.3477 286.703L63.9832 277.024C66.8117 283.767 71.8117 287.132 78.9968 287.132C84.9352 287.132 87.9111 285.443 87.9111 282.065C87.9111 279.839 86.1952 278.043 82.7636 276.675C81.3158 276.072 78.1388 275.066 73.2192 273.645C66.2621 271.621 60.7526 268.765 56.6909 265.105C52.6292 261.445 50.6051 256.35 50.6051 249.821C50.6051 242.783 53.1252 237.098 58.1655 232.741C63.2057 228.384 69.4927 226.212 77.0396 226.212C83.4204 226.212 89.0773 227.7 94.0103 230.676C98.9433 233.653 102.71 237.97 105.324 243.614L89.0103 253.186C86.6242 247.529 82.6697 244.7 77.1603 244.7C74.8412 244.7 73.0852 245.169 71.8787 246.121C70.6857 247.073 70.0825 248.266 70.0825 249.727C70.0825 251.403 70.9672 252.824 72.7367 253.991C74.5061 255.157 77.9646 256.511 83.0987 258.04C86.718 259.34 89.6805 260.413 91.9594 261.231C94.2516 262.062 96.7315 263.349 99.4259 265.132C102.107 266.902 104.104 269.181 105.418 271.969C106.732 274.758 107.375 278.029 107.375 281.783C107.375 289.251 104.721 295.096 99.4393 299.292C94.1444 303.502 87.147 305.607 78.4472 305.607V305.62Z" fill="#592DA1"/>
<path d="M134.628 285.724H164.106V303.998H115.164V227.86H163.556V246.027H134.628V256.578H160.835V274.529H134.628V285.738V285.724Z" fill="#592DA1"/>
<path d="M196.933 285.175H224.668V303.998H171.719V288.983L198.582 246.671H172.268V227.848H223.81V242.85L196.947 285.162L196.933 285.175Z" fill="#592DA1"/>
<path d="M275.768 227.86H295.124V303.998H280.111L253.247 265.708V303.998H233.783V227.86H248.904L275.768 266.15V227.86Z" fill="#592DA1"/>
<path d="M353.249 303.998L349.603 293.017H323.691L320.407 303.998H299.334L323.597 227.86H348.101L373.289 303.998H353.249ZM328.691 276.259H344.026L336.305 250.37L328.691 276.259Z" fill="#592DA1"/>
<path d="M455.087 227.861V303.998H435.73V262.987L417.245 293.554H415.287L396.909 263.094V303.985H377.445V227.848H396.909L416.266 260.373L435.73 227.848H455.087V227.861Z" fill="#592DA1"/>
<path d="M531.804 294.145C524.082 301.8 514.632 305.621 503.479 305.621C492.326 305.621 482.875 301.8 475.154 294.145C467.433 286.489 463.572 277.091 463.572 265.923C463.572 254.755 467.433 245.344 475.154 237.702C482.875 230.047 492.312 226.226 503.479 226.226C514.645 226.226 524.082 230.047 531.804 237.702C539.525 245.357 543.385 254.755 543.385 265.923C543.385 277.091 539.525 286.503 531.804 294.145ZM488.787 280.765C492.701 284.639 497.594 286.583 503.465 286.583C509.337 286.583 514.23 284.639 518.144 280.765C522.058 276.89 524.015 271.943 524.015 265.923C524.015 259.903 522.058 254.956 518.144 251.082C514.23 247.207 509.337 245.263 503.465 245.263C497.594 245.263 492.701 247.207 488.787 251.082C484.873 254.956 482.916 259.917 482.916 265.923C482.916 271.929 484.873 276.89 488.787 280.765Z" fill="#592DA1"/>
<path d="M566.442 303.998L541.871 227.86H563.185L577.971 280.281L592.877 227.86H614.191L589.62 303.998H566.456H566.442Z" fill="#592DA1"/>
<path d="M661.376 303.998L657.73 293.018H631.818L628.534 303.998H607.461L631.724 227.861H656.228L681.416 303.998H661.376ZM663.467 206.102L650.853 221.868H633.668L642.367 206.102H663.467ZM636.831 276.259H652.166L644.445 250.371L636.831 276.259Z" fill="#592DA1"/>
<path d="M748.642 303.998H726.886L705.023 269.877V303.998H685.559V227.86H705.023V259.876L725.8 227.86H747.556L723.414 264.85L748.642 304.011V303.998Z" fill="#592DA1"/>
<path d="M154.8 174.289H139.277V187.696H154.8V174.289Z" fill="#D5C9E8"/>
<path d="M656.708 172.948H637.941V187.696H656.708V172.948Z" fill="#D5C9E8"/>
<path d="M769.189 201.102V323.104H26.8093V201.102H769.189ZM782.594 187.695H13.4043V336.511H782.594V187.695Z" fill="#592DA1"/>
<path d="M643.303 168.926H152.977V187.695H643.303V168.926Z" fill="#592DA1"/>
<path d="M634.23 350C631.53 356.87 628.3 363.64 624.6 370.3C624.52 370.43 624.45 370.57 624.38 370.7C623.98 371.4 623.59 372.1 623.19 372.79C622.77 373.51 622.35 374.23 621.94 374.94C621.87 375.05 621.8 375.16 621.74 375.27C620.75 376.92 619.74 378.56 618.71 380.2C617.15 382.65 615.54 385.09 613.87 387.51C613.31 388.31 612.75 389.12 612.18 389.92C612.12 390.01 612.05 390.1 611.99 390.19C610.91 391.7 609.81 393.21 608.69 394.71C606.32 397.89 603.86 401.03 601.31 404.14C600.81 404.75 600.31 405.35 599.81 405.96C598.29 407.78 596.75 409.59 595.19 411.38C594.6 412.04 594.02 412.71 593.43 413.37C592.74 414.15 592.04 414.93 591.34 415.7C590.14 417.01 588.94 418.32 587.73 419.62C586.13 421.32 584.52 423.01 582.89 424.68C582.19 425.39 581.5 426.1 580.8 426.8C580.07 427.54 579.34 428.27 578.61 428.99C577.88 429.72 577.14 430.45 576.4 431.17C573.44 434.06 570.42 436.91 567.36 439.72C566.59 440.43 565.83 441.13 565.05 441.83C564.28 442.52 563.51 443.22 562.73 443.91C561.84 444.71 560.94 445.51 560.04 446.3C559.52 446.75 559 447.21 558.49 447.66C558.02 448.06 557.55 448.47 557.08 448.88C555.52 450.22 553.96 451.55 552.39 452.87C551.84 453.34 551.29 453.8 550.73 454.26C550 454.88 549.26 455.49 548.52 456.1C547.71 456.76 546.91 457.42 546.11 458.07C545.48 458.58 544.85 459.09 544.22 459.6C544.04 459.75 543.86 459.89 543.69 460.03C543.29 460.35 542.9 460.66 542.51 460.97C542.1 461.31 541.68 461.64 541.26 461.97C534.77 467.13 528.21 472.1 521.64 476.88C520.82 477.48 520 478.07 519.18 478.66C517.37 479.97 515.56 481.25 513.76 482.53C512.17 483.65 510.59 484.75 509 485.85C508.29 486.34 507.59 486.83 506.89 487.31C506.68 487.45 506.47 487.59 506.27 487.73C505.66 488.15 505.05 488.57 504.44 488.98C504.12 489.2 503.81 489.41 503.49 489.62C502.99 489.96 502.5 490.3 502 490.63C501.18 491.18 500.37 491.73 499.56 492.27C499.03 492.62 498.49 492.98 497.96 493.33C497.68 493.52 497.41 493.7 497.14 493.88C496.49 494.31 495.85 494.73 495.21 495.15C494.29 495.75 493.38 496.35 492.47 496.94C492.42 496.98 492.36 497.01 492.31 497.05C491.55 497.54 490.79 498.03 490.04 498.52C489.2 499.06 488.36 499.6 487.52 500.14C487.36 500.25 487.19 500.35 487.03 500.45C486.59 500.73 486.14 501.02 485.7 501.3C484.72 501.92 483.75 502.54 482.78 503.15C481.99 503.65 481.21 504.14 480.43 504.62C479.94 504.93 479.46 505.23 478.99 505.52C478.62 505.75 478.26 505.97 477.9 506.2C477.38 506.52 476.87 506.84 476.35 507.15C476.16 507.27 475.96 507.39 475.77 507.51C475 507.99 474.23 508.46 473.47 508.92C470.4 510.79 467.39 512.6 464.43 514.36C462.21 515.67 460.02 516.96 457.87 518.2C456.7 518.88 455.55 519.54 454.42 520.19C453.97 520.45 453.53 520.7 453.1 520.95C451.86 521.66 450.65 522.35 449.45 523.02C448.76 523.41 448.08 523.8 447.41 524.17C446.73 524.55 446.06 524.93 445.39 525.3C441.39 527.53 437.57 529.62 433.95 531.56C433.34 531.89 432.74 532.21 432.15 532.52C431.56 532.84 430.97 533.15 430.39 533.46C429.81 533.77 429.24 534.07 428.67 534.37C426.96 535.27 425.31 536.14 423.72 536.96C422.66 537.51 421.62 538.05 420.62 538.56C419.97 538.9 419.33 539.22 418.71 539.54C418.16 539.82 417.61 540.1 417.08 540.37C416.8 540.51 416.53 540.64 416.27 540.78C415.8 541.01 415.35 541.24 414.9 541.46C414.09 541.87 413.29 542.27 412.53 542.65C410.36 543.73 408.39 544.7 406.65 545.54C406.31 545.7 405.98 545.86 405.66 546.02C405.48 546.11 405.29 546.2 405.11 546.29C404.82 546.43 404.53 546.56 404.26 546.7C404.12 546.76 403.98 546.82 403.85 546.89C403.28 547.16 402.75 547.41 402.25 547.65C402.24 547.65 402.23 547.65 402.22 547.67C401.66 547.93 401.14 548.18 400.67 548.4C400.44 548.5 400.22 548.61 400.01 548.71C399.18 549.09 398.54 549.39 398.12 549.58C397.7 549.39 397.06 549.09 396.23 548.71C396.02 548.61 395.81 548.51 395.57 548.4C395.1 548.18 394.58 547.93 394.02 547.67C394.01 547.67 394 547.65 393.99 547.65C393.52 547.43 393.01 547.19 392.48 546.94C392.45 546.92 392.42 546.9 392.38 546.89C392.32 546.86 392.26 546.83 392.2 546.8C391.97 546.69 391.74 546.58 391.5 546.47C391.39 546.42 391.29 546.37 391.18 546.31C388.82 545.18 385.96 543.78 382.65 542.12C382.22 541.91 381.78 541.69 381.33 541.46C381.3 541.46 381.27 541.43 381.24 541.42C381.08 541.34 380.91 541.25 380.74 541.16C380.49 541.04 380.23 540.91 379.97 540.78C379.26 540.42 378.53 540.05 377.78 539.67C377.56 539.56 377.34 539.44 377.11 539.33C376.62 539.08 376.13 538.82 375.62 538.56C374.67 538.08 373.7 537.57 372.7 537.06C371.58 536.48 370.43 535.88 369.25 535.26C368.7 534.97 368.14 534.67 367.57 534.37C366.27 533.69 364.94 532.98 363.58 532.25C363.27 532.09 362.96 531.92 362.65 531.75C362.53 531.69 362.41 531.63 362.29 531.56C357.46 528.97 352.27 526.12 346.79 523.02C345.52 522.31 344.23 521.57 342.92 520.83C342.12 520.37 341.32 519.91 340.51 519.44C340.4 519.37 340.28 519.31 340.17 519.24C339.58 518.9 338.98 518.56 338.37 518.2C336.22 516.96 334.03 515.67 331.81 514.36C328.85 512.6 325.83 510.79 322.77 508.92C322.01 508.46 321.24 507.99 320.47 507.51C320.28 507.39 320.08 507.27 319.89 507.15C319.37 506.84 318.86 506.52 318.34 506.2C317.97 505.97 317.61 505.75 317.25 505.52C316.77 505.23 316.29 504.93 315.81 504.62C315.03 504.14 314.25 503.65 313.46 503.15C312.49 502.54 311.51 501.92 310.54 501.3C310.1 501.02 309.65 500.73 309.21 500.45C309.05 500.35 308.88 500.25 308.72 500.14C307.88 499.6 307.04 499.06 306.2 498.52C305.45 498.03 304.69 497.54 303.93 497.05C303.88 497.01 303.82 496.98 303.77 496.94C302.86 496.35 301.95 495.75 301.03 495.15C300.39 494.73 299.75 494.31 299.1 493.88C298.83 493.7 298.56 493.52 298.28 493.33C297.75 492.98 297.21 492.62 296.68 492.27C295.86 491.73 295.05 491.18 294.24 490.63C293.74 490.3 293.25 489.96 292.75 489.62C292.43 489.41 292.12 489.2 291.8 488.98C291.19 488.57 290.58 488.15 289.97 487.73C289.77 487.59 289.56 487.45 289.35 487.31C288.65 486.83 287.95 486.34 287.24 485.85C285.65 484.75 284.07 483.65 282.48 482.53C280.67 481.25 278.87 479.97 277.06 478.66C276.24 478.07 275.42 477.48 274.6 476.88C268.03 472.1 261.46 467.13 254.98 461.97C254.56 461.64 254.14 461.31 253.73 460.97C253.34 460.66 252.94 460.35 252.55 460.03C252.38 459.89 252.2 459.75 252.02 459.6C251.39 459.09 250.76 458.58 250.13 458.07C249.33 457.42 248.52 456.76 247.72 456.1C246.98 455.49 246.24 454.88 245.51 454.26C244.65 453.54 243.79 452.82 242.93 452.1C241.67 451.03 240.41 449.96 239.16 448.88C238.69 448.47 238.22 448.06 237.75 447.66C237.23 447.21 236.71 446.75 236.2 446.3C230.6 441.39 225.13 436.34 219.84 431.17C219.1 430.45 218.36 429.72 217.63 428.99C216.89 428.27 216.16 427.54 215.44 426.8C214.74 426.1 214.04 425.39 213.35 424.68C211.05 422.33 208.79 419.95 206.58 417.54C205.93 416.84 205.29 416.13 204.65 415.42C202.96 413.56 201.3 411.68 199.67 409.78C199.11 409.14 198.55 408.49 197.99 407.83C193.11 402.07 188.51 396.19 184.25 390.19C183.92 389.73 183.6 389.28 183.28 388.82C178.95 382.64 174.98 376.34 171.43 369.94C171.05 369.25 170.67 368.55 170.3 367.86C170.29 367.84 170.28 367.82 170.27 367.8C169.82 366.96 169.38 366.12 168.95 365.29C168.51 364.45 168.09 363.61 167.67 362.76C167.25 361.92 166.84 361.08 166.44 360.23C165.23 357.69 164.1 355.14 163.04 352.57C162.68 351.72 162.34 350.86 162 350H634.23Z" fill="#291A40"/>
<path d="M352.082 457.212C345.688 462.736 337.471 465.497 327.404 465.497C317.337 465.497 309.119 462.736 302.725 457.212C296.331 451.688 293.141 444.342 293.141 435.198V377.053H315.286V433.093C315.286 440.346 319.321 443.98 327.404 443.98C335.487 443.98 339.522 440.346 339.522 433.093V377.053H361.667V435.198C361.667 444.355 358.476 451.688 352.082 457.212Z" fill="#F7F3E9"/>
<path d="M431.789 377.053V398.45H410.395V463.647H388.25V398.45H366.855V377.053H431.789Z" fill="#F7F3E9"/>
<path d="M491.964 418.869C499.216 423.159 502.849 429.635 502.849 438.295C502.849 445.964 500.208 452.104 494.926 456.73C489.645 461.355 482.594 463.661 473.773 463.661H437.285V377.066H471.428C480.087 377.066 487.018 379.279 492.205 383.689C497.406 388.1 499.994 394.106 499.994 401.695C499.994 409.283 497.313 414.686 491.951 418.896L491.964 418.869ZM470.811 396.855H459.43V410.463H470.811C472.795 410.463 474.457 409.859 475.824 408.666C477.192 407.473 477.862 405.797 477.862 403.652C477.862 401.507 477.205 399.938 475.878 398.705C474.564 397.472 472.862 396.855 470.811 396.855ZM473.157 443.859C475.382 443.859 477.192 443.175 478.599 441.821C480.007 440.454 480.704 438.711 480.704 436.566C480.704 434.421 480.007 432.571 478.599 431.243C477.192 429.929 475.382 429.259 473.157 429.259H459.43V443.859H473.157Z" fill="#F7F3E9"/>
<path d="M397.992 178.056C433.158 178.056 461.665 149.545 461.665 114.374C461.665 79.203 433.158 50.6914 397.992 50.6914C362.826 50.6914 334.318 79.203 334.318 114.374C334.318 149.545 362.826 178.056 397.992 178.056Z" stroke="#D5C9E8" stroke-width="6" stroke-miterlimit="10"/>
<path d="M399.334 50.6914V178.271" stroke="#D5C9E8" stroke-width="4" stroke-miterlimit="10"/>
<path d="M463.128 114.481H335.553" stroke="#D5C9E8" stroke-width="4" stroke-miterlimit="10"/>
<path d="M444.44 159.595L354.238 69.3809" stroke="#D5C9E8" stroke-width="4" stroke-miterlimit="10"/>
<path d="M354.238 159.595L444.44 69.3809" stroke="#D5C9E8" stroke-width="4" stroke-miterlimit="10"/>
<path d="M397.993 128.45C405.767 128.45 412.068 122.148 412.068 114.373C412.068 106.598 405.767 100.296 397.993 100.296C390.22 100.296 383.918 106.598 383.918 114.373C383.918 122.148 390.22 128.45 397.993 128.45Z" fill="#592DA1" stroke="#D5C9E8" stroke-width="4" stroke-miterlimit="10"/>
<path d="M469.415 123.168C474.271 123.168 478.208 119.23 478.208 114.373C478.208 109.516 474.271 105.578 469.415 105.578C464.558 105.578 460.621 109.516 460.621 114.373C460.621 119.23 464.558 123.168 469.415 123.168Z" fill="#592DA1" stroke="#D5C9E8" stroke-width="4" stroke-miterlimit="10"/>
<path d="M447.966 174.114C452.822 174.114 456.759 170.177 456.759 165.319C456.759 160.462 452.822 156.524 447.966 156.524C443.109 156.524 439.172 160.462 439.172 165.319C439.172 170.177 443.109 174.114 447.966 174.114Z" fill="#592DA1" stroke="#D5C9E8" stroke-width="4" stroke-miterlimit="10"/>
<path d="M449.307 73.5634C454.164 73.5634 458.101 69.6258 458.101 64.7685C458.101 59.9112 454.164 55.9736 449.307 55.9736C444.451 55.9736 440.514 59.9112 440.514 64.7685C440.514 69.6258 444.451 73.5634 449.307 73.5634Z" fill="#592DA1" stroke="#D5C9E8" stroke-width="4" stroke-miterlimit="10"/>
<path d="M399.708 50.7714C404.564 50.7714 408.501 46.8338 408.501 41.9765C408.501 37.1192 404.564 33.1816 399.708 33.1816C394.851 33.1816 390.914 37.1192 390.914 41.9765C390.914 46.8338 394.851 50.7714 399.708 50.7714Z" fill="#592DA1" stroke="#D5C9E8" stroke-width="4" stroke-miterlimit="10"/>
<path d="M348.77 70.8817C353.627 70.8817 357.564 66.9441 357.564 62.0869C357.564 57.2296 353.627 53.292 348.77 53.292C343.914 53.292 339.977 57.2296 339.977 62.0869C339.977 66.9441 343.914 70.8817 348.77 70.8817Z" fill="#592DA1" stroke="#D5C9E8" stroke-width="4" stroke-miterlimit="10"/>
<path d="M325.981 123.168C330.838 123.168 334.775 119.23 334.775 114.373C334.775 109.516 330.838 105.578 325.981 105.578C321.125 105.578 317.188 109.516 317.188 114.373C317.188 119.23 321.125 123.168 325.981 123.168Z" fill="#592DA1" stroke="#D5C9E8" stroke-width="4" stroke-miterlimit="10"/>
<path d="M300.332 114.199C300.332 114.199 327.117 132.754 359.299 145.196C391.482 157.626 406.243 160.153 425.031 162.691C456.66 162.968 482.781 158.02 482.781 158.02L482.675 189.988L300.078 189.2L300.332 114.199Z" fill="#592DA1"/>
<path d="M631.419 113.84L622.57 86.4402L610.78 121.05L601.2 92.9302L589.4 127.54L579.82 99.4202L567.29 136.2L556.97 105.91L544.44 143.41L533.38 111.68L520.85 149.9L509.79 116.73L498.73 149.9L490.62 125.38L479.56 157.11L472.19 135.48L464.82 158.55L458.19 147.01L450.82 160.71L444.92 154.22L436.81 162.87L430.91 158.54L409.53 166.47L376.36 170.8H338.02L402.16 190.99H638.81C640.29 159.26 641.02 123.93 641.02 84.9902L631.44 113.83L631.419 113.84Z" fill="#291A40"/>
<path d="M437.01 187.99L420.86 182.94L412.79 163.47L406.92 176.45L397.38 147.6L391.51 164.19L383.44 139.67L377.57 157.7L367.3 126.69L357.76 155.54L346.02 120.2L335.75 150.49L323.27 113.71L315.93 135.35L307.12 107.94L298.31 135.35L286.57 101.45L277.03 131.02L264.55 94.24L257.21 116.6L247.67 89.91L236.66 123.09L224.18 85.59L213.17 118.77L201.43 83.43L191.16 113L177.95 72.61L166.21 107.95L153 69C153 112.99 153.73 152.66 155.2 188H437L437.01 187.99Z" fill="#291A40"/>
<path d="M147.076 106.681C147.076 106.681 187.291 83.8897 240.911 93.2744C294.531 102.659 354.183 169.023 441.315 167.682C528.447 166.342 651.773 123.44 651.773 123.44" stroke="#D5C9E8" stroke-width="6" stroke-miterlimit="10"/>
<path d="M183.391 95.0039V184.441" stroke="#D5C9E8" stroke-width="4" stroke-miterlimit="10"/>
<path d="M217 91L216.902 184.441" stroke="#D5C9E8" stroke-width="4" stroke-miterlimit="10"/>
<path d="M250.414 95.0039V184.441" stroke="#D5C9E8" stroke-width="4" stroke-miterlimit="10"/>
<path d="M281.246 108.021V184.44" stroke="#D5C9E8" stroke-width="4" stroke-miterlimit="10"/>
<path d="M310.738 125.451V184.441" stroke="#D5C9E8" stroke-width="4" stroke-miterlimit="10"/>
<path d="M344.25 142.88V184.441" stroke="#D5C9E8" stroke-width="4" stroke-miterlimit="10"/>
<path d="M378 157L377.762 184.441" stroke="#D5C9E8" stroke-width="4" stroke-miterlimit="10"/>
<path d="M408.594 163.821V184.441" stroke="#D5C9E8" stroke-width="4" stroke-miterlimit="10"/>
<path d="M440.766 168.353V184.441" stroke="#D5C9E8" stroke-width="4" stroke-miterlimit="10"/>
<path d="M474.277 165.671V184.44" stroke="#D5C9E8" stroke-width="4" stroke-miterlimit="10"/>
<path d="M505.109 163.821V184.441" stroke="#D5C9E8" stroke-width="4" stroke-miterlimit="10"/>
<path d="M534.6 157.238V184.441" stroke="#D5C9E8" stroke-width="4" stroke-miterlimit="10"/>
<path d="M568.113 147.827V184.441" stroke="#D5C9E8" stroke-width="4" stroke-miterlimit="10"/>
<path d="M598.943 138.857V184.441" stroke="#D5C9E8" stroke-width="4" stroke-miterlimit="10"/>
<path d="M626.975 130.813V184.441" stroke="#D5C9E8" stroke-width="4" stroke-miterlimit="10"/>
<path d="M647.295 165.926V170.149L648.93 169.948V165.926V164.585L647.295 165.926Z" fill="#D5C9E8"/>
</g>
<defs>
<clipPath id="clip0_742_3080">
<rect width="796" height="579" fill="white"/>
</clipPath>
</defs>
</svg>
