<svg width="796" height="579" viewBox="0 0 796 579" fill="none" xmlns="http://www.w3.org/2000/svg">
<path d="M643.302 44.1305V303.791C643.302 435.511 411.462 543.321 397.992 549.501C384.522 543.321 152.682 435.511 152.682 303.791V44.1305C232.802 32.7105 314.702 26.8105 397.992 26.8105C481.282 26.8105 563.182 32.7105 643.302 44.1305Z" fill="white"/>
<path d="M392.401 561.69C366.491 549.8 139.271 441.58 139.271 303.8V32.5004L150.792 30.8604C232.042 19.2804 315.202 13.4004 397.992 13.4004C480.782 13.4004 563.941 19.2704 645.191 30.8604L656.711 32.5004V303.8C656.711 441.58 429.501 549.8 403.581 561.69L397.992 564.25L392.401 561.69Z" fill="#FCF3C9"/>
<path d="M397.991 26.81C481.281 26.81 563.181 32.71 643.301 44.13V303.79C643.301 435.51 411.461 543.32 397.991 549.5C384.521 543.32 152.681 435.51 152.681 303.79V44.13C232.801 32.71 314.711 26.81 397.991 26.81ZM397.991 0C314.571 0 230.761 5.91 148.901 17.59L125.871 20.87V303.79C125.871 339.93 139.991 376.74 167.811 413.16C188.841 440.7 217.961 468.32 254.331 495.26C314.451 539.8 375.241 568.56 386.811 573.86L397.991 578.99L409.171 573.86C420.751 568.55 481.541 539.79 541.651 495.26C578.021 468.31 607.131 440.69 628.161 413.16C655.991 376.73 670.101 339.93 670.101 303.79V20.87L647.071 17.59C565.211 5.91 481.401 0 397.981 0H397.991Z" fill="#F7F3E9"/>
<path d="M645.192 30.8604C563.942 19.2804 480.782 13.4004 397.992 13.4004C315.202 13.4004 232.042 19.2704 150.792 30.8604L139.272 32.5004V174.29H152.682V44.1304C232.802 32.7104 314.712 26.8104 397.992 26.8104C481.272 26.8104 563.182 32.7104 643.302 44.1304V168.92H643.592V187.69H643.302V303.79C643.302 310.29 642.742 316.73 641.652 323.1C640.132 332.19 637.562 341.13 634.102 349.91C590.942 459.86 409.852 544.05 397.992 549.5C386.132 544.06 205.042 459.86 161.872 349.91C158.412 341.13 155.842 332.19 154.322 323.1C153.232 316.73 152.672 310.3 152.672 303.79V201.09H139.262V303.79C139.262 310.2 139.762 316.63 140.752 323.1C142.092 331.99 144.372 340.93 147.562 349.91C154.072 368.2 164.402 386.62 178.462 405.03C198.732 431.56 226.932 458.3 262.302 484.51C321.352 528.26 381.032 556.48 392.402 561.69L397.992 564.25L403.582 561.69C414.952 556.47 474.632 528.25 533.672 484.51C569.032 458.3 597.242 431.57 617.522 405.03C631.582 386.62 641.902 368.2 648.412 349.91C651.602 340.93 653.882 331.99 655.222 323.1C656.212 316.64 656.712 310.2 656.712 303.79V32.5004L645.192 30.8604Z" fill="#592DA1"/>
<path d="M782.59 187.69H13.4004V336.51H782.59V187.69Z" fill="#F7F3E9"/>
<path d="M152.68 174.29V201.1H769.19V323.1H26.81V201.1H139.28V174.29H0V349.92H796V174.29H152.68Z" fill="#F7F3E9"/>
<path d="M78.4418 305.62C70.4018 305.62 63.7218 303.92 58.4318 300.51C53.1318 297.11 49.4418 292.49 47.3418 286.7L63.9818 277.02C66.8118 283.76 71.8118 287.13 78.9918 287.13C84.9318 287.13 87.9018 285.44 87.9018 282.06C87.9018 279.83 86.1818 278.04 82.7518 276.67C81.3018 276.07 78.1318 275.06 73.2118 273.64C66.2518 271.62 60.7418 268.76 56.6818 265.1C52.6218 261.44 50.5918 256.34 50.5918 249.82C50.5918 242.78 53.1118 237.1 58.1518 232.74C63.1918 228.38 69.4818 226.21 77.0218 226.21C83.4018 226.21 89.0618 227.7 93.9918 230.67C98.9218 233.65 102.692 237.96 105.302 243.61L88.9918 253.18C86.6018 247.52 82.6518 244.69 77.1418 244.69C74.8218 244.69 73.0618 245.16 71.8618 246.11C70.6718 247.06 70.0618 248.26 70.0618 249.72C70.0618 251.4 70.9418 252.82 72.7118 253.98C74.4818 255.15 77.9418 256.5 83.0718 258.03C86.6918 259.33 89.6518 260.4 91.9318 261.22C94.2218 262.05 96.7018 263.34 99.4018 265.12C102.082 266.89 104.082 269.17 105.392 271.96C106.702 274.75 107.352 278.02 107.352 281.77C107.352 289.24 104.702 295.08 99.4118 299.28C94.1218 303.49 87.1218 305.6 78.4218 305.6L78.4418 305.62Z" fill="#592DA1"/>
<path d="M134.62 285.72H164.1V303.99H115.16V227.85H163.55V246.02H134.62V256.57H160.83V274.52H134.62V285.73V285.72Z" fill="#592DA1"/>
<path d="M196.931 285.17H224.671V303.99H171.721V288.98L198.581 246.67H172.271V227.85H223.811V242.85L196.951 285.16H196.941L196.931 285.17Z" fill="#592DA1"/>
<path d="M275.761 227.86H295.121V304H280.111L253.251 265.71V304H233.791V227.86H248.911L275.771 266.15V227.86H275.761Z" fill="#592DA1"/>
<path d="M353.252 303.99L349.602 293.01H323.692L320.412 303.99H299.342L323.602 227.85H348.102L373.292 303.99H353.252ZM328.692 276.26H344.022L336.302 250.37L328.692 276.26Z" fill="#592DA1"/>
<path d="M455.082 227.86V304H435.722V262.99L417.232 293.56H415.272L396.892 263.1V303.99H377.432V227.85H396.892L416.252 260.37L435.712 227.85H455.072L455.082 227.86Z" fill="#592DA1"/>
<path d="M531.801 294.14C524.081 301.79 514.631 305.62 503.471 305.62C492.311 305.62 482.871 301.8 475.141 294.14C467.421 286.48 463.561 277.09 463.561 265.92C463.561 254.75 467.421 245.34 475.141 237.7C482.861 230.05 492.301 226.22 503.471 226.22C514.641 226.22 524.071 230.04 531.801 237.7C539.521 245.35 543.381 254.75 543.381 265.92C543.381 277.09 539.521 286.5 531.801 294.14ZM488.781 280.76C492.691 284.63 497.591 286.58 503.461 286.58C509.331 286.58 514.221 284.64 518.141 280.76C522.051 276.88 524.011 271.94 524.011 265.92C524.011 259.9 522.051 254.95 518.141 251.08C514.231 247.2 509.331 245.26 503.461 245.26C497.591 245.26 492.701 247.2 488.781 251.08C484.871 254.95 482.911 259.91 482.911 265.92C482.911 271.93 484.871 276.89 488.781 280.76Z" fill="#592DA1"/>
<path d="M566.441 303.99L541.871 227.85H563.181L577.971 280.27L592.881 227.85H614.191L589.621 303.99H566.441Z" fill="#592DA1"/>
<path d="M661.371 303.99L657.721 293.01H631.811L628.531 303.99H607.461L631.721 227.85H656.221L681.411 303.99H661.371ZM663.461 206.1L650.851 221.87H633.671L642.371 206.1H663.471H663.461ZM636.831 276.26H652.171L644.451 250.37L636.841 276.26H636.831Z" fill="#592DA1"/>
<path d="M748.641 303.99H726.881L705.021 269.87V303.99H685.561V227.85H705.021V259.87L725.801 227.85H747.561L723.421 264.84L748.651 304L748.641 303.99Z" fill="#592DA1"/>
<path d="M154.801 174.29H139.281V187.7H154.801V174.29Z" fill="#592DA1"/>
<path d="M656.702 172.94H637.932V187.69H656.702V172.94Z" fill="#592DA1"/>
<path d="M643.301 168.92H152.971V187.69H643.301V168.92Z" fill="#FCF3C9"/>
<path d="M634.23 350C631.53 356.87 628.3 363.64 624.6 370.3C624.52 370.43 624.45 370.57 624.38 370.7C623.98 371.4 623.59 372.1 623.19 372.79C622.77 373.51 622.35 374.23 621.94 374.94C621.87 375.05 621.8 375.16 621.74 375.27C620.75 376.92 619.74 378.56 618.71 380.2C617.15 382.65 615.54 385.09 613.87 387.51C613.31 388.31 612.75 389.12 612.18 389.92C612.12 390.01 612.05 390.1 611.99 390.19C610.91 391.7 609.81 393.21 608.69 394.71C606.32 397.89 603.86 401.03 601.31 404.14C600.81 404.75 600.31 405.35 599.81 405.96C598.29 407.78 596.75 409.59 595.19 411.38C594.6 412.04 594.02 412.71 593.43 413.37C592.74 414.15 592.04 414.93 591.34 415.7C590.14 417.01 588.94 418.32 587.73 419.62C586.13 421.32 584.52 423.01 582.89 424.68C582.19 425.39 581.5 426.1 580.8 426.8C580.07 427.54 579.34 428.27 578.61 428.99C577.88 429.72 577.14 430.45 576.4 431.17C573.44 434.06 570.42 436.91 567.36 439.72C566.59 440.43 565.83 441.13 565.05 441.83C564.28 442.52 563.51 443.22 562.73 443.91C561.84 444.71 560.94 445.51 560.04 446.3C559.52 446.75 559 447.21 558.49 447.66C558.02 448.06 557.55 448.47 557.08 448.88C555.52 450.22 553.96 451.55 552.39 452.87C551.84 453.34 551.29 453.8 550.73 454.26C550 454.88 549.26 455.49 548.52 456.1C547.71 456.76 546.91 457.42 546.11 458.07C545.48 458.58 544.85 459.09 544.22 459.6C544.04 459.75 543.86 459.89 543.69 460.03C543.29 460.35 542.9 460.66 542.51 460.97C542.1 461.31 541.68 461.64 541.26 461.97C534.77 467.13 528.21 472.1 521.64 476.88C520.82 477.48 520 478.07 519.18 478.66C517.37 479.97 515.56 481.25 513.76 482.53C512.17 483.65 510.59 484.75 509 485.85C508.29 486.34 507.59 486.83 506.89 487.31C506.68 487.45 506.47 487.59 506.27 487.73C505.66 488.15 505.05 488.57 504.44 488.98C504.12 489.2 503.81 489.41 503.49 489.62C502.99 489.96 502.5 490.3 502 490.63C501.18 491.18 500.37 491.73 499.56 492.27C499.03 492.62 498.49 492.98 497.96 493.33C497.68 493.52 497.41 493.7 497.14 493.88C496.49 494.31 495.85 494.73 495.21 495.15C494.29 495.75 493.38 496.35 492.47 496.94C492.42 496.98 492.36 497.01 492.31 497.05C491.55 497.54 490.79 498.03 490.04 498.52C489.2 499.06 488.36 499.6 487.52 500.14C487.36 500.25 487.19 500.35 487.03 500.45C486.59 500.73 486.14 501.02 485.7 501.3C484.72 501.92 483.75 502.54 482.78 503.15C481.99 503.65 481.21 504.14 480.43 504.62C479.94 504.93 479.46 505.23 478.99 505.52C478.62 505.75 478.26 505.97 477.9 506.2C477.38 506.52 476.87 506.84 476.35 507.15C476.16 507.27 475.96 507.39 475.77 507.51C475 507.99 474.23 508.46 473.47 508.92C470.4 510.79 467.39 512.6 464.43 514.36C462.21 515.67 460.02 516.96 457.87 518.2C456.7 518.88 455.55 519.54 454.42 520.19C453.97 520.45 453.53 520.7 453.1 520.95C451.86 521.66 450.65 522.35 449.45 523.02C448.76 523.41 448.08 523.8 447.41 524.17C446.73 524.55 446.06 524.93 445.39 525.3C441.39 527.53 437.57 529.62 433.95 531.56C433.34 531.89 432.74 532.21 432.15 532.52C431.56 532.84 430.97 533.15 430.39 533.46C429.81 533.77 429.24 534.07 428.67 534.37C426.96 535.27 425.31 536.14 423.72 536.96C422.66 537.51 421.62 538.05 420.62 538.56C419.97 538.9 419.33 539.22 418.71 539.54C418.16 539.82 417.61 540.1 417.08 540.37C416.8 540.51 416.53 540.64 416.27 540.78C415.8 541.01 415.35 541.24 414.9 541.46C414.09 541.87 413.29 542.27 412.53 542.65C410.36 543.73 408.39 544.7 406.65 545.54C406.31 545.7 405.98 545.86 405.66 546.02C405.48 546.11 405.29 546.2 405.11 546.29C404.82 546.43 404.53 546.56 404.26 546.7C404.12 546.76 403.98 546.82 403.85 546.89C403.28 547.16 402.75 547.41 402.25 547.65C402.24 547.65 402.23 547.65 402.22 547.67C401.66 547.93 401.14 548.18 400.67 548.4C400.44 548.5 400.22 548.61 400.01 548.71C399.18 549.09 398.54 549.39 398.12 549.58C397.7 549.39 397.06 549.09 396.23 548.71C396.02 548.61 395.81 548.51 395.57 548.4C395.1 548.18 394.58 547.93 394.02 547.67C394.02 547.67 394 547.65 393.99 547.65C393.52 547.43 393.01 547.19 392.48 546.94C392.45 546.92 392.42 546.9 392.38 546.89C392.32 546.86 392.26 546.83 392.2 546.8C391.97 546.69 391.74 546.58 391.5 546.47C391.39 546.42 391.29 546.37 391.18 546.31C388.82 545.18 385.96 543.78 382.65 542.12C382.22 541.91 381.78 541.69 381.33 541.46C381.3 541.46 381.27 541.43 381.24 541.42C381.08 541.34 380.91 541.25 380.74 541.16C380.49 541.04 380.23 540.91 379.97 540.78C379.26 540.42 378.53 540.05 377.78 539.67C377.56 539.56 377.34 539.44 377.11 539.33C376.62 539.08 376.13 538.82 375.62 538.56C374.67 538.08 373.7 537.57 372.7 537.06C371.58 536.48 370.43 535.88 369.25 535.26C368.7 534.97 368.14 534.67 367.57 534.37C366.27 533.69 364.94 532.98 363.58 532.25C363.27 532.09 362.96 531.92 362.65 531.75C362.53 531.69 362.41 531.63 362.29 531.56C357.46 528.97 352.27 526.12 346.79 523.02C345.52 522.31 344.23 521.57 342.92 520.83C342.12 520.37 341.32 519.91 340.51 519.44C340.4 519.37 340.28 519.31 340.17 519.24C339.58 518.9 338.98 518.56 338.37 518.2C336.22 516.96 334.03 515.67 331.81 514.36C328.85 512.6 325.83 510.79 322.77 508.92C322.01 508.46 321.24 507.99 320.47 507.51C320.28 507.39 320.08 507.27 319.89 507.15C319.37 506.84 318.86 506.52 318.34 506.2C317.97 505.97 317.61 505.75 317.25 505.52C316.77 505.23 316.29 504.93 315.81 504.62C315.03 504.14 314.25 503.65 313.46 503.15C312.49 502.54 311.51 501.92 310.54 501.3C310.1 501.02 309.65 500.73 309.21 500.45C309.05 500.35 308.88 500.25 308.72 500.14L306.2 498.52C305.45 498.03 304.69 497.54 303.93 497.05C303.88 497.01 303.82 496.98 303.77 496.94C302.86 496.35 301.95 495.75 301.03 495.15C300.39 494.73 299.75 494.31 299.1 493.88C298.83 493.7 298.56 493.52 298.28 493.33C297.75 492.98 297.21 492.62 296.68 492.27C295.86 491.73 295.05 491.18 294.24 490.63C293.74 490.3 293.25 489.96 292.75 489.62C292.43 489.41 292.12 489.2 291.8 488.98C291.19 488.57 290.58 488.15 289.97 487.73C289.77 487.59 289.56 487.45 289.35 487.31C288.65 486.83 287.95 486.34 287.24 485.85C285.65 484.75 284.07 483.65 282.48 482.53C280.67 481.25 278.87 479.97 277.06 478.66C276.24 478.07 275.42 477.48 274.6 476.88C268.03 472.1 261.46 467.13 254.98 461.97C254.56 461.64 254.14 461.31 253.73 460.97C253.34 460.66 252.94 460.35 252.55 460.03C252.38 459.89 252.2 459.75 252.02 459.6C251.39 459.09 250.76 458.58 250.13 458.07C249.33 457.42 248.52 456.76 247.72 456.1C246.98 455.49 246.24 454.88 245.51 454.26L242.93 452.1C241.67 451.03 240.41 449.96 239.16 448.88C238.69 448.47 238.22 448.06 237.75 447.66C237.23 447.21 236.71 446.75 236.2 446.3C230.6 441.39 225.13 436.34 219.84 431.17C219.1 430.45 218.36 429.72 217.63 428.99C216.89 428.27 216.16 427.54 215.44 426.8C214.74 426.1 214.04 425.39 213.35 424.68C211.05 422.33 208.79 419.95 206.58 417.54C205.93 416.84 205.29 416.13 204.65 415.42C202.96 413.56 201.3 411.68 199.67 409.78C199.11 409.14 198.55 408.49 197.99 407.83C193.11 402.07 188.51 396.19 184.25 390.19C183.92 389.73 183.6 389.28 183.28 388.82C178.95 382.64 174.98 376.34 171.43 369.94C171.05 369.25 170.67 368.55 170.3 367.86C170.29 367.84 170.28 367.82 170.27 367.8C169.82 366.96 169.38 366.12 168.95 365.29C168.51 364.45 168.09 363.61 167.67 362.76C167.25 361.92 166.84 361.08 166.44 360.23C165.23 357.69 164.1 355.14 163.04 352.57C162.68 351.72 162.34 350.86 162 350H634.23Z" fill="#291A40"/>
<path d="M352.081 457.211C345.691 462.731 337.471 465.501 327.401 465.501C317.331 465.501 309.111 462.741 302.721 457.211C296.331 451.691 293.141 444.341 293.141 435.201V377.061H315.291V433.101C315.291 440.351 319.331 443.991 327.411 443.991C335.491 443.991 339.531 440.361 339.531 433.101V377.061H361.671V435.201C361.671 444.361 358.481 451.691 352.091 457.211H352.081Z" fill="#FCF3C9"/>
<path d="M431.791 377.05V398.45H410.401V463.65H388.261V398.45H366.871V377.05H431.801H431.791Z" fill="#FCF3C9"/>
<path d="M491.961 418.871C499.211 423.161 502.851 429.641 502.851 438.301C502.851 445.971 500.211 452.111 494.931 456.731C489.651 461.351 482.601 463.661 473.781 463.661H437.291V377.061H471.431C480.091 377.061 487.021 379.271 492.211 383.681C497.411 388.091 500.001 394.101 500.001 401.691C500.001 409.281 497.321 414.681 491.961 418.891V418.861V418.871ZM470.811 396.851H459.431V410.461H470.811C472.791 410.461 474.461 409.861 475.821 408.661C477.191 407.471 477.861 405.791 477.861 403.651C477.861 401.511 477.201 399.941 475.881 398.701C474.571 397.471 472.861 396.851 470.811 396.851ZM473.151 443.861C475.371 443.861 477.181 443.181 478.591 441.821C480.001 440.451 480.701 438.711 480.701 436.561C480.701 434.411 480.001 432.571 478.591 431.241C477.181 429.931 475.371 429.261 473.151 429.261H459.421V443.861H473.151Z" fill="#FCF3C9"/>
<path d="M397.99 178.05C433.16 178.05 461.66 149.54 461.66 114.37C461.66 79.2004 433.15 50.6904 397.99 50.6904C362.83 50.6904 334.32 79.2004 334.32 114.37C334.32 149.54 362.83 178.05 397.99 178.05Z" stroke="#AC96D0" stroke-width="6" stroke-miterlimit="10"/>
<path d="M399.33 50.6904V178.27" stroke="#AC96D0" stroke-width="4" stroke-miterlimit="10"/>
<path d="M463.121 114.48H335.551" stroke="#AC96D0" stroke-width="4" stroke-miterlimit="10"/>
<path d="M444.44 159.59L354.24 69.3799" stroke="#AC96D0" stroke-width="4" stroke-miterlimit="10"/>
<path d="M354.23 159.59L444.43 69.3799" stroke="#AC96D0" stroke-width="4" stroke-miterlimit="10"/>
<path d="M397.99 128.45C405.76 128.45 412.06 122.15 412.06 114.37C412.06 106.59 405.76 100.29 397.99 100.29C390.22 100.29 383.91 106.59 383.91 114.37C383.91 122.15 390.21 128.45 397.99 128.45Z" fill="#FCF3C9" stroke="#AC96D0" stroke-width="4" stroke-miterlimit="10"/>
<path d="M469.411 123.16C474.271 123.16 478.201 119.22 478.201 114.37C478.201 109.52 474.261 105.58 469.411 105.58C464.561 105.58 460.621 109.52 460.621 114.37C460.621 119.22 464.561 123.16 469.411 123.16Z" fill="#FCF3C9" stroke="#AC96D0" stroke-width="4" stroke-miterlimit="10"/>
<path d="M447.962 174.11C452.822 174.11 456.752 170.17 456.752 165.32C456.752 160.47 452.812 156.53 447.962 156.53C443.112 156.53 439.172 160.47 439.172 165.32C439.172 170.17 443.112 174.11 447.962 174.11Z" fill="#FCF3C9" stroke="#AC96D0" stroke-width="4" stroke-miterlimit="10"/>
<path d="M449.302 73.5605C454.162 73.5605 458.092 69.6205 458.092 64.7705C458.092 59.9205 454.152 55.9805 449.302 55.9805C444.452 55.9805 440.512 59.9205 440.512 64.7705C440.512 69.6205 444.452 73.5605 449.302 73.5605Z" fill="#FCF3C9" stroke="#AC96D0" stroke-width="4" stroke-miterlimit="10"/>
<path d="M399.7 50.7704C404.56 50.7704 408.49 46.8304 408.49 41.9804C408.49 37.1304 404.55 33.1904 399.7 33.1904C394.85 33.1904 390.91 37.1304 390.91 41.9804C390.91 46.8304 394.85 50.7704 399.7 50.7704Z" fill="#FCF3C9" stroke="#AC96D0" stroke-width="4" stroke-miterlimit="10"/>
<path d="M348.771 70.8798C353.631 70.8798 357.56 66.9398 357.56 62.0898C357.56 57.2398 353.621 53.2998 348.771 53.2998C343.921 53.2998 339.98 57.2398 339.98 62.0898C339.98 66.9398 343.921 70.8798 348.771 70.8798Z" fill="#FCF3C9" stroke="#AC96D0" stroke-width="4" stroke-miterlimit="10"/>
<path d="M325.981 123.16C330.841 123.16 334.771 119.22 334.771 114.37C334.771 109.52 330.831 105.58 325.981 105.58C321.131 105.58 317.191 109.52 317.191 114.37C317.191 119.22 321.131 123.16 325.981 123.16Z" fill="#FCF3C9" stroke="#AC96D0" stroke-width="4" stroke-miterlimit="10"/>
<path d="M300.33 114.2C300.33 114.2 327.12 132.76 359.3 145.2C391.48 157.63 406.24 160.16 425.03 162.69C456.66 162.97 482.78 158.02 482.78 158.02L482.67 189.99L300.07 189.2L300.32 114.2H300.33Z" fill="#FCF3C9"/>
<path d="M631.44 113.83H631.42L622.57 86.44L610.78 121.05L601.2 92.93L589.4 127.54L579.82 99.42L567.29 136.2L556.97 105.91L544.44 143.41L533.38 111.68L520.85 149.9L509.79 116.73L498.73 149.9L490.62 125.38L479.56 157.11L472.19 135.48L464.82 158.55L458.19 147.01L451.05 158.73L443.77 151.07L434.58 160.45L429.22 153.94L423.28 160.45L418.01 149.57L413 160.64L406.65 146.63L399.12 157.61L394.91 147.24L388.49 160.93L381.42 139.67L375.55 157.7L365.28 126.69L355.74 155.54L344 120.2L333.73 150.49L321.25 113.71L313.91 135.35L305.1 107.94L296.29 135.35L284.55 101.45L275.01 131.02L262.53 94.24L255.19 116.6L245.65 89.91L234.64 123.09L222.16 85.59L211.15 118.77L199.41 83.43L189.14 113L175.93 72.61L164.19 107.95L150.98 69C150.98 112.99 150.39 152.87 151.86 188.21L400.96 188.03L402.15 190.99L643.82 190.39C645.3 158.66 646.03 123.33 646.03 84.39L631.43 113.83H631.44Z" fill="#291A40"/>
<path d="M147.07 106.681C147.07 106.681 187.28 83.8906 240.9 93.2706C294.52 102.651 354.17 169.021 441.3 167.681C528.43 166.341 651.76 123.441 651.76 123.441" stroke="#AC96D0" stroke-width="6" stroke-miterlimit="10"/>
<path d="M183.391 95V184.44" stroke="#AC96D0" stroke-width="4" stroke-miterlimit="10"/>
<path d="M217 91L216.9 184.44" stroke="#AC96D0" stroke-width="4" stroke-miterlimit="10"/>
<path d="M250.41 95V184.44" stroke="#AC96D0" stroke-width="4" stroke-miterlimit="10"/>
<path d="M281.24 108.02V184.44" stroke="#AC96D0" stroke-width="4" stroke-miterlimit="10"/>
<path d="M310.73 125.45V184.44" stroke="#AC96D0" stroke-width="4" stroke-miterlimit="10"/>
<path d="M344.251 142.88V184.44" stroke="#AC96D0" stroke-width="4" stroke-miterlimit="10"/>
<path d="M378.001 157L377.761 184.44" stroke="#AC96D0" stroke-width="4" stroke-miterlimit="10"/>
<path d="M408.591 163.82V184.44" stroke="#AC96D0" stroke-width="4" stroke-miterlimit="10"/>
<path d="M440.761 168.35V184.44" stroke="#AC96D0" stroke-width="4" stroke-miterlimit="10"/>
<path d="M474.271 165.67V184.44" stroke="#AC96D0" stroke-width="4" stroke-miterlimit="10"/>
<path d="M505.11 163.82V184.44" stroke="#AC96D0" stroke-width="4" stroke-miterlimit="10"/>
<path d="M534.601 157.23V184.43" stroke="#AC96D0" stroke-width="4" stroke-miterlimit="10"/>
<path d="M568.111 147.82V184.43" stroke="#AC96D0" stroke-width="4" stroke-miterlimit="10"/>
<path d="M598.941 138.85V184.43" stroke="#AC96D0" stroke-width="4" stroke-miterlimit="10"/>
<path d="M626.971 130.81V184.44" stroke="#AC96D0" stroke-width="4" stroke-miterlimit="10"/>
<path d="M183.391 100.36V189.8" stroke="#AC96D0" stroke-width="4" stroke-miterlimit="10"/>
<path d="M217 96.3604L216.9 189.8" stroke="#AC96D0" stroke-width="4" stroke-miterlimit="10"/>
<path d="M250.41 100.36V189.8" stroke="#AC96D0" stroke-width="4" stroke-miterlimit="10"/>
<path d="M281.24 113.38V189.8" stroke="#AC96D0" stroke-width="4" stroke-miterlimit="10"/>
<path d="M310.73 130.811V189.801" stroke="#AC96D0" stroke-width="4" stroke-miterlimit="10"/>
<path d="M344.251 148.24V189.8" stroke="#AC96D0" stroke-width="4" stroke-miterlimit="10"/>
<path d="M378.001 162.36L377.761 189.8" stroke="#AC96D0" stroke-width="4" stroke-miterlimit="10"/>
<path d="M408.591 169.181V189.801" stroke="#AC96D0" stroke-width="4" stroke-miterlimit="10"/>
<path d="M440.761 173.71V189.8" stroke="#AC96D0" stroke-width="4" stroke-miterlimit="10"/>
<path d="M474.271 171.03V189.8" stroke="#AC96D0" stroke-width="4" stroke-miterlimit="10"/>
<path d="M505.11 169.181V189.801" stroke="#AC96D0" stroke-width="4" stroke-miterlimit="10"/>
<path d="M534.601 162.601V189.801" stroke="#AC96D0" stroke-width="4" stroke-miterlimit="10"/>
<path d="M568.111 153.19V189.8" stroke="#AC96D0" stroke-width="4" stroke-miterlimit="10"/>
<path d="M598.941 144.221V189.801" stroke="#AC96D0" stroke-width="4" stroke-miterlimit="10"/>
<path d="M626.971 136.17V189.8" stroke="#AC96D0" stroke-width="4" stroke-miterlimit="10"/>
<path d="M647.291 165.92V170.14L648.931 169.94V164.58L647.291 165.92Z" fill="#AC96D0"/>
<path d="M152.631 66.29H144.271V189.2H152.631V66.29Z" fill="#592DA1"/>
<path d="M662.531 196.05V187.69L117.731 187.69V196.05L662.531 196.05Z" fill="#8261B8"/>
<path d="M652.36 78H644V199.34H652.36V78Z" fill="#592DA1"/>
<path d="M769.19 201.1V323.1H26.8104V201.1H769.19ZM782.59 187.69H13.4004V336.51H782.59V187.69Z" fill="#592DA1"/>
</svg>
