<svg width="1024" height="1024" viewBox="0 0 1024 1024" fill="none" xmlns="http://www.w3.org/2000/svg">
<g filter="url(#filter0_d_339_28)">
<path d="M512 783.366C445.658 752.146 397.268 724.048 362.146 695.951C325.463 666.292 301.268 634.292 284.878 596.048C252.878 520.341 251.317 416.536 251.317 261.219C338.732 245.609 423.024 237.805 508.097 237.805C593.171 237.805 680.585 245.609 773.463 261.219C773.463 416.536 772.683 521.122 739.902 596.048C723.512 634.292 698.536 666.292 662.634 695.951C626.732 724.048 579.122 752.146 512 783.366Z" fill="#4D1514"/>
<path d="M507.317 237.025C423.024 237.025 338.732 244.829 251.317 260.439C251.317 322.098 251.317 375.171 253.658 422H265.366H770.341C772.683 375.171 772.683 322.098 772.683 260.439C679.805 244.829 593.171 237.025 507.317 237.025Z" fill="#EAF1F1"/>
<path d="M374.635 672.537C366.83 664.732 362.927 653.805 362.927 639.756V588.244H394.147V638.195C394.147 645.22 395.708 649.902 398.049 653.024C400.391 656.146 404.293 657.707 408.976 657.707C413.659 657.707 416.781 656.146 419.903 653.024C422.244 649.902 423.805 645.22 423.805 638.195V588.244H455.025V639.756C455.025 653.805 451.122 664.732 443.317 672.537C435.513 680.341 424.586 684.244 409.757 684.244C394.147 684.244 383.22 680.341 374.635 672.537Z" fill="#EAF1F1"/>
<path d="M496.391 613.22H469.074V589.025H554.928V613.22H527.611V681.903H496.391V613.22Z" fill="#EAF1F1"/>
<path d="M656.39 642.098C659.512 646 661.073 650.683 661.073 656.147C661.073 663.952 657.951 670.976 650.927 674.878C643.903 679.561 634.537 681.903 622.049 681.903H569.756V589.025H619.708C632.195 589.025 641.561 591.366 647.805 596.049C654.049 600.732 657.171 606.195 657.171 614C657.171 618.683 656.39 622.586 654.049 625.708C651.708 628.83 648.586 631.952 644.683 634.293C649.366 635.073 654.049 638.195 656.39 642.098ZM600.195 610.878V624.927H615.025C622.049 624.927 625.171 622.586 625.171 617.903C625.171 613.22 622.049 610.878 615.025 610.878H600.195ZM629.854 652.244C629.854 647.561 626.732 645.22 619.708 645.22H600.976V660.049H619.708C625.951 660.049 629.854 657.708 629.854 652.244Z" fill="#EAF1F1"/>
<path d="M718.049 353.317L683.708 329.903L661.074 326L637.659 308.83L618.147 307.269L599.415 295.561L576.001 286.976L564.293 276.83L543.22 266.683L522.927 251.854L466.732 290.098L448.781 307.269H430.049L412.098 321.317L393.366 328.342L362.147 345.513L266.147 422H761.757L718.049 353.317Z" fill="#E25525"/>
<path d="M520.585 264.341L469.853 298.682L452.682 315.073H432.39L404.292 336.926L434.731 322.878L455.804 324.439L476.877 306.487L505.755 286.195L502.633 307.268L517.463 284.634L520.585 264.341Z" fill="#F3A548"/>
<path d="M762.536 338.488L753.171 308.829L740.683 346.293L730.537 315.854L718.049 353.317L707.902 322.878L694.634 362.683L683.707 329.902L670.439 370.488L658.732 336.146L645.463 377.512L633.756 341.61L622.049 377.512L613.463 350.976L601.756 385.317L593.951 361.902L586.146 386.878L579.122 374.39L571.317 389.22L565.073 382.195L556.488 391.561L550.244 386.878L527.61 395.463L492.488 400.146H451.902L519.805 422H767.219H770.341C771.902 387.659 772.683 349.415 772.683 307.268L762.536 338.488Z" fill="#802418"/>
<path d="M553.366 422L536.195 416.537L527.61 395.464L521.366 409.513L511.219 378.293L504.975 396.244L496.39 369.708L490.146 389.22L479.219 355.659L469.073 386.879L456.585 348.635L445.658 381.415L432.39 341.61L424.585 365.025L415.219 335.366L405.853 365.025L393.366 328.342L383.219 360.342L369.951 320.537L362.146 344.732L352 315.854L340.293 351.757L327.024 311.171L315.317 347.074L302.829 308.83L291.902 340.83L277.853 297.122L265.366 335.366L251.317 293.22C251.317 340.83 252.097 383.757 253.658 422H323.902H553.366V422Z" fill="#4D1514"/>
<path d="M507.318 237.024C592.391 237.024 679.806 244.829 772.684 260.439C772.684 415.756 771.904 520.341 739.123 595.268C722.733 633.512 697.757 665.512 661.855 695.171C626.733 724.049 579.123 752.146 512.001 783.366C445.66 752.146 397.269 724.049 362.147 695.951C325.465 666.293 301.269 634.293 284.879 596.049C252.879 520.341 251.318 416.536 251.318 261.219C338.733 244.829 423.026 237.024 507.318 237.024ZM507.318 213.61C419.904 213.61 332.489 221.414 242.733 237.805L228.684 240.146V254.975C228.684 420.439 230.245 525.805 264.587 604.634C282.538 646.78 309.074 681.122 348.879 713.122C386.343 743.561 436.294 772.439 505.757 805.219L512.782 808.341L519.806 805.219C589.269 773.219 639.221 743.561 676.684 713.122C716.489 681.122 743.026 646 760.977 604.634C794.538 525.805 796.879 420.439 796.879 255.756V240.146L781.269 237.805C685.269 221.414 595.513 213.61 507.318 213.61Z" fill="#E25525"/>
<path d="M956.879 430.585H66.3423V542.976H956.879V430.585Z" fill="#EAF1F1"/>
<path d="M141.268 483.658C137.366 482.097 131.903 480.536 125.659 479.756C120.976 478.975 117.854 478.195 115.512 477.414C113.171 476.634 112.39 475.073 112.39 473.512C112.39 470.39 115.512 468.829 122.537 468.829C129.561 468.829 136.585 471.171 144.39 475.073L152.195 455.561C148.293 453.219 143.61 451.658 138.146 450.097C132.683 449.317 127.22 448.536 122.537 448.536C114.732 448.536 107.707 449.317 102.244 451.658C96.7806 454 92.8782 457.122 89.7562 461.024C88.1953 464.927 86.6343 469.61 86.6343 474.293C86.6343 479.756 88.1953 484.439 91.3172 487.561C94.4392 490.683 97.5611 493.024 102.244 494.585C106.146 496.146 111.61 497.707 117.854 498.488C122.537 499.268 125.659 500.049 128 500.829C130.342 501.61 131.122 503.171 131.122 504.732C131.122 506.292 130.342 507.073 128.781 507.853C127.22 508.634 124.878 508.634 120.976 508.634C116.293 508.634 112.39 507.853 107.707 506.292C103.025 504.732 99.1221 503.171 95.2196 500.829L86.6343 520.341C90.5367 522.683 96.0001 525.024 102.244 526.585C108.488 528.146 114.732 528.927 120.976 528.927C128.781 528.927 135.805 527.366 141.268 525.024C146.732 522.683 150.634 519.561 153.756 515.658C156.878 511.756 157.659 507.073 157.659 502.39C157.659 496.927 156.098 492.244 152.976 489.122C149.073 486.78 145.171 484.439 141.268 483.658Z" fill="#4D1514"/>
<path d="M191.22 498.488H224.781V478.976H191.22V469.61H229.464V450.098H164.684V528.927H231.025V508.634H191.22V498.488Z" fill="#4D1514"/>
<path d="M309.073 466.488V450.098H239.61V470.39H274.732L238.829 512.537V528.927H311.414V507.854H273.171L309.073 466.488Z" fill="#4D1514"/>
<path d="M372.293 486L341.854 450.098H320V528.927H345.756V493.024L376.195 528.927H398.049V450.098H372.293V486Z" fill="#4D1514"/>
<path d="M436.293 450.098L401.951 528.927H429.268L434.732 514.878H464.39L469.854 528.927H497.171L462.829 450.098H436.293ZM441.756 496.146L449.561 476.634L457.366 496.146H441.756Z" fill="#4D1514"/>
<path d="M574.439 450.098L548.683 492.244L522.927 450.098H501.073V528.927H525.268V493.805L542.439 521.903H554.146L571.317 493.024L572.098 528.927H596.293V450.098H574.439Z" fill="#4D1514"/>
<path d="M672.78 453.22C665.756 449.317 658.732 447.756 650.146 447.756C641.561 447.756 633.756 449.317 627.512 453.22C620.488 457.122 615.805 461.805 611.902 468.049C608 474.293 606.439 481.317 606.439 489.122C606.439 496.927 608 503.951 611.902 510.195C615.805 516.439 621.268 521.122 627.512 525.025C634.537 528.927 641.561 530.488 650.146 530.488C658.732 530.488 666.537 528.927 672.78 525.025C679.805 521.122 684.488 516.439 688.39 510.195C692.293 503.951 693.854 496.927 693.854 489.122C693.854 481.317 692.293 474.293 688.39 468.049C684.488 461.805 679.024 457.122 672.78 453.22ZM664.976 500.049C663.415 503.171 661.073 505.512 658.732 507.073C656.39 508.634 653.268 509.415 650.146 509.415C647.024 509.415 643.902 508.634 640.78 507.073C638.439 505.512 636.097 503.171 634.537 500.049C632.976 496.927 632.195 493.805 632.195 489.903C632.195 486 632.976 482.098 634.537 479.756C636.097 476.634 638.439 474.293 640.78 472.732C643.122 471.171 646.244 470.391 650.146 470.391C654.049 470.391 656.39 471.171 658.732 472.732C661.073 474.293 663.415 476.634 664.976 479.756C666.537 482.878 667.317 486 667.317 489.903C667.317 493.025 666.537 496.927 664.976 500.049Z" fill="#4D1514"/>
<path d="M757.074 450.098L737.562 496.146L718.83 450.098H690.732L723.513 528.927H750.049L783.611 450.098H757.074Z" fill="#4D1514"/>
<path d="M796.878 450.098L762.536 528.927H789.853L795.317 514.878H824.975L830.439 528.927H857.756L823.414 450.098H796.878ZM802.341 496.146L810.146 476.634L817.951 496.146H802.341Z" fill="#4D1514"/>
<path d="M888.195 509.415L893.658 502.39L913.951 528.927H944.39L911.609 484.439L942.829 450.098H913.951L888.195 478.195V450.098H861.658V528.927H888.195V509.415Z" fill="#4D1514"/>
<path d="M814.829 443.073L831.219 430.585H808.585L798.439 443.073H814.829Z" fill="#4D1514"/>
<path d="M47.6094 561.707H976.39V411.854H47.6094V561.707ZM957.658 542.976H66.3411V430.585H808.585H830.439H956.878V542.976H957.658Z" fill="#4D1514"/>
<path d="M507.317 213.61C595.512 213.61 685.268 221.415 781.268 237.805L796.098 240.146V254.976C796.098 314.293 796.098 365.805 793.756 411.854H976.39V561.707H775.024C771.122 576.537 766.439 590.585 760.195 603.854C742.244 646 715.707 680.341 675.902 713.122C638.439 743.561 588.488 772.439 519.024 805.22L512 808.341L504.976 805.22C435.512 773.22 385.561 743.561 348.098 713.122C308.293 680.341 281.756 646 263.805 603.854C258.341 590.585 253.659 576.537 248.976 561.707H47.6098V411.854H230.244C228.683 366.585 227.902 314.293 227.902 254.976V240.146L242.732 237.805C332.488 221.415 419.902 213.61 507.317 213.61ZM507.317 198C418.341 198 330.927 205.805 239.61 222.195L225.561 224.537L212.293 226.878V240.146V254.976C212.293 302.585 212.293 351.756 213.854 396.244H47.6098H32V411.854V561.707V577.317H47.6098H237.268C241.171 589.024 245.073 599.951 248.976 610.098C267.707 654.585 295.805 691.268 337.951 724.829C376.195 756.049 426.927 785.707 497.951 819.268L504.976 822.39L512 825.512L519.024 822.39L526.049 819.268C597.073 786.488 647.805 756.829 686.049 724.829C727.415 691.268 755.512 654.585 775.024 610.098C779.707 599.951 783.61 589.024 786.732 577.317H976.39H992V561.707V411.854V396.244H976.39H810.146C811.707 352.537 811.707 302.585 811.707 254.976V240.146V226.878L798.439 224.537L783.61 222.195C686.829 205.805 597.073 198 507.317 198Z" fill="white"/>
</g>
<defs>
<filter id="filter0_d_339_28" x="2.47335" y="168.473" width="1019.05" height="686.566" filterUnits="userSpaceOnUse" color-interpolation-filters="sRGB">
<feFlood flood-opacity="0" result="BackgroundImageFix"/>
<feColorMatrix in="SourceAlpha" type="matrix" values="0 0 0 0 0 0 0 0 0 0 0 0 0 0 0 0 0 0 127 0" result="hardAlpha"/>
<feOffset/>
<feGaussianBlur stdDeviation="14.7633"/>
<feComposite in2="hardAlpha" operator="out"/>
<feColorMatrix type="matrix" values="0 0 0 0 0.0941176 0 0 0 0 0.121569 0 0 0 0 0.192157 0 0 0 0.5 0"/>
<feBlend mode="normal" in2="BackgroundImageFix" result="effect1_dropShadow_339_28"/>
<feBlend mode="normal" in="SourceGraphic" in2="effect1_dropShadow_339_28" result="shape"/>
</filter>
</defs>
</svg>
