<svg width="2211" height="1608" viewBox="0 0 2211 1608" fill="none" xmlns="http://www.w3.org/2000/svg">
<g clip-path="url(#clip0_88_5)">
<path d="M1786.87 122.569V843.701C1786.87 1209.52 1142.9 1508.91 1105.49 1526.07C1068.06 1508.91 424.104 1209.52 424.104 843.701V122.569C646.652 90.8469 874.152 74.4655 1105.49 74.4655C1336.82 74.4655 1564.32 90.8469 1786.87 122.569Z" fill="white"/>
<path d="M1121.01 1586.06C1049.05 1553.05 417.921 1252.5 417.921 869.85V116.419L449.9 111.859C675.569 79.6899 906.588 63.3793 1136.54 63.3793C1366.49 63.3793 1597.51 79.6899 1823.18 111.859L1855.16 116.419V869.85C1855.16 1252.48 1224.03 1553.05 1152.07 1586.06L1136.54 1593.18L1121.01 1586.06Z" fill="#222B45"/>
<path d="M1105.49 74.4655C1336.82 74.4655 1564.32 90.8469 1786.87 122.569V843.701C1786.87 1209.52 1142.9 1508.91 1105.49 1526.07C1068.06 1508.91 424.104 1209.52 424.104 843.701V122.569C646.652 90.8469 874.151 74.4655 1105.49 74.4655ZM1105.49 0C873.781 0 640.997 16.4359 413.595 48.8501L349.637 57.9697V843.706C349.637 944.081 388.834 1046.28 466.135 1147.45C524.564 1223.92 605.411 1300.64 706.437 1375.47C873.427 1499.17 1042.29 1579.01 1074.44 1593.76L1105.49 1608.01L1136.53 1593.76C1168.69 1579.02 1337.55 1499.18 1504.54 1375.47C1605.56 1300.64 1686.41 1223.92 1744.84 1147.45C1822.14 1046.28 1861.34 944.086 1861.34 843.706V57.9697L1797.38 48.8501C1569.98 16.4359 1337.19 0 1105.49 0Z" fill="#FBFFE6"/>
<path d="M424.099 843.701V558.499H386.862V843.701C386.862 861.498 388.241 879.373 390.997 897.318H428.675C425.662 879.634 424.099 861.76 424.099 843.701ZM1792.12 85.7097C1566.44 53.5406 1335.44 37.2355 1105.48 37.2355C875.524 37.2355 644.522 53.5406 418.847 85.7097L386.862 90.2531V484.034H424.099V122.575C646.646 90.8524 874.146 74.4655 1105.48 74.4655C1336.82 74.4655 1564.32 90.8524 1786.87 122.575V469.14H1787.69V521.264H1786.87V843.701C1786.87 861.76 1785.3 879.634 1782.29 897.318H1819.96C1822.72 879.373 1824.1 861.498 1824.1 843.701V90.2531L1792.12 85.7097ZM1781.94 971.783L1777.89 995.252L1750.7 996.543C1614.41 1289.7 1137.54 1511.37 1105.48 1526.07C1073.66 1511.48 603.619 1292.98 463.357 1003.07L445.874 1002.88L435.932 971.783H409.912C428.005 1022.57 456.677 1073.73 495.734 1124.85C552.032 1198.54 630.373 1272.78 728.599 1345.56C892.614 1467.06 1058.38 1545.43 1089.95 1559.92L1105.48 1567.03L1121.01 1559.92C1152.58 1545.43 1318.35 1467.06 1482.36 1345.56C1580.59 1272.78 1658.93 1198.54 1715.27 1124.85C1754.32 1073.73 1783 1022.57 1801.05 971.783H1781.94ZM424.099 843.701V558.499H386.862V843.701C386.862 861.498 388.241 879.373 390.997 897.318H428.675C425.662 879.634 424.099 861.76 424.099 843.701Z" fill="#C2D379"/>
<path d="M2173.75 521.264H37.2148V934.553H2173.75V521.264Z" fill="#FBFFE6"/>
<path d="M390.997 897.317H74.4676V558.499H386.862V484.034H0V971.783H409.912C401.049 946.838 394.718 922.007 390.997 897.317ZM424.099 484.034V558.499H2136.53V897.317H1819.96C1816.24 922.007 1809.91 946.838 1801.05 971.783H2211V484.034H424.099ZM449.639 971.783H1761.32C1770.93 947.399 1778.08 922.562 1782.29 897.317H428.675C432.886 922.562 440.034 947.399 449.639 971.783Z" fill="#FBFFE6"/>
<path d="M1781.94 971.783L1777.89 995.252L1750.7 996.543C1754.51 988.344 1758.06 980.091 1761.32 971.783H1781.94Z" fill="#C2D379"/>
<path d="M463.356 1003.07L445.874 1002.88L435.932 971.783H449.639C453.768 982.297 458.35 992.73 463.356 1003.07Z" fill="#C2D379"/>
<path d="M1791.51 916.259L1781.94 971.783H1761.32C1758.06 980.091 1754.51 988.344 1750.7 996.543L1399.8 1013.23L463.356 1003.07C458.35 992.73 453.768 982.297 449.638 971.783H435.931L420.269 922.797L1791.51 916.259Z" fill="#222B45"/>
<path d="M1819.96 897.318C1816.24 922.007 1809.91 946.838 1801.05 971.783H1761.32C1770.93 947.399 1778.08 922.562 1782.29 897.318H1819.96Z" fill="#C2D379"/>
<path d="M449.638 971.783H409.912C401.048 946.838 394.718 922.007 390.997 897.318H428.675C432.886 922.562 440.034 947.399 449.638 971.783Z" fill="#C2D379"/>
<path d="M2136.52 558.494V897.312H74.4514V558.494H2136.52ZM2173.76 521.258H37.2148V934.547H2173.75V521.258H2173.76Z" fill="#222B45"/>
<path d="M217.901 834.886C195.548 834.886 177.02 830.157 162.321 820.689C147.617 811.226 137.348 798.441 131.508 782.326L177.723 755.441C185.578 774.171 199.471 783.536 219.41 783.536C235.923 783.536 244.182 778.845 244.182 769.464C244.182 763.275 239.42 758.285 229.897 754.493C225.882 752.832 217.051 750.026 203.399 746.082C184.064 740.449 168.761 732.539 157.483 722.368C146.201 712.202 140.568 698.055 140.568 679.93C140.568 660.4 147.563 644.59 161.564 632.507C175.56 620.424 193.026 614.382 213.973 614.382C231.69 614.382 247.401 618.512 261.097 626.765C274.794 635.024 285.264 647.004 292.516 662.71L247.205 689.295C240.559 673.589 229.581 665.733 214.278 665.733C207.828 665.733 202.952 667.051 199.629 669.683C196.305 672.314 194.644 675.653 194.644 679.701C194.644 684.359 197.101 688.309 202.031 691.55C206.951 694.791 216.55 698.54 230.823 702.789C240.88 706.412 249.09 709.37 255.448 711.658C261.806 713.951 268.714 717.558 276.177 722.482C283.636 727.407 289.181 733.732 292.81 741.468C296.438 749.204 298.258 758.296 298.258 768.739C298.258 789.484 290.903 805.697 276.205 817.372C261.501 829.052 242.068 834.892 217.901 834.892V834.886Z" fill="#222B45"/>
<path d="M373.951 779.608H455.811V830.354H319.875V618.904H454.297V669.35H373.946V698.654H446.746V748.495H373.946V779.608H373.951Z" fill="#222B45"/>
<path d="M547.01 778.099H624.038V830.354H476.955V788.667L551.57 671.159H478.47V618.904H621.636V660.574L547.015 778.093L547.01 778.099Z" fill="#222B45"/>
<path d="M765.983 618.91H819.749V830.359H778.061L703.447 724.03V830.359H649.376V618.91H691.369L765.983 725.239V618.91Z" fill="#222B45"/>
<path d="M981.182 830.359L971.048 799.852H899.087L889.962 830.359H831.435L898.814 618.91H966.892L1036.84 830.359H981.176H981.182ZM912.995 753.333H955.587L934.139 681.439L912.99 753.333H912.995Z" fill="#222B45"/>
<path d="M1264.07 618.91V830.359H1210.3V716.479L1158.95 801.361H1153.51L1102.46 716.779V830.359H1048.39V618.91H1102.46L1156.23 709.228L1210.3 618.91H1264.07Z" fill="#222B45"/>
<path d="M1477.16 803.022C1455.71 824.274 1429.48 834.892 1398.47 834.892C1367.45 834.892 1341.22 824.274 1319.78 803.022C1298.33 781.776 1287.61 755.648 1287.61 724.634C1287.61 693.62 1298.33 667.498 1319.78 646.246C1341.22 625 1367.45 614.377 1398.47 614.377C1429.48 614.377 1455.71 625 1477.16 646.246C1498.61 667.498 1509.33 693.626 1509.33 724.634C1509.33 755.643 1498.61 781.776 1477.16 803.022ZM1357.69 765.868C1368.56 776.644 1382.15 782.032 1398.47 782.032C1414.78 782.032 1428.37 776.644 1439.25 765.868C1450.12 755.098 1455.56 741.353 1455.56 724.634C1455.56 707.915 1450.12 694.181 1439.25 683.406C1428.37 672.635 1414.78 667.242 1398.47 667.242C1382.15 667.242 1368.56 672.63 1357.69 683.406C1346.81 694.181 1341.38 707.926 1341.38 724.634C1341.38 741.343 1346.81 755.098 1357.69 765.868Z" fill="#222B45"/>
<path d="M1573.37 830.359L1505.1 618.91H1564.31L1605.39 764.506L1646.78 618.91H1705.98L1637.72 830.359H1573.37H1573.37Z" fill="#222B45"/>
<path d="M1837.06 830.359L1826.92 799.852H1754.96L1745.84 830.359H1687.31L1754.69 618.91H1822.77L1892.72 830.359H1837.05H1837.06ZM1842.88 558.494L1807.84 602.294H1760.11L1784.28 558.494H1842.88ZM1768.87 753.328H1811.46L1790.01 681.433L1768.86 753.328H1768.87Z" fill="#222B45"/>
<path d="M2079.47 830.359H2019.05L1958.33 735.584V830.359H1904.26V618.91H1958.33V707.833L2016.02 618.91H2076.44L2009.38 721.616L2079.47 830.354V830.359Z" fill="#222B45"/>
<path d="M962.053 1240.27C942.086 1257.53 916.394 1266.16 884.965 1266.16C853.536 1266.16 827.838 1257.53 807.877 1240.27C787.91 1223.02 777.93 1200.09 777.93 1171.49V989.886H847.097V1164.92C847.097 1187.6 859.714 1198.93 884.965 1198.93C910.216 1198.93 922.833 1187.6 922.833 1164.92V989.886H992V1171.49C992 1200.08 982.014 1223.01 962.053 1240.27Z" fill="#FBFFE6"/>
<path d="M1211.05 989.891V1056.74H1144.2V1260.37H1075.03V1056.74H1008.19V989.891H1211.05H1211.05Z" fill="#FBFFE6"/>
<path d="M1399.04 1120.49C1421.7 1133.89 1433.04 1154.1 1433.04 1181.15C1433.04 1205.11 1424.79 1224.3 1408.31 1238.72C1391.82 1253.15 1369.8 1260.36 1342.24 1260.36H1228.24V989.886H1334.89C1361.94 989.886 1383.58 996.783 1399.8 1010.55C1416.03 1024.34 1424.15 1043.08 1424.15 1066.78C1424.15 1090.47 1415.78 1107.35 1399.04 1120.49V1120.49ZM1332.96 1051.71H1297.42V1094.22H1332.96C1339.15 1094.22 1344.36 1092.35 1348.61 1088.62C1352.86 1084.88 1354.98 1079.67 1354.98 1072.97C1354.98 1066.27 1352.92 1061.38 1348.8 1057.51C1344.68 1053.65 1339.39 1051.72 1332.96 1051.72L1332.96 1051.71ZM1340.31 1198.55C1347.26 1198.55 1352.93 1196.42 1357.31 1192.17C1361.69 1187.92 1363.88 1182.45 1363.88 1175.75C1363.88 1169.05 1361.69 1163.26 1357.31 1159.14C1352.93 1155.02 1347.26 1152.95 1340.31 1152.95H1297.42V1198.55H1340.31V1198.55Z" fill="#FBFFE6"/>
<path d="M428.637 484.028H386.862V521.264H428.637V484.028Z" fill="#C2D379"/>
<path d="M1824.1 480.307H1771.97V521.264H1824.1V480.307Z" fill="#C2D379"/>
<path d="M1786.87 469.134H424.916V521.258H1786.87V469.134Z" fill="#222B45"/>
<path d="M1786.87 469.134V480.863L1791.41 480.308V469.134V465.413L1786.87 469.134Z" fill="#C2D379"/>
<path d="M424.099 484.028V521.885L429.53 521.841L427.351 482.617L424.099 484.028Z" fill="#222B45"/>
<path d="M1786.85 519.624V524.424L1770.81 522.931L1770.26 516.938L1786.85 519.624Z" fill="#222B45"/>
<path d="M1159.67 236.809L1162.97 233.513L1173.67 222.808L1241.21 290.344L1230.5 301.049L1198.38 268.929C1197.47 268.019 1196 268.019 1195.09 268.929C1194.18 269.839 1194.18 271.315 1195.09 272.225L1227.74 304.476C1221.83 310.386 1214.59 318.013 1208.68 312.102V312.173L1203.74 317.114C1197.83 323.025 1188.24 323.025 1182.32 317.114L1166.74 301.534C1165.83 300.624 1164.36 300.624 1163.45 301.534L1162.62 302.356C1161.71 303.266 1161.71 304.742 1162.62 305.652L1179.1 322.126L1068.11 414.575L998.729 472.376C1001.5 478.019 1000.53 485.036 995.836 489.727C990.464 495.098 982.047 495.589 976.125 491.203C975.531 490.756 974.965 490.271 974.42 489.727C973.875 489.182 973.39 488.615 972.944 488.022C968.553 482.1 969.048 473.683 974.42 468.312C979.116 463.616 986.133 462.646 991.772 465.419L1049.57 396.036L1142.03 285.054L1146.18 280.898C1141.01 274.949 1141.24 265.938 1146.9 260.278L1151.84 255.337L1152.01 255.44C1146.1 249.529 1153.73 242.829 1159.64 236.918L1159.67 236.803V236.809Z" fill="#FBFFE6"/>
<path d="M1051.33 236.809L1048.03 233.513L1037.33 222.808L969.789 290.344L980.494 301.049L1012.62 268.929C1013.52 268.019 1015 268.019 1015.91 268.929C1016.82 269.839 1016.82 271.315 1015.91 272.225L983.256 304.476C989.167 310.386 996.413 318.013 1002.32 312.102V312.173L1007.26 317.114C1013.17 323.025 1022.76 323.025 1028.68 317.114L1044.26 301.534C1045.17 300.624 1046.64 300.624 1047.55 301.534L1048.38 302.356C1049.29 303.266 1049.29 304.742 1048.38 305.652L1031.9 322.126L1142.89 414.575L1212.27 472.376C1209.5 478.019 1210.47 485.036 1215.16 489.727C1220.54 495.098 1228.95 495.589 1234.87 491.203C1235.47 490.756 1236.03 490.271 1236.58 489.727C1237.12 489.182 1237.61 488.615 1238.06 488.022C1242.45 482.1 1241.95 473.683 1236.58 468.312C1231.88 463.616 1224.87 462.646 1219.23 465.419L1161.43 396.036L1068.97 285.054L1064.82 280.898C1069.99 274.949 1069.76 265.938 1064.1 260.278L1059.16 255.337L1058.99 255.44C1064.9 249.529 1057.27 242.829 1051.36 236.918L1051.33 236.803V236.809Z" fill="#FBFFE6"/>
<path d="M979.258 243.733C979.258 243.733 983.137 232.097 968.4 222.792C953.663 213.482 941.253 202.624 954.437 181.683C961.416 166.947 952.111 165.394 952.111 165.394C952.111 165.394 969.174 160.742 971.505 183.236C973.832 194.093 983.916 184.788 980.816 178.583C977.711 172.378 957.542 152.211 981.59 126.611C982.363 139.801 988.568 159.968 991.674 153.758C994.779 147.547 992.447 144.447 992.447 144.447C992.447 144.447 1013.39 155.305 1011.84 180.904C1012.62 184.009 1018.82 181.677 1017.27 175.472C1019.6 184.783 1021.15 200.292 1002.54 206.497C983.921 212.702 988.574 217.355 991.679 217.355C994.784 217.355 1004.09 217.355 1007.19 212.702C1002.54 225.112 996.337 238.302 979.269 243.728L979.258 243.733Z" fill="#9AC2DB"/>
<path d="M1231.74 243.733C1231.74 243.733 1227.86 232.097 1242.6 222.792C1257.34 213.482 1269.75 202.624 1256.56 181.683C1249.58 166.947 1258.89 165.394 1258.89 165.394C1258.89 165.394 1241.83 160.742 1239.49 183.236C1237.17 194.093 1227.08 184.788 1230.18 178.583C1233.29 172.378 1253.46 152.211 1229.41 126.611C1228.64 139.801 1222.43 159.968 1219.33 153.758C1216.22 147.553 1218.55 144.447 1218.55 144.447C1218.55 144.447 1197.61 155.305 1199.16 180.904C1198.38 184.009 1192.18 181.677 1193.73 175.472C1191.4 184.783 1189.85 200.292 1208.46 206.497C1227.08 212.702 1222.43 217.355 1219.32 217.355C1216.21 217.355 1206.91 217.355 1203.8 212.702C1208.46 225.112 1214.66 238.302 1231.73 243.728L1231.74 243.733Z" fill="#9AC2DB"/>
</g>
<defs>
<clipPath id="clip0_88_5">
<rect width="2211" height="1608" fill="white"/>
</clipPath>
</defs>
</svg>
