<svg width="199" height="181" viewBox="0 0 199 181" fill="none" xmlns="http://www.w3.org/2000/svg">
<g filter="url(#filter0_d_2089_760)">
<path d="M186.574 61.5255C186.574 61.5255 186.534 61.4609 186.486 61.3801C170.376 33.6603 134.948 24.2076 107.212 40.1721C107.196 40.1802 107.148 40.2125 107.067 40.2529C107.059 40.2529 107.051 40.2529 107.043 40.261L55.2951 70.2996C49.1306 73.8868 47.03 81.7883 50.6091 87.9527C54.1882 94.1253 62.0978 96.2178 68.2622 92.6468L119.929 62.6486C119.929 62.6486 119.994 62.6163 120.066 62.5678C135.449 53.6725 155.154 58.9079 164.106 74.2665C164.106 74.2907 164.138 74.3311 164.171 74.3877C173.066 89.7867 167.823 109.516 152.424 118.444L100.684 148.482C94.5197 152.07 92.4191 159.971 95.9982 166.135C99.5854 172.3 107.479 174.401 113.651 170.821L165.399 140.783C193.094 124.697 202.547 89.2616 186.583 61.5255H186.574Z" fill="#EE0886"/>
<path d="M143.028 102.261C149.2 98.6822 151.293 90.7727 147.714 84.6082C144.127 78.4357 136.225 76.3431 130.061 79.9222L78.4102 109.904C78.4102 109.904 78.394 109.904 78.3859 109.92C78.3698 109.929 78.3213 109.953 78.2405 110.001C62.8577 118.888 43.1605 113.653 34.2087 98.3025C34.2087 98.2783 34.1764 98.2298 34.1441 98.1813C25.2488 82.7823 30.5003 63.0528 45.8993 54.1253C45.9155 54.1172 45.9317 54.101 45.9478 54.0929L97.6468 24.0786C103.811 20.4995 105.904 12.598 102.325 6.43355C98.7456 0.261019 90.8441 -1.8315 84.6797 1.7476L32.9403 31.7862C5.24465 47.8719 -4.20805 83.3074 11.7646 111.043C11.7646 111.068 11.7969 111.108 11.8454 111.189C27.9473 138.909 63.3828 148.361 91.1188 132.397C91.135 132.389 91.1834 132.356 91.2561 132.308C91.2561 132.308 91.2642 132.308 91.2723 132.3L143.028 102.261Z" fill="#EE0886"/>
</g>
<defs>
<filter id="filter0_d_2089_760" x="0" y="0" width="198.34" height="180.567" filterUnits="userSpaceOnUse" color-interpolation-filters="sRGB">
<feFlood flood-opacity="0" result="BackgroundImageFix"/>
<feColorMatrix in="SourceAlpha" type="matrix" values="0 0 0 0 0 0 0 0 0 0 0 0 0 0 0 0 0 0 127 0" result="hardAlpha"/>
<feOffset dy="4"/>
<feGaussianBlur stdDeviation="2"/>
<feComposite in2="hardAlpha" operator="out"/>
<feColorMatrix type="matrix" values="0 0 0 0 0 0 0 0 0 0 0 0 0 0 0 0 0 0 0.25 0"/>
<feBlend mode="normal" in2="BackgroundImageFix" result="effect1_dropShadow_2089_760"/>
<feBlend mode="normal" in="SourceGraphic" in2="effect1_dropShadow_2089_760" result="shape"/>
</filter>
</defs>
</svg>
