<?xml version="1.0" encoding="UTF-8" standalone="no"?>
<!-- Created with Inkscape (http://www.inkscape.org/) -->

<svg
   version="1.1"
   id="svg1"
   width="314.13895"
   height="284.80225"
   viewBox="0 0 314.13895 284.80225"
   xmlns="http://www.w3.org/2000/svg"
   xmlns:svg="http://www.w3.org/2000/svg">
  <defs
     id="defs1">
    <clipPath
       clipPathUnits="userSpaceOnUse"
       id="clipPath2">
      <path
         d="M 0,430.675 H 471.421 V 0 H 0 Z"
         transform="translate(-343.36351,-246.6338)"
         id="path2" />
    </clipPath>
    <clipPath
       clipPathUnits="userSpaceOnUse"
       id="clipPath4">
      <path
         d="M 0,430.675 H 471.421 V 0 H 0 Z"
         transform="translate(-289.4611,-196.2118)"
         id="path4" />
    </clipPath>
  </defs>
  <g
     id="layer-MC0"
     transform="translate(-156.48965,-143.85226)">
    <path
       id="path1"
       d="m 0,0 c -0.015,0.017 -0.047,0.081 -0.109,0.179 -19.935,34.314 -63.786,46.008 -98.119,26.245 -0.019,-0.01 -0.081,-0.051 -0.179,-0.104 -0.005,-0.003 -0.009,-0.006 -0.009,-0.006 -0.011,-0.007 -0.018,-0.009 -0.025,-0.014 l -64.049,-37.176 c -7.63,-4.439 -10.231,-14.217 -5.796,-21.849 4.433,-7.638 14.217,-10.231 21.847,-5.807 l 63.954,37.135 v 0 c 0.02,0.013 0.081,0.04 0.175,0.1 19.043,11.006 43.433,4.529 54.508,-14.476 0.008,-0.035 0.042,-0.081 0.081,-0.154 11.013,-19.056 4.519,-43.478 -14.541,-54.533 l -0.005,-0.003 -64.045,-37.176 c -7.632,-4.437 -10.227,-14.216 -5.798,-21.851 4.439,-7.632 14.212,-10.229 21.848,-5.796 l 64.047,37.183 C 8.063,-78.192 19.768,-34.335 0,0"
       style="fill:#F73997;fill-opacity:1;fill-rule:nonzero;stroke:none"
       transform="matrix(1.3333333,0,0,-1.3333333,457.818,245.38827)"
       clip-path="url(#clipPath2)" />
    <path
       id="path3"
       d="m 0,0 c 7.638,4.435 10.231,14.219 5.8,21.851 -4.441,7.636 -14.216,10.229 -21.849,5.8 L -79.976,-9.463 c -0.011,-0.006 -0.021,-0.01 -0.032,-0.016 -0.021,-0.011 -0.076,-0.045 -0.176,-0.104 -19.042,-10.996 -43.425,-4.523 -54.504,14.478 -0.006,0.034 -0.036,0.087 -0.081,0.154 -11.014,19.06 -4.511,43.484 14.547,54.531 0.019,0.011 0.037,0.025 0.056,0.036 l 63.995,37.151 c 7.627,4.433 10.224,14.212 5.787,21.844 -4.431,7.639 -14.212,10.231 -21.844,5.799 l -64.045,-37.18 c -34.28,-19.912 -45.98,-63.773 -26.211,-98.102 0.007,-0.026 0.045,-0.083 0.103,-0.183 19.933,-34.312 63.788,-46.013 98.124,-26.247 0.019,0.012 0.078,0.046 0.174,0.106 0.008,0.005 0.015,0.01 0.022,0.014 l 0.004,0.002 z"
       style="fill:#F73997;fill-opacity:1;fill-rule:nonzero;stroke:none"
       transform="matrix(1.3333333,0,0,-1.3333333,385.94813,312.6176)"
       clip-path="url(#clipPath4)" />
  </g>
</svg>
