<svg width="464" height="47" viewBox="0 0 464 47" fill="none" xmlns="http://www.w3.org/2000/svg">
<path d="M25.979 0L0.754517 8.52178V0H25.979ZM0.754517 9.88527C0.754517 11.2488 2.79974 12.2714 5.18584 12.2714C6.20846 12.2714 6.8902 11.9305 7.57194 11.9305C8.59456 11.5896 32.1147 3.40871 32.1147 3.40871V37.155C32.1147 37.155 8.59456 45.3359 7.91281 45.6768C7.23107 46.0176 6.20846 46.0176 5.52671 46.0176C3.14062 46.0176 1.09539 44.6541 1.09539 42.6089L0.754517 9.88527Z" fill="#EC751A"/>
<path d="M63.4796 22.498C63.4796 27.9519 61.4344 31.0198 55.9804 31.0198C50.5265 31.0198 48.1404 27.9519 48.1404 22.498V6.47705H51.5491V22.498C51.5491 26.2476 52.5717 28.2928 55.9804 28.2928C59.3891 28.2928 60.4118 26.2476 60.4118 22.498V6.47705H63.8205V22.498H63.4796Z" fill="black"/>
<path d="M77.4532 20.4521C77.4532 18.7477 76.4306 17.3842 74.7262 17.3842C72.681 17.3842 71.6584 18.7477 71.6584 20.4521V31.0191H68.5905V14.6573H71.6584V16.0208C72.3401 15.339 73.3627 14.3164 75.4079 14.3164C78.4758 14.3164 80.8619 16.3616 80.8619 20.1112V30.6782H77.794V20.4521H77.4532Z" fill="black"/>
<path d="M86.6518 11.5895C85.2883 11.5895 84.6066 10.9077 84.6066 9.54425C84.6066 8.18077 85.2883 7.49902 86.6518 7.49902C88.0153 7.49902 88.697 8.18077 88.697 9.54425C88.697 10.9077 88.0153 11.5895 86.6518 11.5895ZM88.3562 14.6573V31.0191H85.2883V14.6573H88.3562Z" fill="black"/>
<path d="M90.7448 14.6562H94.1535L98.244 26.9276L102.334 14.6562H105.743L99.6075 31.0181H96.5396L90.7448 14.6562Z" fill="black"/>
<path d="M109.489 24.2017C109.83 27.2695 111.535 28.2921 113.58 28.2921C115.966 28.2921 117.33 27.6104 118.693 26.9286L119.375 29.9965C118.011 30.6782 116.307 31.0191 113.921 31.0191C109.83 31.0191 106.422 28.633 106.422 22.8382C106.422 17.3842 109.489 14.3164 113.239 14.3164C117.67 14.3164 120.056 17.3842 120.056 22.1564V23.8608H109.489V24.2017ZM116.648 21.8156C116.648 19.0886 115.284 17.3842 112.898 17.3842C111.194 17.3842 109.489 18.4069 109.149 21.8156H116.648Z" fill="black"/>
<path d="M130.966 18.066C130.625 18.066 129.943 17.7251 128.921 17.7251C127.557 17.7251 126.875 18.7477 126.875 20.4521V31.0191H123.807V14.6573H126.875V16.3616C127.216 15.339 128.239 14.3164 129.943 14.3164C130.625 14.3164 131.307 14.6573 131.307 14.6573L130.966 18.066Z" fill="black"/>
<path d="M144.601 31.0181H132.671L140.511 17.3832H133.012V14.6562H145.283L137.784 28.2911H144.942V31.0181H144.601Z" fill="black"/>
<path d="M149.714 11.5895C148.351 11.5895 147.669 10.9077 147.669 9.54425C147.669 8.18077 148.351 7.49902 149.714 7.49902C151.078 7.49902 151.76 8.18077 151.76 9.54425C151.76 10.9077 151.078 11.5895 149.714 11.5895ZM151.078 14.6573V31.0191H148.01V14.6573H151.078Z" fill="black"/>
<path d="M163.691 30.6772C163.009 31.0181 162.328 31.3589 160.964 31.3589C158.919 31.3589 156.874 30.6772 156.874 26.9276V17.3832H154.828V14.6562H156.874V8.52056L159.941 8.17969V14.9971H162.668V17.7241H159.941V27.2685C159.941 28.2911 160.623 28.632 161.305 28.632C161.987 28.632 162.668 28.2911 163.35 28.2911L163.691 30.6772Z" fill="black"/>
<path d="M175.284 29.6546C174.603 30.3363 173.58 31.3589 171.194 31.3589C167.785 31.3589 165.74 29.6546 165.74 26.2459C165.74 22.8372 168.126 20.7919 171.194 20.7919C172.898 20.7919 174.262 21.4737 174.943 22.1554V20.1102C174.943 18.065 173.58 17.3832 171.876 17.3832C169.83 17.3832 168.126 18.065 167.444 18.4058L167.103 15.6789C168.126 15.338 169.83 14.6562 172.216 14.6562C175.966 14.6562 178.011 16.7015 178.011 20.1102V31.0181H174.943V29.6546H175.284ZM175.284 25.5641C175.284 24.2006 173.58 23.5189 172.216 23.5189C170.512 23.5189 169.149 24.2006 169.149 26.2459C169.149 27.9502 170.512 28.632 172.216 28.632C173.921 28.632 175.284 27.6094 175.284 26.2459V25.5641Z" fill="black"/>
<path d="M195.393 31.0198V9.54489H189.258V6.47705H204.597V9.54489H198.461V31.0198H195.393Z" fill="black"/>
<path d="M210.734 31.3608C206.644 31.3608 203.235 28.9747 203.235 23.1799C203.235 17.3851 206.985 14.999 210.734 14.999C214.484 14.999 218.233 17.3851 218.233 23.1799C218.233 28.9747 214.825 31.3608 210.734 31.3608ZM210.734 17.3851C208.348 17.3851 206.644 19.4304 206.644 22.8391C206.644 26.2478 208.348 28.293 210.734 28.293C213.12 28.293 214.825 26.2478 214.825 22.8391C215.166 19.4304 213.461 17.3851 210.734 17.3851Z" fill="black"/>
<path d="M240.382 20.4521C240.382 18.7477 239.359 17.3842 237.655 17.3842C235.609 17.3842 234.587 18.7477 234.587 20.4521V31.0191H231.519V20.4521C231.519 18.7477 230.496 17.3842 228.792 17.3842C226.747 17.3842 225.724 18.7477 225.724 20.4521V31.0191H222.656V14.6573H225.724V16.0208C226.406 15.339 227.429 14.3164 229.474 14.3164C231.519 14.3164 233.223 15.339 233.905 16.7025C234.928 15.339 236.291 14.3164 238.336 14.3164C241.404 14.3164 243.79 16.3616 243.79 20.1112V30.6782H240.722V20.4521H240.382Z" fill="black"/>
<path d="M256.41 29.6547C256.069 30.3365 254.705 31.3591 252.66 31.3591C249.251 31.3591 247.206 29.6547 247.206 26.246C247.206 22.8373 249.592 20.7921 252.66 20.7921C254.364 20.7921 255.728 21.4738 256.41 22.1556V20.1103C256.41 18.0651 255.046 17.3834 253.342 17.3834C251.297 17.3834 249.592 18.0651 248.91 18.406L248.57 15.679C249.592 15.3381 251.297 14.6564 253.683 14.6564C257.432 14.6564 259.477 16.7016 259.477 20.1103V31.0182H256.41V29.6547ZM256.41 25.5643C256.41 24.2008 254.705 23.5191 253.342 23.5191C251.637 23.5191 250.274 24.2008 250.274 26.246C250.274 27.9504 251.637 28.6321 253.342 28.6321C255.046 28.2913 256.41 27.2686 256.41 26.246V25.5643ZM254.364 7.15723H257.773L254.705 12.6112H252.319L254.364 7.15723Z" fill="black"/>
<path d="M268.683 31.3591C265.956 31.3591 264.251 30.6773 263.229 30.3365L263.91 27.2686C265.274 27.9504 266.978 28.2913 268.683 28.2913C270.046 28.2913 271.41 27.9504 271.41 26.246C271.41 24.8825 269.705 24.5417 268.001 23.8599C265.956 23.5191 263.229 22.8373 263.229 19.4286C263.229 16.0199 265.615 14.6564 269.364 14.6564C271.75 14.6564 273.114 15.3381 274.477 15.679L274.137 18.406C272.773 17.7242 271.75 17.3834 269.705 17.3834C268.001 17.3834 266.637 18.0651 266.637 19.4286C266.637 20.4512 268.001 21.133 269.705 21.4738C272.091 22.1556 275.159 22.8373 275.159 26.5869C274.818 29.3139 272.773 31.3591 268.683 31.3591ZM264.251 7.15723H266.978L269.023 10.2251L271.069 7.15723H273.796L270.728 12.6112H267.319L264.251 7.15723Z" fill="black"/>
<path d="M280.608 24.2017C280.949 27.2695 282.654 28.2921 284.699 28.2921C287.085 28.2921 288.448 27.6104 289.812 26.9286L290.494 29.9965C289.13 30.6782 287.426 31.0191 285.04 31.0191C280.949 31.0191 277.541 28.633 277.541 22.8382C277.541 17.3842 280.608 14.3164 284.358 14.3164C288.789 14.3164 291.175 17.3842 291.175 22.1564V23.8608H280.608V24.2017ZM288.108 21.8156C288.108 19.0886 286.744 17.3842 284.358 17.3842C282.654 17.3842 280.949 18.4069 280.608 21.8156H288.108Z" fill="black"/>
<path d="M309.581 31.0198H302.764V6.47705H310.263C314.695 6.47705 317.422 8.86315 317.422 12.9536C317.422 15.6806 316.058 17.3849 314.013 18.4075C316.399 19.4302 317.762 21.4754 317.762 24.2024C317.422 28.2928 314.354 31.0198 309.581 31.0198ZM310.263 9.54489H306.173V16.7032H309.922C312.308 16.7032 314.013 15.3397 314.013 12.9536C314.013 10.5675 312.308 9.54489 310.263 9.54489ZM309.581 19.771H305.832V27.9519H309.581C312.308 27.9519 314.013 26.5885 314.013 23.8615C314.013 21.4754 312.308 19.771 309.581 19.771Z" fill="black"/>
<path d="M330.038 29.6546C329.697 30.3363 328.334 31.3589 326.289 31.3589C322.88 31.3589 320.835 29.6546 320.835 26.2459C320.835 22.8372 323.221 20.7919 326.289 20.7919C327.993 20.7919 329.356 21.4737 330.038 22.1554V20.1102C330.038 18.065 328.675 17.3832 326.97 17.3832C324.925 17.3832 323.221 18.065 322.539 18.4058L322.198 15.6789C323.221 15.338 324.925 14.6562 327.311 14.6562C331.061 14.6562 333.106 16.7015 333.106 20.1102V31.0181H330.038V29.6546ZM330.038 25.5641C330.038 24.2006 328.334 23.5189 326.97 23.5189C325.266 23.5189 323.903 24.2006 323.903 26.2459C323.903 27.9502 325.266 28.632 326.97 28.632C328.675 28.632 330.038 27.6094 330.038 26.2459V25.5641Z" fill="black"/>
<path d="M345.033 30.6772C344.352 31.0181 343.67 31.3589 342.306 31.3589C340.261 31.3589 338.216 30.6772 338.216 26.9276V17.3832H336.171V14.6562H338.216V8.52056L341.284 8.17969V14.9971H344.011V17.7241H341.284V27.2685C341.284 28.2911 341.966 28.632 342.647 28.632C343.329 28.632 344.011 28.2911 344.693 28.2911L345.033 30.6772Z" fill="black"/>
<path d="M349.467 11.5895C348.103 11.5895 347.422 10.9077 347.422 9.54425C347.422 8.18077 348.103 7.49902 349.467 7.49902C350.83 7.49902 351.512 8.18077 351.512 9.54425C351.512 10.9077 350.83 11.5895 349.467 11.5895ZM351.171 14.6573V31.0191H348.103V14.6573H351.171Z" fill="black"/>
<path d="M361.399 14.6562H364.808L368.898 26.9276L372.988 14.6562H376.397L370.602 31.0181H367.534L361.399 14.6562Z" fill="black"/>
<path d="M380.148 24.2017C380.489 27.2695 382.194 28.2921 384.239 28.2921C386.625 28.2921 387.988 27.6104 389.352 26.9286L390.034 29.9965C388.67 30.6782 386.966 31.0191 384.58 31.0191C380.489 31.0191 377.081 28.633 377.081 22.8382C377.081 17.3842 380.148 14.3164 383.898 14.3164C388.329 14.3164 390.715 17.3842 390.715 22.1564V23.8608H380.148V24.2017ZM387.307 21.8156C387.307 19.0886 385.943 17.3842 383.557 17.3842C381.853 17.3842 380.148 18.4069 379.808 21.8156H387.307Z" fill="black"/>
<path d="M414.576 31.0198H400.259L410.485 9.54489H400.941V6.47705H415.257L405.031 27.9519H414.576V31.0198Z" fill="black"/>
<path d="M421.729 6.47656V31.0193H418.661V6.47656H421.729Z" fill="black"/>
<path d="M428.549 7.15723H431.957L428.889 12.6112H426.503L428.549 7.15723ZM429.571 14.6564V31.0182H426.503V14.6564H429.571Z" fill="black"/>
<path d="M443.209 20.4521C443.209 18.7477 442.186 17.3842 440.482 17.3842C438.436 17.3842 437.414 18.7477 437.414 20.4521V31.0191H434.346V14.6573H437.414V16.0208C438.095 15.339 439.118 14.3164 441.163 14.3164C444.231 14.3164 446.617 16.3616 446.617 20.1112V30.6782H443.549V20.4521H443.209Z" fill="black"/>
<path d="M453.433 24.2008C453.774 27.2686 455.478 28.2913 457.523 28.2913C459.91 28.2913 461.273 27.6095 462.637 26.9278L463.318 29.9956C461.955 30.6773 460.25 31.0182 457.864 31.0182C453.774 31.0182 450.365 28.6321 450.365 22.8373C450.365 17.3834 453.433 14.3155 457.183 14.3155C461.614 14.3155 464 17.3834 464 22.1556V23.8599H453.433V24.2008ZM452.069 7.15723H454.796L456.842 10.2251L458.887 7.15723H461.614L458.546 12.6112H455.137L452.069 7.15723ZM460.591 21.8147C460.591 19.0877 459.228 17.3834 456.842 17.3834C455.137 17.3834 453.433 18.406 453.092 21.8147H460.591Z" fill="black"/>
</svg>
