<svg width="26" height="26" viewBox="0 0 26 26" fill="none" xmlns="http://www.w3.org/2000/svg">
<path d="M7.22222 0C3.22222 0 0 3.22222 0 7.22222V18.7778C0 22.7778 3.22222 26 7.22222 26H18.7778C22.7778 26 26 22.7778 26 18.7778V7.22222C26 3.22222 22.7778 0 18.7778 0H7.22222V0ZM7.22222 2.88889H18.7778C21.1667 2.88889 23.1111 4.83333 23.1111 7.22222V18.7778C23.1111 21.1667 21.1667 23.1111 18.7778 23.1111H7.22222C4.83333 23.1111 2.88889 21.1667 2.88889 18.7778V7.22222C2.88889 4.83333 4.83333 2.88889 7.22222 2.88889ZM20.2222 4.33333C19.4444 4.33333 18.7778 5 18.7778 5.77778C18.7778 6.55556 19.4444 7.22222 20.2222 7.22222C21 7.22222 21.6667 6.55556 21.6667 5.77778C21.6667 5 21 4.33333 20.2222 4.33333ZM13 5.77778C9 5.77778 5.77778 9 5.77778 13C5.77778 17 9 20.2222 13 20.2222C17 20.2222 20.2222 17 20.2222 13C20.2222 9 17 5.77778 13 5.77778ZM13 8.66667C15.3889 8.66667 17.3333 10.6111 17.3333 13C17.3333 15.3889 15.3889 17.3333 13 17.3333C10.6111 17.3333 8.66667 15.3889 8.66667 13C8.66667 10.6111 10.6111 8.66667 13 8.66667Z" fill="#FDECBE"/>
</svg>
