<svg width="560" height="120" viewBox="0 0 560 120" fill="none" xmlns="http://www.w3.org/2000/svg">
<g clip-path="url(#clip0)">
<path d="M122.874 80.0647V82.9921H114.607V93.7377H111.53V70.3936H124.172V73.3209H114.607V80.1018H122.874V80.0647Z" fill="black"/>
<path d="M133.922 92.3673C133.44 92.9231 132.402 93.8866 130.215 93.8866C126.878 93.8866 124.988 92.1451 124.988 88.9584C124.988 85.6976 127.249 83.9191 130.289 83.9191C131.92 83.9191 133.255 84.5489 133.885 85.1788V83.2891C133.885 81.4363 132.662 80.7694 131.03 80.7694C129.214 80.7694 127.583 81.3623 126.73 81.6957L126.396 79.0279C127.323 78.6574 128.88 78.1016 131.364 78.1016C134.849 78.1016 136.814 79.9172 136.814 83.2891V93.7013H133.885V92.3673H133.922ZM133.922 88.5138C133.922 87.328 132.476 86.5128 130.919 86.5128C129.399 86.5128 128.102 87.1428 128.102 88.9584C128.102 90.6258 129.51 91.2187 130.919 91.2187C132.587 91.2187 133.922 90.1071 133.922 89.0325V88.5138Z" fill="black"/>
<path d="M144.302 93.7377H141.374V70.3936H144.302V84.4371L149.344 78.3232H153.088L147.416 84.8447L153.978 93.7377H150.271L144.302 85.4005V93.7377Z" fill="black"/>
<path d="M164.581 92.2555C164.062 92.9225 163.172 93.8859 160.874 93.8859C157.871 93.8859 155.906 91.8479 155.906 88.4019V78.2861H158.834V88.3278C158.834 90.0693 159.65 91.2921 161.355 91.2921C163.468 91.2921 164.581 89.7359 164.581 87.9943V78.3232H167.509V93.7377H164.581V92.2555Z" fill="black"/>
<path d="M174.961 70.3574V93.7016H172.032V70.3574H174.961Z" fill="black"/>
<path d="M186.268 93.3675C185.749 93.6269 185.082 93.8863 183.747 93.8863C181.968 93.8863 179.892 93.2193 179.892 89.8474V80.732H177.89V78.2865H179.892V72.2838L182.82 71.9502V78.2865H185.341V80.732H182.82V89.8474C182.82 90.959 183.413 91.2554 184.044 91.2554C184.785 91.2554 185.341 91.0332 185.897 90.7738L186.268 93.3675Z" fill="black"/>
<path d="M197.131 92.3673C196.648 92.9231 195.611 93.8866 193.423 93.8866C190.087 93.8866 188.196 92.1451 188.196 88.9584C188.196 85.6976 190.457 83.9191 193.497 83.9191C195.128 83.9191 196.462 84.5489 197.093 85.1788V83.2891C197.093 81.4363 195.87 80.7694 194.239 80.7694C192.422 80.7694 190.791 81.3623 189.938 81.6957L189.604 79.0279C190.531 78.6574 192.088 78.1016 194.572 78.1016C198.057 78.1016 200.022 79.9172 200.022 83.2891V93.7013H197.093V92.3673H197.131ZM197.131 88.5138C197.131 87.328 195.684 86.5128 194.127 86.5128C192.607 86.5128 191.31 87.1428 191.31 88.9584C191.31 90.6258 192.719 91.2187 194.127 91.2187C195.795 91.2187 197.131 90.1071 197.131 89.0325V88.5138Z" fill="black"/>
<path d="M220.004 92.3673C219.521 92.9231 218.484 93.8866 216.297 93.8866C212.96 93.8866 211.07 92.1451 211.07 88.9584C211.07 85.6976 213.332 83.9191 216.37 83.9191C218.001 83.9191 219.337 84.5489 219.967 85.1788V83.2891C219.967 81.4363 218.743 80.7694 217.112 80.7694C215.296 80.7694 213.665 81.3623 212.812 81.6957L212.479 79.0279C213.405 78.6574 214.925 78.1016 217.445 78.1016C220.93 78.1016 222.895 79.9172 222.895 83.2891V93.7013H219.967V92.3673H220.004ZM220.004 88.5138C220.004 87.328 218.559 86.5128 217.001 86.5128C215.481 86.5128 214.183 87.1428 214.183 88.9584C214.183 90.6258 215.592 91.2187 217.001 91.2187C218.67 91.2187 220.004 90.1071 220.004 89.0325V88.5138Z" fill="black"/>
<path d="M234.24 93.8857C232.053 93.8857 230.903 92.9593 230.384 92.4777V100.037H227.455V78.323H230.384V79.657C230.828 79.1382 231.681 78.1748 234.091 78.1748C237.391 78.1748 240.542 80.6574 240.542 86.1785C240.579 91.996 237.058 93.8857 234.24 93.8857ZM233.795 80.7314C231.904 80.7314 230.384 81.8431 230.384 84.2517V87.4753C230.384 89.958 232.015 91.1066 233.795 91.1066C235.833 91.1066 237.502 89.8838 237.502 86.1043C237.502 82.3619 235.611 80.7314 233.795 80.7314Z" fill="black"/>
<path d="M247.4 70.3574V93.7016H244.472V70.3574H247.4Z" fill="black"/>
<path d="M253.37 75.3959C252.145 75.3959 251.441 74.7659 251.441 73.5801C251.441 72.3574 252.109 71.7275 253.37 71.7275C254.556 71.7275 255.296 72.3574 255.296 73.5801C255.296 74.8029 254.593 75.3959 253.37 75.3959ZM254.852 78.3232V93.7377H251.923V78.3232H254.852Z" fill="black"/>
<path d="M262.304 93.7377H259.375V70.3936H262.304V84.4371L267.345 78.3232H271.089L265.417 84.8447L272.016 93.7377H268.272L262.304 85.4005V93.7377Z" fill="black"/>
<path d="M279.022 93.8867C275.242 93.8867 271.979 91.7006 271.979 85.9941C271.979 80.2878 275.39 78.1387 279.022 78.1387C282.693 78.1387 286.066 80.3248 286.066 85.9941C286.066 91.7376 282.767 93.8867 279.022 93.8867ZM279.022 80.7324C276.724 80.7324 275.056 82.5482 275.056 85.9941C275.056 89.329 276.762 91.1076 279.022 91.1076C281.284 91.1076 282.99 89.329 282.99 85.9941C282.99 82.5482 281.358 80.7324 279.022 80.7324Z" fill="black"/>
<path d="M286.733 78.3232H289.959L293.777 89.8472L297.559 78.3232H300.822L295.186 93.7378H292.369L286.733 78.3232Z" fill="black"/>
<path d="M310.386 92.3673C309.904 92.9231 308.866 93.8866 306.679 93.8866C303.342 93.8866 301.452 92.1451 301.452 88.9584C301.452 85.6976 303.712 83.9191 306.752 83.9191C308.384 83.9191 309.719 84.5489 310.348 85.1788V83.2891C310.348 81.4363 309.125 80.7694 307.494 80.7694C305.677 80.7694 304.046 81.3623 303.195 81.6957L302.861 79.0279C303.787 78.6574 305.344 78.1016 307.828 78.1016C311.312 78.1016 313.277 79.9172 313.277 83.2891V93.7013H310.348V92.3673H310.386ZM310.386 88.5138C310.386 87.328 308.94 86.5128 307.383 86.5128C305.863 86.5128 304.565 87.1428 304.565 88.9584C304.565 90.6258 305.974 91.2187 307.383 91.2187C309.089 91.2187 310.386 90.1071 310.386 89.0325V88.5138Z" fill="black"/>
<path d="M326.512 83.6968C326.512 81.9552 325.548 80.7324 323.842 80.7324C321.841 80.7324 320.802 81.9552 320.802 83.6968V93.7015H317.875V78.2869H320.802V79.5838C321.36 78.9539 322.508 78.1387 324.325 78.1387C327.327 78.1387 329.441 80.1766 329.441 83.6227V93.7385H326.512V83.6968Z" fill="black"/>
<path d="M336.152 87.1791C336.485 89.9951 338.116 91.1438 340.081 91.1438C342.305 91.1438 343.639 90.588 344.789 89.9951L345.308 92.8112C343.9 93.4412 342.491 93.8858 340.043 93.8858C336.152 93.8858 333 91.4773 333 86.1415C333 80.9169 335.929 78.1379 339.598 78.1379C343.788 78.1379 346.087 81.1021 346.087 85.6228V87.1791H336.152ZM342.972 84.8446C342.972 82.1396 341.638 80.7316 339.562 80.7316C337.967 80.7316 336.447 81.6209 336.114 84.8446H342.972ZM340.081 71.0234H343.344L340.304 76.1369H338.005L340.081 71.0234Z" fill="black"/>
<path d="M358.542 75.3959C357.319 75.3959 356.615 74.7659 356.615 73.5801C356.615 72.3574 357.283 71.7275 358.542 71.7275C359.729 71.7275 360.47 72.3574 360.47 73.5801C360.47 74.8029 359.767 75.3959 358.542 75.3959ZM360.026 78.3232V93.7377H357.097V78.3232H360.026Z" fill="black"/>
<path d="M373.186 83.6968C373.186 81.9552 372.222 80.7324 370.518 80.7324C368.515 80.7324 367.478 81.9552 367.478 83.6968V93.7015H364.549V78.2869H367.478V79.5838C368.034 78.9539 369.182 78.1387 370.999 78.1387C374.003 78.1387 376.115 80.1766 376.115 83.6227V93.7385H373.186V83.6968Z" fill="black"/>
<path d="M387.719 73.4326C387.163 73.1732 386.384 72.8027 385.643 72.8027C384.493 72.8027 383.974 73.4696 383.974 74.5442V78.2867H386.495V80.7323H383.974V93.7382H381.045V80.7323H379.044V78.2867H381.045V74.8778C381.045 71.5058 382.788 70.1719 385.346 70.1719C386.681 70.1719 387.57 70.5795 388.053 70.8017L387.719 73.4326Z" fill="black"/>
<path d="M395.467 93.8867C391.722 93.8867 388.423 91.7006 388.423 85.9941C388.423 80.2878 391.833 78.1387 395.467 78.1387C399.137 78.1387 402.511 80.3248 402.511 85.9941C402.473 91.7376 399.174 93.8867 395.467 93.8867ZM395.467 80.7324C393.169 80.7324 391.499 82.5482 391.499 85.9941C391.499 89.329 393.205 91.1076 395.467 91.1076C397.729 91.1076 399.433 89.329 399.433 85.9941C399.396 82.5482 397.765 80.7324 395.467 80.7324Z" fill="black"/>
<path d="M412.854 81.5105C412.483 81.3623 411.852 81.1029 411.037 81.1029C409.814 81.1029 408.998 82.1033 408.998 83.6967V93.7013H406.069V78.2868H408.998V80.0283C409.481 79.0279 410.259 78.1016 411.815 78.1016C412.409 78.1016 412.965 78.2498 413.224 78.398L412.854 81.5105Z" fill="black"/>
<path d="M433.466 83.6967C433.466 81.9551 432.502 80.7323 430.759 80.7323C428.758 80.7323 427.719 81.9551 427.719 83.6967V93.7013H424.791V83.6597C424.791 81.9181 423.828 80.6953 422.122 80.6953C420.119 80.6953 419.082 81.9181 419.082 83.6597V93.6643H416.153V78.2498H419.082V79.5466C419.638 78.9167 420.788 78.1016 422.604 78.1016C424.532 78.1016 426.052 78.9167 426.905 80.3618C427.719 79.2132 429.128 78.1016 431.242 78.1016C434.244 78.1016 436.358 80.1395 436.358 83.5855V93.7013H433.429V83.6967H433.466Z" fill="black"/>
<path d="M448.851 92.3673C448.369 92.9231 447.331 93.8866 445.144 93.8866C441.807 93.8866 439.916 92.1451 439.916 88.9584C439.916 85.6976 442.177 83.9191 445.217 83.9191C446.849 83.9191 448.183 84.5489 448.813 85.1788V83.2891C448.813 81.4363 447.59 80.7694 445.959 80.7694C444.142 80.7694 442.511 81.3623 441.658 81.6957L441.325 79.0279C442.252 78.6574 443.772 78.1016 446.293 78.1016C449.778 78.1016 451.742 79.9172 451.742 83.2891V93.7013H448.813V92.3673H448.851ZM448.851 88.5138C448.851 87.328 447.405 86.5128 445.848 86.5128C444.328 86.5128 443.03 87.1428 443.03 88.9584C443.03 90.6258 444.439 91.2187 445.848 91.2187C447.516 91.2187 448.851 90.1071 448.851 89.0325V88.5138Z" fill="black"/>
<path d="M463.086 93.3675C462.568 93.6269 461.901 93.8863 460.565 93.8863C458.786 93.8863 456.71 93.2193 456.71 89.8474V80.732H454.708V78.2865H456.71V72.2838L459.639 71.9502V78.2865H462.16V80.732H459.639V89.8474C459.639 90.959 460.232 91.2554 460.862 91.2554C461.604 91.2554 462.16 91.0332 462.716 90.7738L463.086 93.3675Z" fill="black"/>
<path d="M467.498 75.3959C466.275 75.3959 465.57 74.7659 465.57 73.5801C465.57 72.3574 466.237 71.7275 467.498 71.7275C468.685 71.7275 469.426 72.3574 469.426 73.5801C469.388 74.8029 468.685 75.3959 467.498 75.3959ZM468.944 78.3232V93.7377H466.015V78.3232H468.944Z" fill="black"/>
<path d="M476.396 93.7377H473.467V70.3936H476.396V84.4371L481.437 78.3232H485.182L479.509 84.8447L486.108 93.7377H482.365L476.396 85.4005V93.7377Z" fill="black"/>
<path d="M491.929 99.9999V91.2551L486.108 78.2861H489.371L493.411 88.0314L497.452 78.2861H500.715L494.895 91.2551V99.9999H491.929Z" fill="black"/>
<path d="M87.4329 20.1112L59.9995 29.3377V20H87.4329V20.1112ZM60.1107 30.7457C60.1107 32.0797 62.298 33.3025 64.893 33.3025C65.8569 33.3025 66.7837 33.1172 67.5622 32.8578C68.3778 32.5984 93.8835 23.6684 93.8835 23.6684V60.315C93.8835 60.315 68.1925 69.282 67.4881 69.5414C66.7466 69.8008 65.6715 69.9862 64.8189 69.9862C62.1867 69.9862 59.9624 68.6522 59.9624 66.2807V30.7457H60.1107Z" fill="#FCC400"/>
<path d="M128.213 44.4926C128.213 50.5695 125.877 53.9042 119.946 53.9042C114.014 53.9042 111.567 50.5695 111.567 44.4926V27.0029H115.089V44.3444C115.089 48.4573 116.239 50.5695 119.946 50.5695C123.653 50.5695 124.691 48.4573 124.691 44.3444V27.0029H128.213V44.4926Z" fill="black"/>
<path d="M143.301 42.2328C143.301 40.2318 142.189 38.8608 140.224 38.8608C137.926 38.8608 136.739 40.269 136.739 42.2699V53.7195H133.403V36.0818H136.739V37.564C137.37 36.8229 138.667 35.8965 140.78 35.8965C144.228 35.8965 146.638 38.231 146.638 42.1587V53.7195H143.301V42.2328Z" fill="black"/>
<path d="M153.496 32.7457C152.087 32.7457 151.309 32.0046 151.309 30.6707C151.309 29.2626 152.087 28.5586 153.496 28.5586C154.868 28.5586 155.683 29.2626 155.683 30.6707C155.683 32.0787 154.868 32.7457 153.496 32.7457ZM155.164 36.0806V53.7184H151.828V36.0806H155.164Z" fill="black"/>
<path d="M157.759 36.082H161.467L165.841 49.2732L170.179 36.082H173.886L167.435 53.7197H164.21L157.759 36.082Z" fill="black"/>
<path d="M178.224 46.2347C178.594 49.4584 180.448 50.7552 182.709 50.7552C185.267 50.7552 186.787 50.1254 188.085 49.4584L188.678 52.6821C187.084 53.4231 185.453 53.9049 182.672 53.9049C178.224 53.9049 174.627 51.1628 174.627 45.0489C174.627 39.0832 177.964 35.8965 182.153 35.8965C186.936 35.8965 189.568 39.3056 189.568 44.4561V46.2347H178.224ZM186.046 43.5667C186.046 40.4912 184.526 38.8608 182.153 38.8608C180.337 38.8608 178.594 39.8984 178.224 43.5667H186.046Z" fill="black"/>
<path d="M201.394 39.7502C200.986 39.565 200.244 39.3056 199.318 39.3056C197.909 39.3056 196.982 40.4542 196.982 42.2699V53.7195H193.645V36.0818H196.982V38.0828C197.537 36.934 198.427 35.8965 200.207 35.8965C200.874 35.8965 201.505 36.0818 201.838 36.23L201.394 39.7502Z" fill="black"/>
<path d="M216.445 53.7197H203.321L211.737 38.861H203.692V36.082H216.853L208.808 50.7554H216.445V53.7197Z" fill="black"/>
<path d="M221.858 32.7457C220.449 32.7457 219.67 32.0046 219.67 30.6707C219.67 29.2626 220.449 28.5586 221.858 28.5586C223.228 28.5586 224.045 29.2626 224.045 30.6707C224.045 32.0787 223.228 32.7457 221.858 32.7457ZM223.525 36.0806V53.7184H220.19V36.0806H223.525Z" fill="black"/>
<path d="M237.205 53.3112C236.611 53.6077 235.833 53.9041 234.313 53.9041C232.275 53.9041 229.902 53.126 229.902 49.2723V38.8601H227.604V36.0811H229.902V29.226L233.238 28.8555V36.0811H236.13V38.8601H233.238V49.2723C233.238 50.5322 233.906 50.9026 234.647 50.9026C235.5 50.9026 236.13 50.6434 236.761 50.3468L237.205 53.3112Z" fill="black"/>
<path d="M249.624 52.1633C249.068 52.7933 247.882 53.9049 245.398 53.9049C241.579 53.9049 239.429 51.9039 239.429 48.2726C239.429 44.5301 242.024 42.5292 245.509 42.5292C247.363 42.5292 248.92 43.2333 249.624 43.9743V41.8252C249.624 39.7132 248.215 38.935 246.362 38.935C244.286 38.935 242.432 39.602 241.432 40.0096L241.06 36.9711C242.135 36.5635 243.878 35.8965 246.733 35.8965C250.699 35.8965 252.961 37.9716 252.961 41.8252V53.7195H249.624V52.1633ZM249.624 47.7538C249.624 46.3829 247.956 45.4565 246.176 45.4565C244.434 45.4565 242.952 46.1976 242.952 48.2726C242.952 50.1624 244.545 50.8664 246.176 50.8664C248.104 50.8664 249.624 49.6066 249.624 48.3468V47.7538Z" fill="black"/>
<path d="M271.683 53.719V30.3378H265.195V27.0029H281.692V30.3378H275.204V53.719H271.683Z" fill="black"/>
<path d="M288.439 53.9049C284.138 53.9049 280.395 51.4222 280.395 44.9007C280.395 38.3792 284.287 35.8965 288.439 35.8965C292.628 35.8965 296.484 38.3792 296.484 44.9007C296.484 51.4222 292.702 53.9049 288.439 53.9049ZM288.439 38.8608C285.807 38.8608 283.916 40.9359 283.916 44.9007C283.916 48.7172 285.881 50.7552 288.439 50.7552C291.035 50.7552 292.963 48.7172 292.963 44.9007C292.963 40.9359 291.071 38.8608 288.439 38.8608Z" fill="black"/>
<path d="M320.358 42.2328C320.358 40.2318 319.246 38.8608 317.281 38.8608C314.983 38.8608 313.797 40.269 313.797 42.2699V53.7195H310.46V42.2328C310.46 40.2318 309.348 38.8608 307.383 38.8608C305.085 38.8608 303.898 40.269 303.898 42.2699V53.7195H300.561V36.0818H303.898V37.564C304.529 36.8229 305.826 35.8965 307.939 35.8965C310.126 35.8965 311.868 36.8229 312.87 38.4904C313.797 37.1564 315.428 35.8965 317.837 35.8965C321.285 35.8965 323.695 38.231 323.695 42.1587V53.7195H320.358V42.2328Z" fill="black"/>
<path d="M337.967 52.1629C337.411 52.7927 336.225 53.9045 333.741 53.9045C329.923 53.9045 327.773 51.9035 327.773 48.2722C327.773 44.5297 330.367 42.5287 333.852 42.5287C335.706 42.5287 337.264 43.2329 337.967 43.9739V41.8247C337.967 39.7126 336.559 38.9346 334.705 38.9346C332.629 38.9346 330.775 39.6015 329.775 40.0091L329.405 36.9706C330.479 36.563 332.221 35.896 335.077 35.896C339.043 35.896 341.304 37.9712 341.304 41.8247V53.7191H337.967V52.1629ZM337.967 47.7534C337.967 46.3824 336.3 45.456 334.521 45.456C332.778 45.456 331.295 46.1971 331.295 48.2722C331.295 50.1619 332.889 50.8659 334.521 50.8659C336.447 50.8659 337.967 49.6062 337.967 48.3462V47.7534ZM335.706 27.7441H339.451L335.966 33.5987H333.334L335.706 27.7441Z" fill="black"/>
<path d="M351.203 53.9045C348.422 53.9045 346.495 53.1263 345.42 52.6445L346.012 49.495C347.421 50.1619 349.201 50.7548 351.203 50.7548C352.759 50.7548 354.243 50.3102 354.243 48.7168C354.243 47.1234 352.537 46.7158 350.647 46.2342C348.199 45.6043 345.382 44.8261 345.382 41.1577C345.382 37.6006 347.866 35.896 352.018 35.896C354.465 35.896 356.207 36.4518 357.394 36.9336L356.838 40.0461C355.466 39.4162 354.131 38.8604 352.092 38.8604C350.091 38.8604 348.866 39.5274 348.866 41.1207C348.866 42.3805 350.313 42.7881 352.018 43.2699C354.613 43.9739 357.839 44.7891 357.839 48.6428C357.839 52.0147 355.874 53.9045 351.203 53.9045ZM346.384 27.7441H349.349L351.611 31.042L353.871 27.7441H356.838L353.39 33.5987H349.83L346.384 27.7441Z" fill="black"/>
<path d="M364.4 46.2347C364.771 49.4584 366.625 50.7552 368.887 50.7552C371.444 50.7552 372.964 50.1254 374.262 49.4584L374.854 52.6821C373.261 53.4231 371.63 53.9049 368.849 53.9049C364.4 53.9049 360.804 51.1628 360.804 45.0489C360.804 39.0832 364.141 35.8965 368.329 35.8965C373.112 35.8965 375.745 39.3056 375.745 44.4561V46.2347H364.4ZM372.222 43.5667C372.222 40.4912 370.702 38.8608 368.329 38.8608C366.514 38.8608 364.771 39.8984 364.4 43.5667H372.222Z" fill="black"/>
<path d="M395.764 53.719H388.348V27.0029H396.32C401.25 27.0029 404.142 29.7079 404.142 34.1174C404.142 37.1558 402.548 38.8233 400.323 39.8979C402.733 40.8983 404.327 43.1956 404.327 46.0488C404.327 50.8659 401.028 53.719 395.764 53.719ZM396.357 30.3378H391.871V38.2673H395.875C398.618 38.2673 400.435 36.9335 400.435 34.3026C400.435 31.5977 398.729 30.3378 396.357 30.3378ZM395.875 41.6023H391.871V50.3841H395.875C398.655 50.3841 400.62 48.8649 400.62 46.1229C400.62 43.2698 398.618 41.6023 395.875 41.6023Z" fill="black"/>
<path d="M417.859 52.1633C417.303 52.7933 416.116 53.9049 413.632 53.9049C409.814 53.9049 407.664 51.9039 407.664 48.2726C407.664 44.5301 410.259 42.5292 413.744 42.5292C415.597 42.5292 417.154 43.2333 417.859 43.9743V41.8252C417.859 39.7132 416.45 38.935 414.596 38.935C412.521 38.935 410.667 39.602 409.665 40.0096L409.295 36.9711C410.37 36.5635 412.112 35.8965 414.967 35.8965C418.934 35.8965 421.194 37.9716 421.194 41.8252V53.7195H417.859V52.1633ZM417.859 47.7538C417.859 46.3829 416.19 45.4565 414.411 45.4565C412.668 45.4565 411.185 46.1976 411.185 48.2726C411.185 50.1624 412.779 50.8664 414.411 50.8664C416.339 50.8664 417.859 49.6066 417.859 48.3468V47.7538Z" fill="black"/>
<path d="M434.133 53.3112C433.54 53.6077 432.762 53.9041 431.242 53.9041C429.203 53.9041 426.83 53.126 426.83 49.2723V38.8601H424.531V36.0811H426.83V29.226L430.167 28.8555V36.0811H433.058V38.8601H430.167V49.2723C430.167 50.5322 430.834 50.9026 431.576 50.9026C432.428 50.9026 433.058 50.6434 433.688 50.3468L434.133 53.3112Z" fill="black"/>
<path d="M439.138 32.7457C437.729 32.7457 436.95 32.0046 436.95 30.6707C436.95 29.2626 437.729 28.5586 439.138 28.5586C440.51 28.5586 441.325 29.2626 441.325 30.6707C441.325 32.0787 440.51 32.7457 439.138 32.7457ZM440.807 36.0806V53.7184H437.47V36.0806H440.807Z" fill="black"/>
</g>
<defs>
<clipPath id="clip0">
<rect width="440.678" height="80" fill="white" transform="translate(60 20)"/>
</clipPath>
</defs>
</svg>
