<svg width="406" height="65" viewBox="0 0 406 65" fill="none" xmlns="http://www.w3.org/2000/svg">
<path d="M51.5149 48.4611V50.8462H44.9558V59.4923H42.5707V40.7095H52.7074V43.0946H44.9558V48.4611H51.5149Z" fill="black"/>
<path d="M60.1622 58.3003C59.8641 58.5985 58.9696 59.4929 57.1808 59.4929C54.4975 59.4929 53.0068 58.0022 53.0068 55.6171C53.0068 52.9338 54.7957 51.4431 57.1808 51.4431C58.3734 51.4431 59.5659 52.0394 60.1622 52.3375V50.8468C60.1622 49.3561 59.2678 48.7598 57.7771 48.7598C56.2864 48.7598 55.0938 49.3561 54.1994 49.6543L53.9013 47.5673C54.7957 47.2691 55.9882 46.6729 57.7771 46.6729C60.4603 46.6729 62.2492 48.1636 62.2492 50.8468V59.1947H59.8641V58.3003H60.1622ZM60.1622 55.3189C60.1622 54.4245 58.9696 53.8282 57.7771 53.8282C56.5845 53.8282 55.392 54.4245 55.392 55.9152C55.392 57.1078 56.5845 57.704 57.7771 57.704C59.2678 57.704 60.1622 56.8096 60.1622 55.9152V55.3189Z" fill="black"/>
<path d="M68.5118 59.4923H66.1267V40.7095H68.5118V52.0388L72.6858 46.9704H75.6672L71.1951 52.3369L76.5616 59.4923H73.5802L68.81 52.9332V59.4923H68.5118Z" fill="black"/>
<path d="M84.9053 58.3005C84.6072 58.8968 83.7128 59.4931 81.9239 59.4931C79.5388 59.4931 78.0481 57.7042 78.0481 55.021V46.9712H80.4332V55.021C80.4332 56.5117 81.0295 57.4061 82.5202 57.4061C84.309 57.4061 85.2035 56.2135 85.2035 54.7228V46.9712H87.2904V59.4931H84.9053V58.3005Z" fill="black"/>
<path d="M93.2544 40.7104V59.4933H90.8693V40.7104H93.2544Z" fill="black"/>
<path d="M102.501 59.1948C102.203 59.4929 101.607 59.4929 100.414 59.4929C98.9235 59.4929 97.4328 58.8966 97.4328 56.2134V48.7599H95.9421V46.6729H97.4328V41.9026L99.818 41.6045V46.6729H101.905V48.7599H99.818V56.2134C99.818 57.1078 100.414 57.4059 100.712 57.4059C101.309 57.4059 101.905 57.1078 102.203 57.1078L102.501 59.1948Z" fill="black"/>
<path d="M111.14 58.3003C110.842 58.5985 109.948 59.4929 108.159 59.4929C105.476 59.4929 103.985 58.0022 103.985 55.6171C103.985 52.9338 105.774 51.4431 108.159 51.4431C109.352 51.4431 110.544 52.0394 111.14 52.3375V50.8468C111.14 49.3561 110.246 48.7598 108.755 48.7598C107.265 48.7598 106.072 49.3561 105.178 49.6543V47.5673C106.072 47.2691 107.265 46.6729 109.053 46.6729C111.737 46.6729 113.526 48.1636 113.526 50.8468V59.1947H111.14V58.3003ZM111.14 55.3189C111.14 54.4245 109.948 53.8282 108.755 53.8282C107.563 53.8282 106.37 54.4245 106.37 55.9152C106.37 57.1078 107.563 57.704 108.755 57.704C110.246 57.704 111.14 56.8096 111.14 55.9152V55.3189Z" fill="black"/>
<path d="M129.628 58.3003C129.33 58.5985 128.435 59.4929 126.646 59.4929C123.963 59.4929 122.472 58.0022 122.472 55.6171C122.472 52.9338 124.261 51.4431 126.646 51.4431C127.839 51.4431 129.031 52.0394 129.628 52.3375V50.8468C129.628 49.3561 128.733 48.7598 127.243 48.7598C125.752 48.7598 124.559 49.3561 123.665 49.6543L123.367 47.5673C124.261 47.2691 125.454 46.6729 127.243 46.6729C129.926 46.6729 131.715 48.1636 131.715 50.8468V59.1947H129.33V58.3003H129.628ZM129.628 55.3189C129.628 54.4245 128.435 53.8282 127.243 53.8282C126.05 53.8282 124.857 54.4245 124.857 55.9152C124.857 57.1078 126.05 57.704 127.243 57.704C128.733 57.704 129.628 56.8096 129.628 55.9152V55.3189Z" fill="black"/>
<path d="M140.959 59.4929C139.17 59.4929 138.275 58.8966 137.977 58.3003V64.2631H135.592V46.6729H137.977V47.8654C138.275 47.5673 138.872 46.6729 140.959 46.6729C143.642 46.6729 146.027 48.7598 146.027 53.2319C146.027 58.0022 143.344 59.4929 140.959 59.4929ZM140.661 49.058C139.17 49.058 137.977 49.9524 137.977 52.0394V54.7226C137.977 56.8096 139.17 57.704 140.661 57.704C142.449 57.704 143.642 56.8096 143.642 53.8282C143.642 50.2505 142.151 49.058 140.661 49.058Z" fill="black"/>
<path d="M151.392 40.7104V59.4933H149.007V40.7104H151.392Z" fill="black"/>
<path d="M156.462 44.5859C155.568 44.5859 154.971 43.9896 154.971 43.0952C154.971 42.2008 155.568 41.6045 156.462 41.6045C157.357 41.6045 157.953 42.2008 157.953 43.0952C157.953 44.2878 157.357 44.5859 156.462 44.5859ZM157.655 46.971V59.4929H155.27V46.971H157.655Z" fill="black"/>
<path d="M163.62 59.4933H161.235V40.7104H163.62V52.0398L167.794 46.9714H170.775L166.303 52.3379L171.67 59.4933H168.688L163.918 52.9342V59.4933H163.62Z" fill="black"/>
<path d="M177.033 59.4931C174.051 59.4931 171.368 57.7042 171.368 53.2321C171.368 48.76 174.051 46.9712 177.033 46.9712C180.014 46.9712 182.697 48.76 182.697 53.2321C182.697 58.0024 180.014 59.4931 177.033 59.4931ZM177.033 49.0582C175.244 49.0582 173.753 50.5489 173.753 53.2321C173.753 55.9154 175.244 57.4061 177.033 57.4061C178.822 57.4061 180.312 55.9154 180.312 53.2321C180.014 50.5489 178.822 49.0582 177.033 49.0582Z" fill="black"/>
<path d="M183.293 46.9712H185.679L188.66 56.2135L191.641 46.9712H194.623L190.151 59.4931H187.766L183.293 46.9712Z" fill="black"/>
<path d="M202.076 58.3003C201.778 58.5985 200.883 59.4929 199.094 59.4929C196.411 59.4929 194.92 58.0022 194.92 55.6171C194.92 52.9338 196.709 51.4431 199.094 51.4431C200.287 51.4431 201.479 52.0394 202.076 52.3375V50.8468C202.076 49.3561 201.181 48.7598 199.691 48.7598C198.2 48.7598 197.007 49.3561 196.113 49.6543L195.815 47.5673C196.709 47.2691 197.902 46.6729 199.691 46.6729C202.374 46.6729 204.163 48.1636 204.163 50.8468V59.1947H201.778V58.3003H202.076ZM202.076 55.3189C202.076 54.4245 200.883 53.8282 199.691 53.8282C198.498 53.8282 197.305 54.4245 197.305 55.9152C197.305 57.1078 198.498 57.704 199.691 57.704C201.181 57.704 202.076 56.8096 202.076 55.9152V55.3189Z" fill="black"/>
<path d="M215.192 51.4431C215.192 49.9524 214.297 49.058 213.105 49.058C211.614 49.058 210.72 49.9524 210.72 51.4431V59.4929H208.335V46.971H210.72V47.8654C211.018 47.2691 212.21 46.6729 213.701 46.6729C216.086 46.6729 217.875 48.4617 217.875 51.145V59.1947H215.49V51.4431H215.192Z" fill="black"/>
<path d="M222.948 54.1257C223.246 56.5108 224.438 57.4052 226.227 57.4052C228.016 57.4052 229.209 57.1071 230.103 56.5108L230.401 58.8959C229.209 59.4922 228.016 59.7904 226.227 59.7904C223.246 59.7904 220.563 58.0015 220.563 53.5294C220.563 49.3554 222.948 46.9703 225.929 46.9703C229.209 46.9703 230.998 49.3555 230.998 52.9331V54.1257H222.948ZM228.314 52.3369C228.314 50.2499 227.122 49.0573 225.631 49.0573C224.438 49.0573 223.246 49.6536 222.948 52.3369H228.314ZM225.929 41.3057H228.612L226.227 45.4796H224.438L225.929 41.3057Z" fill="black"/>
<path d="M240.835 44.5859C239.941 44.5859 239.344 43.9896 239.344 43.0952C239.344 42.2008 239.941 41.6045 240.835 41.6045C241.73 41.6045 242.326 42.2008 242.326 43.0952C242.326 44.2878 242.028 44.5859 240.835 44.5859ZM242.028 46.971V59.4929H239.643V46.971H242.028Z" fill="black"/>
<path d="M252.76 51.4431C252.76 49.9524 251.865 49.058 250.673 49.058C249.182 49.058 248.288 49.9524 248.288 51.4431V59.4929H245.903V46.971H248.288V47.8654C248.586 47.2691 249.778 46.6729 251.269 46.6729C253.654 46.6729 255.443 48.4617 255.443 51.145V59.1947H253.058V51.4431H252.76Z" fill="black"/>
<path d="M264.386 43.0949C264.088 42.7967 263.194 42.4986 262.598 42.4986C261.703 42.4986 261.405 43.0949 261.405 43.9893V46.9707H263.492V49.0577H261.405V59.4926H259.02V49.0577H257.529V46.9707H259.02V44.2874C259.02 41.6042 260.511 40.4116 262.598 40.4116C263.79 40.4116 264.386 40.7098 264.685 41.0079L264.386 43.0949Z" fill="black"/>
<path d="M270.648 59.4931C267.666 59.4931 264.983 57.7042 264.983 53.2321C264.983 48.76 267.666 46.9712 270.648 46.9712C273.629 46.9712 276.312 48.76 276.312 53.2321C276.312 58.0024 273.629 59.4931 270.648 59.4931ZM270.648 49.0582C268.859 49.0582 267.368 50.5489 267.368 53.2321C267.368 55.9154 268.859 57.4061 270.648 57.4061C272.436 57.4061 273.927 55.9154 273.927 53.2321C273.927 50.5489 272.436 49.0582 270.648 49.0582Z" fill="black"/>
<path d="M284.659 49.6545C284.361 49.6545 283.765 49.3563 283.169 49.3563C282.274 49.3563 281.38 50.2507 281.38 51.4433V59.4931H278.995V46.9712H281.38V48.4619C281.678 47.5675 282.274 46.9712 283.765 46.9712C284.361 46.9712 284.659 46.9712 284.957 47.2693L284.659 49.6545Z" fill="black"/>
<path d="M301.059 51.4431C301.059 49.9524 300.165 49.058 298.972 49.058C297.481 49.058 296.587 49.9524 296.587 51.4431V59.4929H294.202V51.4431C294.202 49.9524 293.307 49.058 292.115 49.058C290.624 49.058 289.73 49.9524 289.73 51.4431V59.4929H287.345V46.971H289.73V47.8654C290.028 47.2691 291.22 46.6729 292.711 46.6729C294.202 46.6729 295.394 47.2691 296.289 48.4617C296.885 47.5673 298.078 46.6729 299.867 46.6729C302.252 46.6729 304.04 48.4617 304.04 51.145V59.1947H301.655V51.4431H301.059Z" fill="black"/>
<path d="M313.58 58.3003C313.282 58.5985 312.388 59.4929 310.599 59.4929C307.916 59.4929 306.425 58.0022 306.425 55.6171C306.425 52.9338 308.214 51.4431 310.599 51.4431C311.791 51.4431 312.984 52.0394 313.58 52.3375V50.8468C313.58 49.3561 312.686 48.7598 311.195 48.7598C309.704 48.7598 308.512 49.3561 307.617 49.6543L307.319 47.5673C308.214 47.2691 309.406 46.6729 311.195 46.6729C313.878 46.6729 315.667 48.1636 315.667 50.8468V59.1947H313.282V58.3003H313.58ZM313.58 55.3189C313.58 54.4245 312.388 53.8282 311.195 53.8282C310.003 53.8282 308.81 54.4245 308.81 55.9152C308.81 57.1078 310.003 57.704 311.195 57.704C312.686 57.704 313.58 56.8096 313.58 55.9152V55.3189Z" fill="black"/>
<path d="M324.913 59.1948C324.615 59.4929 324.019 59.4929 322.826 59.4929C321.336 59.4929 319.845 58.8966 319.845 56.2134V48.7599H318.354V46.6729H319.845V41.9026L322.23 41.6045V46.6729H324.317V48.7599H322.23V56.2134C322.23 57.1078 322.826 57.4059 323.125 57.4059C323.721 57.4059 324.317 57.1078 324.615 57.1078L324.913 59.1948Z" fill="black"/>
<path d="M328.489 44.5859C327.595 44.5859 326.999 43.9896 326.999 43.0952C326.999 42.2008 327.595 41.6045 328.489 41.6045C329.384 41.6045 329.98 42.2008 329.98 43.0952C329.98 44.2878 329.384 44.5859 328.489 44.5859ZM329.682 46.971V59.4929H327.297V46.971H329.682Z" fill="black"/>
<path d="M335.643 59.4933H333.258V40.7104H335.643V52.0398L339.817 46.9714H342.799L338.326 52.3379L343.693 59.4933H340.712L335.941 52.9342V59.4933H335.643Z" fill="black"/>
<path d="M348.166 64.5615V57.4061L343.396 46.9712H346.079L349.358 54.7228L352.638 46.9712H355.321L350.551 57.4061V64.5615H348.166Z" fill="black"/>
<path d="M22.8958 0.162109L0.833374 7.61562V0.162109H22.8958ZM0.833374 8.80818C0.833374 10.0007 2.62222 10.8952 4.7092 10.8952C5.60362 10.8952 6.1999 10.597 6.79618 10.597C7.6906 10.2989 27.9641 3.14351 27.9641 3.14351V32.6594C27.9641 32.6594 7.39246 39.8148 6.79618 40.1129C6.1999 40.411 5.30548 40.411 4.7092 40.411C2.62222 40.411 0.833374 39.2185 0.833374 37.4296V8.80818Z" fill="#FCC400"/>
<path d="M55.6917 19.8383C55.6917 24.6085 53.9029 27.2918 49.1326 27.2918C44.3624 27.2918 42.2754 24.6085 42.2754 19.8383V5.82568H44.9587V19.8383C44.9587 23.1178 45.8531 24.9067 48.8345 24.9067C51.8159 24.9067 52.7103 23.1178 52.7103 19.8383V5.82568H55.3936V19.8383H55.6917Z" fill="black"/>
<path d="M67.913 18.0503C67.913 16.5596 67.0186 15.3671 65.5279 15.3671C63.7391 15.3671 62.8446 16.5596 62.8446 18.0503V27.2927H60.1614V12.9819H62.8446V14.1745C63.4409 13.5782 64.3353 12.9819 66.1242 12.9819C68.8074 12.9819 70.8944 14.7708 70.8944 18.0503V27.2927H68.2112V18.0503H67.913Z" fill="black"/>
<path d="M75.966 10.2974C74.7734 10.2974 74.1771 9.70113 74.1771 8.50857C74.1771 7.31601 74.7734 6.71973 75.966 6.71973C77.1585 6.71973 77.7548 7.31601 77.7548 8.50857C77.7548 9.99927 77.1585 10.2974 75.966 10.2974ZM77.4567 12.9807V27.2914H74.7734V12.9807H77.4567Z" fill="black"/>
<path d="M79.5447 12.9819H82.5261L86.1038 23.715L89.6814 12.9819H92.6628L87.2963 27.2927H84.6131L79.5447 12.9819Z" fill="black"/>
<path d="M95.9404 21.3292C96.2385 24.0124 97.7292 24.9069 99.5181 24.9069C101.605 24.9069 102.798 24.3106 103.692 23.7143L104.288 26.3976C103.096 26.9938 101.605 27.292 99.5181 27.292C95.9404 27.292 92.959 25.205 92.959 20.1366C92.959 15.3664 95.6423 12.6831 98.9218 12.6831C102.798 12.6831 104.885 15.3664 104.885 19.5403V21.031H95.9404V21.3292ZM102.201 19.2422C102.201 16.8571 101.009 15.3664 99.2199 15.3664C97.7292 15.3664 96.2385 16.2608 95.9404 19.2422H102.201Z" fill="black"/>
<path d="M114.423 15.9626C114.125 15.9626 113.528 15.6645 112.634 15.6645C111.74 15.6645 111.143 16.5589 111.143 18.0496V27.292H108.46V12.9812H111.143V14.4719C111.441 13.5775 112.336 12.6831 113.826 12.6831C114.423 12.6831 114.721 12.6831 115.019 12.9812L114.423 15.9626Z" fill="black"/>
<path d="M126.651 27.2927H116.216L123.074 15.3671H116.514V12.9819H126.949L120.39 24.9075H126.651V27.2927Z" fill="black"/>
<path d="M131.121 10.2974C129.929 10.2974 129.332 9.70113 129.332 8.50857C129.332 7.31601 129.929 6.71973 131.121 6.71973C132.314 6.71973 132.91 7.31601 132.91 8.50857C132.91 9.99927 132.015 10.2974 131.121 10.2974ZM132.314 12.9807V27.2914H129.63V12.9807H132.314Z" fill="black"/>
<path d="M143.347 26.9946C142.751 27.2928 142.155 27.5909 140.962 27.5909C139.471 27.5909 137.384 26.9946 137.384 24.0132V15.3672H135.596V12.982H137.384V7.61552L140.068 7.31738V12.982H142.453V15.069H140.068V23.417C140.068 24.3114 140.664 24.6095 141.26 24.6095C141.857 24.6095 142.453 24.3114 143.049 24.3114L143.347 26.9946Z" fill="black"/>
<path d="M153.181 26.1001C152.883 26.3982 151.989 27.2927 149.902 27.2927C146.921 27.2927 145.132 25.802 145.132 22.8206C145.132 19.8392 147.219 18.3485 149.902 18.3485C151.393 18.3485 152.585 18.9447 153.181 19.541V17.7522C153.181 15.9633 151.989 15.3671 150.498 15.3671C148.709 15.3671 147.219 15.9633 146.622 16.2615L146.324 13.8764C147.219 13.5782 148.709 12.9819 150.796 12.9819C154.076 12.9819 155.865 14.7708 155.865 17.7522V27.2927H153.181V26.1001ZM153.181 22.5224C153.181 21.3299 151.989 20.7336 150.498 20.7336C149.008 20.7336 147.815 21.3299 147.815 23.1187C147.815 24.6094 149.008 25.2057 150.498 25.2057C151.989 25.2057 153.181 24.3113 153.181 23.1187V22.5224Z" fill="black"/>
<path d="M171.073 27.2918V8.50895H166.004V5.82568H179.122V8.50895H173.756V27.2918H171.073Z" fill="black"/>
<path d="M184.489 27.2927C180.911 27.2927 177.929 25.2057 177.929 20.1373C177.929 14.7708 180.911 12.9819 184.489 12.9819C187.768 12.9819 191.048 15.0689 191.048 20.1373C191.048 25.5038 188.066 27.2927 184.489 27.2927ZM184.489 15.3671C182.402 15.3671 180.911 17.1559 180.911 20.1373C180.911 23.1187 182.402 24.9075 184.489 24.9075C186.576 24.9075 188.066 23.4168 188.066 20.1373C188.066 16.8578 186.576 15.3671 184.489 15.3671Z" fill="black"/>
<path d="M210.128 18.0503C210.128 16.5596 209.234 15.3671 207.743 15.3671C205.954 15.3671 205.06 16.5596 205.06 18.0503V27.2927H202.376V18.0503C202.376 16.5596 201.482 15.3671 199.991 15.3671C198.202 15.3671 197.308 16.5596 197.308 18.0503V27.2927H194.625V12.9819H197.308V14.1745C197.904 13.5782 198.799 12.9819 200.588 12.9819C202.376 12.9819 203.867 13.5782 204.463 15.0689C205.358 13.8764 206.55 12.9819 208.339 12.9819C211.022 12.9819 213.109 14.7708 213.109 18.0503V27.2927H210.426V18.0503H210.128Z" fill="black"/>
<path d="M224.439 26.1006C224.141 26.6969 222.948 27.5913 221.159 27.5913C218.178 27.5913 216.389 26.1006 216.389 23.1192C216.389 20.1378 218.476 18.6471 221.159 18.6471C222.65 18.6471 223.843 19.2434 224.439 19.8397V17.7527C224.439 15.9638 223.246 15.3675 221.756 15.3675C219.967 15.3675 218.476 15.9638 217.88 16.262L217.582 13.8768C218.476 13.5787 219.967 12.9824 222.054 12.9824C225.333 12.9824 227.122 14.7713 227.122 17.7527V27.2932H224.439V26.1006ZM224.439 22.5229C224.439 21.3304 223.246 20.7341 221.756 20.7341C220.265 20.7341 219.072 21.3304 219.072 23.1192C219.072 24.6099 220.265 25.2062 221.756 25.2062C223.246 24.908 224.439 24.0136 224.439 22.8211V22.5229ZM222.65 6.42334H225.631L222.948 11.1936H220.861L222.65 6.42334Z" fill="black"/>
<path d="M234.872 27.2932C232.785 27.2932 230.997 26.6969 230.102 26.3987L230.997 24.0136C232.189 24.6099 233.68 24.908 235.17 24.908C236.363 24.908 237.556 24.6099 237.556 23.4173C237.556 22.2248 236.065 21.9266 234.574 21.3304C232.487 20.7341 230.4 20.1378 230.4 17.1564C230.4 14.175 232.487 12.9824 235.767 12.9824C237.854 12.9824 239.046 13.2806 239.941 13.8768L239.344 16.262C238.152 15.6657 237.257 15.3675 235.469 15.3675C233.978 15.3675 232.785 15.9638 232.785 17.1564C232.785 18.0508 233.978 18.349 235.17 18.9452C237.257 19.5415 239.941 20.1378 239.941 23.1192C240.239 25.8025 238.748 27.2932 234.872 27.2932ZM231.295 6.42334H233.68L235.469 9.1066L237.257 6.42334H239.643L236.959 11.1936H233.978L231.295 6.42334Z" fill="black"/>
<path d="M245.606 21.3292C245.904 24.0124 247.395 24.9069 249.184 24.9069C251.271 24.9069 252.463 24.3106 253.358 23.7143L253.954 26.3976C252.762 26.9938 251.271 27.292 249.184 27.292C245.606 27.292 242.625 25.205 242.625 20.1366C242.625 15.3664 245.308 12.6831 248.588 12.6831C252.463 12.6831 254.55 15.3664 254.55 19.5403V21.031H245.606V21.3292ZM251.867 19.2422C251.867 16.8571 250.675 15.3664 248.886 15.3664C247.395 15.3664 245.904 16.2608 245.606 19.2422H251.867Z" fill="black"/>
<path d="M270.945 27.2918H264.982V5.82568H271.243C275.119 5.82568 277.504 7.91267 277.504 11.4903C277.504 13.8755 276.312 15.3662 274.523 16.2606C276.312 17.155 277.802 18.9439 277.802 21.329C277.802 24.9067 275.119 27.2918 270.945 27.2918ZM271.243 8.50895H267.665V14.7699H270.945C273.032 14.7699 274.523 13.5773 274.523 11.4903C274.523 9.40337 273.33 8.50895 271.243 8.50895ZM270.945 17.4532H267.665V24.6085H270.945C273.032 24.6085 274.821 23.416 274.821 21.329C274.821 18.9439 273.032 17.4532 270.945 17.4532Z" fill="black"/>
<path d="M288.537 26.1001C288.239 26.6964 287.046 27.5908 285.257 27.5908C282.276 27.5908 280.487 26.1001 280.487 23.1187C280.487 20.1373 282.574 18.6466 285.257 18.6466C286.748 18.6466 287.941 19.2429 288.537 19.8392V17.7522C288.537 15.9633 287.344 15.3671 285.854 15.3671C284.065 15.3671 282.574 15.9633 281.978 16.2615L281.68 13.8764C282.574 13.5782 284.065 12.9819 286.152 12.9819C289.431 12.9819 291.22 14.7708 291.22 17.7522V27.2927H288.537V26.1001ZM288.537 22.5224C288.537 21.3299 287.344 20.7336 285.854 20.7336C284.363 20.7336 283.17 21.3299 283.17 23.1187C283.17 24.6094 284.363 25.2057 285.854 25.2057C287.344 25.2057 288.537 24.3113 288.537 23.1187V22.5224Z" fill="black"/>
<path d="M301.657 26.9946C301.061 27.2928 300.465 27.5909 299.272 27.5909C297.782 27.5909 295.695 26.9946 295.695 24.0132V15.3672H293.906V12.982H295.993V7.61552L298.676 7.31738V12.982H301.061V15.069H298.676V23.417C298.676 24.3114 299.272 24.6095 299.869 24.6095C300.465 24.6095 301.061 24.3114 301.657 24.3114V26.9946Z" fill="black"/>
<path d="M305.832 10.2974C304.64 10.2974 304.043 9.70113 304.043 8.50857C304.043 7.31601 304.64 6.71973 305.832 6.71973C307.025 6.71973 307.621 7.31601 307.621 8.50857C307.621 9.99927 306.726 10.2974 305.832 10.2974ZM307.025 12.9807V27.2914H304.341V12.9807H307.025Z" fill="black"/>
<path d="M315.969 12.9819H318.95L322.528 23.715L326.105 12.9819H329.087L324.018 27.2927H321.335L315.969 12.9819Z" fill="black"/>
<path d="M332.364 21.3292C332.663 24.0124 334.153 24.9069 335.942 24.9069C338.029 24.9069 339.222 24.3106 340.116 23.7143L340.712 26.3976C339.52 26.9938 338.029 27.292 335.942 27.292C332.364 27.292 329.383 25.205 329.383 20.1366C329.383 15.3664 332.066 12.6831 335.346 12.6831C339.222 12.6831 341.309 15.3664 341.309 19.5403V21.031H332.364V21.3292ZM338.625 19.2422C338.625 16.8571 337.433 15.3664 335.644 15.3664C334.153 15.3664 332.663 16.2608 332.364 19.2422H338.625Z" fill="black"/>
<path d="M362.777 27.2918H350.255L359.2 8.50895H350.852V5.82568H363.374L354.429 24.6085H362.777V27.2918Z" fill="black"/>
<path d="M368.738 5.82568V27.2918H366.055V5.82568H368.738Z" fill="black"/>
<path d="M374.7 6.42334H377.682L374.998 11.1936H372.911L374.7 6.42334ZM375.595 12.9824V27.2932H372.911V12.9824H375.595Z" fill="black"/>
<path d="M387.822 18.0503C387.822 16.5596 386.928 15.3671 385.437 15.3671C383.648 15.3671 382.754 16.5596 382.754 18.0503V27.2927H380.071V12.9819H382.754V14.1745C383.35 13.5782 384.245 12.9819 386.033 12.9819C388.717 12.9819 390.804 14.7708 390.804 18.0503V27.2927H388.12V18.0503H387.822Z" fill="black"/>
<path d="M396.467 21.3304C396.765 24.0136 398.255 24.908 400.044 24.908C402.131 24.908 403.324 24.3118 404.218 23.7155L404.814 26.3987C403.622 26.995 402.131 27.2932 400.044 27.2932C396.467 27.2932 393.485 25.2062 393.485 20.1378C393.485 15.3675 396.168 12.6843 399.448 12.6843C403.324 12.6843 405.411 15.3675 405.411 19.5415V21.0322H396.467V21.3304ZM395.572 6.42334H397.957L399.746 9.1066L401.535 6.42334H403.92L401.237 11.1936H398.255L395.572 6.42334ZM402.727 19.2434C402.727 16.8582 401.535 15.3675 399.746 15.3675C398.255 15.3675 396.765 16.262 396.467 19.2434H402.727Z" fill="black"/>
</svg>
