<svg width="409" height="65" viewBox="0 0 409 65" fill="none" xmlns="http://www.w3.org/2000/svg">
<path d="M51.5149 48.3V50.6851H44.9558V59.3312H42.5707V40.5483H52.7074V42.9335H44.9558V48.3H51.5149Z" fill="black"/>
<path d="M60.1622 58.1387C59.8641 58.4368 58.9696 59.3313 57.1808 59.3313C54.4975 59.3313 53.0068 57.8406 53.0068 55.4554C53.0068 52.7722 54.7957 51.2815 57.1808 51.2815C58.3734 51.2815 59.5659 51.8778 60.1622 52.1759V50.6852C60.1622 49.1945 59.2678 48.5982 57.7771 48.5982C56.2864 48.5982 55.0938 49.1945 54.1994 49.4926L53.9013 47.4056C54.7957 47.1075 55.9882 46.5112 57.7771 46.5112C60.4603 46.5112 62.2492 48.0019 62.2492 50.6852V59.0331H59.8641V58.1387H60.1622ZM60.1622 55.1573C60.1622 54.2629 58.9696 53.6666 57.7771 53.6666C56.5845 53.6666 55.392 54.2629 55.392 55.7536C55.392 56.9461 56.5845 57.5424 57.7771 57.5424C59.2678 57.5424 60.1622 56.648 60.1622 55.7536V55.1573Z" fill="black"/>
<path d="M68.5118 59.3312H66.1267V40.5483H68.5118V51.8777L72.6858 46.8093H75.6672L71.1951 52.1758L76.5616 59.3312H73.5802L68.81 52.7721V59.3312H68.5118Z" fill="black"/>
<path d="M84.9053 58.1394C84.6072 58.7357 83.7128 59.3319 81.9239 59.3319C79.5388 59.3319 78.0481 57.5431 78.0481 54.8598V46.8101H80.4332V54.8598C80.4332 56.3505 81.0295 57.245 82.5202 57.245C84.309 57.245 85.2035 56.0524 85.2035 54.5617V46.8101H87.2904V59.3319H84.9053V58.1394Z" fill="black"/>
<path d="M93.2544 40.5483V59.3312H90.8693V40.5483H93.2544Z" fill="black"/>
<path d="M102.497 59.0336C102.199 59.3318 101.603 59.3318 100.41 59.3318C98.9194 59.3318 97.4287 58.7355 97.4287 56.0522V48.5987H95.938V46.5117H97.4287V41.7415L99.8138 41.4434V46.5117H101.901V48.5987H99.8138V56.0522C99.8138 56.9467 100.41 57.2448 100.708 57.2448C101.305 57.2448 101.901 56.9467 102.199 56.9467L102.497 59.0336Z" fill="black"/>
<path d="M111.14 58.1387C110.842 58.4368 109.948 59.3313 108.159 59.3313C105.476 59.3313 103.985 57.8406 103.985 55.4554C103.985 52.7722 105.774 51.2815 108.159 51.2815C109.352 51.2815 110.544 51.8778 111.14 52.1759V50.6852C111.14 49.1945 110.246 48.5982 108.755 48.5982C107.265 48.5982 106.072 49.1945 105.178 49.4926V47.4056C106.072 47.1075 107.265 46.5112 109.053 46.5112C111.737 46.5112 113.526 48.0019 113.526 50.6852V59.0331H111.14V58.1387ZM111.14 55.1573C111.14 54.2629 109.948 53.6666 108.755 53.6666C107.563 53.6666 106.37 54.2629 106.37 55.7536C106.37 56.9461 107.563 57.5424 108.755 57.5424C110.246 57.5424 111.14 56.648 111.14 55.7536V55.1573Z" fill="black"/>
<path d="M137.082 51.2815C137.082 49.7908 136.188 48.8964 134.995 48.8964C133.505 48.8964 132.61 49.7908 132.61 51.2815V59.3313H130.225V51.2815C130.225 49.7908 129.331 48.8964 128.138 48.8964C126.647 48.8964 125.753 49.7908 125.753 51.2815V59.3313H123.07V46.8094H125.455V47.7038C125.753 47.1075 126.946 46.5112 128.436 46.5112C129.927 46.5112 131.119 47.1075 132.014 48.3001C132.61 47.4057 133.803 46.5112 135.592 46.5112C137.977 46.5112 139.766 48.3001 139.766 50.9833V59.0331H137.38V51.2815H137.082Z" fill="black"/>
<path d="M149.31 58.1387C149.012 58.4368 148.117 59.3313 146.328 59.3313C143.645 59.3313 142.154 57.8406 142.154 55.4554C142.154 52.7722 143.943 51.2815 146.328 51.2815C147.521 51.2815 148.713 51.8778 149.31 52.1759V50.6852C149.31 49.1945 148.415 48.5982 146.925 48.5982C145.434 48.5982 144.241 49.1945 143.347 49.4926L143.049 47.4056C143.943 47.1075 145.136 46.5112 146.925 46.5112C149.608 46.5112 151.397 48.0019 151.397 50.6852V59.0331H149.012V58.1387H149.31ZM149.31 55.1573C149.31 54.2629 148.117 53.6666 146.925 53.6666C145.732 53.6666 144.539 54.2629 144.539 55.7536C144.539 56.9461 145.732 57.5424 146.925 57.5424C148.415 57.5424 149.31 56.648 149.31 55.7536V55.1573Z" fill="black"/>
<path d="M162.422 51.2815C162.422 49.7908 161.527 48.8964 160.335 48.8964C158.844 48.8964 157.95 49.7908 157.95 51.2815V59.3313H155.565V46.8094H157.95V47.7038C158.248 47.1075 159.441 46.5112 160.931 46.5112C163.316 46.5112 165.105 48.3001 165.105 50.9833V59.0331H162.72V51.2815H162.422Z" fill="black"/>
<path d="M174.649 58.1387C174.351 58.4368 173.457 59.3313 171.668 59.3313C168.985 59.3313 167.494 57.8406 167.494 55.4554C167.494 52.7722 169.283 51.2815 171.668 51.2815C172.861 51.2815 174.053 51.8778 174.649 52.1759V50.6852C174.649 49.1945 173.755 48.5982 172.264 48.5982C170.774 48.5982 169.581 49.1945 168.687 49.4926L168.388 47.4056C169.283 47.1075 170.475 46.5112 172.264 46.5112C174.948 46.5112 176.736 48.0019 176.736 50.6852V59.0331H174.351V58.1387H174.649ZM174.649 55.1573C174.649 54.2629 173.457 53.6666 172.264 53.6666C171.072 53.6666 169.879 54.2629 169.879 55.7536C169.879 56.9461 171.072 57.5424 172.264 57.5424C173.755 57.5424 174.649 56.648 174.649 55.7536V55.1573Z" fill="black"/>
<path d="M190.745 59.3312C190.745 63.207 188.658 64.3996 185.677 64.3996C183.59 64.3996 182.099 63.8033 181.503 63.5051L181.801 61.4182C182.695 61.7163 183.888 62.3126 185.378 62.3126C186.869 62.3126 188.062 61.12 188.062 59.3312V57.8405C187.764 58.1386 186.571 59.3312 184.782 59.3312C182.397 59.3312 179.714 57.8405 179.714 53.3684C179.714 48.8963 182.099 47.1074 184.782 47.1074C186.869 47.1074 187.465 47.7037 187.764 48.3V47.4056H190.149V59.3312H190.745ZM188.36 51.5795C188.36 49.4925 187.167 48.5981 185.677 48.5981C184.186 48.5981 182.695 49.7907 182.695 52.7721C182.695 55.7535 183.888 56.6479 185.677 56.6479C187.167 56.6479 188.658 55.7535 188.658 53.6665V51.5795H188.36Z" fill="black"/>
<path d="M196.115 53.9654C196.413 56.3505 197.605 57.245 199.394 57.245C201.183 57.245 202.376 56.9468 203.27 56.3505L203.568 58.7357C202.376 59.332 201.183 59.6301 199.394 59.6301C196.413 59.6301 193.73 57.8412 193.73 53.3691C193.73 49.1952 196.115 46.8101 199.096 46.8101C202.376 46.8101 204.165 49.1952 204.165 52.7729V53.9654H196.115ZM201.779 52.1766C201.779 50.0896 200.587 48.897 199.096 48.897C197.904 48.897 196.711 49.4933 196.413 52.1766H201.779Z" fill="black"/>
<path d="M220.859 51.2815C220.859 49.7908 219.964 48.8964 218.772 48.8964C217.281 48.8964 216.387 49.7908 216.387 51.2815V59.3313H214.001V51.2815C214.001 49.7908 213.107 48.8964 211.914 48.8964C210.424 48.8964 209.529 49.7908 209.529 51.2815V59.3313H207.144V46.8094H209.529V47.7038C209.827 47.1075 211.02 46.5112 212.511 46.5112C214.001 46.5112 215.194 47.1075 216.088 48.3001C216.685 47.4057 217.877 46.5112 219.666 46.5112C222.051 46.5112 223.84 48.3001 223.84 50.9833V59.0331H221.455V51.2815H220.859Z" fill="black"/>
<path d="M228.61 53.9654C228.908 56.3505 230.1 57.245 231.889 57.245C233.678 57.245 234.871 56.9468 235.765 56.3505L236.063 58.7357C234.871 59.332 233.678 59.6301 231.889 59.6301C228.908 59.6301 226.225 57.8412 226.225 53.3691C226.225 49.1952 228.61 46.8101 231.591 46.8101C234.871 46.8101 236.66 49.1952 236.66 52.7729V53.9654H228.61ZM234.274 52.1766C234.274 50.0896 233.082 48.897 231.591 48.897C230.399 48.897 229.206 49.4933 228.908 52.1766H234.274Z" fill="black"/>
<path d="M246.496 51.2815C246.496 49.7908 245.602 48.8964 244.409 48.8964C242.919 48.8964 242.024 49.7908 242.024 51.2815V59.3313H239.639V46.8094H242.024V47.7038C242.322 47.1075 243.515 46.5112 245.006 46.5112C247.391 46.5112 249.18 48.3001 249.18 50.9833V59.0331H246.795V51.2815H246.496Z" fill="black"/>
<path d="M258.127 59.0322C257.829 59.3303 257.233 59.3303 256.04 59.3303C254.549 59.3303 253.059 58.734 253.059 56.0508V48.5973H251.27V46.5103H252.761V41.74L255.146 41.4419V46.5103H257.233V48.5973H255.146V56.0508C255.146 56.9452 255.742 57.2433 256.04 57.2433C256.636 57.2433 257.233 56.9452 257.531 56.9452L258.127 59.0322Z" fill="black"/>
<path d="M267.369 58.1394C267.071 58.7357 266.176 59.3319 264.387 59.3319C262.002 59.3319 260.511 57.5431 260.511 54.8598V46.8101H262.897V54.8598C262.897 56.3505 263.493 57.245 264.984 57.245C266.772 57.245 267.667 56.0524 267.667 54.5617V46.8101H270.052V59.3319H267.667V58.1394H267.369Z" fill="black"/>
<path d="M285.557 58.1387C285.259 58.4368 284.364 59.3313 282.575 59.3313C279.892 59.3313 278.401 57.8406 278.401 55.4554C278.401 52.7722 280.19 51.2815 282.575 51.2815C283.768 51.2815 284.961 51.8778 285.557 52.1759V50.6852C285.557 49.1945 284.662 48.5982 283.172 48.5982C281.681 48.5982 280.488 49.1945 279.594 49.4926L279.296 47.4056C280.19 47.1075 281.383 46.5112 283.172 46.5112C285.855 46.5112 287.644 48.0019 287.644 50.6852V59.0331H285.259V58.1387H285.557ZM285.557 55.1573C285.557 54.2629 284.364 53.6666 283.172 53.6666C281.979 53.6666 280.787 54.2629 280.787 55.7536C280.787 56.9461 281.979 57.5424 283.172 57.5424C284.662 57.5424 285.557 56.648 285.557 55.7536V55.1573Z" fill="black"/>
<path d="M299.568 53.9654C299.867 56.3505 301.059 57.245 302.848 57.245C304.637 57.245 305.829 56.9468 306.724 56.3505L307.022 58.7357C305.829 59.332 304.637 59.6301 302.848 59.6301C299.867 59.6301 297.183 57.8412 297.183 53.3691C297.183 49.1952 299.568 46.8101 302.55 46.8101C305.829 46.8101 307.618 49.1952 307.618 52.7729V53.9654H299.568ZM304.935 52.1766C304.935 50.0896 303.742 48.897 302.252 48.897C301.059 48.897 299.867 49.4933 299.568 52.1766H304.935Z" fill="black"/>
<path d="M312.688 59.3312H310.303V40.5483H312.688V51.8777L316.862 46.8093H319.844L315.372 52.1758L320.738 59.3312H317.757L312.986 52.7721V59.3312H312.688Z" fill="black"/>
<path d="M326.105 59.3319C323.124 59.3319 320.441 57.5431 320.441 53.071C320.441 48.5989 323.124 46.8101 326.105 46.8101C329.087 46.8101 331.77 48.5989 331.77 53.071C331.77 57.8412 329.087 59.3319 326.105 59.3319ZM326.105 48.897C324.317 48.897 322.826 50.3877 322.826 53.071C322.826 55.7543 324.317 57.245 326.105 57.245C327.894 57.245 329.385 55.7543 329.385 53.071C329.385 50.3877 327.894 48.897 326.105 48.897Z" fill="black"/>
<path d="M341.608 51.2815C341.608 49.7908 340.714 48.8964 339.521 48.8964C338.031 48.8964 337.136 49.7908 337.136 51.2815V59.3313H334.751V46.8094H337.136V47.7038C337.434 47.1075 338.627 46.5112 340.118 46.5112C342.503 46.5112 344.292 48.3001 344.292 50.9833V59.0331H341.906V51.2815H341.608Z" fill="black"/>
<path d="M352.337 59.3319C349.356 59.3319 346.672 57.5431 346.672 53.071C346.672 48.5989 349.356 46.8101 352.337 46.8101C355.318 46.8101 358.002 48.5989 358.002 53.071C358.002 57.8412 355.318 59.3319 352.337 59.3319ZM352.337 48.897C350.548 48.897 349.058 50.3877 349.058 53.071C349.058 55.7543 350.548 57.245 352.337 57.245C354.126 57.245 355.617 55.7543 355.617 53.071C355.617 50.3877 354.424 48.897 352.337 48.897Z" fill="black"/>
<path d="M375 51.2815C375 49.7908 374.105 48.8964 372.913 48.8964C371.422 48.8964 370.528 49.7908 370.528 51.2815V59.3313H368.143V51.2815C368.143 49.7908 367.248 48.8964 366.056 48.8964C364.565 48.8964 363.671 49.7908 363.671 51.2815V59.3313H361.285V46.8094H363.671V47.7038C363.969 47.1075 365.161 46.5112 366.652 46.5112C368.143 46.5112 369.335 47.1075 370.23 48.3001C370.826 47.4057 372.019 46.5112 373.807 46.5112C376.192 46.5112 377.981 48.3001 377.981 50.9833V59.0331H375.596V51.2815H375Z" fill="black"/>
<path d="M382.151 44.4233C381.257 44.4233 380.661 43.827 380.661 42.9326C380.661 42.0382 381.257 41.4419 382.151 41.4419C383.046 41.4419 383.642 42.0382 383.642 42.9326C383.642 44.1252 383.046 44.4233 382.151 44.4233ZM383.344 46.8084V59.3303H380.959V46.8084H383.344Z" fill="black"/>
<path d="M389.309 59.3312H386.924V40.5483H389.309V51.8777L393.483 46.8093H396.464L391.992 52.1758L397.359 59.3312H394.377L389.607 52.7721V59.3312H389.309Z" fill="black"/>
<path d="M401.828 64.4003V57.245L397.057 46.8101H399.741L403.02 54.5617L406.3 46.8101H408.983L404.213 57.245V64.4003H401.828Z" fill="black"/>
<path d="M22.8958 0L0.833374 7.45351V0H22.8958ZM0.833374 8.64607C0.833374 9.83863 2.62222 10.733 4.7092 10.733C5.60362 10.733 6.1999 10.4349 6.79618 10.4349C7.6906 10.1368 27.9641 2.9814 27.9641 2.9814V32.4973C27.9641 32.4973 7.39246 39.6526 6.79618 39.9508C6.1999 40.2489 5.30548 40.2489 4.7092 40.2489C2.62222 40.2489 0.833374 39.0564 0.833374 37.2675V8.64607Z" fill="#64B9E4"/>
<path d="M55.6917 19.6767C55.6917 24.4469 53.9029 27.1302 49.1326 27.1302C44.3624 27.1302 42.2754 24.4469 42.2754 19.6767V5.66406H44.9587V19.6767C44.9587 22.9562 45.8531 24.745 48.8345 24.745C51.8159 24.745 52.7103 22.9562 52.7103 19.6767V5.66406H55.3936V19.6767H55.6917Z" fill="black"/>
<path d="M67.913 17.8882C67.913 16.3975 67.0186 15.2049 65.5279 15.2049C63.7391 15.2049 62.8446 16.3975 62.8446 17.8882V27.1306H60.1614V12.8198H62.8446V14.0124C63.4409 13.4161 64.3353 12.8198 66.1242 12.8198C68.8074 12.8198 70.8944 14.6087 70.8944 17.8882V27.1306H68.2112V17.8882H67.913Z" fill="black"/>
<path d="M75.966 10.1368C74.7734 10.1368 74.1771 9.54048 74.1771 8.34792C74.1771 7.15536 74.7734 6.55908 75.966 6.55908C77.1585 6.55908 77.7548 7.15536 77.7548 8.34792C77.7548 9.83862 77.1585 10.1368 75.966 10.1368ZM77.4567 12.82V27.1308H74.7734V12.82H77.4567Z" fill="black"/>
<path d="M79.5447 12.8198H82.5261L86.1038 23.5529L89.6814 12.8198H92.6628L87.2963 27.1306H84.6131L79.5447 12.8198Z" fill="black"/>
<path d="M95.9404 21.1671C96.2385 23.8503 97.7292 24.7447 99.5181 24.7447C101.605 24.7447 102.798 24.1485 103.692 23.5522L104.288 26.2355C103.096 26.8317 101.605 27.1299 99.5181 27.1299C95.9404 27.1299 92.959 25.0429 92.959 19.9745C92.959 15.2043 95.6423 12.521 98.9218 12.521C102.798 12.521 104.885 15.2043 104.885 19.3782V20.8689H95.9404V21.1671ZM102.201 19.0801C102.201 16.695 101.009 15.2043 99.2199 15.2043C97.7292 15.2043 96.2385 16.0987 95.9404 19.0801H102.201Z" fill="black"/>
<path d="M114.423 15.8005C114.125 15.8005 113.528 15.5024 112.634 15.5024C111.74 15.5024 111.143 16.3968 111.143 17.8875V27.1299H108.46V12.8191H111.143V14.3098C111.441 13.4154 112.336 12.521 113.826 12.521C114.423 12.521 114.721 12.521 115.019 12.8191L114.423 15.8005Z" fill="black"/>
<path d="M126.651 27.1306H116.216L123.074 15.2049H116.514V12.8198H126.949L120.39 24.7454H126.651V27.1306Z" fill="black"/>
<path d="M131.121 10.1368C129.929 10.1368 129.332 9.54048 129.332 8.34792C129.332 7.15536 129.929 6.55908 131.121 6.55908C132.314 6.55908 132.91 7.15536 132.91 8.34792C132.91 9.83862 132.015 10.1368 131.121 10.1368ZM132.314 12.82V27.1308H129.63V12.82H132.314Z" fill="black"/>
<path d="M143.347 26.8325C142.751 27.1307 142.155 27.4288 140.962 27.4288C139.471 27.4288 137.384 26.8325 137.384 23.8511V15.2051H135.596V12.8199H137.384V7.45341L140.068 7.15527V12.8199H142.453V14.9069H140.068V23.2548C140.068 24.1493 140.664 24.4474 141.26 24.4474C141.857 24.4474 142.453 24.1493 143.049 24.1493L143.347 26.8325Z" fill="black"/>
<path d="M153.181 25.938C152.883 26.2361 151.989 27.1306 149.902 27.1306C146.921 27.1306 145.132 25.6399 145.132 22.6585C145.132 19.677 147.219 18.1863 149.902 18.1863C151.393 18.1863 152.585 18.7826 153.181 19.3789V17.5901C153.181 15.8012 151.989 15.2049 150.498 15.2049C148.709 15.2049 147.219 15.8012 146.622 16.0994L146.324 13.7142C147.219 13.4161 148.709 12.8198 150.796 12.8198C154.076 12.8198 155.865 14.6087 155.865 17.5901V27.1306H153.181V25.938ZM153.181 22.3603C153.181 21.1677 151.989 20.5715 150.498 20.5715C149.008 20.5715 147.815 21.1677 147.815 22.9566C147.815 24.4473 149.008 25.0436 150.498 25.0436C151.989 25.0436 153.181 24.1492 153.181 22.9566V22.3603Z" fill="black"/>
<path d="M171.073 27.1302V8.34733H166.004V5.66406H179.122V8.34733H173.756V27.1302H171.073Z" fill="black"/>
<path d="M184.489 27.1306C180.911 27.1306 177.929 25.0436 177.929 19.9752C177.929 14.6087 180.911 12.8198 184.489 12.8198C187.768 12.8198 191.048 14.9068 191.048 19.9752C191.048 25.3417 188.066 27.1306 184.489 27.1306ZM184.489 15.2049C182.402 15.2049 180.911 16.9938 180.911 19.9752C180.911 22.9566 182.402 24.7454 184.489 24.7454C186.576 24.7454 188.066 23.2547 188.066 19.9752C188.066 16.6956 186.576 15.2049 184.489 15.2049Z" fill="black"/>
<path d="M210.128 17.8882C210.128 16.3975 209.234 15.2049 207.743 15.2049C205.954 15.2049 205.06 16.3975 205.06 17.8882V27.1306H202.376V17.8882C202.376 16.3975 201.482 15.2049 199.991 15.2049C198.202 15.2049 197.308 16.3975 197.308 17.8882V27.1306H194.625V12.8198H197.308V14.0124C197.904 13.4161 198.799 12.8198 200.588 12.8198C202.376 12.8198 203.867 13.4161 204.463 14.9068C205.358 13.7142 206.55 12.8198 208.339 12.8198C211.022 12.8198 213.109 14.6087 213.109 17.8882V27.1306H210.426V17.8882H210.128Z" fill="black"/>
<path d="M224.439 25.939C224.141 26.5353 222.948 27.4297 221.159 27.4297C218.178 27.4297 216.389 25.939 216.389 22.9576C216.389 19.9762 218.476 18.4855 221.159 18.4855C222.65 18.4855 223.843 19.0817 224.439 19.678V17.591C224.439 15.8022 223.246 15.2059 221.756 15.2059C219.967 15.2059 218.476 15.8022 217.88 16.1003L217.582 13.7152C218.476 13.4171 219.967 12.8208 222.054 12.8208C225.333 12.8208 227.122 14.6096 227.122 17.591V27.1315H224.439V25.939ZM224.439 22.3613C224.439 21.1687 223.246 20.5725 221.756 20.5725C220.265 20.5725 219.072 21.1687 219.072 22.9576C219.072 24.4483 220.265 25.0446 221.756 25.0446C223.246 24.7464 224.439 23.852 224.439 22.6594V22.3613ZM222.65 6.26172H225.631L222.948 11.032H220.861L222.65 6.26172Z" fill="black"/>
<path d="M234.872 27.1315C232.785 27.1315 230.997 26.5353 230.102 26.2371L230.997 23.852C232.189 24.4483 233.68 24.7464 235.17 24.7464C236.363 24.7464 237.556 24.4483 237.556 23.2557C237.556 22.0632 236.065 21.765 234.574 21.1687C232.487 20.5725 230.4 19.9762 230.4 16.9948C230.4 14.0134 232.487 12.8208 235.767 12.8208C237.854 12.8208 239.046 13.1189 239.941 13.7152L239.344 16.1003C238.152 15.5041 237.257 15.2059 235.469 15.2059C233.978 15.2059 232.785 15.8022 232.785 16.9948C232.785 17.8892 233.978 18.1873 235.17 18.7836C237.257 19.3799 239.941 19.9762 239.941 22.9576C240.239 25.6408 238.748 27.1315 234.872 27.1315ZM231.295 6.26172H233.68L235.469 8.94498L237.257 6.26172H239.643L236.959 11.032H233.978L231.295 6.26172Z" fill="black"/>
<path d="M245.606 21.1671C245.904 23.8503 247.395 24.7447 249.184 24.7447C251.271 24.7447 252.463 24.1485 253.358 23.5522L253.954 26.2355C252.762 26.8317 251.271 27.1299 249.184 27.1299C245.606 27.1299 242.625 25.0429 242.625 19.9745C242.625 15.2043 245.308 12.521 248.588 12.521C252.463 12.521 254.55 15.2043 254.55 19.3782V20.8689H245.606V21.1671ZM251.867 19.0801C251.867 16.695 250.675 15.2043 248.886 15.2043C247.395 15.2043 245.904 16.0987 245.606 19.0801H251.867Z" fill="black"/>
<path d="M270.945 27.1302H264.982V5.66406H271.243C275.119 5.66406 277.504 7.75104 277.504 11.3287C277.504 13.7139 276.312 15.2046 274.523 16.099C276.312 16.9934 277.802 18.7822 277.802 21.1674C277.802 24.745 275.119 27.1302 270.945 27.1302ZM271.243 8.34733H267.665V14.6083H270.945C273.032 14.6083 274.523 13.4157 274.523 11.3287C274.523 9.24175 273.33 8.34733 271.243 8.34733ZM270.945 17.2915H267.665V24.4469H270.945C273.032 24.4469 274.821 23.2543 274.821 21.1674C274.821 18.7822 273.032 17.2915 270.945 17.2915Z" fill="black"/>
<path d="M288.537 25.938C288.239 26.5343 287.046 27.4287 285.257 27.4287C282.276 27.4287 280.487 25.938 280.487 22.9566C280.487 19.9752 282.574 18.4845 285.257 18.4845C286.748 18.4845 287.941 19.0808 288.537 19.677V17.5901C288.537 15.8012 287.344 15.2049 285.854 15.2049C284.065 15.2049 282.574 15.8012 281.978 16.0994L281.68 13.7142C282.574 13.4161 284.065 12.8198 286.152 12.8198C289.431 12.8198 291.22 14.6087 291.22 17.5901V27.1306H288.537V25.938ZM288.537 22.3603C288.537 21.1678 287.344 20.5715 285.854 20.5715C284.363 20.5715 283.17 21.1678 283.17 22.9566C283.17 24.4473 284.363 25.0436 285.854 25.0436C287.344 25.0436 288.537 24.1492 288.537 22.9566V22.3603Z" fill="black"/>
<path d="M301.657 26.8325C301.061 27.1307 300.465 27.4288 299.272 27.4288C297.782 27.4288 295.695 26.8325 295.695 23.8511V15.2051H293.906V12.8199H295.993V7.45341L298.676 7.15527V12.8199H301.061V14.9069H298.676V23.2548C298.676 24.1493 299.272 24.4474 299.869 24.4474C300.465 24.4474 301.061 24.1493 301.657 24.1493V26.8325Z" fill="black"/>
<path d="M305.832 10.1368C304.64 10.1368 304.043 9.54048 304.043 8.34792C304.043 7.15536 304.64 6.55908 305.832 6.55908C307.025 6.55908 307.621 7.15536 307.621 8.34792C307.621 9.83862 306.726 10.1368 305.832 10.1368ZM307.025 12.82V27.1308H304.341V12.82H307.025Z" fill="black"/>
<path d="M315.969 12.8198H318.95L322.528 23.5529L326.105 12.8198H329.087L324.018 27.1306H321.335L315.969 12.8198Z" fill="black"/>
<path d="M332.364 21.1671C332.663 23.8503 334.153 24.7447 335.942 24.7447C338.029 24.7447 339.222 24.1485 340.116 23.5522L340.712 26.2355C339.52 26.8317 338.029 27.1299 335.942 27.1299C332.364 27.1299 329.383 25.0429 329.383 19.9745C329.383 15.2043 332.066 12.521 335.346 12.521C339.222 12.521 341.309 15.2043 341.309 19.3782V20.8689H332.364V21.1671ZM338.625 19.0801C338.625 16.695 337.433 15.2043 335.644 15.2043C334.153 15.2043 332.663 16.0987 332.364 19.0801H338.625Z" fill="black"/>
<path d="M362.777 27.1302H350.255L359.2 8.34733H350.852V5.66406H363.374L354.429 24.4469H362.777V27.1302Z" fill="black"/>
<path d="M368.738 5.66406V27.1302H366.055V5.66406H368.738Z" fill="black"/>
<path d="M374.7 6.26172H377.682L374.998 11.032H372.911L374.7 6.26172ZM375.595 12.8208V27.1315H372.911V12.8208H375.595Z" fill="black"/>
<path d="M387.822 17.8882C387.822 16.3975 386.928 15.2049 385.437 15.2049C383.648 15.2049 382.754 16.3975 382.754 17.8882V27.1306H380.071V12.8198H382.754V14.0124C383.35 13.4161 384.245 12.8198 386.033 12.8198C388.717 12.8198 390.804 14.6087 390.804 17.8882V27.1306H388.12V17.8882H387.822Z" fill="black"/>
<path d="M396.467 21.1687C396.765 23.852 398.255 24.7464 400.044 24.7464C402.131 24.7464 403.324 24.1501 404.218 23.5539L404.814 26.2371C403.622 26.8334 402.131 27.1315 400.044 27.1315C396.467 27.1315 393.485 25.0446 393.485 19.9762C393.485 15.2059 396.168 12.5227 399.448 12.5227C403.324 12.5227 405.411 15.2059 405.411 19.3799V20.8706H396.467V21.1687ZM395.572 6.26172H397.957L399.746 8.94498L401.535 6.26172H403.92L401.237 11.032H398.255L395.572 6.26172ZM402.727 19.0817C402.727 16.6966 401.535 15.2059 399.746 15.2059C398.255 15.2059 396.765 16.1003 396.467 19.0817H402.727Z" fill="black"/>
</svg>
