<svg width="560" height="120" viewBox="0 0 560 120" fill="none" xmlns="http://www.w3.org/2000/svg">
<g clip-path="url(#clip0)">
<path d="M88.8571 80.0647V82.9921H80.5923V93.7377H77.5161V70.3936H90.1544V73.3209H80.5923V80.1018H88.8571V80.0647Z" fill="black"/>
<path d="M99.9014 92.3673C99.4197 92.9231 98.3818 93.8866 96.1952 93.8866C92.8597 93.8866 90.9695 92.1451 90.9695 88.9584C90.9695 85.6976 93.2302 83.9191 96.2693 83.9191C97.9001 83.9191 99.2343 84.5489 99.8644 85.1789V83.2891C99.8644 81.4363 98.6413 80.7694 97.0106 80.7694C95.1946 80.7694 93.5638 81.3623 92.7114 81.6957L92.3779 79.0278C93.3044 78.6574 94.861 78.1016 97.3441 78.1016C100.828 78.1016 102.792 79.9172 102.792 83.2891V93.7013H99.8644V92.3673H99.9014ZM99.9014 88.5138C99.9014 87.328 98.456 86.5128 96.8994 86.5128C95.3798 86.5128 94.0827 87.1428 94.0827 88.9584C94.0827 90.6258 95.491 91.2187 96.8994 91.2187C98.5672 91.2187 99.9014 90.107 99.9014 89.0325V88.5138Z" fill="black"/>
<path d="M110.279 93.7377H107.351V70.3936H110.279V84.4371L115.319 78.3232H119.063L113.392 84.8447L119.952 93.7377H116.246L110.279 85.4005V93.7377Z" fill="black"/>
<path d="M130.552 92.2555C130.033 92.9225 129.143 93.8859 126.845 93.8859C123.843 93.8859 121.879 91.8479 121.879 88.4019V78.2861H124.807V88.3278C124.807 90.0693 125.622 91.2921 127.327 91.2921C129.44 91.2921 130.552 89.7359 130.552 87.9943V78.3232H133.48V93.7377H130.552V92.2555Z" fill="black"/>
<path d="M140.929 70.3574V93.7016H138.001V70.3574H140.929Z" fill="black"/>
<path d="M152.233 93.3675C151.714 93.6269 151.047 93.8863 149.713 93.8863C147.934 93.8863 145.858 93.2193 145.858 89.8474V80.732H143.857V78.2865H145.858V72.2838L148.786 71.9502V78.2865H151.306V80.732H148.786V89.8474C148.786 90.959 149.379 91.2554 150.009 91.2554C150.75 91.2554 151.306 91.0332 151.862 90.7738L152.233 93.3675Z" fill="black"/>
<path d="M163.091 92.3673C162.61 92.9231 161.572 93.8866 159.386 93.8866C156.05 93.8866 154.16 92.1451 154.16 88.9584C154.16 85.6976 156.421 83.9191 159.46 83.9191C161.091 83.9191 162.424 84.5489 163.055 85.1789V83.2891C163.055 81.4363 161.832 80.7694 160.201 80.7694C158.385 80.7694 156.754 81.3623 155.902 81.6957L155.568 79.0278C156.495 78.6574 158.052 78.1016 160.535 78.1016C164.019 78.1016 165.982 79.9172 165.982 83.2891V93.7013H163.055V92.3673H163.091ZM163.091 88.5138C163.091 87.328 161.646 86.5128 160.09 86.5128C158.57 86.5128 157.273 87.1428 157.273 88.9584C157.273 90.6258 158.682 91.2187 160.09 91.2187C161.757 91.2187 163.091 90.107 163.091 89.0325V88.5138Z" fill="black"/>
<path d="M195.336 83.6967C195.336 81.9551 194.373 80.7323 192.63 80.7323C190.629 80.7323 189.592 81.9551 189.592 83.6967V93.7013H186.663V83.6597C186.663 81.9181 185.7 80.6953 183.958 80.6953C181.957 80.6953 180.919 81.9181 180.919 83.6597V93.6643H177.99V78.2498H180.919V79.5466C181.475 78.9167 182.624 78.1016 184.439 78.1016C186.367 78.1016 187.886 78.9167 188.739 80.3618C189.554 79.2132 190.963 78.1016 193.075 78.1016C196.077 78.1016 198.19 80.1395 198.19 83.5855V93.7013H195.262V83.6967H195.336Z" fill="black"/>
<path d="M210.754 92.3673C210.272 92.9231 209.234 93.8866 207.048 93.8866C203.712 93.8866 201.822 92.1451 201.822 88.9584C201.822 85.6976 204.083 83.9191 207.121 83.9191C208.752 83.9191 210.087 84.5489 210.717 85.1789V83.2891C210.717 81.4363 209.494 80.7694 207.863 80.7694C206.047 80.7694 204.416 81.3623 203.563 81.6957L203.23 79.0278C204.157 78.6574 205.676 78.1016 208.196 78.1016C211.68 78.1016 213.645 79.9172 213.645 83.2891V93.7013H210.717V92.3673H210.754ZM210.754 88.5138C210.754 87.328 209.308 86.5128 207.752 86.5128C206.232 86.5128 204.935 87.1428 204.935 88.9584C204.935 90.6258 206.343 91.2187 207.752 91.2187C209.42 91.2187 210.754 90.107 210.754 89.0325V88.5138Z" fill="black"/>
<path d="M226.839 83.6968C226.839 81.9552 225.875 80.7324 224.133 80.7324C222.131 80.7324 221.094 81.9552 221.094 83.6968V93.7014H218.167V78.2869H221.094V79.5838C221.65 78.9539 222.762 78.1387 224.616 78.1387C227.618 78.1387 229.73 80.1766 229.73 83.6227V93.7385H226.801V83.6968H226.839Z" fill="black"/>
<path d="M242.256 92.3673C241.775 92.9231 240.736 93.8866 238.55 93.8866C235.215 93.8866 233.325 92.1451 233.325 88.9584C233.325 85.6976 235.585 83.9191 238.625 83.9191C240.255 83.9191 241.589 84.5489 242.22 85.1789V83.2891C242.22 81.4363 240.997 80.7694 239.365 80.7694C237.55 80.7694 235.919 81.3623 235.067 81.6957L234.734 79.0278C235.66 78.6574 237.216 78.1016 239.699 78.1016C243.182 78.1016 245.147 79.9172 245.147 83.2891V93.7013H242.22V92.3673H242.256ZM242.256 88.5138C242.256 87.328 240.811 86.5128 239.254 86.5128C237.736 86.5128 236.438 87.1428 236.438 88.9584C236.438 90.6258 237.847 91.2187 239.254 91.2187C240.96 91.2187 242.256 90.107 242.256 89.0325V88.5138Z" fill="black"/>
<path d="M262.159 93.5531C262.159 98.259 259.453 100.001 255.821 100.001C253.3 100.001 251.485 99.2594 250.743 98.889L251.262 96.1469C252.188 96.5174 253.708 97.2586 255.784 97.2586C257.711 97.2586 259.231 95.9246 259.231 93.7383V91.8115C258.786 92.3673 257.525 93.5531 255.228 93.5531C252.411 93.5531 249.075 91.6263 249.075 85.957C249.075 80.4359 252.226 78.1016 255.524 78.1016C257.97 78.1016 258.786 78.9908 259.268 79.5096V78.2498H262.195V93.5531H262.159ZM259.231 84.2525C259.231 81.8069 257.711 80.7323 255.821 80.7323C254.005 80.7323 252.115 82.1775 252.115 85.994C252.115 89.5512 253.708 90.8111 255.635 90.8111C257.563 90.8111 259.193 89.6624 259.193 87.1798V84.2525H259.231Z" fill="black"/>
<path d="M268.866 87.1799C269.2 89.996 270.831 91.1446 272.796 91.1446C275.02 91.1446 276.354 90.5888 277.502 89.996L278.022 92.8122C276.613 93.442 275.204 93.8867 272.758 93.8867C268.866 93.8867 265.717 91.4782 265.717 86.1423C265.717 80.9178 268.644 78.1387 272.313 78.1387C276.502 78.1387 278.8 81.103 278.8 85.6235V87.1799H268.866ZM275.723 84.8455C275.723 82.1406 274.389 80.7324 272.313 80.7324C270.72 80.7324 269.2 81.6218 268.866 84.8455H275.723Z" fill="black"/>
<path d="M299.665 83.6967C299.665 81.9551 298.702 80.7323 296.96 80.7323C294.959 80.7323 293.921 81.9551 293.921 83.6967V93.7013H290.993V83.6597C290.993 81.9181 290.03 80.6953 288.324 80.6953C286.323 80.6953 285.285 81.9181 285.285 83.6597V93.6643H282.358V78.2498H285.285V79.5466C285.841 78.9167 286.99 78.1016 288.807 78.1016C290.734 78.1016 292.254 78.9167 293.105 80.3618C293.921 79.2132 295.329 78.1016 297.441 78.1016C300.443 78.1016 302.556 80.1395 302.556 83.5855V93.7013H299.628V83.6967H299.665Z" fill="black"/>
<path d="M309.302 87.1799C309.635 89.996 311.266 91.1446 313.23 91.1446C315.454 91.1446 316.788 90.5888 317.938 89.996L318.456 92.8122C317.048 93.442 315.639 93.8867 313.193 93.8867C309.302 93.8867 306.152 91.4782 306.152 86.1423C306.152 80.9178 309.079 78.1387 312.748 78.1387C316.937 78.1387 319.234 81.103 319.234 85.6235V87.1799H309.302ZM316.159 84.8455C316.159 82.1406 314.824 80.7324 312.748 80.7324C311.155 80.7324 309.635 81.6218 309.302 84.8455H316.159Z" fill="black"/>
<path d="M331.428 83.6968C331.428 81.9552 330.464 80.7324 328.759 80.7324C326.758 80.7324 325.721 81.9552 325.721 83.6968V93.7014H322.792V78.2869H325.721V79.5838C326.277 78.9539 327.425 78.1387 329.241 78.1387C332.243 78.1387 334.355 80.1766 334.355 83.6227V93.7385H331.428V83.6968Z" fill="black"/>
<path d="M345.66 93.3675C345.14 93.6269 344.473 93.8863 343.139 93.8863C341.36 93.8863 339.284 93.2193 339.284 89.8474V80.732H337.283V78.2865H339.284V72.2838L342.213 71.9502V78.2865H344.732V80.732H342.213V89.8474C342.213 90.959 342.805 91.2554 343.436 91.2554C344.176 91.2554 344.732 91.0332 345.288 90.7738L345.66 93.3675Z" fill="black"/>
<path d="M357.259 92.2555C356.74 92.9225 355.851 93.8859 353.554 93.8859C350.552 93.8859 348.587 91.8479 348.587 88.4019V78.2861H351.514V88.3278C351.514 90.0693 352.331 91.2921 354.035 91.2921C356.148 91.2921 357.259 89.7359 357.259 87.9943V78.3232H360.187V93.7377H357.259V92.2555Z" fill="black"/>
<path d="M380.089 92.3673C379.608 92.9231 378.571 93.8866 376.384 93.8866C373.048 93.8866 371.158 92.1451 371.158 88.9584C371.158 85.6976 373.418 83.9191 376.458 83.9191C378.088 83.9191 379.422 84.5489 380.053 85.1789V83.2891C380.053 81.4363 378.83 80.7694 377.199 80.7694C375.383 80.7694 373.752 81.3623 372.9 81.6957L372.567 79.0278C373.493 78.6574 375.013 78.1016 377.532 78.1016C381.017 78.1016 382.98 79.9172 382.98 83.2891V93.7013H380.053V92.3673H380.089ZM380.089 88.5138C380.089 87.328 378.644 86.5128 377.087 86.5128C375.569 86.5128 374.271 87.1428 374.271 88.9584C374.271 90.6258 375.68 91.2187 377.087 91.2187C378.755 91.2187 380.089 90.107 380.089 89.0325V88.5138Z" fill="black"/>
<path d="M397.175 87.1799C397.509 89.996 399.102 91.1446 401.104 91.1446C403.327 91.1446 404.662 90.5888 405.811 89.996L406.329 92.8122C404.922 93.442 403.513 93.8867 401.067 93.8867C397.175 93.8867 394.026 91.4782 394.026 86.1423C394.026 80.9178 396.953 78.1387 400.622 78.1387C404.811 78.1387 407.108 81.103 407.108 85.6235V87.1799H397.175ZM404.032 84.8455C404.032 82.1406 402.698 80.7324 400.622 80.7324C399.029 80.7324 397.509 81.6218 397.175 84.8455H404.032Z" fill="black"/>
<path d="M413.593 93.7377H410.666V70.3936H413.593V84.4371L418.634 78.3232H422.377L416.706 84.8447L423.304 93.7377H419.56L413.593 85.4005V93.7377Z" fill="black"/>
<path d="M430.309 93.8867C426.529 93.8867 423.266 91.7006 423.266 85.9941C423.266 80.2878 426.677 78.1387 430.309 78.1387C433.978 78.1387 437.35 80.3248 437.35 85.9941C437.35 91.7376 434.051 93.8867 430.309 93.8867ZM430.309 80.7324C428.011 80.7324 426.343 82.5482 426.343 85.9941C426.343 89.329 428.047 91.1076 430.309 91.1076C432.569 91.1076 434.274 89.329 434.274 85.9941C434.274 82.5482 432.606 80.7324 430.309 80.7324Z" fill="black"/>
<path d="M449.581 83.6968C449.581 81.9552 448.617 80.7324 446.876 80.7324C444.875 80.7324 443.836 81.9552 443.836 83.6968V93.7014H440.908V78.2869H443.836V79.5838C444.392 78.9539 445.504 78.1387 447.357 78.1387C450.359 78.1387 452.472 80.1766 452.472 83.6227V93.7385H449.544V83.6968H449.581Z" fill="black"/>
<path d="M463.109 93.8867C459.329 93.8867 456.066 91.7006 456.066 85.9941C456.066 80.2878 459.477 78.1387 463.109 78.1387C466.778 78.1387 470.15 80.3248 470.15 85.9941C470.114 91.7376 466.815 93.8867 463.109 93.8867ZM463.109 80.7324C460.811 80.7324 459.143 82.5482 459.143 85.9941C459.143 89.329 460.847 91.1076 463.109 91.1076C465.369 91.1076 467.074 89.329 467.074 85.9941C467.037 82.5482 465.406 80.7324 463.109 80.7324Z" fill="black"/>
<path d="M491.017 83.6967C491.017 81.9551 490.053 80.7323 488.349 80.7323C486.347 80.7323 485.308 81.9551 485.308 83.6967V93.7013H482.381V83.6597C482.381 81.9181 481.417 80.6953 479.676 80.6953C477.675 80.6953 476.636 81.9181 476.636 83.6597V93.6643H473.708V78.2498H476.636V79.5466C477.192 78.9167 478.304 78.1016 480.157 78.1016C482.084 78.1016 483.604 78.9167 484.457 80.3618C485.272 79.2132 486.681 78.1016 488.793 78.1016C491.795 78.1016 493.908 80.1395 493.908 83.5855V93.7013H490.979V83.6967H491.017Z" fill="black"/>
<path d="M499.948 75.3969C498.725 75.3969 498.02 74.767 498.02 73.5813C498.02 72.3585 498.687 71.7285 499.948 71.7285C501.133 71.7285 501.875 72.3585 501.875 73.5813C501.839 74.804 501.133 75.3969 499.948 75.3969ZM501.394 78.3242V93.7387H498.465V78.3242H501.394Z" fill="black"/>
<path d="M508.843 93.7377H505.916V70.3936H508.843V84.4371L513.883 78.3232H517.627L511.957 84.8447L518.553 93.7377H514.81L508.843 85.4005V93.7377Z" fill="black"/>
<path d="M524.372 99.9999V91.2551L518.553 78.2861H521.814L525.855 88.0314L529.894 78.2861H533.155L527.337 91.2551V99.9999H524.372Z" fill="black"/>
<path d="M53.432 20.1112L25.9995 29.3377V20H53.432V20.1112ZM26.1107 30.7457C26.1107 32.0797 28.2979 33.3025 30.8928 33.3025C31.8567 33.3025 32.7835 33.1172 33.562 32.8578C34.3775 32.5984 59.8824 23.6684 59.8824 23.6684V60.315C59.8824 60.315 34.1922 69.282 33.4878 69.5414C32.7464 69.8008 31.6713 69.9862 30.8187 69.9862C28.1867 69.9862 25.9624 68.6522 25.9624 66.2807V30.7457H26.1107Z" fill="#64B9E4"/>
<path d="M93.9787 44.4896C93.9787 50.5665 91.6432 53.9013 85.7117 53.9013C79.78 53.9013 77.3333 50.5665 77.3333 44.4896V27H80.8552V44.3414C80.8552 48.4544 82.0044 50.5665 85.7117 50.5665C89.4188 50.5665 90.4569 48.4544 90.4569 44.3414V27H93.9787V44.4896Z" fill="black"/>
<path d="M109.067 42.2298C109.067 40.2289 107.955 38.8579 105.99 38.8579C103.692 38.8579 102.505 40.266 102.505 42.267V53.7166H99.1689V36.0789H102.505V37.5611C103.136 36.8199 104.433 35.8936 106.546 35.8936C109.994 35.8936 112.404 38.2281 112.404 42.1558V53.7166H109.067V42.2298Z" fill="black"/>
<path d="M119.262 32.7428C117.853 32.7428 117.075 32.0017 117.075 30.6678C117.075 29.2597 117.853 28.5557 119.262 28.5557C120.634 28.5557 121.449 29.2597 121.449 30.6678C121.449 32.0758 120.634 32.7428 119.262 32.7428ZM120.93 36.0776V53.7155H117.594V36.0776H120.93Z" fill="black"/>
<path d="M123.525 36.0791H127.232L131.607 49.2703L135.944 36.0791H139.652L133.201 53.7168H129.976L123.525 36.0791Z" fill="black"/>
<path d="M143.989 46.2317C144.36 49.4555 146.214 50.7523 148.475 50.7523C151.033 50.7523 152.553 50.1224 153.851 49.4555L154.444 52.6792C152.85 53.4202 151.218 53.902 148.438 53.902C143.989 53.902 140.393 51.1599 140.393 45.046C140.393 39.0803 143.73 35.8936 147.919 35.8936C152.701 35.8936 155.334 39.3026 155.334 44.4531V46.2317H143.989ZM151.812 43.5638C151.812 40.4883 150.292 38.8579 147.919 38.8579C146.102 38.8579 144.36 39.8955 143.989 43.5638H151.812Z" fill="black"/>
<path d="M167.16 39.7472C166.751 39.562 166.01 39.3026 165.084 39.3026C163.675 39.3026 162.747 40.4512 162.747 42.267V53.7166H159.411V36.0789H162.747V38.0799C163.303 36.9311 164.193 35.8936 165.973 35.8936C166.64 35.8936 167.271 36.0789 167.604 36.2271L167.16 39.7472Z" fill="black"/>
<path d="M182.21 53.7168H169.086L177.503 38.8581H169.458V36.0791H182.619L174.574 50.7525H182.21V53.7168Z" fill="black"/>
<path d="M187.623 32.7428C186.215 32.7428 185.436 32.0017 185.436 30.6678C185.436 29.2597 186.215 28.5557 187.623 28.5557C188.994 28.5557 189.811 29.2597 189.811 30.6678C189.811 32.0758 188.994 32.7428 187.623 32.7428ZM189.291 36.0776V53.7155H185.956V36.0776H189.291Z" fill="black"/>
<path d="M202.971 53.3083C202.377 53.6048 201.599 53.9012 200.079 53.9012C198.041 53.9012 195.668 53.123 195.668 49.2693V38.8571H193.37V36.0782H195.668V29.2231L199.004 28.8525V36.0782H201.896V38.8571H199.004V49.2693C199.004 50.5293 199.672 50.8997 200.413 50.8997C201.265 50.8997 201.896 50.6405 202.526 50.3439L202.971 53.3083Z" fill="black"/>
<path d="M215.39 52.1604C214.834 52.7904 213.648 53.902 211.164 53.902C207.345 53.902 205.195 51.901 205.195 48.2697C205.195 44.5272 207.79 42.5262 211.275 42.5262C213.128 42.5262 214.686 43.2304 215.39 43.9714V41.8222C215.39 39.7102 213.981 38.9321 212.128 38.9321C210.052 38.9321 208.198 39.599 207.198 40.0066L206.826 36.9681C207.901 36.5605 209.644 35.8936 212.499 35.8936C216.465 35.8936 218.727 37.9687 218.727 41.8222V53.7166H215.39V52.1604ZM215.39 47.7509C215.39 46.3799 213.722 45.4536 211.942 45.4536C210.2 45.4536 208.718 46.1947 208.718 48.2697C208.718 50.1595 210.311 50.8635 211.942 50.8635C213.87 50.8635 215.39 49.6037 215.39 48.3439V47.7509Z" fill="black"/>
<path d="M237.449 53.7161V30.3349H230.96V27H247.458V30.3349H240.97V53.7161H237.449Z" fill="black"/>
<path d="M254.205 53.902C249.904 53.902 246.16 51.4193 246.16 44.8978C246.16 38.3763 250.053 35.8936 254.205 35.8936C258.394 35.8936 262.25 38.3763 262.25 44.8978C262.25 51.4193 258.468 53.902 254.205 53.902ZM254.205 38.8579C251.573 38.8579 249.682 40.933 249.682 44.8978C249.682 48.7143 251.647 50.7523 254.205 50.7523C256.8 50.7523 258.729 48.7143 258.729 44.8978C258.729 40.933 256.837 38.8579 254.205 38.8579Z" fill="black"/>
<path d="M286.124 42.2298C286.124 40.2289 285.012 38.8579 283.047 38.8579C280.749 38.8579 279.562 40.266 279.562 42.267V53.7166H276.225V42.2298C276.225 40.2289 275.114 38.8579 273.149 38.8579C270.851 38.8579 269.664 40.266 269.664 42.267V53.7166H266.327V36.0789H269.664V37.5611C270.295 36.8199 271.592 35.8936 273.705 35.8936C275.892 35.8936 277.634 36.8199 278.636 38.4875C279.562 37.1535 281.194 35.8936 283.603 35.8936C287.051 35.8936 289.461 38.2281 289.461 42.1558V53.7166H286.124V42.2298Z" fill="black"/>
<path d="M303.733 52.16C303.177 52.7898 301.991 53.9015 299.507 53.9015C295.688 53.9015 293.539 51.9006 293.539 48.2693C293.539 44.5267 296.133 42.5258 299.618 42.5258C301.471 42.5258 303.029 43.2299 303.733 43.9709V41.8218C303.733 39.7097 302.324 38.9316 300.471 38.9316C298.395 38.9316 296.541 39.5986 295.541 40.0062L295.17 36.9677C296.244 36.5601 297.987 35.8931 300.842 35.8931C304.808 35.8931 307.07 37.9682 307.07 41.8218V53.7162H303.733V52.16ZM303.733 47.7505C303.733 46.3795 302.065 45.4531 300.286 45.4531C298.544 45.4531 297.061 46.1941 297.061 48.2693C297.061 50.159 298.655 50.863 300.286 50.863C302.213 50.863 303.733 49.6032 303.733 48.3433V47.7505ZM301.471 27.7412H305.217L301.732 33.5958H299.1L301.471 27.7412Z" fill="black"/>
<path d="M316.968 53.9015C314.187 53.9015 312.261 53.1234 311.185 52.6416L311.778 49.492C313.187 50.159 314.967 50.7518 316.968 50.7518C318.525 50.7518 320.008 50.3072 320.008 48.7139C320.008 47.1205 318.303 46.7129 316.413 46.2313C313.965 45.6013 311.147 44.8232 311.147 41.1548C311.147 37.5977 313.632 35.8931 317.783 35.8931C320.231 35.8931 321.973 36.4489 323.16 36.9307L322.604 40.0432C321.232 39.4133 319.897 38.8575 317.858 38.8575C315.857 38.8575 314.632 39.5244 314.632 41.1178C314.632 42.3776 316.079 42.7852 317.783 43.2669C320.379 43.9709 323.604 44.7861 323.604 48.6398C323.604 52.0118 321.64 53.9015 316.968 53.9015ZM312.149 27.7412H315.115L317.377 31.039L319.637 27.7412H322.604L319.156 33.5958H315.596L312.149 27.7412Z" fill="black"/>
<path d="M330.166 46.2317C330.537 49.4555 332.391 50.7523 334.653 50.7523C337.21 50.7523 338.73 50.1224 340.028 49.4555L340.62 52.6792C339.027 53.4202 337.396 53.902 334.615 53.902C330.166 53.902 326.57 51.1599 326.57 45.046C326.57 39.0803 329.907 35.8936 334.095 35.8936C338.878 35.8936 341.511 39.3026 341.511 44.4531V46.2317H330.166ZM337.988 43.5638C337.988 40.4883 336.468 38.8579 334.095 38.8579C332.28 38.8579 330.537 39.8955 330.166 43.5638H337.988Z" fill="black"/>
<path d="M361.53 53.7161H354.114V27H362.086C367.016 27 369.908 29.705 369.908 34.1145C369.908 37.1528 368.314 38.8204 366.089 39.8949C368.499 40.8953 370.093 43.1927 370.093 46.0458C370.093 50.8629 366.794 53.7161 361.53 53.7161ZM362.122 30.3349H357.637V38.2644H361.641C364.384 38.2644 366.201 36.9306 366.201 34.2997C366.201 31.5947 364.495 30.3349 362.122 30.3349ZM361.641 41.5993H357.637V50.3812H361.641C364.421 50.3812 366.385 48.862 366.385 46.12C366.385 43.2669 364.384 41.5993 361.641 41.5993Z" fill="black"/>
<path d="M383.625 52.1604C383.069 52.7904 381.882 53.902 379.398 53.902C375.58 53.902 373.429 51.901 373.429 48.2697C373.429 44.5272 376.025 42.5262 379.509 42.5262C381.363 42.5262 382.92 43.2304 383.625 43.9714V41.8222C383.625 39.7102 382.216 38.9321 380.362 38.9321C378.286 38.9321 376.433 39.599 375.431 40.0066L375.061 36.9681C376.136 36.5605 377.878 35.8936 380.732 35.8936C384.7 35.8936 386.96 37.9687 386.96 41.8222V53.7166H383.625V52.1604ZM383.625 47.7509C383.625 46.3799 381.956 45.4536 380.177 45.4536C378.434 45.4536 376.951 46.1947 376.951 48.2697C376.951 50.1595 378.545 50.8635 380.177 50.8635C382.105 50.8635 383.625 49.6037 383.625 48.3439V47.7509Z" fill="black"/>
<path d="M399.899 53.3083C399.306 53.6048 398.528 53.9012 397.008 53.9012C394.969 53.9012 392.596 53.123 392.596 49.2693V38.8571H390.297V36.0782H392.596V29.2231L395.933 28.8525V36.0782H398.823V38.8571H395.933V49.2693C395.933 50.5293 396.6 50.8997 397.341 50.8997C398.194 50.8997 398.823 50.6405 399.454 50.3439L399.899 53.3083Z" fill="black"/>
<path d="M404.903 32.7428C403.495 32.7428 402.716 32.0017 402.716 30.6678C402.716 29.2597 403.495 28.5557 404.903 28.5557C406.276 28.5557 407.09 29.2597 407.09 30.6678C407.09 32.0758 406.276 32.7428 404.903 32.7428ZM406.573 36.0776V53.7155H403.236V36.0776H406.573Z" fill="black"/>
</g>
<defs>
<clipPath id="clip0">
<rect width="507.119" height="80" fill="white" transform="translate(26 20)"/>
</clipPath>
</defs>
</svg>
