<svg width="560" height="120" viewBox="0 0 560 120" fill="none" xmlns="http://www.w3.org/2000/svg">
<g clip-path="url(#clip0)">
<path d="M138.07 85.035V88.2045H129.12V99.8393H125.789V74.5234H139.475V77.6929H129.12V85.035H138.07Z" fill="black"/>
<path d="M150.03 98.3555C149.508 98.9573 148.385 100 146.017 100C142.404 100 140.357 98.1148 140.357 94.6644C140.357 91.1338 142.806 89.208 146.097 89.208C147.863 89.208 149.348 89.8901 149.99 90.5721V88.5261C149.99 86.52 148.666 85.7978 146.899 85.7978C144.933 85.7978 143.167 86.4397 142.244 86.8009L141.883 83.9121C142.886 83.511 144.572 82.9092 147.261 82.9092C151.034 82.9092 153.161 84.8751 153.161 88.5261V99.7998H149.99V98.3555H150.03ZM150.03 94.183C150.03 92.8991 148.465 92.0164 146.779 92.0164C145.134 92.0164 143.729 92.6985 143.729 94.7046C143.729 96.5099 145.254 97.1518 146.779 97.1518C148.585 97.1518 150.03 95.9483 150.03 94.7847V94.183Z" fill="black"/>
<path d="M161.268 99.8393H158.097V74.5234H161.268V89.7691L166.727 83.1492H170.78L164.639 90.1704L171.743 99.8393H167.73L161.268 90.8123V99.8393Z" fill="black"/>
<path d="M183.222 98.2347C182.66 98.9569 181.657 100 179.209 100C175.958 100 173.831 97.7934 173.831 94.0623V83.1094H177.001V93.982C177.001 95.8676 177.884 97.1916 179.731 97.1916C182.018 97.1916 183.222 95.5066 183.222 93.6209V83.1495H186.393V99.8396H183.222V98.2347Z" fill="black"/>
<path d="M194.501 74.5234H191.33V99.7993H194.501V74.5234Z" fill="black"/>
<path d="M206.742 99.4386C206.18 99.7194 205.457 100 204.012 100C202.086 100 199.838 99.2781 199.838 95.6272V85.7576H197.631V83.1096H199.798V76.6101L202.969 76.249V83.1096H205.698V85.7576H202.969V95.6272C202.969 96.8308 203.611 97.1517 204.293 97.1517C205.096 97.1517 205.698 96.9111 206.3 96.6302L206.742 99.4386Z" fill="black"/>
<path d="M218.461 98.3555C217.939 98.9573 216.816 100 214.448 100C210.835 100 208.789 98.1148 208.789 94.6644C208.789 91.1338 211.237 89.208 214.528 89.208C216.294 89.208 217.779 89.8901 218.421 90.5721V88.5261C218.421 86.52 217.097 85.7978 215.331 85.7978C213.364 85.7978 211.598 86.4397 210.675 86.8009L210.314 83.9121C211.317 83.511 213.003 82.9092 215.692 82.9092C219.465 82.9092 221.592 84.8751 221.592 88.5261V99.7998H218.421V98.3555H218.461ZM218.461 94.183C218.461 92.8991 216.896 92.0164 215.21 92.0164C213.565 92.0164 212.16 92.6985 212.16 94.7046C212.16 96.5099 213.685 97.1518 215.21 97.1518C217.016 97.1518 218.461 95.9483 218.461 94.7847V94.183Z" fill="black"/>
<path d="M243.988 88.9667C243.988 87.0811 242.944 85.7571 241.058 85.7571C238.891 85.7571 237.766 87.0811 237.766 88.9667V99.7993H234.596V74.5234H237.766V84.5134C238.369 83.8313 239.573 82.9486 241.579 82.9486C244.831 82.9486 247.119 85.1553 247.119 88.8865V99.8393H243.948V88.9667H243.988Z" fill="black"/>
<path d="M261.446 98.2347C260.884 98.9569 259.881 100 257.432 100C254.142 100 252.055 97.7934 252.055 94.0623V83.1094H255.225V93.982C255.225 95.8676 256.108 97.1916 257.954 97.1916C260.243 97.1916 261.406 95.5066 261.406 93.6209V83.1495H264.578V99.8396H261.446V98.2347Z" fill="black"/>
<path d="M288.256 88.9673C288.256 87.0816 287.213 85.7576 285.327 85.7576C283.16 85.7576 282.036 87.0816 282.036 88.9673V99.7998H278.865V88.9272C278.865 87.0415 277.822 85.7176 275.935 85.7176C273.767 85.7176 272.645 87.0415 272.645 88.9272V99.7597H269.514V83.0696H272.645V84.4738C273.246 83.7918 274.49 82.9092 276.458 82.9092C278.544 82.9092 280.19 83.7918 281.113 85.3564C281.996 84.1127 283.522 82.9092 285.809 82.9092C289.059 82.9092 291.348 85.1157 291.348 88.847V99.7998H288.176V88.9673H288.256Z" fill="black"/>
<path d="M304.954 98.3555C304.431 98.9573 303.308 100 300.939 100C297.327 100 295.281 98.1148 295.281 94.6644C295.281 91.1338 297.729 89.208 301.021 89.208C302.786 89.208 304.271 89.8901 304.912 90.5721V88.5261C304.912 86.52 303.588 85.7978 301.822 85.7978C299.856 85.7978 298.13 86.4397 297.167 86.8009L296.806 83.9121C297.809 83.511 299.495 82.9092 302.183 82.9092C305.957 82.9092 308.084 84.8751 308.084 88.5261V99.7998H304.912V98.3555H304.954ZM304.954 94.183C304.954 92.8991 303.388 92.0164 301.702 92.0164C300.056 92.0164 298.652 92.6985 298.652 94.7046C298.652 96.5099 300.178 97.1518 301.702 97.1518C303.548 97.1518 304.954 95.9483 304.954 94.7847V94.183Z" fill="black"/>
<path d="M322.412 88.9663C322.412 87.0807 321.369 85.7567 319.523 85.7567C317.356 85.7567 316.231 87.0807 316.231 88.9663V99.7988H313.061V83.1087H316.231V84.5128C316.834 83.8309 318.037 82.9482 320.044 82.9482C323.295 82.9482 325.584 85.1548 325.584 88.886V99.8389H322.412V88.9663Z" fill="black"/>
<path d="M332.084 79.9798C330.76 79.9798 329.999 79.2576 329.999 78.0139C329.999 76.6899 330.72 76.0078 332.084 76.0078C333.369 76.0078 334.172 76.6899 334.172 78.0139C334.132 79.3379 333.369 79.9798 332.084 79.9798ZM333.65 99.8394H330.48V83.1493H333.65V99.8394Z" fill="black"/>
<path d="M346.573 99.4386C346.012 99.7194 345.289 100 343.844 100C341.918 100 339.671 99.2781 339.671 95.6272V85.7576H337.504V83.1096H339.671V76.6101L342.841 76.249V83.1096H345.57V85.7576H342.841V95.6272C342.841 96.8308 343.483 97.1517 344.166 97.1517C344.969 97.1517 345.57 96.9111 346.172 96.6302L346.573 99.4386Z" fill="black"/>
<path d="M359.136 88.9663C359.136 87.0807 358.093 85.7567 356.206 85.7567C354.038 85.7567 352.915 87.0807 352.915 88.9663V99.7988H349.745V83.1087H352.915V84.5128C353.517 83.8309 354.721 82.9482 356.729 82.9482C359.979 82.9482 362.267 85.1548 362.267 88.886V99.8389H359.096V88.9663H359.136Z" fill="black"/>
<path d="M369.33 75.2461H372.862L369.572 80.7827H367.083L369.33 75.2461ZM370.375 99.8399H367.243V83.1498H370.375V99.8399Z" fill="black"/>
<path d="M385.947 98.9161C385.345 99.2371 383.418 99.9994 381.652 99.9994C378.521 99.9994 374.548 98.3946 374.548 91.4537C374.548 84.7937 378.561 82.9482 381.652 82.9482C383.539 82.9482 385.184 83.7105 385.947 84.1116L385.265 86.9602C384.462 86.5189 383.018 85.8368 381.692 85.8368C379.806 85.8368 377.92 87.5219 377.92 91.4537C377.92 95.5059 379.766 97.0305 381.692 97.0305C383.098 97.0305 384.462 96.3484 385.265 95.8669L385.947 98.9161Z" fill="black"/>
<path d="M398.83 88.9667C398.83 87.0811 397.787 85.7571 395.901 85.7571C393.733 85.7571 392.609 87.0811 392.609 88.9667V99.7993H389.479V74.5234H392.649V84.5134C393.252 83.8313 394.456 82.9486 396.462 82.9486C399.713 82.9486 402.001 85.1553 402.001 88.8865V99.8393H398.83V88.9667Z" fill="black"/>
<path d="M419.461 99.9994C416.812 99.9994 415.004 99.2771 414.001 98.7958L414.563 95.8269C415.887 96.4688 417.573 97.0305 419.461 97.0305C420.945 97.0305 422.35 96.6293 422.35 95.1047C422.35 93.5801 420.745 93.2191 418.938 92.7376C416.61 92.1358 413.961 91.4136 413.961 87.9232C413.961 84.553 416.329 82.9482 420.222 82.9482C422.551 82.9482 424.196 83.4697 425.32 83.9111L424.798 86.8799C423.514 86.2782 422.23 85.7567 420.304 85.7567C418.416 85.7567 417.253 86.3986 417.253 87.8831C417.253 89.0866 418.618 89.4476 420.222 89.9291C422.671 90.6112 425.721 91.3734 425.721 95.0244C425.721 98.234 423.876 99.9994 419.461 99.9994Z" fill="black"/>
<path d="M436.918 99.4386C436.357 99.7194 435.634 100 434.19 100C432.264 100 430.016 99.2781 430.016 95.6272V85.7576H427.849V83.1096H430.016V76.6101L433.187 76.249V83.1096H435.916V85.7576H433.187V95.6272C433.187 96.8308 433.828 97.1517 434.511 97.1517C435.314 97.1517 435.916 96.9111 436.517 96.6302L436.918 99.4386Z" fill="black"/>
<path d="M449.441 98.2347C448.88 98.9569 447.875 100 445.428 100C442.176 100 440.05 97.7934 440.05 94.0623V83.1094H443.261V93.982C443.261 95.8676 444.144 97.1916 445.99 97.1916C448.277 97.1916 449.481 95.5066 449.481 93.6209V83.1495H452.652V99.8396H449.481V98.2347H449.441Z" fill="black"/>
<path d="M467.864 98.2354C467.382 98.8372 466.058 100.041 463.529 100.041C460.479 100.041 456.867 97.9947 456.867 91.6557C456.867 85.6778 460.279 82.9896 463.85 82.9896C466.499 82.9896 467.422 83.9526 467.904 84.5142V74.5645H471.074V99.8403H467.904V98.2354H467.864ZM467.864 89.5695C467.864 86.9215 466.218 85.7579 464.17 85.7579C462.204 85.7579 460.157 87.5233 460.157 91.6156C460.157 95.6677 461.883 97.0319 463.97 97.0319C466.058 97.0319 467.824 95.788 467.824 93.1V89.5695H467.864Z" fill="black"/>
<path d="M477.536 79.9798C476.212 79.9798 475.449 79.2576 475.449 78.0139C475.449 76.6899 476.172 76.0078 477.536 76.0078C478.821 76.0078 479.624 76.6899 479.624 78.0139C479.584 79.3379 478.821 79.9798 477.536 79.9798ZM479.101 99.8394H475.93V83.1493H479.101V99.8394Z" fill="black"/>
<path d="M487.209 75.2461H490.741L487.451 80.7827H484.962L487.209 75.2461ZM488.212 99.8399H485.082V83.1498H488.212V99.8399Z" fill="black"/>
<path d="M97.429 20.1112L69.9965 29.3378V20H97.429V20.1112ZM70.1078 30.7458C70.1078 32.0798 72.2949 33.3026 74.8899 33.3026C75.8538 33.3026 76.7805 33.1173 77.559 32.8579C78.3746 32.5986 103.879 23.6684 103.879 23.6684V60.3154C103.879 60.3154 78.1892 69.2827 77.4849 69.542C76.7435 69.8014 75.6684 69.9867 74.8158 69.9867C72.1837 69.9867 69.9595 68.6527 69.9595 66.2812V30.7458H70.1078Z" fill="#943F07"/>
<path d="M143.849 46.5188C143.849 53.0985 141.321 56.7094 134.899 56.7094C128.478 56.7094 125.829 53.0985 125.829 46.5188V27.582H129.642V46.3584C129.642 50.8117 130.886 53.0985 134.899 53.0985C138.913 53.0985 140.037 50.8117 140.037 46.3584V27.582H143.849V46.5188Z" fill="black"/>
<path d="M160.184 44.0725C160.184 41.906 158.98 40.4215 156.853 40.4215C154.365 40.4215 153.08 41.9461 153.08 44.1127V56.5098H149.468V37.4125H153.08V39.0174C153.763 38.215 155.168 37.2119 157.455 37.2119C161.188 37.2119 163.797 39.7395 163.797 43.9922V56.5098H160.184V44.0725Z" fill="black"/>
<path d="M171.222 33.8012C169.697 33.8012 168.854 32.9988 168.854 31.5544C168.854 30.0299 169.697 29.2676 171.222 29.2676C172.707 29.2676 173.59 30.0299 173.59 31.5544C173.59 33.079 172.707 33.8012 171.222 33.8012ZM173.028 56.5093H169.416V37.4121H173.028V56.5093Z" fill="black"/>
<path d="M175.837 37.4121H179.851L184.587 51.6949L189.283 37.4121H193.296L186.313 56.4693H182.821L175.837 37.4121Z" fill="black"/>
<path d="M197.992 48.4055C198.393 51.8961 200.4 53.3002 202.849 53.3002C205.618 53.3002 207.263 52.6181 208.668 51.8961L209.31 55.3864C207.585 56.1888 205.819 56.7104 202.808 56.7104C197.992 56.7104 194.099 53.7415 194.099 47.1217C194.099 40.6623 197.711 37.2119 202.246 37.2119C207.424 37.2119 210.274 40.903 210.274 46.4798V48.4055H197.992ZM206.461 45.5168C206.461 42.1869 204.815 40.4215 202.246 40.4215C200.28 40.4215 198.393 41.5449 197.992 45.5168H206.461Z" fill="black"/>
<path d="M223.077 41.3845C222.635 41.1839 221.832 40.903 220.83 40.903C219.304 40.903 218.301 42.1467 218.301 44.1127V56.5098H214.688V37.4125H218.301V39.579C218.902 38.3353 219.867 37.2119 221.792 37.2119C222.515 37.2119 223.197 37.4125 223.558 37.5731L223.077 41.3845Z" fill="black"/>
<path d="M239.372 56.4693H225.164L234.274 40.4211H225.566V37.4121H239.813L231.104 53.2998H239.372V56.4693Z" fill="black"/>
<path d="M245.231 33.8012C243.707 33.8012 242.864 32.9988 242.864 31.5544C242.864 30.0299 243.707 29.2676 245.231 29.2676C246.717 29.2676 247.6 30.0299 247.6 31.5544C247.6 33.079 246.717 33.8012 245.231 33.8012ZM247.039 56.5093H243.425V37.4121H247.039V56.5093Z" fill="black"/>
<path d="M261.847 56.0683C261.206 56.3892 260.363 56.7102 258.717 56.7102C256.51 56.7102 253.941 55.8677 253.941 51.6951V40.4214H251.453V37.4123H253.941V29.9901L257.553 29.5889V37.4123H260.684V40.4214H257.553V51.6951C257.553 53.0593 258.276 53.4605 259.079 53.4605C260.002 53.4605 260.684 53.1796 261.366 52.8587L261.847 56.0683Z" fill="black"/>
<path d="M275.293 54.7847C274.692 55.5069 273.407 56.6703 270.719 56.6703C266.584 56.6703 264.256 54.5038 264.256 50.5721C264.256 46.5199 267.065 44.3534 270.839 44.3534C272.844 44.3534 274.53 45.1156 275.293 45.9181V43.6312C275.293 41.3444 273.767 40.5018 271.762 40.5018C269.514 40.5018 267.507 41.2239 266.424 41.6652L266.022 38.3755C267.185 37.9341 269.073 37.2119 272.163 37.2119C276.458 37.2119 278.905 39.4587 278.905 43.6312V56.5098H275.293V54.7847ZM275.293 50.0504C275.293 48.566 273.487 47.563 271.56 47.563C269.674 47.563 268.068 48.3654 268.068 50.6122C268.068 52.6583 269.794 53.4205 271.56 53.4205C273.647 53.4205 275.293 52.0565 275.293 50.6924V50.0504Z" fill="black"/>
<path d="M299.173 56.4688V31.1929H292.15V27.582H310.01V31.1929H302.987V56.4688H299.173Z" fill="black"/>
<path d="M317.316 56.6704C312.659 56.6704 308.606 53.9824 308.606 46.9212C308.606 39.86 312.819 37.1719 317.316 37.1719C321.85 37.1719 326.025 39.86 326.025 46.9212C326.025 54.0224 321.93 56.6704 317.316 56.6704ZM317.316 40.4217C314.465 40.4217 312.419 42.6683 312.419 46.9612C312.419 51.0937 314.545 53.3003 317.316 53.3003C320.124 53.3003 322.212 51.0937 322.212 46.9612C322.212 42.6683 320.164 40.4217 317.316 40.4217Z" fill="black"/>
<path d="M351.871 44.0725C351.871 41.906 350.668 40.4215 348.541 40.4215C346.052 40.4215 344.767 41.9461 344.767 44.1127V56.5098H341.155V44.0725C341.155 41.906 339.951 40.4215 337.824 40.4215C335.336 40.4215 334.052 41.9461 334.052 44.1127V56.5098H330.44V37.4125H334.052V39.0174C334.733 38.215 336.139 37.2119 338.427 37.2119C340.794 37.2119 342.681 38.215 343.764 40.0204C344.767 38.5761 346.533 37.2119 349.142 37.2119C352.875 37.2119 355.484 39.7395 355.484 43.9922V56.5098H351.871V44.0725Z" fill="black"/>
<path d="M370.936 54.7849C370.335 55.467 369.051 56.6705 366.36 56.6705C362.227 56.6705 359.899 54.504 359.899 50.5723C359.899 46.5202 362.708 44.3537 366.482 44.3537C368.488 44.3537 370.173 45.1159 370.936 45.9184V43.6314C370.936 41.3446 369.411 40.5021 367.405 40.5021C365.157 40.5021 363.15 41.2243 362.067 41.6655L361.665 38.3757C362.828 37.9344 364.716 37.2122 367.806 37.2122C372.101 37.2122 374.548 39.459 374.548 43.6314V56.5101H370.936V54.7849ZM370.936 50.0507C370.936 48.5662 369.131 47.5633 367.203 47.5633C365.317 47.5633 363.711 48.3657 363.711 50.6125C363.711 52.6585 365.437 53.4209 367.203 53.4209C369.291 53.4209 370.936 52.0568 370.936 50.6926V50.0507ZM368.488 28.3857H372.542L368.769 34.7247H365.919L368.488 28.3857Z" fill="black"/>
<path d="M385.265 56.6705C382.255 56.6705 380.167 55.828 379.003 55.3065L379.646 51.8963C381.17 52.6184 383.098 53.2603 385.265 53.2603C386.95 53.2603 388.555 52.779 388.555 51.0538C388.555 49.3286 386.71 48.8873 384.662 48.3657C382.013 47.6836 378.963 46.8411 378.963 42.8692C378.963 39.0177 381.652 37.172 386.148 37.172C388.797 37.172 390.683 37.7739 391.967 38.2954L391.364 41.6655C389.88 40.9836 388.435 40.3817 386.228 40.3817C384.061 40.3817 382.736 41.1039 382.736 42.8291C382.736 44.1932 384.301 44.6345 386.148 45.156C388.957 45.9184 392.449 46.8009 392.449 50.9735C392.449 54.6245 390.321 56.6705 385.265 56.6705ZM380.047 28.3857H383.258L385.707 31.9565L388.154 28.3857H391.364L387.633 34.7247H383.779L380.047 28.3857Z" fill="black"/>
<path d="M399.553 48.4055C399.954 51.8961 401.961 53.3002 404.409 53.3002C407.179 53.3002 408.824 52.6181 410.23 51.8961L410.871 55.3864C409.145 56.1888 407.379 56.7104 404.369 56.7104C399.553 56.7104 395.659 53.7415 395.659 47.1217C395.659 40.6623 399.273 37.2119 403.807 37.2119C408.985 37.2119 411.834 40.903 411.834 46.4798V48.4055H399.553ZM408.022 45.5168C408.022 42.1869 406.376 40.4215 403.807 40.4215C401.84 40.4215 399.954 41.5449 399.553 45.5168H408.022Z" fill="black"/>
<path d="M433.508 56.4688H425.48V27.582H434.11C439.447 27.582 442.578 30.5108 442.578 35.2852C442.578 38.575 440.852 40.3805 438.444 41.5439C441.053 42.6271 442.779 45.1147 442.779 48.2039C442.779 53.4196 439.207 56.4688 433.508 56.4688ZM434.15 31.1929H429.293V39.7787H433.628C436.599 39.7787 438.564 38.3342 438.564 35.4858C438.564 32.557 436.718 31.1929 434.15 31.1929ZM433.628 43.3895H429.293V52.8979H433.628C436.639 52.8979 438.766 51.2531 438.766 48.2842C438.766 45.1948 436.599 43.3895 433.628 43.3895Z" fill="black"/>
<path d="M457.428 54.7847C456.827 55.4667 455.542 56.6703 452.853 56.6703C448.719 56.6703 446.391 54.5038 446.391 50.5721C446.391 46.5199 449.2 44.3534 452.973 44.3534C454.979 44.3534 456.665 45.1156 457.428 45.9181V43.6312C457.428 41.3444 455.904 40.5018 453.896 40.5018C451.649 40.5018 449.641 41.2239 448.559 41.6652L448.157 38.3755C449.321 37.9341 451.207 37.2119 454.298 37.2119C458.593 37.2119 461.04 39.4587 461.04 43.6312V56.5098H457.428V54.7847ZM457.428 50.0504C457.428 48.566 455.622 47.563 453.696 47.563C451.809 47.563 450.204 48.3654 450.204 50.6122C450.204 52.6583 451.93 53.4205 453.696 53.4205C455.782 53.4205 457.428 52.0565 457.428 50.6924V50.0504Z" fill="black"/>
<path d="M475.047 56.0683C474.406 56.3892 473.563 56.7102 471.917 56.7102C469.71 56.7102 467.141 55.8677 467.141 51.6951V40.4214H464.653V37.4123H467.141V29.9901L470.754 29.5889V37.4123H473.884V40.4214H470.754V51.6951C470.754 53.0593 471.476 53.4605 472.279 53.4605C473.201 53.4605 473.884 53.1796 474.566 52.8587L475.047 56.0683Z" fill="black"/>
<path d="M480.467 33.8012C478.941 33.8012 478.098 32.9988 478.098 31.5544C478.098 30.0299 478.941 29.2676 480.467 29.2676C481.951 29.2676 482.834 30.0299 482.834 31.5544C482.834 33.079 481.951 33.8012 480.467 33.8012ZM482.273 56.5093H478.659V37.4121H482.273V56.5093Z" fill="black"/>
</g>
<defs>
<clipPath id="clip0">
<rect width="420.741" height="80" fill="white" transform="translate(70 20)"/>
</clipPath>
</defs>
</svg>
