<svg width="406" height="60" viewBox="0 0 406 60" fill="none" xmlns="http://www.w3.org/2000/svg">
<path d="M51.4969 48.6052V50.9903H44.6396V59.6363H42.2545V40.8535H52.3913V43.2386H44.6396V48.6052H51.4969Z" fill="black"/>
<path d="M60.1447 58.4439C59.8466 58.742 58.9522 59.6364 57.1633 59.6364C54.4801 59.6364 52.9894 58.1457 52.9894 55.7606C52.9894 53.0774 54.7782 51.5867 57.1633 51.5867C58.3559 51.5867 59.5485 52.1829 60.1447 52.4811V50.9904C60.1447 49.4997 59.2503 48.9034 57.7596 48.9034C56.2689 48.9034 55.0764 49.4997 54.1819 49.7978L53.8838 47.7108C54.7782 47.4127 55.9708 46.8164 57.7596 46.8164C60.4429 46.8164 62.2317 48.3071 62.2317 50.9904V59.3383H59.8466V58.4439H60.1447ZM60.1447 55.4625C60.1447 54.5681 58.9522 53.9718 57.7596 53.9718C56.5671 53.9718 55.3745 54.5681 55.3745 56.0588C55.3745 57.2513 56.5671 57.8476 57.7596 57.8476C59.2503 57.8476 60.1447 56.9532 60.1447 56.0588V55.4625Z" fill="black"/>
<path d="M68.4907 59.6363H66.4037V40.8535H68.4907V52.1828L72.6646 47.1145H75.646L71.1739 52.481L76.5405 59.6363H73.2609L68.4907 53.0773V59.6363Z" fill="black"/>
<path d="M84.8877 58.4446C84.5896 59.0408 83.6952 59.6371 81.9063 59.6371C79.5212 59.6371 78.0305 57.8483 78.0305 55.165V47.1152H80.4156V55.165C80.4156 56.6557 81.0119 57.5501 82.5026 57.5501C84.2915 57.5501 85.1859 56.3576 85.1859 54.8669V47.1152H87.2729V59.6371H84.8877V58.4446Z" fill="black"/>
<path d="M93.2368 40.8535H90.8517V59.6363H93.2368V40.8535Z" fill="black"/>
<path d="M102.48 59.3373C102.181 59.6355 101.585 59.6355 100.393 59.6355C98.9019 59.6355 97.4112 59.0392 97.4112 56.3559V48.9024H95.9205V46.8155H97.4112V42.0452L99.7964 41.7471V46.8155H101.883V48.9024H99.7964V56.3559C99.7964 57.2504 100.393 57.5485 100.691 57.5485C101.287 57.5485 101.883 57.2504 102.181 57.2504L102.48 59.3373Z" fill="black"/>
<path d="M111.127 58.4439C110.829 58.742 109.934 59.6364 108.146 59.6364C105.462 59.6364 103.972 58.1457 103.972 55.7606C103.972 53.0774 105.76 51.5867 108.146 51.5867C109.338 51.5867 110.531 52.1829 111.127 52.4811V50.9904C111.127 49.4997 110.233 48.9034 108.742 48.9034C107.251 48.9034 106.059 49.4997 105.164 49.7978V47.7108C106.059 47.4127 107.251 46.8164 109.04 46.8164C111.723 46.8164 113.512 48.3071 113.512 50.9904V59.3383H111.127V58.4439ZM111.127 55.4625C111.127 54.5681 109.934 53.9718 108.742 53.9718C107.549 53.9718 106.357 54.5681 106.357 56.0588C106.357 57.2513 107.549 57.8476 108.742 57.8476C110.233 57.8476 111.127 56.9532 111.127 56.0588V55.4625Z" fill="black"/>
<path d="M130.207 51.5866C130.207 50.0959 129.313 49.2014 128.121 49.2014C126.63 49.2014 125.735 50.0959 125.735 51.5866V59.6363H123.052V40.8535H125.437V48.307C125.735 47.7107 126.928 47.1145 128.419 47.1145C130.804 47.1145 132.593 48.9033 132.593 51.5866V59.6363H130.207V51.5866Z" fill="black"/>
<path d="M143.025 58.4446C142.727 59.0408 141.833 59.6371 140.044 59.6371C137.659 59.6371 136.168 57.8483 136.168 55.165V47.1152H138.553V55.165C138.553 56.6557 139.149 57.5501 140.64 57.5501C142.429 57.5501 143.323 56.3576 143.323 54.8669V47.1152H145.708V59.6371H143.323V58.4446H143.025Z" fill="black"/>
<path d="M162.998 51.5867C162.998 50.096 162.104 49.2015 160.911 49.2015C159.421 49.2015 158.526 50.096 158.526 51.5867V59.6364H156.141V51.5867C156.141 50.096 155.247 49.2015 154.054 49.2015C152.563 49.2015 151.669 50.096 151.669 51.5867V59.6364H149.284V47.1145H151.669V48.009C151.967 47.4127 153.16 46.8164 154.65 46.8164C156.141 46.8164 157.334 47.4127 158.228 48.6052C158.824 47.7108 160.017 46.8164 161.806 46.8164C164.191 46.8164 165.98 48.6052 165.98 51.2885V59.3383H163.595V51.5867H162.998Z" fill="black"/>
<path d="M175.225 58.4439C174.927 58.742 174.033 59.6364 172.244 59.6364C169.56 59.6364 168.07 58.1457 168.07 55.7606C168.07 53.0774 169.859 51.5867 172.244 51.5867C173.436 51.5867 174.629 52.1829 175.225 52.4811V50.9904C175.225 49.4997 174.331 48.9034 172.84 48.9034C171.349 48.9034 170.157 49.4997 169.262 49.7978L168.964 47.7108C169.859 47.4127 171.051 46.8164 172.84 46.8164C175.523 46.8164 177.312 48.3071 177.312 50.9904V59.3383H174.927V58.4439H175.225ZM175.225 55.4625C175.225 54.5681 174.033 53.9718 172.84 53.9718C171.647 53.9718 170.455 54.5681 170.455 56.0588C170.455 57.2513 171.647 57.8476 172.84 57.8476C174.331 57.8476 175.225 56.9532 175.225 56.0588V55.4625Z" fill="black"/>
<path d="M188.341 51.5867C188.341 50.096 187.447 49.2015 186.254 49.2015C184.764 49.2015 183.869 50.096 183.869 51.5867V59.6364H181.484V47.1145H183.869V48.009C184.167 47.4127 185.36 46.8164 186.851 46.8164C189.236 46.8164 191.024 48.6052 191.024 51.2885V59.3383H188.639V51.5867H188.341Z" fill="black"/>
<path d="M195.498 44.7285C194.603 44.7285 194.007 44.1322 194.007 43.2378C194.007 42.3434 194.603 41.7471 195.498 41.7471C196.392 41.7471 196.988 42.3434 196.988 43.2378C196.988 44.4303 196.392 44.7285 195.498 44.7285ZM196.69 59.6355H194.305V47.1136H196.69V59.6355Z" fill="black"/>
<path d="M206.232 59.338C205.934 59.6362 205.338 59.6362 204.145 59.6362C202.654 59.6362 201.164 59.0399 201.164 56.3566V48.9031H199.673V46.8161H201.164V42.0459H203.549V47.1143H205.636V49.2013H203.549V56.6548C203.549 57.5492 204.145 57.8473 204.443 57.8473C205.039 57.8473 205.636 57.5492 205.934 57.5492L206.232 59.338Z" fill="black"/>
<path d="M215.477 51.5867C215.477 50.096 214.583 49.2015 213.39 49.2015C211.899 49.2015 211.005 50.096 211.005 51.5867V59.6364H208.62V47.1145H211.005V48.009C211.303 47.4127 212.496 46.8164 213.986 46.8164C216.372 46.8164 218.16 48.6052 218.16 51.2885V59.3383H215.477V51.5867Z" fill="black"/>
<path d="M223.222 41.4512H225.905L223.52 45.6251H221.433L223.222 41.4512ZM223.818 59.6377H221.433V47.1158H223.818V59.6377Z" fill="black"/>
<path d="M235.446 59.0401C235.148 59.3382 233.658 59.9345 232.167 59.9345C229.782 59.9345 226.8 58.7419 226.8 53.6735C226.8 48.6052 229.782 47.4126 232.167 47.4126C233.658 47.4126 234.85 48.0089 235.446 48.307L234.85 50.394C234.254 50.0959 233.061 49.4996 232.167 49.4996C230.676 49.4996 229.484 50.6921 229.484 53.6735C229.484 56.6549 230.974 57.8475 232.167 57.8475C233.061 57.8475 234.254 57.2512 234.85 56.9531L235.446 59.0401Z" fill="black"/>
<path d="M244.99 51.5866C244.99 50.0959 244.095 49.2014 242.903 49.2014C241.412 49.2014 240.518 50.0959 240.518 51.5866V59.6363H238.132V40.8535H240.518V48.307C240.816 47.7107 242.008 47.1145 243.499 47.1145C245.884 47.1145 247.673 48.9033 247.673 51.5866V59.6363H245.288V51.5866H244.99Z" fill="black"/>
<path d="M260.491 59.6371C258.404 59.6371 257.211 59.0408 256.317 58.7427L256.615 56.6557C257.51 57.252 259 57.5501 260.193 57.5501C261.385 57.5501 262.28 57.252 262.28 56.0594C262.28 54.8669 261.087 54.5687 259.895 54.2706C258.106 53.9725 256.317 53.3762 256.317 50.6929C256.317 48.3078 258.106 47.1152 261.087 47.1152C262.876 47.1152 264.069 47.4134 264.963 47.7115L264.665 49.7985C263.77 49.5004 262.876 48.9041 261.385 48.9041C259.895 48.9041 259 49.5004 259 50.3948C259 51.2892 259.895 51.5873 261.087 51.8855C262.876 52.4818 265.261 53.078 265.261 55.7613C264.963 58.4446 263.77 59.6371 260.491 59.6371Z" fill="black"/>
<path d="M273.312 59.3373C273.014 59.6355 272.418 59.6355 271.225 59.6355C269.735 59.6355 268.244 59.0392 268.244 56.3559V48.9024H266.753V46.8155H268.244V42.0452L270.629 41.7471V46.8155H272.716V48.9024H270.629V56.3559C270.629 57.2504 271.225 57.5485 271.523 57.5485C272.12 57.5485 272.716 57.2504 273.014 57.2504L273.312 59.3373Z" fill="black"/>
<path d="M282.557 58.4446C282.259 59.0408 281.365 59.6371 279.576 59.6371C277.191 59.6371 275.7 57.8483 275.7 55.165V47.1152H278.085V55.165C278.085 56.6557 278.682 57.5501 280.172 57.5501C281.961 57.5501 282.856 56.3576 282.856 54.8669V47.1152H285.241V59.6371H282.856V58.4446H282.557Z" fill="black"/>
<path d="M296.268 58.4441C295.97 58.7422 294.777 59.6366 292.989 59.6366C290.603 59.6366 287.92 58.1459 287.92 53.3757C287.92 48.9036 290.305 46.8166 292.989 46.8166C295.076 46.8166 295.672 47.4129 295.97 48.0092V40.5557H298.355V59.3385H295.97V58.4441H296.268ZM296.268 51.885C296.268 49.798 295.076 48.9036 293.585 48.9036C292.094 48.9036 290.603 50.0962 290.603 53.3757C290.603 56.3571 291.796 57.2515 293.585 57.2515C295.076 57.2515 296.566 56.3571 296.566 54.2701V51.885H296.268Z" fill="black"/>
<path d="M303.427 44.7285C302.532 44.7285 301.936 44.1322 301.936 43.2378C301.936 42.3434 302.532 41.7471 303.427 41.7471C304.321 41.7471 304.917 42.3434 304.917 43.2378C305.216 44.4303 304.619 44.7285 303.427 44.7285ZM304.619 59.6355H302.234V47.1136H304.619V59.6355Z" fill="black"/>
<path d="M310.578 41.4512H313.261L310.876 45.6251H309.087L310.578 41.4512ZM311.472 59.6377H309.087V47.1158H311.472V59.6377Z" fill="black"/>
<path d="M22.8749 0.306641L0.8125 7.76015V0.306641H22.8749ZM0.8125 8.95271C0.8125 10.1453 2.60134 11.0397 4.68832 11.0397C5.58274 11.0397 6.17902 10.7415 6.7753 10.7415C7.66973 10.4434 27.9433 3.28804 27.9433 3.28804V32.8039C27.9433 32.8039 7.37159 39.9593 6.7753 40.2574C6.17902 40.5556 5.2846 40.5556 4.68832 40.5556C2.60134 40.5556 0.8125 39.363 0.8125 37.5742V8.95271Z" fill="#8F3E0F"/>
<path d="M55.6708 19.9848C55.6708 24.755 53.882 27.4383 49.1117 27.4383C44.3415 27.4383 42.2545 24.755 42.2545 19.9848V5.97217H44.9378V19.9848C44.9378 23.2643 45.8322 25.0531 48.8136 25.0531C51.795 25.0531 52.6894 23.2643 52.6894 19.9848V5.97217H55.3727V19.9848H55.6708Z" fill="black"/>
<path d="M67.8922 18.1948C67.8922 16.7041 66.9977 15.5116 65.507 15.5116C63.7182 15.5116 62.8238 16.7041 62.8238 18.1948V27.4372H60.1405V13.1265H62.8238V14.319C63.42 13.7227 64.3145 13.1265 66.1033 13.1265C68.7866 13.1265 70.8736 14.9153 70.8736 18.1948V27.4372H68.1903V18.1948H67.8922Z" fill="black"/>
<path d="M75.9451 10.4434C74.7525 10.4434 74.1562 9.84712 74.1562 8.65456C74.1562 7.462 74.7525 6.86572 75.9451 6.86572C77.1377 6.86572 77.7339 7.462 77.7339 8.65456C77.7339 10.1453 77.1377 10.4434 75.9451 10.4434ZM77.4358 27.4374H74.7525V13.1267H77.4358V27.4374Z" fill="black"/>
<path d="M79.5238 13.1265H82.5052L85.7847 23.8595L89.3624 13.1265H92.3438L87.2755 27.4372H84.5922L79.5238 13.1265Z" fill="black"/>
<path d="M95.9195 21.4737C96.2177 24.157 97.7084 25.0514 99.4972 25.0514C101.584 25.0514 102.777 24.4551 103.671 23.8588L104.267 26.5421C103.075 27.1384 101.584 27.4365 99.4972 27.4365C95.9195 27.4365 92.9381 25.3495 92.9381 20.2811C92.9381 15.5109 95.6214 12.8276 98.9009 12.8276C102.777 12.8276 104.864 15.5109 104.864 19.6849V21.1756H95.9195V21.4737ZM102.18 19.3867C102.18 17.0016 100.988 15.5109 99.1991 15.5109C97.7084 15.5109 96.2177 16.4053 95.9195 19.3867H102.18Z" fill="black"/>
<path d="M114.402 16.1072C114.104 15.809 113.507 15.809 112.613 15.809C111.719 15.809 111.122 16.7035 111.122 18.1942V27.4365H108.439V13.1258H111.122V14.6165C111.42 13.7221 112.315 12.8276 113.806 12.8276C114.402 12.8276 114.998 13.1258 114.998 13.1258L114.402 16.1072Z" fill="black"/>
<path d="M126.63 27.4372H116.195L122.755 15.5116H116.494V13.1265H126.928L120.369 25.0521H126.63V27.4372Z" fill="black"/>
<path d="M131.1 10.4434C129.908 10.4434 129.311 9.84712 129.311 8.65456C129.311 7.462 129.908 6.86572 131.1 6.86572C132.293 6.86572 132.889 7.462 132.889 8.65456C132.889 10.1453 131.995 10.4434 131.1 10.4434ZM132.293 27.4374H129.609V13.1267H132.293V27.4374Z" fill="black"/>
<path d="M143.326 27.1392C142.73 27.4373 142.134 27.7355 140.941 27.7355C139.152 27.7355 137.364 27.1392 137.364 24.1578V15.5117H135.575V13.1266H137.364V7.76005L140.047 7.46191V13.4247H142.432V15.5117H140.047V23.8596C140.047 24.754 140.643 25.0522 141.239 25.0522C141.836 25.0522 142.432 24.754 143.028 24.4559L143.326 27.1392Z" fill="black"/>
<path d="M153.161 26.2446C152.862 26.5428 151.968 27.4372 149.881 27.4372C146.9 27.4372 145.111 25.9465 145.111 22.9651C145.111 19.9837 147.198 18.493 149.881 18.493C151.372 18.493 152.564 19.0893 153.161 19.6855V17.8967C153.161 16.1079 151.968 15.5116 150.477 15.5116C148.689 15.5116 147.198 16.1079 146.602 16.406L146.303 14.0209C147.198 13.7227 148.689 13.1265 150.775 13.1265C154.055 13.1265 155.844 14.9153 155.844 17.8967V27.4372H153.161V26.2446ZM153.161 22.667C153.161 21.4744 151.67 20.8781 150.477 20.8781C148.987 20.8781 147.794 21.4744 147.794 23.2632C147.794 24.7539 148.987 25.3502 150.477 25.3502C151.968 25.3502 153.161 24.4558 153.161 23.2632V22.667Z" fill="black"/>
<path d="M171.052 27.4383V8.65543H165.983V5.97217H179.101V8.65543H173.735V27.4383H171.052Z" fill="black"/>
<path d="M184.472 27.4372C180.894 27.4372 177.913 25.3502 177.913 20.2818C177.913 14.9153 180.894 13.1265 184.472 13.1265C187.751 13.1265 191.031 15.2134 191.031 20.2818C191.031 25.6484 188.049 27.4372 184.472 27.4372ZM184.472 15.5116C182.385 15.5116 180.894 17.3004 180.894 20.2818C180.894 23.2632 182.385 25.0521 184.472 25.0521C186.559 25.0521 188.049 23.5614 188.049 20.2818C188.049 17.0023 186.559 15.5116 184.472 15.5116Z" fill="black"/>
<path d="M210.107 18.1948C210.107 16.7041 209.213 15.5116 207.722 15.5116C205.933 15.5116 205.039 16.7041 205.039 18.1948V27.4372H202.356V18.1948C202.356 16.7041 201.461 15.5116 199.97 15.5116C198.182 15.5116 197.287 16.7041 197.287 18.1948V27.4372H194.604V13.1265H197.287V14.319C197.883 13.7227 198.778 13.1265 200.567 13.1265C202.356 13.1265 203.846 14.0209 204.443 15.2134C205.337 14.0209 206.529 13.1265 208.318 13.1265C211.002 13.1265 213.089 14.9153 213.089 18.1948V27.4372H210.405V18.1948H210.107Z" fill="black"/>
<path d="M224.418 26.2456C224.12 26.8419 222.927 27.7363 221.138 27.7363C218.157 27.7363 216.368 26.2456 216.368 23.2642C216.368 20.2828 218.455 18.7921 221.138 18.7921C222.629 18.7921 223.822 19.3884 224.418 19.9847V17.8977C224.418 16.1088 223.225 15.5126 221.735 15.5126C219.946 15.5126 218.455 16.1088 217.859 16.407L217.561 14.0219C218.455 13.7237 219.946 13.1274 222.033 13.1274C225.312 13.1274 227.101 14.9163 227.101 17.8977V27.4382H224.418V26.2456ZM224.418 22.6679C224.418 21.4754 223.225 20.8791 221.735 20.8791C220.244 20.8791 219.051 21.4754 219.051 23.2642C219.051 24.7549 220.244 25.3512 221.735 25.3512C223.225 25.0531 224.418 24.1586 224.418 22.9661V22.6679ZM222.629 6.56836H225.611L222.927 11.3386H220.84L222.629 6.56836Z" fill="black"/>
<path d="M234.851 27.4382C232.764 27.4382 230.976 26.8419 230.081 26.5438L230.976 24.1586C232.168 24.7549 233.659 25.0531 235.15 25.0531C236.342 25.0531 237.535 24.7549 237.535 23.5624C237.535 22.3698 236.044 22.0717 234.553 21.4754C232.466 20.8791 230.379 20.2828 230.379 17.3014C230.379 14.32 232.466 13.1274 235.746 13.1274C237.833 13.1274 239.025 13.4256 239.92 14.0219L239.622 16.407C238.429 15.8107 237.535 15.5126 235.746 15.5126C234.255 15.5126 233.063 16.1088 233.063 17.3014C233.063 18.1958 234.255 18.494 235.746 19.0903C237.833 19.6865 240.516 20.2828 240.516 23.2642C240.218 25.9475 238.727 27.4382 234.851 27.4382ZM231.274 6.56836H233.659L235.448 9.25162L237.237 6.56836H239.622L236.938 11.3386H233.957L231.274 6.56836Z" fill="black"/>
<path d="M245.585 21.4737C245.883 24.157 247.374 25.0514 249.163 25.0514C251.25 25.0514 252.443 24.4551 253.337 23.8588L253.933 26.5421C252.741 27.1384 251.25 27.4365 249.163 27.4365C245.585 27.4365 242.604 25.3495 242.604 20.2811C242.604 15.5109 245.287 12.8276 248.567 12.8276C252.443 12.8276 254.53 15.5109 254.53 19.6849V21.1756H245.585V21.4737ZM251.846 19.3867C251.846 17.0016 250.654 15.5109 248.865 15.5109C247.374 15.5109 245.883 16.4053 245.585 19.3867H251.846Z" fill="black"/>
<path d="M270.924 27.4383H264.961V5.97217H271.222C275.098 5.97217 277.483 8.05915 277.483 11.6368C277.483 14.022 276.291 15.5127 274.502 16.4071C276.589 17.3015 277.781 19.0903 277.781 21.4755C277.781 25.0531 275.098 27.4383 270.924 27.4383ZM271.222 8.65543H267.645V14.9164H270.924C273.011 14.9164 274.502 13.7238 274.502 11.6368C274.502 9.54985 273.309 8.65543 271.222 8.65543ZM270.924 17.5996H267.645V24.755H270.924C273.309 24.755 274.8 23.5624 274.8 21.4755C274.8 19.0903 273.011 17.5996 270.924 17.5996Z" fill="black"/>
<path d="M288.516 26.2446C288.218 26.8409 287.026 27.7353 285.237 27.7353C282.255 27.7353 280.466 26.2446 280.466 23.2632C280.466 20.2818 282.553 18.7911 285.237 18.7911C286.727 18.7911 287.92 19.3874 288.516 19.9837V17.8967C288.516 16.1079 287.324 15.5116 285.833 15.5116C284.044 15.5116 282.553 16.1079 281.957 16.406L281.659 14.0209C282.553 13.7227 284.044 13.1265 286.131 13.1265C289.411 13.1265 291.199 14.9153 291.199 17.8967V27.4372H288.516V26.2446ZM288.516 22.667C288.516 21.4744 287.324 20.8781 285.833 20.8781C284.342 20.8781 283.15 21.4744 283.15 23.2632C283.15 24.7539 284.342 25.3502 285.833 25.3502C287.324 25.3502 288.516 24.4558 288.516 23.2632V22.667Z" fill="black"/>
<path d="M301.637 27.1392C301.04 27.4373 300.444 27.7355 299.251 27.7355C297.761 27.7355 295.674 27.1392 295.674 24.1578V15.5117H293.885V13.1266H295.972V7.76005L298.655 7.46191V13.4247H301.04V15.5117H298.655V23.8596C298.655 24.754 299.251 25.0522 299.848 25.0522C300.444 25.0522 301.04 24.754 301.637 24.4559V27.1392Z" fill="black"/>
<path d="M305.811 10.4434C304.619 10.4434 304.022 9.84712 304.022 8.65456C304.022 7.462 304.619 6.86572 305.811 6.86572C307.004 6.86572 307.6 7.462 307.6 8.65456C307.6 10.1453 306.706 10.4434 305.811 10.4434ZM307.004 27.4374H304.32V13.1267H307.004V27.4374Z" fill="black"/>
<path d="M315.948 13.1265H318.929L322.507 23.8595L326.084 13.1265H329.066L323.699 27.4372H321.314L315.948 13.1265Z" fill="black"/>
<path d="M332.344 21.4737C332.642 24.157 334.133 25.0514 335.921 25.0514C338.008 25.0514 339.201 24.4551 340.095 23.8588L340.692 26.5421C339.499 27.1384 338.008 27.4365 335.921 27.4365C332.344 27.4365 329.362 25.3495 329.362 20.2811C329.362 15.5109 332.046 12.8276 335.325 12.8276C339.201 12.8276 341.288 15.5109 341.288 19.6849V21.1756H332.344V21.4737ZM338.605 19.3867C338.605 17.0016 337.412 15.5109 335.623 15.5109C334.133 15.5109 332.642 16.4053 332.344 19.3867H338.605Z" fill="black"/>
<path d="M362.756 27.4383H350.234L359.179 8.65543H350.831V5.97217H363.353L354.408 24.755H362.756V27.4383Z" fill="black"/>
<path d="M368.717 5.97217H366.034V27.4383H368.717V5.97217Z" fill="black"/>
<path d="M374.679 6.56836H377.661L374.978 11.3386H372.891L374.679 6.56836ZM375.574 27.4382H372.891V13.1274H375.574V27.4382Z" fill="black"/>
<path d="M387.802 18.1948C387.802 16.7041 386.907 15.5116 385.416 15.5116C383.628 15.5116 382.733 16.7041 382.733 18.1948V27.4372H380.05V13.1265H382.733V14.319C383.329 13.7227 384.224 13.1265 386.013 13.1265C388.696 13.1265 390.783 14.9153 390.783 18.1948V27.4372H388.1V18.1948H387.802Z" fill="black"/>
<path d="M396.446 21.4754C396.744 24.1586 398.234 25.0531 400.023 25.0531C402.11 25.0531 403.303 24.4568 404.197 23.8605L404.794 26.5438C403.601 27.14 402.11 27.4382 400.023 27.4382C396.446 27.4382 393.464 25.3512 393.464 20.2828C393.464 15.5126 396.147 12.8293 399.427 12.8293C403.303 12.8293 405.39 15.5126 405.39 19.6865V21.1772H396.446V21.4754ZM395.551 6.56836H397.936L399.725 9.25162L401.514 6.56836H403.899L401.216 11.3386H398.234L395.551 6.56836ZM402.707 19.3884C402.707 17.0033 401.514 15.5126 399.725 15.5126C398.234 15.5126 396.744 16.407 396.446 19.3884H402.707Z" fill="black"/>
</svg>
