<svg width="560" height="120" viewBox="0 0 560 120" fill="none" xmlns="http://www.w3.org/2000/svg">
<g clip-path="url(#clip0)">
<path d="M98.7513 80.0647V82.9921H90.5004V93.7377H87.4294V70.3936H100.046V73.3209H90.5004V80.1018H98.7513V80.0647Z" fill="black"/>
<path d="M109.777 92.3673C109.296 92.9231 108.26 93.8866 106.077 93.8866C102.747 93.8866 100.86 92.1451 100.86 88.9584C100.86 85.6976 103.117 83.9191 106.151 83.9191C107.779 83.9191 109.111 84.5489 109.74 85.1789V83.2891C109.74 81.4363 108.519 80.7694 106.891 80.7694C105.078 80.7694 103.45 81.3623 102.599 81.6957L102.266 79.0278C103.191 78.6574 104.708 78.1016 107.224 78.1016C110.702 78.1016 112.663 79.9172 112.663 83.2891V93.7013H109.74V92.3673H109.777ZM109.777 88.5138C109.777 87.328 108.334 86.5128 106.78 86.5128C105.263 86.5128 103.968 87.1428 103.968 88.9584C103.968 90.6258 105.374 91.2187 106.78 91.2187C108.445 91.2187 109.777 90.107 109.777 89.0325V88.5138Z" fill="black"/>
<path d="M120.137 93.7377H117.214V70.3936H120.137V84.4371L125.169 78.3232H128.906L123.245 84.8447L129.794 93.7377H126.094L120.137 85.4005V93.7377Z" fill="black"/>
<path d="M140.376 92.2555C139.858 92.9225 138.97 93.8859 136.676 93.8859C133.679 93.8859 131.718 91.8479 131.718 88.4019V78.2861H134.641V88.3278C134.641 90.0693 135.455 91.2921 137.157 91.2921C139.266 91.2921 140.376 89.7359 140.376 87.9943V78.3232H143.299V93.7377H140.376V92.2555Z" fill="black"/>
<path d="M150.736 70.3574V93.7016H147.813V70.3574H150.736Z" fill="black"/>
<path d="M162.021 93.3675C161.503 93.6269 160.837 93.8863 159.505 93.8863C157.729 93.8863 155.657 93.2193 155.657 89.8474V80.732H153.659V78.2865H155.657V72.2838L158.58 71.9502V78.2865H161.096V80.732H158.58V89.8474C158.58 90.959 159.172 91.2554 159.801 91.2554C160.541 91.2554 161.096 91.0332 161.651 90.7738L162.021 93.3675Z" fill="black"/>
<path d="M172.861 92.3673C172.381 92.9231 171.345 93.8866 169.162 93.8866C165.832 93.8866 163.945 92.1451 163.945 88.9584C163.945 85.6976 166.202 83.9191 169.236 83.9191C170.863 83.9191 172.195 84.5489 172.824 85.1789V83.2891C172.824 81.4363 171.604 80.7694 169.975 80.7694C168.163 80.7694 166.535 81.3623 165.684 81.6957L165.351 79.0278C166.276 78.6574 167.83 78.1016 170.309 78.1016C173.787 78.1016 175.748 79.9172 175.748 83.2891V93.7013H172.824V92.3673H172.861ZM172.861 88.5138C172.861 87.328 171.418 86.5128 169.865 86.5128C168.348 86.5128 167.053 87.1428 167.053 88.9584C167.053 90.6258 168.459 91.2187 169.865 91.2187C171.53 91.2187 172.861 90.107 172.861 89.0325V88.5138Z" fill="black"/>
<path d="M190.696 70.3574V93.7016H187.772V70.3574H190.696Z" fill="black"/>
<path d="M201.277 93.8867C197.54 93.8867 194.247 91.7006 194.247 85.9941C194.247 80.2878 197.652 78.1387 201.277 78.1387C204.94 78.1387 208.306 80.3248 208.306 85.9941C208.27 91.7376 204.978 93.8867 201.277 93.8867ZM201.277 80.7324C198.983 80.7324 197.318 82.5482 197.318 85.9941C197.318 89.329 199.02 91.1076 201.277 91.1076C203.534 91.1076 205.237 89.329 205.237 85.9941C205.199 82.5482 203.572 80.7324 201.277 80.7324Z" fill="black"/>
<path d="M224.291 93.5531C224.291 98.259 221.59 100.001 217.963 100.001C215.448 100.001 213.635 99.2594 212.895 98.889L213.413 96.1469C214.338 96.5174 215.855 97.2586 217.927 97.2586C219.851 97.2586 221.368 95.9246 221.368 93.7383V91.8115C220.923 92.3673 219.666 93.5531 217.372 93.5531C214.56 93.5531 211.23 91.6263 211.23 85.957C211.23 80.4359 214.375 78.1016 217.668 78.1016C220.11 78.1016 220.923 78.9908 221.405 79.5096V78.2498H224.328V93.5531H224.291ZM221.368 84.2525C221.368 81.8069 219.851 80.7323 217.963 80.7323C216.15 80.7323 214.264 82.1775 214.264 85.994C214.264 89.5512 215.855 90.8111 217.779 90.8111C219.703 90.8111 221.331 89.6624 221.331 87.1798V84.2525H221.368Z" fill="black"/>
<path d="M230.285 75.3969C229.064 75.3969 228.361 74.767 228.361 73.5813C228.361 72.3585 229.026 71.7285 230.285 71.7285C231.468 71.7285 232.209 72.3585 232.209 73.5813C232.172 74.804 231.468 75.3969 230.285 75.3969ZM231.727 78.3242V93.7387H228.805V78.3242H231.727Z" fill="black"/>
<path d="M240.349 93.8867C237.906 93.8867 236.241 93.2198 235.317 92.775L235.835 90.033C237.056 90.626 238.61 91.1446 240.349 91.1446C241.718 91.1446 243.013 90.7742 243.013 89.3661C243.013 87.9581 241.532 87.6245 239.867 87.1799C237.722 86.6241 235.28 85.9571 235.28 82.7334C235.28 79.6208 237.463 78.1387 241.089 78.1387C243.235 78.1387 244.751 78.6204 245.787 79.028L245.307 81.733C244.122 81.1772 242.938 80.6954 241.163 80.6954C239.424 80.6954 238.351 81.2882 238.351 82.6592C238.351 83.7709 239.608 84.1044 241.089 84.5491C243.345 85.1789 246.157 85.8829 246.157 89.2549C246.157 92.2564 244.456 93.8867 240.349 93.8867Z" fill="black"/>
<path d="M256.48 93.3675C255.962 93.6269 255.296 93.8863 253.965 93.8863C252.189 93.8863 250.117 93.2193 250.117 89.8474V80.732H248.119V78.2865H250.117V72.2838L253.04 71.9502V78.2865H255.555V80.732H253.04V89.8474C253.04 90.959 253.631 91.2554 254.26 91.2554C255.001 91.2554 255.555 91.0332 256.111 90.7738L256.48 93.3675Z" fill="black"/>
<path d="M260.846 75.3969C259.626 75.3969 258.922 74.767 258.922 73.5813C258.922 72.3585 259.589 71.7285 260.846 71.7285C262.03 71.7285 262.77 72.3585 262.77 73.5813C262.77 74.804 262.03 75.3969 260.846 75.3969ZM262.29 78.3242V93.7387H259.367V78.3242H262.29Z" fill="black"/>
<path d="M269.764 93.7377H266.841V70.3936H269.764V84.4371L274.796 78.3232H278.533L272.872 84.8447L279.42 93.7377H275.721L269.764 85.4005V93.7377Z" fill="black"/>
<path d="M285.266 99.9999V91.2551L279.458 78.2861H282.676L286.709 88.0314L290.742 78.2861H293.961L288.152 91.2551V99.9999H285.266Z" fill="black"/>
<path d="M311.609 92.3673C311.129 92.9231 310.094 93.8866 307.91 93.8866C304.58 93.8866 302.693 92.1451 302.693 88.9584C302.693 85.6976 304.95 83.9191 307.984 83.9191C309.612 83.9191 310.944 84.5489 311.573 85.1789V83.2891C311.573 81.4363 310.353 80.7694 308.724 80.7694C306.911 80.7694 305.283 81.3623 304.433 81.6957L304.099 79.0278C305.024 78.6574 306.578 78.1016 309.058 78.1016C312.536 78.1016 314.496 79.9172 314.496 83.2891V93.7013H311.573V92.3673H311.609ZM311.609 88.5138C311.609 87.328 310.167 86.5128 308.613 86.5128C307.096 86.5128 305.801 87.1428 305.801 88.9584C305.801 90.6258 307.207 91.2187 308.613 91.2187C310.278 91.2187 311.609 90.107 311.609 89.0325V88.5138Z" fill="black"/>
<path d="M329.444 93.7377H326.521V70.3936H329.444V84.4371L334.476 78.3232H338.213L332.552 84.8447L339.101 93.7377H335.401L329.444 85.4005V93.7377Z" fill="black"/>
<path d="M348.129 81.5105C347.759 81.3623 347.129 81.1029 346.316 81.1029C345.094 81.1029 344.281 82.1033 344.281 83.6967V93.7013H341.357V78.2868H344.281V80.0283C344.762 79.0278 345.539 78.1016 347.093 78.1016C347.684 78.1016 348.24 78.2498 348.499 78.398L348.129 81.5105Z" fill="black"/>
<path d="M352.902 75.3969C351.68 75.3969 350.978 74.767 350.978 73.5813C350.978 72.3585 351.643 71.7285 352.902 71.7285C354.085 71.7285 354.826 72.3585 354.826 73.5813C354.826 74.804 354.085 75.3969 352.902 75.3969ZM354.344 78.3242V93.7387H351.421V78.3242H354.344Z" fill="black"/>
<path d="M368.737 93.7377H357.304L364.63 80.7317H357.6V78.2861H369.07L362.04 91.1069H368.699V93.7377H368.737Z" fill="black"/>
<path d="M377.729 93.8867C373.992 93.8867 370.698 91.7006 370.698 85.9941C370.698 80.2878 374.102 78.1387 377.729 78.1387C381.391 78.1387 384.758 80.3248 384.758 85.9941C384.758 91.7376 381.428 93.8867 377.729 93.8867ZM377.729 80.7324C375.435 80.7324 373.769 82.5482 373.769 85.9941C373.769 89.329 375.471 91.1076 377.729 91.1076C379.985 91.1076 381.687 89.329 381.687 85.9941C381.65 82.5482 380.022 80.7324 377.729 80.7324Z" fill="black"/>
<path d="M385.387 78.3232H388.606L392.417 89.8472L396.191 78.3232H399.447L393.822 93.7378H391.011L385.387 78.3232Z" fill="black"/>
<path d="M403.258 87.1791C403.591 89.9951 405.182 91.1438 407.18 91.1438C409.399 91.1438 410.732 90.588 411.879 89.9951L412.397 92.8112C410.991 93.4412 409.585 93.8858 407.143 93.8858C403.258 93.8858 400.113 91.4774 400.113 86.1415C400.113 80.9169 403.036 78.1379 406.698 78.1379C410.88 78.1379 413.174 81.1022 413.174 85.6228V87.1791H403.258ZM410.103 84.8446C410.103 82.1396 408.772 80.7316 406.698 80.7316C405.108 80.7316 403.591 81.6209 403.258 84.8446H410.103ZM407.18 71.0234H410.435L407.402 76.1369H405.108L407.18 71.0234Z" fill="black"/>
<path d="M425.346 83.6969C425.346 81.9554 424.385 80.7326 422.645 80.7326C420.648 80.7326 419.612 81.9554 419.612 83.6969V93.7016H416.689V70.3574H419.612V79.5839C420.167 78.954 421.277 78.1388 423.127 78.1388C426.123 78.1388 428.233 80.1768 428.233 83.6228V93.7386H425.31V83.6969H425.346Z" fill="black"/>
<path d="M438.852 93.8867C435.115 93.8867 431.821 91.7006 431.821 85.9941C431.821 80.2878 435.226 78.1387 438.852 78.1387C442.514 78.1387 445.882 80.3248 445.882 85.9941C445.882 91.7376 442.589 93.8867 438.852 93.8867ZM438.852 80.7324C436.557 80.7324 434.892 82.5482 434.892 85.9941C434.892 89.329 436.595 91.1076 438.852 91.1076C441.109 91.1076 442.811 89.329 442.811 85.9941C442.811 82.5482 441.146 80.7324 438.852 80.7324Z" fill="black"/>
<path d="M456.019 71.0234H458.609L460.571 73.9136L462.532 71.0234H465.121L462.125 76.1369H459.017L456.019 71.0234ZM463.641 81.5098C463.272 81.3616 462.643 81.1022 461.828 81.1022C460.607 81.1022 459.794 82.1026 459.794 83.696V93.7006H456.871V78.2861H459.794V80.0276C460.274 79.0271 461.051 78.1007 462.605 78.1007C463.197 78.1007 463.752 78.2489 464.011 78.3973L463.641 81.5098Z" fill="black"/>
<path d="M468.933 71.0234H472.188L469.154 76.1369H466.86L468.933 71.0234ZM469.858 78.3231V93.7376H466.934V78.3231H469.858Z" fill="black"/>
<path d="M484.213 93.7377H472.78L480.106 80.7317H473.076V78.2861H484.546L477.516 91.1069H484.176V93.7377H484.213Z" fill="black"/>
<path d="M489.356 87.1799C489.689 89.996 491.28 91.1446 493.277 91.1446C495.498 91.1446 496.83 90.5888 497.977 89.996L498.495 92.8122C497.089 93.442 495.683 93.8867 493.241 93.8867C489.356 93.8867 486.211 91.4782 486.211 86.1423C486.211 80.9178 489.133 78.1387 492.797 78.1387C496.978 78.1387 499.272 81.103 499.272 85.6235V87.1799H489.356ZM496.164 84.8455C496.164 82.1406 494.832 80.7324 492.759 80.7324C491.169 80.7324 489.651 81.6218 489.319 84.8455H496.164Z" fill="black"/>
<path d="M511.445 83.6968C511.445 81.9552 510.483 80.7324 508.744 80.7324C506.746 80.7324 505.71 81.9552 505.71 83.6968V93.7014H502.786V78.2869H505.71V79.5838C506.264 78.9539 507.411 78.1387 509.224 78.1387C512.222 78.1387 514.331 80.1766 514.331 83.6227V93.7385H511.407V83.6968H511.445Z" fill="black"/>
<path d="M520.88 71.0234H524.136L521.101 76.1369H518.808L520.88 71.0234ZM521.805 78.3231V93.7376H518.881V78.3231H521.805Z" fill="black"/>
<path d="M63.432 20.1112L35.9995 29.3377V20H63.432V20.1112ZM36.1107 30.7457C36.1107 32.0797 38.2979 33.3025 40.8929 33.3025C41.8567 33.3025 42.7835 33.1172 43.562 32.8578C44.3775 32.5984 69.8824 23.6684 69.8824 23.6684V60.315C69.8824 60.315 44.1922 69.282 43.4878 69.5414C42.7464 69.8008 41.6713 69.9862 40.8187 69.9862C38.1867 69.9862 35.9624 68.6522 35.9624 66.2807V30.7457H36.1107Z" fill="#C9D30E"/>
<path d="M104.079 44.4926C104.079 50.5694 101.748 53.9042 95.8282 53.9042C89.9082 53.9042 87.4663 50.5694 87.4663 44.4926V27.0029H90.9813V44.3444C90.9813 48.4573 92.1283 50.5694 95.8282 50.5694C99.5281 50.5694 100.564 48.4573 100.564 44.3444V27.0029H104.079V44.4926Z" fill="black"/>
<path d="M119.138 42.2328C119.138 40.2318 118.028 38.8608 116.067 38.8608C113.773 38.8608 112.589 40.269 112.589 42.2699V53.7195H109.259V36.0818H112.589V37.564C113.218 36.8229 114.513 35.8965 116.622 35.8965C120.063 35.8965 122.468 38.231 122.468 42.1587V53.7195H119.138V42.2328Z" fill="black"/>
<path d="M129.313 32.7467C127.907 32.7467 127.13 32.0056 127.13 30.6717C127.13 29.2636 127.907 28.5596 129.313 28.5596C130.682 28.5596 131.496 29.2636 131.496 30.6717C131.496 32.0797 130.682 32.7467 129.313 32.7467ZM130.978 36.0816V53.7194H127.648V36.0816H130.978Z" fill="black"/>
<path d="M133.568 36.082H137.268L141.634 49.2732L145.963 36.082H149.663L143.225 53.7197H140.006L133.568 36.082Z" fill="black"/>
<path d="M153.992 46.2347C154.361 49.4584 156.212 50.7552 158.468 50.7552C161.021 50.7552 162.538 50.1254 163.833 49.4584L164.425 52.6821C162.834 53.4231 161.207 53.9049 158.431 53.9049C153.992 53.9049 150.403 51.1628 150.403 45.0489C150.403 39.0832 153.733 35.8965 157.913 35.8965C162.687 35.8965 165.313 39.3056 165.313 44.4561V46.2347H153.992ZM161.799 43.5667C161.799 40.4912 160.281 38.8608 157.913 38.8608C156.1 38.8608 154.361 39.8984 153.992 43.5667H161.799Z" fill="black"/>
<path d="M177.116 39.7502C176.709 39.565 175.969 39.3056 175.044 39.3056C173.638 39.3056 172.713 40.4542 172.713 42.2699V53.7195H169.383V36.0818H172.713V38.0828C173.268 36.934 174.156 35.8965 175.932 35.8965C176.598 35.8965 177.227 36.0818 177.561 36.23L177.116 39.7502Z" fill="black"/>
<path d="M192.138 53.7197H179.04L187.439 38.861H179.41V36.082H192.545L184.517 50.7554H192.138V53.7197Z" fill="black"/>
<path d="M197.54 32.7467C196.134 32.7467 195.357 32.0056 195.357 30.6717C195.357 29.2636 196.134 28.5596 197.54 28.5596C198.91 28.5596 199.723 29.2636 199.723 30.6717C199.723 32.0797 198.91 32.7467 197.54 32.7467ZM199.205 36.0816V53.7194H195.875V36.0816H199.205Z" fill="black"/>
<path d="M212.858 53.3112C212.266 53.6077 211.489 53.9041 209.971 53.9041C207.937 53.9041 205.569 53.126 205.569 49.2723V38.8601H203.274V36.0811H205.569V29.226L208.899 28.8555V36.0811H211.784V38.8601H208.899V49.2723C208.899 50.5322 209.565 50.9026 210.305 50.9026C211.156 50.9026 211.784 50.6434 212.413 50.3468L212.858 53.3112Z" fill="black"/>
<path d="M225.253 52.1633C224.698 52.7933 223.514 53.9049 221.034 53.9049C217.224 53.9049 215.078 51.9039 215.078 48.2726C215.078 44.5301 217.668 42.5292 221.146 42.5292C222.995 42.5292 224.55 43.2333 225.253 43.9743V41.8252C225.253 39.7132 223.847 38.935 221.997 38.935C219.925 38.935 218.074 39.602 217.077 40.0096L216.706 36.9711C217.779 36.5635 219.517 35.8965 222.367 35.8965C226.325 35.8965 228.583 37.9716 228.583 41.8252V53.7195H225.253V52.1633ZM225.253 47.7538C225.253 46.3829 223.588 45.4565 221.811 45.4565C220.073 45.4565 218.592 46.1976 218.592 48.2726C218.592 50.1624 220.184 50.8664 221.811 50.8664C223.736 50.8664 225.253 49.6066 225.253 48.3468V47.7538Z" fill="black"/>
<path d="M247.268 53.719V30.3378H240.793V27.0029H257.257V30.3378H250.782V53.719H247.268Z" fill="black"/>
<path d="M263.992 53.9049C259.699 53.9049 255.962 51.4222 255.962 44.9007C255.962 38.3792 259.848 35.8965 263.992 35.8965C268.172 35.8965 272.02 38.3792 272.02 44.9007C272.02 51.4222 268.247 53.9049 263.992 53.9049ZM263.992 38.8608C261.364 38.8608 259.478 40.9359 259.478 44.9007C259.478 48.7172 261.439 50.7552 263.992 50.7552C266.582 50.7552 268.506 48.7172 268.506 44.9007C268.506 40.9359 266.618 38.8608 263.992 38.8608Z" fill="black"/>
<path d="M295.848 42.2328C295.848 40.2318 294.738 38.8608 292.777 38.8608C290.483 38.8608 289.299 40.269 289.299 42.2699V53.7195H285.969V42.2328C285.969 40.2318 284.86 38.8608 282.898 38.8608C280.605 38.8608 279.42 40.269 279.42 42.2699V53.7195H276.091V36.0818H279.42V37.564C280.049 36.8229 281.344 35.8965 283.454 35.8965C285.637 35.8965 287.375 36.8229 288.374 38.4904C289.299 37.1564 290.927 35.8965 293.332 35.8965C296.773 35.8965 299.178 38.231 299.178 42.1587V53.7195H295.848V42.2328Z" fill="black"/>
<path d="M313.422 52.1639C312.868 52.7937 311.684 53.9054 309.205 53.9054C305.394 53.9054 303.247 51.9045 303.247 48.2732C303.247 44.5306 305.838 42.5297 309.316 42.5297C311.166 42.5297 312.72 43.2338 313.422 43.9749V41.8257C313.422 39.7136 312.016 38.9355 310.167 38.9355C308.095 38.9355 306.245 39.6025 305.246 40.0101L304.876 36.9716C305.948 36.564 307.688 35.897 310.537 35.897C314.496 35.897 316.752 37.9721 316.752 41.8257V53.7201H313.422V52.1639ZM313.422 47.7544C313.422 46.3834 311.757 45.457 309.982 45.457C308.243 45.457 306.763 46.198 306.763 48.2732C306.763 50.1629 308.354 50.8669 309.982 50.8669C311.906 50.8669 313.422 49.6071 313.422 48.3472V47.7544ZM311.166 27.7451H314.903L311.425 33.5997H308.798L311.166 27.7451Z" fill="black"/>
<path d="M326.632 53.9054C323.856 53.9054 321.932 53.1273 320.86 52.6455L321.452 49.4959C322.858 50.1629 324.633 50.7557 326.632 50.7557C328.186 50.7557 329.665 50.3111 329.665 48.7178C329.665 47.1244 327.963 46.7168 326.077 46.2352C323.635 45.6052 320.823 44.8271 320.823 41.1587C320.823 37.6016 323.302 35.897 327.445 35.897C329.887 35.897 331.627 36.4528 332.811 36.9346L332.256 40.0471C330.887 39.4172 329.555 38.8614 327.52 38.8614C325.521 38.8614 324.301 39.5283 324.301 41.1217C324.301 42.3815 325.744 42.7891 327.445 43.2708C330.035 43.9748 333.254 44.79 333.254 48.6437C333.254 52.0157 331.293 53.9054 326.632 53.9054ZM321.822 27.7451H324.782L327.039 31.0429L329.296 27.7451H332.256L328.815 33.5997H325.262L321.822 27.7451Z" fill="black"/>
<path d="M339.803 46.2347C340.173 49.4584 342.023 50.7552 344.281 50.7552C346.834 50.7552 348.351 50.1254 349.646 49.4584L350.237 52.6821C348.647 53.4231 347.018 53.9049 344.244 53.9049C339.803 53.9049 336.214 51.1628 336.214 45.0489C336.214 39.0832 339.544 35.8965 343.726 35.8965C348.499 35.8965 351.125 39.3056 351.125 44.4561V46.2347H339.803ZM347.611 43.5667C347.611 40.4912 346.093 38.8608 343.726 38.8608C341.913 38.8608 340.173 39.8984 339.803 43.5667H347.611Z" fill="black"/>
<path d="M371.105 53.719H363.706V27.0029H371.659C376.581 27.0029 379.467 29.7079 379.467 34.1174C379.467 37.1558 377.876 38.8233 375.655 39.8979C378.061 40.8983 379.651 43.1956 379.651 46.0488C379.651 50.8659 376.359 53.719 371.105 53.719ZM371.697 30.3378H367.22V38.2673H371.216C373.954 38.2673 375.767 36.9335 375.767 34.3026C375.767 31.5977 374.065 30.3378 371.697 30.3378ZM371.216 41.6023H367.22V50.3841H371.216C373.992 50.3841 375.952 48.8649 375.952 46.1229C375.952 43.2698 373.954 41.6023 371.216 41.6023Z" fill="black"/>
<path d="M393.156 52.1633C392.602 52.7933 391.418 53.9049 388.939 53.9049C385.128 53.9049 382.981 51.9039 382.981 48.2726C382.981 44.5301 385.571 42.5292 389.049 42.5292C390.9 42.5292 392.454 43.2333 393.156 43.9743V41.8252C393.156 39.7132 391.75 38.935 389.901 38.935C387.829 38.935 385.979 39.602 384.98 40.0096L384.61 36.9711C385.682 36.5635 387.422 35.8965 390.271 35.8965C394.23 35.8965 396.487 37.9716 396.487 41.8252V53.7195H393.156V52.1633ZM393.156 47.7538C393.156 46.3829 391.491 45.4565 389.716 45.4565C387.977 45.4565 386.497 46.1976 386.497 48.2726C386.497 50.1624 388.088 50.8664 389.716 50.8664C391.64 50.8664 393.156 49.6066 393.156 48.3468V47.7538Z" fill="black"/>
<path d="M409.399 53.3112C408.808 53.6077 408.031 53.9041 406.514 53.9041C404.479 53.9041 402.111 53.126 402.111 49.2723V38.8601H399.817V36.0811H402.111V29.226L405.441 28.8555V36.0811H408.327V38.8601H405.441V49.2723C405.441 50.5322 406.107 50.9026 406.847 50.9026C407.698 50.9026 408.327 50.6434 408.956 50.3468L409.399 53.3112Z" fill="black"/>
<path d="M414.395 32.7467C412.988 32.7467 412.211 32.0056 412.211 30.6717C412.211 29.2636 412.988 28.5596 414.395 28.5596C415.764 28.5596 416.578 29.2636 416.578 30.6717C416.578 32.0797 415.764 32.7467 414.395 32.7467ZM416.06 36.0816V53.7194H412.729V36.0816H416.06Z" fill="black"/>
</g>
<defs>
<clipPath id="clip0">
<rect width="488.136" height="80" fill="white" transform="translate(36 20)"/>
</clipPath>
</defs>
</svg>
