<svg width="406" height="65" viewBox="0 0 406 65" fill="none" xmlns="http://www.w3.org/2000/svg">
<path d="M51.6219 48.3V50.6851H45.0629V59.3312H42.6777V40.5483H52.8145V42.9335H45.0629V48.3H51.6219Z" fill="black"/>
<path d="M60.2693 58.1387C59.9712 58.4368 59.0768 59.3313 57.2879 59.3313C54.6047 59.3313 53.114 57.8406 53.114 55.4554C53.114 52.7722 54.9028 51.2815 57.2879 51.2815C58.4805 51.2815 59.673 51.8778 60.2693 52.1759V50.6852C60.2693 49.1945 59.3749 48.5982 57.8842 48.5982C56.3935 48.5982 55.2009 49.1945 54.3065 49.4926L54.0084 47.4056C54.9028 47.1075 56.0954 46.5112 57.8842 46.5112C60.5675 46.5112 62.3563 48.0019 62.3563 50.6852V59.0331H59.9712V58.1387H60.2693ZM60.2693 55.1573C60.2693 54.2629 59.0768 53.6666 57.8842 53.6666C56.6916 53.6666 55.4991 54.2629 55.4991 55.7536C55.4991 56.9461 56.6916 57.5424 57.8842 57.5424C59.3749 57.5424 60.2693 56.648 60.2693 55.7536V55.1573Z" fill="black"/>
<path d="M68.619 59.3312H66.2339V40.5483H68.619V51.8777L72.793 46.8093H75.7744L71.3023 52.1758L76.6688 59.3312H73.6874L68.9171 52.7721V59.3312H68.619Z" fill="black"/>
<path d="M85.0123 58.1394C84.7142 58.7357 83.8198 59.3319 82.0309 59.3319C79.6458 59.3319 78.1551 57.5431 78.1551 54.8598V46.8101H80.5402V54.8598C80.5402 56.3505 81.1365 57.245 82.6272 57.245C84.416 57.245 85.3105 56.0524 85.3105 54.5617V46.8101H87.3974V59.3319H85.0123V58.1394Z" fill="black"/>
<path d="M93.3614 40.5483V59.3312H90.9763V40.5483H93.3614Z" fill="black"/>
<path d="M102.604 59.0336C102.306 59.3318 101.71 59.3318 100.517 59.3318C99.0265 59.3318 97.5358 58.7355 97.5358 56.0522V48.5987H96.0451V46.5117H97.5358V41.7415L99.9209 41.4434V46.5117H102.008V48.5987H99.9209V56.0522C99.9209 56.9467 100.517 57.2448 100.815 57.2448C101.412 57.2448 102.008 56.9467 102.306 56.9467L102.604 59.0336Z" fill="black"/>
<path d="M111.248 58.1387C110.949 58.4368 110.055 59.3313 108.266 59.3313C105.583 59.3313 104.092 57.8406 104.092 55.4554C104.092 52.7722 105.881 51.2815 108.266 51.2815C109.459 51.2815 110.651 51.8778 111.248 52.1759V50.6852C111.248 49.1945 110.353 48.5982 108.862 48.5982C107.372 48.5982 106.179 49.1945 105.285 49.4926V47.4056C106.179 47.1075 107.372 46.5112 109.161 46.5112C111.844 46.5112 113.633 48.0019 113.633 50.6852V59.0331H111.248V58.1387ZM111.248 55.1573C111.248 54.2629 110.055 53.6666 108.862 53.6666C107.67 53.6666 106.477 54.2629 106.477 55.7536C106.477 56.9461 107.67 57.5424 108.862 57.5424C110.353 57.5424 111.248 56.648 111.248 55.7536V55.1573Z" fill="black"/>
<path d="M125.562 40.5483V59.3312H123.177V40.5483H125.562Z" fill="black"/>
<path d="M134.205 59.3319C131.223 59.3319 128.54 57.5431 128.54 53.071C128.54 48.5989 131.223 46.8101 134.205 46.8101C137.186 46.8101 139.869 48.5989 139.869 53.071C139.869 57.8412 137.186 59.3319 134.205 59.3319ZM134.205 48.897C132.416 48.897 130.925 50.3877 130.925 53.071C130.925 55.7543 132.416 57.245 134.205 57.245C135.994 57.245 137.484 55.7543 137.484 53.071C137.186 50.3877 135.994 48.897 134.205 48.897Z" fill="black"/>
<path d="M152.691 59.3312C152.691 63.207 150.604 64.3996 147.623 64.3996C145.536 64.3996 144.045 63.8033 143.449 63.5051L143.747 61.4182C144.641 61.7163 145.834 62.3126 147.325 62.3126C148.815 62.3126 150.008 61.12 150.008 59.3312V57.8405C149.71 58.1386 148.517 59.3312 146.728 59.3312C144.343 59.3312 141.66 57.8405 141.66 53.3684C141.66 48.8963 144.045 47.1074 146.728 47.1074C148.815 47.1074 149.412 47.7037 149.71 48.3V47.4056H152.095V59.3312H152.691ZM150.306 51.5795C150.306 49.4925 149.113 48.5981 147.623 48.5981C146.132 48.5981 144.641 49.7907 144.641 52.7721C144.641 55.7535 145.834 56.6479 147.623 56.6479C149.113 56.6479 150.604 55.7535 150.604 53.6665V51.5795H150.306Z" fill="black"/>
<path d="M157.461 44.4248C156.567 44.4248 155.97 43.8285 155.97 42.9341C155.97 42.0396 156.567 41.4434 157.461 41.4434C158.356 41.4434 158.952 42.0396 158.952 42.9341C158.952 44.1266 158.356 44.4248 157.461 44.4248ZM158.654 46.8099V59.3318H156.269V46.8099H158.654Z" fill="black"/>
<path d="M165.512 59.3319C163.425 59.3319 162.232 58.7357 161.338 58.4375L161.636 56.3505C162.53 56.9468 164.021 57.245 165.214 57.245C166.406 57.245 167.301 56.9468 167.301 55.7543C167.301 54.5617 166.108 54.2636 164.916 53.9654C163.127 53.6673 161.338 53.071 161.338 50.3877C161.338 48.0026 163.127 46.8101 166.108 46.8101C167.897 46.8101 169.09 47.1082 169.984 47.4063L169.686 49.4933C168.791 49.1952 167.897 48.5989 166.406 48.5989C164.916 48.5989 164.021 49.1952 164.021 50.0896C164.021 50.984 164.916 51.2822 166.108 51.5803C167.897 52.1766 170.282 52.7729 170.282 55.4561C170.282 58.1394 168.791 59.3319 165.512 59.3319Z" fill="black"/>
<path d="M178.632 59.0322C178.334 59.3303 177.737 59.3303 176.545 59.3303C175.054 59.3303 173.563 58.734 173.563 56.0508V48.5973H172.073V46.5103H173.563V41.74L175.949 41.4419V46.5103H178.035V48.5973H175.949V56.0508C175.949 56.9452 176.545 57.2433 176.843 57.2433C177.439 57.2433 178.035 56.9452 178.334 56.9452L178.632 59.0322Z" fill="black"/>
<path d="M182.208 44.4233C181.313 44.4233 180.717 43.827 180.717 42.9326C180.717 42.0382 181.313 41.4419 182.208 41.4419C183.102 41.4419 183.698 42.0382 183.698 42.9326C183.698 44.1252 183.102 44.4233 182.208 44.4233ZM183.4 46.8084V59.3303H181.015V46.8084H183.4Z" fill="black"/>
<path d="M189.361 59.3312H186.976V40.5483H189.361V51.8777L193.535 46.8093H196.517L191.746 52.1758L197.113 59.3312H194.132L189.361 52.7721V59.3312Z" fill="black"/>
<path d="M201.884 64.4003V57.245L197.114 46.8101H199.797L203.077 54.5617L206.356 46.8101H209.039L204.269 57.245V64.4003H201.884Z" fill="black"/>
<path d="M223.051 58.1387C222.753 58.4368 221.858 59.3313 220.069 59.3313C217.386 59.3313 215.896 57.8406 215.896 55.4554C215.896 52.7722 217.684 51.2815 220.069 51.2815C221.262 51.2815 222.455 51.8778 223.051 52.1759V50.6852C223.051 49.1945 222.156 48.5982 220.666 48.5982C219.175 48.5982 217.982 49.1945 217.088 49.4926L216.79 47.4056C217.684 47.1075 218.877 46.5112 220.666 46.5112C223.349 46.5112 225.138 48.0019 225.138 50.6852V59.0331H222.753V58.1387H223.051ZM223.051 55.1573C223.051 54.2629 221.858 53.6666 220.666 53.6666C219.473 53.6666 218.281 54.2629 218.281 55.7536C218.281 56.9461 219.473 57.5424 220.666 57.5424C222.156 57.5424 223.051 56.648 223.051 55.7536V55.1573Z" fill="black"/>
<path d="M237.365 59.3312H234.98V40.5483H237.365V51.8777L241.539 46.8093H244.521L240.049 52.1758L245.415 59.3312H242.434L237.663 52.7721V59.3312H237.365Z" fill="black"/>
<path d="M252.566 49.4933C252.268 49.4933 251.672 49.1952 251.075 49.1952C250.181 49.1952 249.286 50.0896 249.286 51.2822V59.3319H246.901V46.8101H249.286V48.3008C249.585 47.4063 250.181 46.8101 251.672 46.8101C252.268 46.8101 252.566 46.8101 252.864 47.1082L252.566 49.4933Z" fill="black"/>
<path d="M256.145 44.4233C255.25 44.4233 254.654 43.827 254.654 42.9326C254.654 42.0382 255.25 41.4419 256.145 41.4419C257.039 41.4419 257.635 42.0382 257.635 42.9326C257.933 44.1252 257.337 44.4233 256.145 44.4233ZM257.337 46.8084V59.3303H254.952V46.8084H257.337Z" fill="black"/>
<path d="M268.965 59.3319H259.723L265.685 48.897H260.021V46.8101H269.263L263.598 57.245H268.965V59.3319Z" fill="black"/>
<path d="M276.421 59.3319C273.439 59.3319 270.756 57.5431 270.756 53.071C270.756 48.5989 273.439 46.8101 276.421 46.8101C279.402 46.8101 282.085 48.5989 282.085 53.071C282.085 57.8412 279.402 59.3319 276.421 59.3319ZM276.421 48.897C274.632 48.897 273.141 50.3877 273.141 53.071C273.141 55.7543 274.632 57.245 276.421 57.245C278.21 57.245 279.7 55.7543 279.7 53.071C279.402 50.3877 278.21 48.897 276.421 48.897Z" fill="black"/>
<path d="M282.383 46.8101H285.066L288.047 56.0524L291.029 46.8101H293.712L289.24 59.3319H287.153L282.383 46.8101Z" fill="black"/>
<path d="M296.988 53.9646C297.286 56.3497 298.479 57.2441 300.267 57.2441C302.056 57.2441 303.249 56.946 304.143 56.3497L304.441 58.7348C303.249 59.3311 302.056 59.6292 300.267 59.6292C297.286 59.6292 294.603 57.8404 294.603 53.3683C294.603 49.1943 296.988 46.8092 299.969 46.8092C303.249 46.8092 305.038 49.1943 305.038 52.772V53.9646H296.988ZM302.354 52.1757C302.354 50.0887 301.162 48.8962 299.671 48.8962C298.479 48.8962 297.286 49.4925 296.988 52.1757H302.354ZM299.969 41.1445H302.652L300.267 45.3185H298.479L299.969 41.1445Z" fill="black"/>
<path d="M314.584 51.2814C314.584 49.7907 313.689 48.8963 312.497 48.8963C311.006 48.8963 310.112 49.7907 310.112 51.2814V59.3312H307.727V40.5483H310.112V48.0018C310.41 47.4056 311.602 46.8093 313.093 46.8093C315.478 46.8093 317.267 48.5981 317.267 51.2814V59.3312H314.882V51.2814H314.584Z" fill="black"/>
<path d="M325.611 59.3319C322.63 59.3319 319.947 57.5431 319.947 53.071C319.947 48.5989 322.63 46.8101 325.611 46.8101C328.593 46.8101 331.276 48.5989 331.276 53.071C331.276 57.8412 328.593 59.3319 325.611 59.3319ZM325.611 48.897C323.822 48.897 322.332 50.3877 322.332 53.071C322.332 55.7543 323.822 57.245 325.611 57.245C327.4 57.245 328.891 55.7543 328.891 53.071C328.593 50.3877 327.4 48.897 325.611 48.897Z" fill="black"/>
<path d="M339.326 41.1445H341.413L342.903 43.5297L344.394 41.1445H346.481L344.096 45.3185H341.711L339.326 41.1445ZM345.587 49.4925C345.288 49.4925 344.692 49.1943 344.096 49.1943C343.202 49.1943 342.307 50.0887 342.307 51.2813V59.3311H339.922V46.8092H342.307V48.2999C342.605 47.4055 343.202 46.8092 344.692 46.8092C345.288 46.8092 345.587 46.8092 345.885 47.1073L345.587 49.4925Z" fill="black"/>
<path d="M349.763 41.1445H352.447L350.062 45.3185H348.273L349.763 41.1445ZM350.658 46.8092V59.3311H348.273V46.8092H350.658Z" fill="black"/>
<path d="M361.987 59.3319H352.744L358.707 48.897H353.042V46.8101H362.285L356.62 57.245H361.987V59.3319Z" fill="black"/>
<path d="M366.159 53.9654C366.457 56.3505 367.65 57.245 369.438 57.245C371.227 57.245 372.42 56.9468 373.314 56.3505L373.612 58.7357C372.42 59.332 371.227 59.6301 369.438 59.6301C366.457 59.6301 363.774 57.8412 363.774 53.3691C363.774 49.1952 366.159 46.8101 369.14 46.8101C372.42 46.8101 374.209 49.1952 374.209 52.7729V53.9654H366.159ZM371.824 52.1766C371.824 50.0896 370.631 48.897 369.14 48.897C367.948 48.897 366.755 49.4933 366.457 52.1766H371.824Z" fill="black"/>
<path d="M384.049 51.2815C384.049 49.7908 383.155 48.8964 381.962 48.8964C380.472 48.8964 379.577 49.7908 379.577 51.2815V59.3313H377.192V46.8094H379.577V47.7038C379.875 47.1075 381.068 46.5112 382.559 46.5112C384.944 46.5112 386.732 48.3001 386.732 50.9833V59.0331H384.347V51.2815H384.049Z" fill="black"/>
<path d="M391.504 41.1445H394.187L391.802 45.3185H390.014L391.504 41.1445ZM392.399 46.8092V59.3311H390.014V46.8092H392.399Z" fill="black"/>
<path d="M23.0071 0L0.944702 7.45351V0H23.0071ZM0.944702 8.64607C0.944702 9.83863 2.73354 10.733 4.82053 10.733C5.71495 10.733 6.31123 10.4349 6.90751 10.4349C7.80193 10.1368 28.0755 2.9814 28.0755 2.9814V32.4973C28.0755 32.4973 7.50379 39.6526 6.90751 39.9508C6.31123 40.2489 5.41681 40.2489 4.82053 40.2489C2.73354 40.2489 0.944702 39.0564 0.944702 37.2675V8.64607Z" fill="#C9D30E"/>
<path d="M55.8032 19.6767C55.8032 24.4469 54.0143 27.1302 49.2441 27.1302C44.4738 27.1302 42.3868 24.4469 42.3868 19.6767V5.66406H45.0701V19.6767C45.0701 22.9562 45.9645 24.745 48.9459 24.745C51.9273 24.745 52.8217 22.9562 52.8217 19.6767V5.66406H55.505V19.6767H55.8032Z" fill="black"/>
<path d="M68.0245 17.8882C68.0245 16.3975 67.1301 15.2049 65.6394 15.2049C63.8505 15.2049 62.9561 16.3975 62.9561 17.8882V27.1306H60.2728V12.8198H62.9561V14.0124C63.5524 13.4161 64.4468 12.8198 66.2356 12.8198C68.9189 12.8198 71.0059 14.6087 71.0059 17.8882V27.1306H68.3226V17.8882H68.0245Z" fill="black"/>
<path d="M76.0775 10.1368C74.8849 10.1368 74.2886 9.54048 74.2886 8.34792C74.2886 7.15536 74.8849 6.55908 76.0775 6.55908C77.27 6.55908 77.8663 7.15536 77.8663 8.34792C77.8663 9.83862 77.27 10.1368 76.0775 10.1368ZM77.5682 12.82V27.1308H74.8849V12.82H77.5682Z" fill="black"/>
<path d="M79.656 12.8198H82.6374L86.2151 23.5529L89.7928 12.8198H92.7742L87.4077 27.1306H84.7244L79.656 12.8198Z" fill="black"/>
<path d="M96.0518 21.1671C96.35 23.8503 97.8407 24.7447 99.6295 24.7447C101.716 24.7447 102.909 24.1485 103.803 23.5522L104.4 26.2355C103.207 26.8317 101.716 27.1299 99.6295 27.1299C96.0518 27.1299 93.0704 25.0429 93.0704 19.9745C93.0704 15.2043 95.7537 12.521 99.0332 12.521C102.909 12.521 104.996 15.2043 104.996 19.3782V20.8689H96.0518V21.1671ZM102.313 19.0801C102.313 16.695 101.12 15.2043 99.3314 15.2043C97.8407 15.2043 96.35 16.0987 96.0518 19.0801H102.313Z" fill="black"/>
<path d="M114.534 15.8005C114.236 15.8005 113.64 15.5024 112.745 15.5024C111.851 15.5024 111.255 16.3968 111.255 17.8875V27.1299H108.571V12.8191H111.255V14.3098C111.553 13.4154 112.447 12.521 113.938 12.521C114.534 12.521 114.832 12.521 115.13 12.8191L114.534 15.8005Z" fill="black"/>
<path d="M126.763 27.1306H116.328L123.185 15.2049H116.626V12.8198H127.061L120.502 24.7454H126.763V27.1306Z" fill="black"/>
<path d="M131.232 10.1368C130.04 10.1368 129.444 9.54048 129.444 8.34792C129.444 7.15536 130.04 6.55908 131.232 6.55908C132.425 6.55908 133.021 7.15536 133.021 8.34792C133.021 9.83862 132.127 10.1368 131.232 10.1368ZM132.425 12.82V27.1308H129.742V12.82H132.425Z" fill="black"/>
<path d="M143.459 26.8325C142.862 27.1307 142.266 27.4288 141.074 27.4288C139.583 27.4288 137.496 26.8325 137.496 23.8511V15.2051H135.707V12.8199H137.496V7.45341L140.179 7.15527V12.8199H142.564V14.9069H140.179V23.2548C140.179 24.1493 140.775 24.4474 141.372 24.4474C141.968 24.4474 142.564 24.1493 143.161 24.1493L143.459 26.8325Z" fill="black"/>
<path d="M153.293 25.938C152.995 26.2361 152.1 27.1306 150.013 27.1306C147.032 27.1306 145.243 25.6399 145.243 22.6585C145.243 19.677 147.33 18.1863 150.013 18.1863C151.504 18.1863 152.697 18.7826 153.293 19.3789V17.5901C153.293 15.8012 152.1 15.2049 150.61 15.2049C148.821 15.2049 147.33 15.8012 146.734 16.0994L146.436 13.7142C147.33 13.4161 148.821 12.8198 150.908 12.8198C154.187 12.8198 155.976 14.6087 155.976 17.5901V27.1306H153.293V25.938ZM153.293 22.3603C153.293 21.1677 152.1 20.5715 150.61 20.5715C149.119 20.5715 147.926 21.1677 147.926 22.9566C147.926 24.4473 149.119 25.0436 150.61 25.0436C152.1 25.0436 153.293 24.1492 153.293 22.9566V22.3603Z" fill="black"/>
<path d="M171.184 27.1302V8.34733H166.116V5.66406H179.234V8.34733H173.867V27.1302H171.184Z" fill="black"/>
<path d="M184.604 27.1306C181.026 27.1306 178.045 25.0436 178.045 19.9752C178.045 14.6087 181.026 12.8198 184.604 12.8198C187.884 12.8198 191.163 14.9068 191.163 19.9752C191.163 25.3417 188.182 27.1306 184.604 27.1306ZM184.604 15.2049C182.517 15.2049 181.026 16.9938 181.026 19.9752C181.026 22.9566 182.517 24.7454 184.604 24.7454C186.691 24.7454 188.182 23.2547 188.182 19.9752C188.182 16.6956 186.691 15.2049 184.604 15.2049Z" fill="black"/>
<path d="M210.24 17.8882C210.24 16.3975 209.345 15.2049 207.854 15.2049C206.066 15.2049 205.171 16.3975 205.171 17.8882V27.1306H202.488V17.8882C202.488 16.3975 201.594 15.2049 200.103 15.2049C198.314 15.2049 197.42 16.3975 197.42 17.8882V27.1306H194.736V12.8198H197.42V14.0124C198.016 13.4161 198.91 12.8198 200.699 12.8198C202.488 12.8198 203.979 13.4161 204.575 14.9068C205.469 13.7142 206.662 12.8198 208.451 12.8198C211.134 12.8198 213.221 14.6087 213.221 17.8882V27.1306H210.538V17.8882H210.24Z" fill="black"/>
<path d="M224.55 25.939C224.252 26.5353 223.06 27.4297 221.271 27.4297C218.289 27.4297 216.5 25.939 216.5 22.9576C216.5 19.9762 218.587 18.4855 221.271 18.4855C222.761 18.4855 223.954 19.0817 224.55 19.678V17.591C224.55 15.8022 223.358 15.2059 221.867 15.2059C220.078 15.2059 218.587 15.8022 217.991 16.1003L217.693 13.7152C218.587 13.4171 220.078 12.8208 222.165 12.8208C225.445 12.8208 227.234 14.6096 227.234 17.591V27.1315H224.55V25.939ZM224.55 22.3613C224.55 21.1687 223.358 20.5725 221.867 20.5725C220.376 20.5725 219.184 21.1687 219.184 22.9576C219.184 24.4483 220.376 25.0446 221.867 25.0446C223.358 24.7464 224.55 23.852 224.55 22.6594V22.3613ZM222.761 6.26172H225.743L223.06 11.032H220.973L222.761 6.26172Z" fill="black"/>
<path d="M234.984 27.1315C232.897 27.1315 231.108 26.5353 230.214 26.2371L231.108 23.852C232.3 24.4483 233.791 24.7464 235.282 24.7464C236.474 24.7464 237.667 24.4483 237.667 23.2557C237.667 22.0632 236.176 21.765 234.686 21.1687C232.599 20.5725 230.512 19.9762 230.512 16.9948C230.512 14.0134 232.599 12.8208 235.878 12.8208C237.965 12.8208 239.158 13.1189 240.052 13.7152L239.456 16.1003C238.263 15.5041 237.369 15.2059 235.58 15.2059C234.089 15.2059 232.897 15.8022 232.897 16.9948C232.897 17.8892 234.089 18.1873 235.282 18.7836C237.369 19.3799 240.052 19.9762 240.052 22.9576C240.35 25.6408 238.86 27.1315 234.984 27.1315ZM231.406 6.26172H233.791L235.58 8.94498L237.369 6.26172H239.754L237.071 11.032H234.089L231.406 6.26172Z" fill="black"/>
<path d="M245.718 21.1671C246.016 23.8503 247.507 24.7447 249.295 24.7447C251.382 24.7447 252.575 24.1485 253.469 23.5522L254.066 26.2355C252.873 26.8317 251.382 27.1299 249.295 27.1299C245.718 27.1299 242.736 25.0429 242.736 19.9745C242.736 15.2043 245.42 12.521 248.699 12.521C252.575 12.521 254.662 15.2043 254.662 19.3782V20.8689H245.718V21.1671ZM251.979 19.0801C251.979 16.695 250.786 15.2043 248.997 15.2043C247.507 15.2043 246.016 16.0987 245.718 19.0801H251.979Z" fill="black"/>
<path d="M271.056 27.1302H265.094V5.66406H271.354C275.23 5.66406 277.615 7.75104 277.615 11.3287C277.615 13.7139 276.423 15.2046 274.634 16.099C276.423 16.9934 277.914 18.7822 277.914 21.1674C277.914 24.745 275.23 27.1302 271.056 27.1302ZM271.354 8.34733H267.777V14.6083H271.056C273.143 14.6083 274.634 13.4157 274.634 11.3287C274.634 9.24175 273.441 8.34733 271.354 8.34733ZM271.056 17.2915H267.777V24.4469H271.056C273.143 24.4469 274.932 23.2543 274.932 21.1674C274.932 18.7822 273.143 17.2915 271.056 17.2915Z" fill="black"/>
<path d="M288.648 25.938C288.35 26.5343 287.158 27.4287 285.369 27.4287C282.387 27.4287 280.599 25.938 280.599 22.9566C280.599 19.9752 282.686 18.4845 285.369 18.4845C286.86 18.4845 288.052 19.0808 288.648 19.677V17.5901C288.648 15.8012 287.456 15.2049 285.965 15.2049C284.176 15.2049 282.686 15.8012 282.089 16.0994L281.791 13.7142C282.686 13.4161 284.176 12.8198 286.263 12.8198C289.543 12.8198 291.332 14.6087 291.332 17.5901V27.1306H288.648V25.938ZM288.648 22.3603C288.648 21.1678 287.456 20.5715 285.965 20.5715C284.474 20.5715 283.282 21.1678 283.282 22.9566C283.282 24.4473 284.474 25.0436 285.965 25.0436C287.456 25.0436 288.648 24.1492 288.648 22.9566V22.3603Z" fill="black"/>
<path d="M301.769 26.8325C301.172 27.1307 300.576 27.4288 299.384 27.4288C297.893 27.4288 295.806 26.8325 295.806 23.8511V15.2051H294.017V12.8199H296.104V7.45341L298.787 7.15527V12.8199H301.172V14.9069H298.787V23.2548C298.787 24.1493 299.384 24.4474 299.98 24.4474C300.576 24.4474 301.172 24.1493 301.769 24.1493V26.8325Z" fill="black"/>
<path d="M305.943 10.1368C304.751 10.1368 304.155 9.54048 304.155 8.34792C304.155 7.15536 304.751 6.55908 305.943 6.55908C307.136 6.55908 307.732 7.15536 307.732 8.34792C307.732 9.83862 306.838 10.1368 305.943 10.1368ZM307.136 12.82V27.1308H304.453V12.82H307.136Z" fill="black"/>
<path d="M316.08 12.8198H319.061L322.639 23.5529L326.217 12.8198H329.198L324.13 27.1306H321.446L316.08 12.8198Z" fill="black"/>
<path d="M332.476 21.1671C332.774 23.8503 334.265 24.7447 336.054 24.7447C338.141 24.7447 339.333 24.1485 340.228 23.5522L340.824 26.2355C339.631 26.8317 338.141 27.1299 336.054 27.1299C332.476 27.1299 329.494 25.0429 329.494 19.9745C329.494 15.2043 332.178 12.521 335.457 12.521C339.333 12.521 341.42 15.2043 341.42 19.3782V20.8689H332.476V21.1671ZM338.737 19.0801C338.737 16.695 337.544 15.2043 335.755 15.2043C334.265 15.2043 332.774 16.0987 332.476 19.0801H338.737Z" fill="black"/>
<path d="M362.889 27.1302H350.367L359.311 8.34733H350.963V5.66406H363.485L354.541 24.4469H362.889V27.1302Z" fill="black"/>
<path d="M368.85 5.66406V27.1302H366.166V5.66406H368.85Z" fill="black"/>
<path d="M374.812 6.26172H377.793L375.11 11.032H373.023L374.812 6.26172ZM375.706 12.8208V27.1315H373.023V12.8208H375.706Z" fill="black"/>
<path d="M387.934 17.8882C387.934 16.3975 387.039 15.2049 385.549 15.2049C383.76 15.2049 382.865 16.3975 382.865 17.8882V27.1306H380.182V12.8198H382.865V14.0124C383.462 13.4161 384.356 12.8198 386.145 12.8198C388.828 12.8198 390.915 14.6087 390.915 17.8882V27.1306H388.232V17.8882H387.934Z" fill="black"/>
<path d="M396.578 21.1687C396.876 23.852 398.367 24.7464 400.156 24.7464C402.243 24.7464 403.435 24.1501 404.33 23.5539L404.926 26.2371C403.733 26.8334 402.243 27.1315 400.156 27.1315C396.578 27.1315 393.597 25.0446 393.597 19.9762C393.597 15.2059 396.28 12.5227 399.559 12.5227C403.435 12.5227 405.522 15.2059 405.522 19.3799V20.8706H396.578V21.1687ZM395.684 6.26172H398.069L399.858 8.94498L401.646 6.26172H404.031L401.348 11.032H398.367L395.684 6.26172ZM402.839 19.0817C402.839 16.6966 401.646 15.2059 399.858 15.2059C398.367 15.2059 396.876 16.1003 396.578 19.0817H402.839Z" fill="black"/>
</svg>
