<svg width="560" height="120" viewBox="0 0 560 120" fill="none" xmlns="http://www.w3.org/2000/svg">
<g clip-path="url(#clip0)">
<path d="M72.9623 85.0359V88.2055H64.0261V99.8403H60.7002V74.5645H74.3648V77.7341H64.0261V85.076H72.9623V85.0359Z" fill="black"/>
<path d="M84.9037 98.3556C84.3828 98.9573 83.2607 100 80.8964 100C77.29 100 75.2463 98.1148 75.2463 94.6644C75.2463 91.1339 77.6906 89.2081 80.9766 89.2081C82.7398 89.2081 84.1823 89.8902 84.8637 90.5721V88.5261C84.8637 86.52 83.5413 85.7979 81.778 85.7979C79.8145 85.7979 78.0514 86.4398 77.1297 86.8009L76.769 83.9123C77.7708 83.511 79.4539 82.9092 82.1388 82.9092C85.9054 82.9092 88.0293 84.8751 88.0293 88.5261V99.7998H84.8637V98.3556H84.9037ZM84.9037 94.1831C84.9037 92.8993 83.3409 92.0166 81.6579 92.0166C80.0149 92.0166 78.6124 92.6985 78.6124 94.6644C78.6124 96.4699 80.1351 97.1118 81.6579 97.1118C83.4612 97.1118 84.9037 95.9081 84.9037 94.7447V94.1831Z" fill="black"/>
<path d="M96.1239 99.8403H92.9583V74.5645H96.1239V89.7701L101.574 83.1502H105.621L99.49 90.2114L106.583 99.8403H102.576L96.1239 90.8132V99.8403Z" fill="black"/>
<path d="M118.043 98.2349C117.482 98.9569 116.521 100 114.036 100C110.79 100 108.667 97.7935 108.667 94.0623V83.1094H111.832V93.9821C111.832 95.8677 112.714 97.1916 114.557 97.1916C116.841 97.1916 118.043 95.5066 118.043 93.6209V83.1495H121.209V99.8396H118.043V98.2349Z" fill="black"/>
<path d="M129.264 74.5234V99.7991H126.098V74.5234H129.264Z" fill="black"/>
<path d="M141.486 99.4375C140.925 99.7184 140.203 99.9993 138.761 99.9993C136.837 99.9993 134.593 99.2771 134.593 95.6261V85.7565H132.429V83.1086H134.593V76.6091L137.759 76.248V83.1086H140.484V85.7565H137.759V95.6261C137.759 96.8298 138.4 97.1507 139.081 97.1507C139.883 97.1507 140.484 96.91 141.085 96.6292L141.486 99.4375Z" fill="black"/>
<path d="M153.227 98.3556C152.706 98.9573 151.584 100 149.22 100C145.613 100 143.569 98.1148 143.569 94.6644C143.569 91.1339 146.014 89.2081 149.3 89.2081C151.063 89.2081 152.505 89.8902 153.187 90.5721V88.5261C153.187 86.52 151.864 85.7979 150.101 85.7979C148.137 85.7979 146.374 86.4398 145.453 86.8009L145.092 83.9123C146.094 83.511 147.777 82.9092 150.462 82.9092C154.228 82.9092 156.352 84.8751 156.352 88.5261V99.7998H153.187V98.3556H153.227ZM153.227 94.1831C153.227 92.8993 151.664 92.0166 149.981 92.0166C148.338 92.0166 146.935 92.6985 146.935 94.6644C146.935 96.4699 148.458 97.1118 149.981 97.1118C151.784 97.1118 153.227 95.9081 153.227 94.7447V94.1831Z" fill="black"/>
<path d="M188.09 88.9674C188.09 87.0818 187.047 85.7578 185.164 85.7578C183 85.7578 181.878 87.0818 181.878 88.9674V99.7999H178.712V88.9273C178.712 87.0416 177.671 85.7176 175.788 85.7176C173.624 85.7176 172.502 87.0416 172.502 88.9273V99.7597H169.336V83.0696H172.502V84.4739C173.102 83.7918 174.345 82.9092 176.308 82.9092C178.392 82.9092 180.035 83.7918 180.957 85.3566C181.838 84.1129 183.361 82.9092 185.646 82.9092C188.89 82.9092 191.175 85.1158 191.175 88.847V99.7999H188.009V88.9674H188.09Z" fill="black"/>
<path d="M205.521 98.2349C204.96 98.9569 203.998 100 201.514 100C198.268 100 196.144 97.7935 196.144 94.0623V83.1094H199.309V93.9821C199.309 95.8677 200.191 97.1916 202.034 97.1916C204.318 97.1916 205.521 95.5066 205.521 93.6209V83.1495H208.687V99.8396H205.521V98.2349Z" fill="black"/>
<path d="M216.741 74.5234V99.7991H213.575V74.5234H216.741Z" fill="black"/>
<path d="M228.963 99.4375C228.403 99.7184 227.682 99.9993 226.239 99.9993C224.316 99.9993 222.071 99.2771 222.071 95.6261V85.7565H219.907V83.1086H222.071V76.6091L225.237 76.248V83.1086H227.962V85.7565H225.237V95.6261C225.237 96.8298 225.877 97.1507 226.559 97.1507C227.36 97.1507 227.962 96.91 228.563 96.6292L228.963 99.4375Z" fill="black"/>
<path d="M233.692 79.9806C232.369 79.9806 231.607 79.2986 231.607 78.0147C231.607 76.6907 232.329 76.0088 233.692 76.0088C234.975 76.0088 235.775 76.6907 235.775 78.0147C235.775 79.3387 234.975 79.9806 233.692 79.9806ZM235.255 83.1501V99.8402H232.089V83.1501H235.255Z" fill="black"/>
<path d="M258.898 88.9674C258.898 87.0818 257.855 85.7578 255.972 85.7578C253.807 85.7578 252.686 87.0818 252.686 88.9674V99.7999H249.52V88.9273C249.52 87.0416 248.478 85.7176 246.635 85.7176C244.471 85.7176 243.35 87.0416 243.35 88.9273V99.7597H240.184V83.0696H243.35V84.4739C243.95 83.7918 245.193 82.9092 247.155 82.9092C249.24 82.9092 250.883 83.7918 251.804 85.3566C252.686 84.1129 254.209 82.9092 256.493 82.9092C259.739 82.9092 262.022 85.1158 262.022 88.847V99.7999H258.856V88.9674H258.898Z" fill="black"/>
<path d="M269.316 92.7387C269.677 95.7877 271.44 97.0316 273.563 97.0316C275.967 97.0316 277.41 96.4297 278.653 95.7877L279.213 98.8369C277.69 99.519 276.169 100 273.523 100C269.316 100 265.91 97.3926 265.91 91.6153C265.91 85.9583 269.076 82.9492 273.043 82.9492C277.57 82.9492 280.055 86.1589 280.055 91.0535V92.7387H269.316ZM276.689 90.211C276.689 87.2823 275.246 85.7577 273.003 85.7577C271.28 85.7577 269.637 86.7206 269.276 90.211H276.689Z" fill="black"/>
<path d="M294.2 98.2354C293.72 98.8372 292.357 100.041 289.873 100.041C286.827 100.041 283.221 97.9947 283.221 91.6557C283.221 85.6778 286.627 82.9896 290.194 82.9896C292.838 82.9896 293.72 83.9526 294.241 84.5142V74.5645H297.406V99.8402H294.241V98.2354H294.2ZM294.2 89.5695C294.2 86.9215 292.557 85.7579 290.514 85.7579C288.551 85.7579 286.507 87.5233 286.507 91.6156C286.507 95.6677 288.23 97.0319 290.314 97.0319C292.397 97.0319 294.16 95.788 294.16 93.1V89.5695H294.2Z" fill="black"/>
<path d="M303.858 79.9806C302.536 79.9806 301.775 79.2986 301.775 78.0147C301.775 76.6907 302.496 76.0088 303.858 76.0088C305.141 76.0088 305.942 76.6907 305.942 78.0147C305.902 79.3387 305.141 79.9806 303.858 79.9806ZM305.421 83.1501V99.8402H302.255V83.1501H305.421Z" fill="black"/>
<path d="M318.926 98.3554C318.404 98.9572 317.283 100 314.918 100C311.311 100 309.268 98.1147 309.268 94.6643C309.268 91.1336 311.712 89.2079 314.998 89.2079C316.761 89.2079 318.204 89.8899 318.884 90.572V88.5259C318.884 86.5199 317.563 85.7976 315.8 85.7976C313.835 85.7976 312.072 86.4396 311.151 86.8008L310.791 83.912C311.793 83.5108 313.435 82.9091 316.16 82.9091C319.927 82.9091 322.05 84.875 322.05 88.5259V99.7997H318.884V98.3554H318.926ZM318.926 94.1828C318.926 92.899 317.363 92.0163 315.68 92.0163C314.037 92.0163 312.634 92.6984 312.634 94.6643C312.634 96.4698 314.157 97.1117 315.68 97.1117C317.483 97.1117 318.926 95.908 318.926 94.7446V94.1828ZM316.761 75.2461H320.287L317.001 80.7827H314.517L316.761 75.2461Z" fill="black"/>
<path d="M330.145 74.5234V99.7991H326.979V74.5234H330.145Z" fill="black"/>
<path d="M344.41 88.9673C344.41 87.0817 343.369 85.7577 341.486 85.7577C339.321 85.7577 338.2 87.0817 338.2 88.9673V99.7997H335.034V83.1097H338.2V84.514C338.801 83.8319 340.003 82.9492 342.007 82.9492C345.252 82.9492 347.536 85.1559 347.536 88.887V99.8399H344.41V88.9673Z" fill="black"/>
<path d="M354.59 75.2461H358.116L354.83 80.7827H352.345L354.59 75.2461ZM355.631 83.1498V99.8399H352.465V83.1498H355.631Z" fill="black"/>
<path d="M371.179 98.9172C370.578 99.2381 368.655 100 366.892 100C363.766 100 359.798 98.3956 359.798 91.4548C359.798 84.7948 363.806 82.9492 366.892 82.9492C368.775 82.9492 370.418 83.7116 371.179 84.1128L370.498 86.9614C369.696 86.56 368.253 85.838 366.932 85.838C365.049 85.838 363.164 87.523 363.164 91.4548C363.164 95.507 365.007 97.0316 366.932 97.0316C368.335 97.0316 369.696 96.3495 370.498 95.868L371.179 98.9172Z" fill="black"/>
<path d="M384.043 88.9667C384.043 87.0811 383 85.7571 381.157 85.7571C378.994 85.7571 377.871 87.0811 377.871 88.9667V99.7991H374.705V74.5234H377.871V84.5134C378.472 83.8313 379.714 82.9486 381.678 82.9486C384.924 82.9486 387.209 85.1553 387.209 88.8864V99.8393H384.043V88.9667Z" fill="black"/>
<path d="M403.317 99.8403H400.151V74.5645H403.317V89.7701L408.767 83.1502H412.815L406.683 90.2114L413.776 99.8403H409.769L403.317 90.8132V99.8403Z" fill="black"/>
<path d="M421.39 100C417.342 100 413.776 97.6334 413.776 91.4548C413.776 85.2762 417.462 82.9492 421.39 82.9492C425.357 82.9492 429.003 85.3163 429.003 91.4548C429.003 97.6734 425.437 100 421.39 100ZM421.39 85.7577C418.905 85.7577 417.102 87.7236 417.102 91.4548C417.102 95.0657 418.945 96.9914 421.39 96.9914C423.834 96.9914 425.677 95.0657 425.677 91.4548C425.677 87.7236 423.914 85.7577 421.39 85.7577Z" fill="black"/>
<path d="M451.604 88.9674C451.604 87.0818 450.561 85.7578 448.678 85.7578C446.515 85.7578 445.392 87.0818 445.392 88.9674V99.7999H442.226V88.9273C442.226 87.0416 441.185 85.7176 439.342 85.7176C437.178 85.7176 436.056 87.0416 436.056 88.9273V99.7597H432.89V83.0696H436.056V84.4739C436.658 83.7918 437.899 82.9092 439.862 82.9092C441.946 82.9092 443.589 83.7918 444.511 85.3566C445.392 84.1129 446.915 82.9092 449.2 82.9092C452.446 82.9092 454.73 85.1158 454.73 88.847V99.7999H451.564V88.9674H451.604Z" fill="black"/>
<path d="M468.995 98.2349C468.434 98.9569 467.472 100 464.988 100C461.742 100 459.619 97.7935 459.619 94.0623V83.1094H462.784V93.9821C462.784 95.8677 463.665 97.1916 465.51 97.1916C467.794 97.1916 468.995 95.5066 468.995 93.6209V83.1495H472.161V99.8396H468.995V98.2349Z" fill="black"/>
<path d="M486.427 88.9673C486.427 87.0817 485.385 85.7577 483.542 85.7577C481.378 85.7577 480.256 87.0817 480.256 88.9673V99.7997H477.09V83.1097H480.256V84.514C480.856 83.8319 482.099 82.9492 484.062 82.9492C487.308 82.9492 489.592 85.1559 489.592 88.887V99.8399H486.427V88.9673Z" fill="black"/>
<path d="M496.084 79.9806C494.761 79.9806 494 79.2986 494 78.0147C494 76.6907 494.721 76.0088 496.084 76.0088C497.366 76.0088 498.167 76.6907 498.167 78.0147C498.127 79.3387 497.366 79.9806 496.084 79.9806ZM497.647 83.1501V99.8402H494.481V83.1501H497.647Z" fill="black"/>
<path d="M505.702 99.8403H502.536V74.5645H505.702V89.7701L511.151 83.1502H515.198L509.068 90.2114L516.16 99.8403H512.152L505.702 90.8132V99.8403Z" fill="black"/>
<path d="M526.699 98.3556C526.178 98.9573 525.056 100 522.692 100C519.086 100 517.042 98.1148 517.042 94.6644C517.042 91.1339 519.486 89.2081 522.772 89.2081C524.535 89.2081 525.978 89.8902 526.659 90.5721V88.5261C526.659 86.52 525.336 85.7979 523.573 85.7979C521.61 85.7979 519.847 86.4398 518.926 86.8009L518.564 83.9123C519.566 83.511 521.249 82.9092 523.935 82.9092C527.701 82.9092 529.825 84.8751 529.825 88.5261V99.7998H526.659V98.3556H526.699ZM526.699 94.1831C526.699 92.8993 525.136 92.0166 523.453 92.0166C521.81 92.0166 520.407 92.6985 520.407 94.6644C520.407 96.4699 521.93 97.1118 523.453 97.1118C525.296 97.1118 526.699 95.9081 526.699 94.7447V94.1831Z" fill="black"/>
<path d="M545.413 98.9172C544.812 99.2381 542.889 100 541.126 100C538 100 534.032 98.3956 534.032 91.4548C534.032 84.7948 538.04 82.9492 541.126 82.9492C543.009 82.9492 544.652 83.7116 545.413 84.1128L544.692 86.9614C543.89 86.56 542.447 85.838 541.126 85.838C539.241 85.838 537.358 87.523 537.358 91.4548C537.358 95.507 539.201 97.0316 541.126 97.0316C542.527 97.0316 543.89 96.3495 544.692 95.868L545.413 98.9172Z" fill="black"/>
<path d="M551.064 75.2461H554.59L551.304 80.7827H548.819L551.064 75.2461ZM552.105 83.1498V99.8399H548.939V83.1498H552.105Z" fill="black"/>
<path d="M32.4281 20.1112L4.99557 29.3378V20H32.4281V20.1112ZM5.10678 30.7458C5.10678 32.0798 7.29397 33.3026 9.88894 33.3026C10.8528 33.3026 11.7796 33.1173 12.5581 32.8579C13.3736 32.5986 38.8785 23.6684 38.8785 23.6684V60.3154C38.8785 60.3154 13.1883 69.2827 12.4839 69.542C11.7425 69.8014 10.6674 69.9867 9.81481 69.9867C7.18276 69.9867 4.9585 68.6527 4.9585 66.2812V30.7458H5.10678Z" fill="#E73937"/>
<path d="M78.7327 46.5188C78.7327 53.0985 76.2081 56.7094 69.7965 56.7094C63.3851 56.7094 60.7402 53.0985 60.7402 46.5188V27.582H64.5472V46.3584C64.5472 50.8117 65.7894 53.0985 69.7965 53.0985C73.8038 53.0985 74.9259 50.8117 74.9259 46.3584V27.582H78.7327V46.5188Z" fill="black"/>
<path d="M95.042 44.0725C95.042 41.906 93.84 40.4215 91.7161 40.4215C89.2317 40.4215 87.9493 41.9461 87.9493 44.1127V56.5098H84.3428V37.4125H87.9493V39.0174C88.6305 38.215 90.033 37.2119 92.3171 37.2119C96.044 37.2119 98.6485 39.7395 98.6485 43.9924V56.5098H95.042V44.0725Z" fill="black"/>
<path d="M106.062 33.8012C104.539 33.8012 103.698 32.9988 103.698 31.5544C103.698 30.0299 104.539 29.2676 106.062 29.2676C107.544 29.2676 108.426 30.0299 108.426 31.5544C108.426 33.079 107.544 33.8012 106.062 33.8012ZM107.865 37.4121V56.5093H104.259V37.4121H107.865Z" fill="black"/>
<path d="M110.67 37.4121H114.677L119.406 51.6949L124.094 37.4121H128.102L121.129 56.5094H117.643L110.67 37.4121Z" fill="black"/>
<path d="M132.79 48.4055C133.191 51.8961 135.194 53.3002 137.639 53.3002C140.404 53.3002 142.047 52.6181 143.449 51.8961L144.09 55.3864C142.367 56.1888 140.604 56.7104 137.599 56.7104C132.79 56.7104 128.903 53.7415 128.903 47.1217C128.903 40.6623 132.51 37.2119 137.038 37.2119C142.207 37.2119 145.052 40.903 145.052 46.4798V48.4055H132.79ZM141.245 45.5168C141.245 42.1869 139.602 40.4215 137.038 40.4215C135.074 40.4215 133.191 41.5449 132.79 45.5168H141.245Z" fill="black"/>
<path d="M157.835 41.3845C157.394 41.1839 156.592 40.903 155.591 40.903C154.068 40.903 153.066 42.1467 153.066 44.1127V56.5098H149.46V37.4125H153.066V39.579C153.668 38.3353 154.629 37.2119 156.552 37.2119C157.274 37.2119 157.955 37.4125 158.315 37.5731L157.835 41.3845Z" fill="black"/>
<path d="M174.104 56.5094H159.918L169.015 40.4211H160.32V37.4121H174.545L165.849 53.2998H174.104V56.5094Z" fill="black"/>
<path d="M179.956 33.8012C178.433 33.8012 177.591 32.9988 177.591 31.5544C177.591 30.0299 178.433 29.2676 179.956 29.2676C181.437 29.2676 182.318 30.0299 182.318 31.5544C182.318 33.079 181.437 33.8012 179.956 33.8012ZM181.758 37.4121V56.5093H178.151V37.4121H181.758Z" fill="black"/>
<path d="M196.545 56.0683C195.904 56.3892 195.062 56.7102 193.419 56.7102C191.215 56.7102 188.65 55.8677 188.65 51.6951V40.4214H186.166V37.4123H188.65V29.9901L192.258 29.5889V37.4123H195.382V40.4214H192.258V51.6951C192.258 53.0593 192.978 53.4605 193.779 53.4605C194.702 53.4605 195.382 53.1796 196.064 52.8587L196.545 56.0683Z" fill="black"/>
<path d="M209.969 54.8248C209.367 55.5069 208.086 56.7104 205.402 56.7104C201.274 56.7104 198.95 54.5439 198.95 50.6122C198.95 46.5599 201.754 44.3935 205.522 44.3935C207.525 44.3935 209.207 45.1558 209.969 45.9581V43.6312C209.969 41.3444 208.446 40.5018 206.443 40.5018C204.199 40.5018 202.196 41.2239 201.113 41.6652L200.713 38.3755C201.874 37.9341 203.759 37.2119 206.843 37.2119C211.132 37.2119 213.575 39.4587 213.575 43.6312V56.5098H209.969V54.8248ZM209.969 50.0504C209.969 48.566 208.166 47.563 206.243 47.563C204.359 47.563 202.756 48.3654 202.756 50.6122C202.756 52.6583 204.479 53.4205 206.243 53.4205C208.326 53.4205 209.969 52.0565 209.969 50.6924V50.0504Z" fill="black"/>
<path d="M233.812 56.5088V31.1929H226.8V27.582H244.631V31.1929H237.619V56.5088H233.812Z" fill="black"/>
<path d="M251.924 56.7104C247.275 56.7104 243.229 54.0224 243.229 46.9612C243.229 39.9001 247.437 37.2119 251.924 37.2119C256.453 37.2119 260.621 39.9001 260.621 46.9612C260.621 54.0224 256.533 56.7104 251.924 56.7104ZM251.924 40.4215C249.08 40.4215 247.035 42.6684 247.035 46.9612C247.035 51.0935 249.16 53.3002 251.924 53.3002C254.73 53.3002 256.813 51.0935 256.813 46.9612C256.813 42.6684 254.77 40.4215 251.924 40.4215Z" fill="black"/>
<path d="M286.427 44.0725C286.427 41.906 285.225 40.4215 283.101 40.4215C280.616 40.4215 279.333 41.9461 279.333 44.1127V56.5098H275.727V44.0725C275.727 41.906 274.526 40.4215 272.401 40.4215C269.917 40.4215 268.634 41.9461 268.634 44.1127V56.5098H265.028V37.4125H268.634V39.0174C269.315 38.215 270.718 37.2119 273.003 37.2119C275.367 37.2119 277.25 38.215 278.332 40.0204C279.333 38.5761 281.098 37.2119 283.702 37.2119C287.428 37.2119 290.033 39.7395 290.033 43.9924V56.5098H286.427V44.0725Z" fill="black"/>
<path d="M305.461 54.8251C304.859 55.5071 303.578 56.7107 300.893 56.7107C296.766 56.7107 294.441 54.5442 294.441 50.6125C294.441 46.5603 297.246 44.3938 301.013 44.3938C303.016 44.3938 304.699 45.156 305.461 45.9584V43.6314C305.461 41.3446 303.938 40.5021 301.935 40.5021C299.69 40.5021 297.687 41.2243 296.604 41.6655L296.204 38.3757C297.366 37.9344 299.25 37.2122 302.335 37.2122C306.624 37.2122 309.068 39.459 309.068 43.6314V56.5101H305.461V54.8251ZM305.461 50.0507C305.461 48.5662 303.658 47.5633 301.735 47.5633C299.85 47.5633 298.247 48.3657 298.247 50.6125C298.247 52.6585 299.972 53.4209 301.735 53.4209C303.818 53.4209 305.461 52.0568 305.461 50.6926V50.0507ZM303.016 28.3857H307.064L303.298 34.7247H300.452L303.016 28.3857Z" fill="black"/>
<path d="M319.767 56.7107C316.762 56.7107 314.677 55.8682 313.516 55.3467L314.157 51.9363C315.68 52.6585 317.603 53.3005 319.767 53.3005C321.45 53.3005 323.053 52.819 323.053 51.0938C323.053 49.3686 321.209 48.9274 319.166 48.4058C316.522 47.7237 313.476 46.8812 313.476 42.9094C313.476 39.0578 316.16 37.2122 320.649 37.2122C323.293 37.2122 325.176 37.8139 326.459 38.3356L325.858 41.7057C324.375 41.0236 322.932 40.4218 320.729 40.4218C318.564 40.4218 317.243 41.144 317.243 42.8692C317.243 44.2332 318.804 44.6745 320.649 45.1962C323.453 45.9584 326.939 46.8411 326.939 51.0137C326.939 54.6646 324.816 56.7107 319.767 56.7107ZM314.557 28.3857H317.763L320.207 31.9565L322.652 28.3857H325.858L322.13 34.7247H318.284L314.557 28.3857Z" fill="black"/>
<path d="M334.032 48.4055C334.432 51.8961 336.437 53.3002 338.881 53.3002C341.646 53.3002 343.289 52.6181 344.692 51.8961L345.333 55.3864C343.61 56.1888 341.846 56.7104 338.841 56.7104C334.032 56.7104 330.145 53.7415 330.145 47.1217C330.145 40.6623 333.752 37.2119 338.28 37.2119C343.449 37.2119 346.295 40.903 346.295 46.4798V48.4055H334.032ZM342.487 45.5168C342.487 42.1869 340.844 40.4215 338.28 40.4215C336.317 40.4215 334.432 41.5449 334.032 45.5168H342.487Z" fill="black"/>
<path d="M367.933 56.5088H359.918V27.582H368.535C373.864 27.582 376.99 30.5108 376.99 35.2852C376.99 38.575 375.267 40.3805 372.862 41.5439C375.467 42.6271 377.19 45.1147 377.19 48.2039C377.19 53.4196 373.624 56.5088 367.933 56.5088ZM368.575 31.1929H363.726V39.7787H368.053C371.019 39.7787 372.982 38.3342 372.982 35.4858C372.982 32.557 371.139 31.1929 368.575 31.1929ZM368.053 43.3895H363.726V52.8979H368.053C371.059 52.8979 373.182 51.2531 373.182 48.2842C373.182 45.1948 371.019 43.3895 368.053 43.3895Z" fill="black"/>
<path d="M391.816 54.8248C391.215 55.5069 389.933 56.7104 387.249 56.7104C383.122 56.7104 380.797 54.5439 380.797 50.6122C380.797 46.5599 383.602 44.3935 387.369 44.3935C389.372 44.3935 391.055 45.1558 391.816 45.9581V43.6312C391.816 41.3444 390.293 40.5018 388.29 40.5018C386.046 40.5018 384.043 41.2239 382.96 41.6652L382.56 38.3755C383.722 37.9341 385.606 37.2119 388.69 37.2119C392.979 37.2119 395.424 39.4587 395.424 43.6312V56.5098H391.816V54.8248ZM391.816 50.0504C391.816 48.566 390.013 47.563 388.09 47.563C386.206 47.563 384.603 48.3654 384.603 50.6122C384.603 52.6583 386.326 53.4205 388.09 53.4205C390.173 53.4205 391.816 52.0565 391.816 50.6924V50.0504Z" fill="black"/>
<path d="M409.407 56.0683C408.767 56.3892 407.926 56.7102 406.283 56.7102C404.078 56.7102 401.514 55.8677 401.514 51.6951V40.4214H399.03V37.4123H401.514V29.9901L405.12 29.5889V37.4123H408.246V40.4214H405.12V51.6951C405.12 53.0593 405.841 53.4605 406.643 53.4605C407.564 53.4605 408.246 53.1796 408.927 52.8587L409.407 56.0683Z" fill="black"/>
<path d="M414.818 33.8012C413.295 33.8012 412.453 32.9988 412.453 31.5544C412.453 30.0299 413.295 29.2676 414.818 29.2676C416.301 29.2676 417.182 30.0299 417.182 31.5544C417.182 33.079 416.301 33.8012 414.818 33.8012ZM416.621 37.4121V56.5093H413.015V37.4121H416.621Z" fill="black"/>
</g>
<defs>
<clipPath id="clip0">
<rect width="549.63" height="80" fill="white" transform="translate(5 20)"/>
</clipPath>
</defs>
</svg>
