<svg width="410" height="60" viewBox="0 0 410 60" fill="none" xmlns="http://www.w3.org/2000/svg">
<path d="M51.6357 48.4445V50.8296H45.0767V59.4757H42.6915V40.6929H52.8283V43.078H45.0767V48.4445H51.6357Z" fill="black"/>
<path d="M60.2831 58.2837C59.985 58.5819 59.0906 59.4763 57.3017 59.4763C54.6184 59.4763 53.1277 57.9856 53.1277 55.6005C53.1277 52.9172 54.9166 51.4265 57.3017 51.4265C58.4943 51.4265 59.6868 52.0228 60.2831 52.3209V50.8302C60.2831 49.3395 59.3887 48.7432 57.898 48.7432C56.4073 48.7432 55.2147 49.3395 54.3203 49.6377L54.0222 47.5507C54.9166 47.2525 56.1091 46.6562 57.898 46.6562C60.5813 46.6562 62.3701 48.147 62.3701 50.8302V59.1781H59.985V58.2837H60.2831ZM60.2831 55.3023C60.2831 54.4079 59.0906 53.8116 57.898 53.8116C56.7054 53.8116 55.5129 54.4079 55.5129 55.8986C55.5129 57.0912 56.7054 57.6874 57.898 57.6874C59.3887 57.6874 60.2831 56.793 60.2831 55.8986V55.3023Z" fill="black"/>
<path d="M68.6327 59.4757H66.2476V40.6929H68.6327V52.0222L72.8067 46.9538H75.7881L71.316 52.3203L76.6825 59.4757H73.7011L68.9309 52.9166V59.4757H68.6327Z" fill="black"/>
<path d="M85.0261 58.2839C84.728 58.8802 83.8336 59.4765 82.0447 59.4765C79.6596 59.4765 78.1689 57.6876 78.1689 55.0044V46.9546H80.554V55.0044C80.554 56.4951 81.1503 57.3895 82.641 57.3895C84.4298 57.3895 85.3242 56.1969 85.3242 54.7062V46.9546H87.4112V59.4765H85.0261V58.2839Z" fill="black"/>
<path d="M93.3752 40.6938V59.4767H90.9901V40.6938H93.3752Z" fill="black"/>
<path d="M102.622 59.1782C102.324 59.4763 101.728 59.4763 100.535 59.4763C99.0443 59.4763 97.5536 58.88 97.5536 56.1968V48.7433H96.0629V46.6563H97.5536V41.886L99.9388 41.5879V46.6563H102.026V48.7433H99.9388V56.1968C99.9388 57.0912 100.535 57.3893 100.833 57.3893C101.429 57.3893 102.026 57.0912 102.324 57.0912L102.622 59.1782Z" fill="black"/>
<path d="M111.261 58.2837C110.963 58.5819 110.069 59.4763 108.28 59.4763C105.597 59.4763 104.106 57.9856 104.106 55.6005C104.106 52.9172 105.895 51.4265 108.28 51.4265C109.472 51.4265 110.665 52.0228 111.261 52.3209V50.8302C111.261 49.3395 110.367 48.7432 108.876 48.7432C107.386 48.7432 106.193 49.3395 105.299 49.6377V47.5507C106.193 47.2525 107.386 46.6562 109.174 46.6562C111.858 46.6562 113.646 48.147 113.646 50.8302V59.1781H111.261V58.2837ZM111.261 55.3023C111.261 54.4079 110.069 53.8116 108.876 53.8116C107.684 53.8116 106.491 54.4079 106.491 55.8986C106.491 57.0912 107.684 57.6874 108.876 57.6874C110.367 57.6874 111.261 56.793 111.261 55.8986V55.3023Z" fill="black"/>
<path d="M137.203 51.4265C137.203 49.9358 136.309 49.0414 135.116 49.0414C133.625 49.0414 132.731 49.9358 132.731 51.4265V59.4763H130.346V51.4265C130.346 49.9358 129.452 49.0414 128.259 49.0414C126.768 49.0414 125.874 49.9358 125.874 51.4265V59.4763H123.191V46.9544H125.576V47.8488C125.874 47.2525 127.066 46.6562 128.557 46.6562C130.048 46.6562 131.24 47.2525 132.135 48.4451C132.731 47.5507 133.924 46.6562 135.712 46.6562C138.098 46.6562 139.886 48.4451 139.886 51.1284V59.1781H137.501V51.4265H137.203Z" fill="black"/>
<path d="M150.02 58.2839C149.722 58.8802 148.827 59.4765 147.039 59.4765C144.653 59.4765 143.163 57.6876 143.163 55.0044V46.9546H145.548V55.0044C145.548 56.4951 146.144 57.3895 147.635 57.3895C149.424 57.3895 150.318 56.1969 150.318 54.7062V46.9546H152.703V59.4765H150.02V58.2839Z" fill="black"/>
<path d="M158.369 40.6938V59.4767H155.984V40.6938H158.369Z" fill="black"/>
<path d="M167.612 59.1779C167.314 59.476 166.718 59.476 165.525 59.476C164.034 59.476 162.544 58.8797 162.544 56.1965V48.743H161.053V46.656H162.544V41.8857H164.929V46.9541H167.016V49.0411H164.929V56.4946C164.929 57.389 165.525 57.6872 165.823 57.6872C166.419 57.6872 167.016 57.389 167.314 57.389L167.612 59.1779Z" fill="black"/>
<path d="M171.188 44.5693C170.293 44.5693 169.697 43.973 169.697 43.0786C169.697 42.1842 170.293 41.5879 171.188 41.5879C172.082 41.5879 172.679 42.1842 172.679 43.0786C172.679 44.2712 172.082 44.5693 171.188 44.5693ZM172.38 46.9544V59.4763H169.995V46.9544H172.38Z" fill="black"/>
<path d="M189.977 51.4265C189.977 49.9358 189.083 49.0414 187.89 49.0414C186.4 49.0414 185.505 49.9358 185.505 51.4265V59.4763H182.822V51.4265C182.822 49.9358 181.927 49.0414 180.735 49.0414C179.244 49.0414 178.35 49.9358 178.35 51.4265V59.4763H175.965V46.9544H178.35V47.8488C178.648 47.2525 179.84 46.6562 181.331 46.6562C182.822 46.6562 184.014 47.2525 184.909 48.4451C185.505 47.5507 186.698 46.6562 188.487 46.6562C190.872 46.6562 192.661 48.4451 192.661 51.1284V59.1781H190.275V51.4265H189.977Z" fill="black"/>
<path d="M197.725 54.11C198.023 56.4951 199.216 57.3895 201.004 57.3895C202.793 57.3895 203.986 57.0914 204.88 56.4951L205.178 58.8802C203.986 59.4765 202.793 59.7746 201.004 59.7746C198.023 59.7746 195.34 57.9858 195.34 53.5137C195.34 49.3397 197.725 46.9546 200.706 46.9546C203.986 46.9546 205.775 49.3397 205.775 52.9174V54.11H197.725ZM203.091 52.3211C203.091 50.2341 201.899 49.0416 200.408 49.0416C199.216 49.0416 198.023 49.6379 197.725 52.3211H203.091Z" fill="black"/>
<path d="M216.21 58.2834C215.912 58.5816 214.72 59.476 212.931 59.476C210.546 59.476 207.862 57.9853 207.862 53.215C207.862 48.7429 210.247 46.656 212.931 46.656C215.018 46.656 215.614 47.2522 215.912 47.8485V40.395H218.595V59.1779H216.21V58.2834ZM216.21 51.7243C216.21 49.6374 215.018 48.7429 213.527 48.7429C212.036 48.7429 210.546 49.9355 210.546 53.215C210.546 56.1965 211.738 57.0909 213.527 57.0909C215.018 57.0909 216.508 56.1965 216.508 54.1095V51.7243H216.21Z" fill="black"/>
<path d="M223.361 44.5693C222.466 44.5693 221.87 43.973 221.87 43.0786C221.87 42.1842 222.466 41.5879 223.361 41.5879C224.255 41.5879 224.851 42.1842 224.851 43.0786C224.851 44.2712 224.255 44.5693 223.361 44.5693ZM224.553 46.9544V59.4763H222.168V46.9544H224.553Z" fill="black"/>
<path d="M234.397 58.2845C234.099 58.5827 233.204 59.4771 231.415 59.4771C228.732 59.4771 227.241 57.9864 227.241 55.6013C227.241 52.918 229.03 51.4273 231.415 51.4273C232.608 51.4273 233.8 52.0236 234.397 52.3217V50.831C234.397 49.3403 233.502 48.744 232.012 48.744C230.521 48.744 229.328 49.3403 228.434 49.6385L228.136 47.5515C229.03 47.2533 230.223 46.6571 232.012 46.6571C234.695 46.6571 236.484 48.1478 236.484 50.831V59.1789H234.099V58.2845H234.397ZM234.397 55.3031C234.397 54.4087 233.204 53.8124 232.012 53.8124C230.819 53.8124 229.627 54.4087 229.627 55.8994C229.627 57.092 230.819 57.6882 232.012 57.6882C233.502 57.6882 234.397 56.7938 234.397 55.8994V55.3031ZM232.906 41.2905H235.589L233.204 45.4645H231.415L232.906 41.2905Z" fill="black"/>
<path d="M242.742 40.6938V59.4767H240.357V40.6938H242.742Z" fill="black"/>
<path d="M253.478 51.4265C253.478 49.9358 252.583 49.0414 251.391 49.0414C249.9 49.0414 249.006 49.9358 249.006 51.4265V59.4763H246.621V46.9544H249.006V47.8488C249.304 47.2525 250.496 46.6562 251.987 46.6562C254.372 46.6562 256.161 48.4451 256.161 51.1284V59.1781H253.776V51.4265H253.478Z" fill="black"/>
<path d="M260.933 41.2905H263.616L261.231 45.4645H259.442L260.933 41.2905ZM261.827 46.9552V59.4771H259.442V46.9552H261.827Z" fill="black"/>
<path d="M273.455 58.8794C273.157 59.1776 271.666 59.7738 270.176 59.7738C267.791 59.7738 264.809 58.5813 264.809 53.5129C264.809 48.4445 267.791 47.252 270.176 47.252C271.666 47.252 272.859 47.8482 273.455 48.1464L272.859 50.2334C272.263 49.9352 271.07 49.3389 270.176 49.3389C268.685 49.3389 267.492 50.5315 267.492 53.5129C267.492 56.4943 268.983 57.6869 270.176 57.6869C271.368 57.6869 272.263 57.0906 272.859 56.7924L273.455 58.8794Z" fill="black"/>
<path d="M282.99 51.4269C282.99 49.9362 282.096 49.0418 280.903 49.0418C279.413 49.0418 278.518 49.9362 278.518 51.4269V59.4767H276.133V40.6938H278.22V48.1474C278.518 47.5511 279.711 46.9548 281.202 46.9548C283.587 46.9548 285.376 48.7436 285.376 51.4269V59.4767H282.99V51.4269Z" fill="black"/>
<path d="M297.304 59.4767H294.919V40.6938H297.304V52.0232L301.478 46.9548H304.46L299.988 52.3213L305.354 59.4767H302.373L297.602 52.9176V59.4767H297.304Z" fill="black"/>
<path d="M310.721 59.4765C307.74 59.4765 305.057 57.6876 305.057 53.2155C305.057 48.7434 307.74 46.9546 310.721 46.9546C313.703 46.9546 316.386 48.7434 316.386 53.2155C316.386 57.9858 313.703 59.4765 310.721 59.4765ZM310.721 49.0416C308.932 49.0416 307.442 50.5323 307.442 53.2155C307.442 55.8988 308.932 57.3895 310.721 57.3895C312.51 57.3895 314.001 55.8988 314.001 53.2155C314.001 50.5323 312.51 49.0416 310.721 49.0416Z" fill="black"/>
<path d="M333.081 51.4265C333.081 49.9358 332.187 49.0414 330.994 49.0414C329.504 49.0414 328.609 49.9358 328.609 51.4265V59.4763H326.224V51.4265C326.224 49.9358 325.33 49.0414 324.137 49.0414C322.647 49.0414 321.752 49.9358 321.752 51.4265V59.4763H319.367V46.9544H321.752V47.8488C322.05 47.2525 323.243 46.6562 324.733 46.6562C326.224 46.6562 327.417 47.2525 328.311 48.4451C328.907 47.5507 330.1 46.6562 331.889 46.6562C334.274 46.6562 336.063 48.4451 336.063 51.1284V59.1781H333.678V51.4265H333.081Z" fill="black"/>
<path d="M346.197 58.2839C345.899 58.8802 345.004 59.4765 343.215 59.4765C340.83 59.4765 339.339 57.6876 339.339 55.0044V46.9546H341.725V55.0044C341.725 56.4951 342.321 57.3895 343.812 57.3895C345.6 57.3895 346.495 56.1969 346.495 54.7062V46.9546H348.88V59.4765H346.495V58.2839H346.197Z" fill="black"/>
<path d="M359.014 51.4265C359.014 49.9358 358.119 49.0414 356.927 49.0414C355.436 49.0414 354.542 49.9358 354.542 51.4265V59.4763H352.157V46.9544H354.542V47.8488C354.84 47.2525 356.032 46.6562 357.523 46.6562C359.908 46.6562 361.697 48.4451 361.697 51.1284V59.1781H359.312V51.4265H359.014Z" fill="black"/>
<path d="M366.174 44.5693C365.279 44.5693 364.683 43.973 364.683 43.0786C364.683 42.1842 365.279 41.5879 366.174 41.5879C367.068 41.5879 367.665 42.1842 367.665 43.0786C367.963 44.2712 367.366 44.5693 366.174 44.5693ZM367.366 46.9544V59.4763H364.981V46.9544H367.366Z" fill="black"/>
<path d="M373.626 59.4757H371.241V40.6929H373.626V52.0222L377.8 46.9538H380.782L376.31 52.3203L381.676 59.4757H378.695L373.924 52.9166V59.4757H373.626Z" fill="black"/>
<path d="M389.131 58.2837C388.833 58.5819 387.939 59.4763 386.15 59.4763C383.467 59.4763 381.976 57.9856 381.976 55.6005C381.976 52.9172 383.765 51.4265 386.15 51.4265C387.343 51.4265 388.535 52.0228 389.131 52.3209V50.8302C389.131 49.3395 388.237 48.7432 386.746 48.7432C385.256 48.7432 384.063 49.3395 383.169 49.6377L382.87 47.5507C383.765 47.2525 384.957 46.6562 386.746 46.6562C389.43 46.6562 391.218 48.147 391.218 50.8302V59.1781H388.833V58.2837H389.131ZM389.131 55.3023C389.131 54.4079 387.939 53.8116 386.746 53.8116C385.554 53.8116 384.361 54.4079 384.361 55.8986C384.361 57.0912 385.554 57.6874 386.746 57.6874C388.237 57.6874 389.131 56.793 389.131 55.8986V55.3023Z" fill="black"/>
<path d="M403.145 58.8794C402.847 59.1776 401.356 59.7738 399.865 59.7738C397.48 59.7738 394.499 58.5813 394.499 53.5129C394.499 48.4445 397.48 47.252 399.865 47.252C401.356 47.252 402.548 47.8482 403.145 48.1464L402.548 50.2334C401.952 49.9352 400.76 49.3389 399.865 49.3389C398.374 49.3389 397.182 50.5315 397.182 53.5129C397.182 56.4943 398.673 57.6869 399.865 57.6869C401.058 57.6869 401.952 57.0906 402.548 56.7924L403.145 58.8794Z" fill="black"/>
<path d="M407.317 41.2905H410L407.615 45.4645H405.826L407.317 41.2905ZM407.913 46.9552V59.4771H405.528V46.9552H407.913Z" fill="black"/>
<path d="M23.0178 0.145508L0.955444 7.59901V0.145508H23.0178ZM0.955444 8.79158C0.955444 9.98414 2.74429 10.8786 4.83127 10.8786C5.72569 10.8786 6.32197 10.5804 6.91825 10.5804C7.81267 10.2823 28.0862 3.12691 28.0862 3.12691V32.6428C28.0862 32.6428 7.51453 39.7982 6.91825 40.0963C6.32197 40.3944 5.42755 40.3944 4.83127 40.3944C2.74429 40.3944 0.955444 39.2019 0.955444 37.413V8.79158Z" fill="#E53B38"/>
<path d="M55.8137 19.8222C55.8137 24.5924 54.0249 27.2757 49.2546 27.2757C44.4844 27.2757 42.3974 24.5924 42.3974 19.8222V5.80957H45.0807V19.8222C45.0807 23.1017 45.9751 24.8905 48.9565 24.8905C51.9379 24.8905 52.8323 23.1017 52.8323 19.8222V5.80957H55.5156V19.8222H55.8137Z" fill="black"/>
<path d="M68.0349 18.0337C68.0349 16.543 67.1405 15.3505 65.6498 15.3505C63.861 15.3505 62.9665 16.543 62.9665 18.0337V27.2761H60.2833V12.9653H62.9665V14.1579C63.5628 13.5616 64.4572 12.9653 66.2461 12.9653C68.9293 12.9653 71.0163 14.7542 71.0163 18.0337V27.2761H68.3331V18.0337H68.0349Z" fill="black"/>
<path d="M76.088 10.2808C74.8955 10.2808 74.2992 9.68453 74.2992 8.49197C74.2992 7.29941 74.8955 6.70312 76.088 6.70312C77.2806 6.70312 77.8769 7.29941 77.8769 8.49197C77.8769 9.98267 77.2806 10.2808 76.088 10.2808ZM77.5787 12.9641V27.2748H74.8955V12.9641H77.5787Z" fill="black"/>
<path d="M79.6666 12.9653H82.648L86.2257 23.6984L89.8034 12.9653H92.7848L87.4183 27.2761H84.735L79.6666 12.9653Z" fill="black"/>
<path d="M96.0624 21.3126C96.3605 23.9958 97.8512 24.8903 99.6401 24.8903C101.727 24.8903 102.92 24.294 103.814 23.6977L104.41 26.381C103.218 26.9772 101.727 27.2754 99.6401 27.2754C96.0624 27.2754 93.081 25.1884 93.081 20.12C93.081 15.3498 95.7643 12.6665 99.0438 12.6665C102.92 12.6665 105.007 15.3498 105.007 19.5237V21.0144H96.0624V21.3126ZM102.323 19.2256C102.323 16.8405 101.131 15.3498 99.3419 15.3498C97.8512 15.3498 96.3605 16.2442 96.0624 19.2256H102.323Z" fill="black"/>
<path d="M114.545 15.946C114.247 15.946 113.65 15.6479 112.756 15.6479C111.862 15.6479 111.265 16.5423 111.265 18.033V27.2754H108.582V12.9646H111.265V14.4553C111.563 13.5609 112.458 12.6665 113.949 12.6665C114.545 12.6665 114.843 12.6665 115.141 12.9646L114.545 15.946Z" fill="black"/>
<path d="M126.774 27.2761H116.339L123.196 15.3505H116.637V12.9653H127.072L120.513 24.8909H126.774V27.2761Z" fill="black"/>
<path d="M131.243 10.2808C130.051 10.2808 129.454 9.68453 129.454 8.49197C129.454 7.29941 130.051 6.70312 131.243 6.70312C132.436 6.70312 133.032 7.29941 133.032 8.49197C133.032 9.98267 132.138 10.2808 131.243 10.2808ZM132.436 12.9641V27.2748H129.752V12.9641H132.436Z" fill="black"/>
<path d="M143.469 26.978C142.873 27.2762 142.277 27.5743 141.084 27.5743C139.593 27.5743 137.506 26.978 137.506 23.9966V15.3506H135.718V12.9654H137.506V7.59892L140.19 7.30078V12.9654H142.575V15.0524H140.19V23.4004C140.19 24.2948 140.786 24.5929 141.382 24.5929C141.979 24.5929 142.575 24.2948 143.171 24.2948L143.469 26.978Z" fill="black"/>
<path d="M153.304 26.0835C153.006 26.3816 152.111 27.2761 150.024 27.2761C147.043 27.2761 145.254 25.7854 145.254 22.804C145.254 19.8226 147.341 18.3319 150.024 18.3319C151.515 18.3319 152.707 18.9281 153.304 19.5244V17.7356C153.304 15.9467 152.111 15.3505 150.62 15.3505C148.832 15.3505 147.341 15.9467 146.745 16.2449L146.446 13.8598C147.341 13.5616 148.832 12.9653 150.919 12.9653C154.198 12.9653 155.987 14.7542 155.987 17.7356V27.2761H153.304V26.0835ZM153.304 22.5058C153.304 21.3133 152.111 20.717 150.62 20.717C149.13 20.717 147.937 21.3133 147.937 23.1021C147.937 24.5928 149.13 25.1891 150.62 25.1891C152.111 25.1891 153.304 24.2947 153.304 23.1021V22.5058Z" fill="black"/>
<path d="M171.195 27.2757V8.49283H166.126V5.80957H179.244V8.49283H173.878V27.2757H171.195Z" fill="black"/>
<path d="M184.61 27.2761C181.033 27.2761 178.051 25.1891 178.051 20.1207C178.051 14.7542 181.033 12.9653 184.61 12.9653C187.89 12.9653 191.17 15.0523 191.17 20.1207C191.17 25.4872 188.188 27.2761 184.61 27.2761ZM184.61 15.3505C182.524 15.3505 181.033 17.1393 181.033 20.1207C181.033 23.1021 182.524 24.8909 184.61 24.8909C186.697 24.8909 188.188 23.4002 188.188 20.1207C188.188 16.8412 186.697 15.3505 184.61 15.3505Z" fill="black"/>
<path d="M210.25 18.0337C210.25 16.543 209.356 15.3505 207.865 15.3505C206.076 15.3505 205.182 16.543 205.182 18.0337V27.2761H202.498V18.0337C202.498 16.543 201.604 15.3505 200.113 15.3505C198.325 15.3505 197.43 16.543 197.43 18.0337V27.2761H194.747V12.9653H197.43V14.1579C198.026 13.5616 198.921 12.9653 200.71 12.9653C202.499 12.9653 203.989 13.5616 204.585 15.0523C205.48 13.8598 206.672 12.9653 208.461 12.9653C211.145 12.9653 213.232 14.7542 213.232 18.0337V27.2761H210.548V18.0337H210.25Z" fill="black"/>
<path d="M224.561 26.084C224.263 26.6803 223.07 27.5747 221.281 27.5747C218.3 27.5747 216.511 26.084 216.511 23.1026C216.511 20.1212 218.598 18.6305 221.281 18.6305C222.772 18.6305 223.965 19.2268 224.561 19.8231V17.7361C224.561 15.9472 223.368 15.3509 221.878 15.3509C220.089 15.3509 218.598 15.9472 218.002 16.2454L217.704 13.8602C218.598 13.5621 220.089 12.9658 222.176 12.9658C225.455 12.9658 227.244 14.7547 227.244 17.7361V27.2766H224.561V26.084ZM224.561 22.5063C224.561 21.3138 223.368 20.7175 221.878 20.7175C220.387 20.7175 219.194 21.3138 219.194 23.1026C219.194 24.5933 220.387 25.1896 221.878 25.1896C223.368 24.8914 224.561 23.997 224.561 22.8045V22.5063ZM222.772 6.40674H225.754L223.07 11.177H220.983L222.772 6.40674Z" fill="black"/>
<path d="M234.994 27.2766C232.907 27.2766 231.119 26.6803 230.224 26.3821L231.119 23.997C232.311 24.5933 233.802 24.8914 235.293 24.8914C236.485 24.8914 237.678 24.5933 237.678 23.4007C237.678 22.2082 236.187 21.91 234.696 21.3138C232.609 20.7175 230.522 20.1212 230.522 17.1398C230.522 14.1584 232.609 12.9658 235.889 12.9658C237.976 12.9658 239.168 13.264 240.063 13.8602L239.467 16.2454C238.274 15.6491 237.38 15.3509 235.591 15.3509C234.1 15.3509 232.907 15.9472 232.907 17.1398C232.907 18.0342 234.1 18.3323 235.293 18.9286C237.38 19.5249 240.063 20.1212 240.063 23.1026C240.361 25.7859 238.87 27.2766 234.994 27.2766ZM231.417 6.40674H233.802L235.591 9.09L237.38 6.40674H239.765L237.081 11.177H234.1L231.417 6.40674Z" fill="black"/>
<path d="M245.728 21.3126C246.026 23.9958 247.517 24.8903 249.306 24.8903C251.393 24.8903 252.586 24.294 253.48 23.6977L254.076 26.381C252.884 26.9772 251.393 27.2754 249.306 27.2754C245.728 27.2754 242.747 25.1884 242.747 20.12C242.747 15.3498 245.43 12.6665 248.71 12.6665C252.586 12.6665 254.672 15.3498 254.672 19.5237V21.0144H245.728V21.3126ZM251.989 19.2256C251.989 16.8405 250.797 15.3498 249.008 15.3498C247.517 15.3498 246.026 16.2442 245.728 19.2256H251.989Z" fill="black"/>
<path d="M271.067 27.2757H265.104V5.80957H271.365C275.241 5.80957 277.626 7.89655 277.626 11.4742C277.626 13.8594 276.434 15.3501 274.645 16.2445C276.434 17.1389 277.924 18.9277 277.924 21.3129C277.924 24.8905 275.241 27.2757 271.067 27.2757ZM271.365 8.49283H267.787V14.7538H271.067C273.154 14.7538 274.645 13.5612 274.645 11.4742C274.645 9.38725 273.452 8.49283 271.365 8.49283ZM271.067 17.437H267.787V24.5924H271.067C273.154 24.5924 274.943 23.3998 274.943 21.3129C274.943 18.9277 273.154 17.437 271.067 17.437Z" fill="black"/>
<path d="M288.659 26.0835C288.361 26.6798 287.168 27.5742 285.38 27.5742C282.398 27.5742 280.609 26.0835 280.609 23.1021C280.609 20.1207 282.696 18.63 285.38 18.63C286.87 18.63 288.063 19.2263 288.659 19.8226V17.7356C288.659 15.9467 287.467 15.3505 285.976 15.3505C284.187 15.3505 282.696 15.9467 282.1 16.2449L281.802 13.8598C282.696 13.5616 284.187 12.9653 286.274 12.9653C289.554 12.9653 291.342 14.7542 291.342 17.7356V27.2761H288.659V26.0835ZM288.659 22.5058C288.659 21.3133 287.467 20.717 285.976 20.717C284.485 20.717 283.293 21.3133 283.293 23.1021C283.293 24.5928 284.485 25.1891 285.976 25.1891C287.467 25.1891 288.659 24.2947 288.659 23.1021V22.5058Z" fill="black"/>
<path d="M301.779 26.978C301.183 27.2762 300.587 27.5743 299.394 27.5743C297.904 27.5743 295.817 26.978 295.817 23.9966V15.3506H294.028V12.9654H296.115V7.59892L298.798 7.30078V12.9654H301.183V15.0524H298.798V23.4004C298.798 24.2948 299.394 24.5929 299.991 24.5929C300.587 24.5929 301.183 24.2948 301.779 24.2948V26.978Z" fill="black"/>
<path d="M305.954 10.2808C304.762 10.2808 304.165 9.68453 304.165 8.49197C304.165 7.29941 304.762 6.70312 305.954 6.70312C307.147 6.70312 307.743 7.29941 307.743 8.49197C307.743 9.98267 306.849 10.2808 305.954 10.2808ZM307.147 12.9641V27.2748H304.463V12.9641H307.147Z" fill="black"/>
<path d="M316.091 12.9653H319.072L322.65 23.6984L326.227 12.9653H329.209L324.14 27.2761H321.457L316.091 12.9653Z" fill="black"/>
<path d="M332.486 21.3126C332.785 23.9958 334.275 24.8903 336.064 24.8903C338.151 24.8903 339.344 24.294 340.238 23.6977L340.834 26.381C339.642 26.9772 338.151 27.2754 336.064 27.2754C332.486 27.2754 329.505 25.1884 329.505 20.12C329.505 15.3498 332.188 12.6665 335.468 12.6665C339.344 12.6665 341.431 15.3498 341.431 19.5237V21.0144H332.486V21.3126ZM338.747 19.2256C338.747 16.8405 337.555 15.3498 335.766 15.3498C334.275 15.3498 332.785 16.2442 332.486 19.2256H338.747Z" fill="black"/>
<path d="M362.899 27.2757H350.377L359.322 8.49283H350.974V5.80957H363.496L354.551 24.5924H362.899V27.2757Z" fill="black"/>
<path d="M368.86 5.80957V27.2757H366.177V5.80957H368.86Z" fill="black"/>
<path d="M374.822 6.40674H377.804L375.12 11.177H373.034L374.822 6.40674ZM375.717 12.9658V27.2766H373.034V12.9658H375.717Z" fill="black"/>
<path d="M387.944 18.0337C387.944 16.543 387.05 15.3505 385.559 15.3505C383.77 15.3505 382.876 16.543 382.876 18.0337V27.2761H380.193V12.9653H382.876V14.1579C383.472 13.5616 384.367 12.9653 386.155 12.9653C388.839 12.9653 390.926 14.7542 390.926 18.0337V27.2761H388.242V18.0337H387.944Z" fill="black"/>
<path d="M396.589 21.3138C396.887 23.997 398.377 24.8914 400.166 24.8914C402.253 24.8914 403.446 24.2952 404.34 23.6989L404.937 26.3821C403.744 26.9784 402.253 27.2766 400.166 27.2766C396.589 27.2766 393.607 25.1896 393.607 20.1212C393.607 15.3509 396.29 12.6677 399.57 12.6677C403.446 12.6677 405.533 15.3509 405.533 19.5249V21.0156H396.589V21.3138ZM395.694 6.40674H398.079L399.868 9.09L401.657 6.40674H404.042L401.359 11.177H398.377L395.694 6.40674ZM402.85 19.2268C402.85 16.8416 401.657 15.3509 399.868 15.3509C398.377 15.3509 396.887 16.2454 396.589 19.2268H402.85Z" fill="black"/>
</svg>
