<svg width="560" height="120" viewBox="0 0 560 120" fill="none" xmlns="http://www.w3.org/2000/svg">
<g clip-path="url(#clip0)">
<path d="M154.153 80.0647V82.9921H145.981V93.7377H142.939V70.3936H155.436V73.3209H145.981V80.1018H154.153V80.0647Z" fill="black"/>
<path d="M165.074 92.3673C164.598 92.9231 163.572 93.8866 161.409 93.8866C158.111 93.8866 156.242 92.1451 156.242 88.9584C156.242 85.6976 158.478 83.9191 161.483 83.9191C163.095 83.9191 164.414 84.5489 165.037 85.1789V83.2891C165.037 81.4363 163.828 80.7694 162.216 80.7694C160.42 80.7694 158.807 81.3623 157.965 81.6957L157.635 79.0278C158.551 78.6574 160.09 78.1016 162.546 78.1016C165.99 78.1016 167.932 79.9172 167.932 83.2891V93.7013H165.037V92.3673H165.074ZM165.074 88.5138C165.074 87.328 163.645 86.5128 162.106 86.5128C160.603 86.5128 159.321 87.1428 159.321 88.9584C159.321 90.6258 160.713 91.2187 162.106 91.2187C163.755 91.2187 165.074 90.107 165.074 89.0325V88.5138Z" fill="black"/>
<path d="M175.335 93.7377H172.44V70.3936H175.335V84.4371L180.319 78.3232H184.02L178.413 84.8447L184.9 93.7377H181.235L175.335 85.4005V93.7377Z" fill="black"/>
<path d="M195.381 92.2555C194.868 92.9225 193.988 93.8859 191.716 93.8859C188.748 93.8859 186.805 91.8479 186.805 88.4019V78.2861H189.7V88.3278C189.7 90.0693 190.507 91.2921 192.193 91.2921C194.281 91.2921 195.381 89.7359 195.381 87.9943V78.3232H198.276V93.7377H195.381V92.2555Z" fill="black"/>
<path d="M205.642 70.3574V93.7016H202.747V70.3574H205.642Z" fill="black"/>
<path d="M216.819 93.3675C216.306 93.6269 215.647 93.8863 214.327 93.8863C212.568 93.8863 210.516 93.2193 210.516 89.8474V80.732H208.537V78.2865H210.516V72.2838L213.411 71.9502V78.2865H215.903V80.732H213.411V89.8474C213.411 90.959 213.997 91.2554 214.621 91.2554C215.353 91.2554 215.903 91.0332 216.453 90.7738L216.819 93.3675Z" fill="black"/>
<path d="M227.557 92.3673C227.08 92.9231 226.054 93.8866 223.892 93.8866C220.594 93.8866 218.725 92.1451 218.725 88.9584C218.725 85.6976 220.96 83.9191 223.965 83.9191C225.578 83.9191 226.897 84.5489 227.52 85.1789V83.2891C227.52 81.4363 226.311 80.7694 224.698 80.7694C222.903 80.7694 221.29 81.3623 220.447 81.6957L220.118 79.0278C221.034 78.6574 222.573 78.1016 225.028 78.1016C228.473 78.1016 230.415 79.9172 230.415 83.2891V93.7013H227.52V92.3673H227.557ZM227.557 88.5138C227.557 87.328 226.128 86.5128 224.588 86.5128C223.086 86.5128 221.803 87.1428 221.803 88.9584C221.803 90.6258 223.196 91.2187 224.588 91.2187C226.238 91.2187 227.557 90.107 227.557 89.0325V88.5138Z" fill="black"/>
<path d="M249.032 93.3675C248.518 93.6269 247.859 93.8863 246.54 93.8863C244.781 93.8863 242.728 93.2193 242.728 89.8474V80.732H240.75V78.2865H242.728V72.2838L245.623 71.9502V78.2865H248.115V80.732H245.623V89.8474C245.623 90.959 246.21 91.2554 246.833 91.2554C247.566 91.2554 248.115 91.0332 248.666 90.7738L249.032 93.3675Z" fill="black"/>
<path d="M254.053 87.1799C254.382 89.996 255.995 91.1446 257.936 91.1446C260.136 91.1446 261.455 90.5888 262.591 89.996L263.104 92.8122C261.711 93.442 260.319 93.8867 257.9 93.8867C254.053 93.8867 250.937 91.4782 250.937 86.1423C250.937 80.9178 253.832 78.1387 257.46 78.1387C261.601 78.1387 263.874 81.103 263.874 85.6235V87.1799H254.053ZM260.833 84.8455C260.833 82.1406 259.513 80.7324 257.46 80.7324C255.885 80.7324 254.382 81.6218 254.053 84.8455H260.833Z" fill="black"/>
<path d="M277.141 92.8862C276.59 93.1827 274.831 93.8867 273.219 93.8867C270.361 93.8867 266.732 92.4046 266.732 85.9941C266.732 79.8432 270.397 78.1387 273.219 78.1387C274.941 78.1387 276.444 78.8427 277.141 79.2132L276.48 81.844C275.748 81.4736 274.429 80.8066 273.219 80.8066C271.496 80.8066 269.774 82.3628 269.774 85.9941C269.774 89.7366 271.459 91.1446 273.219 91.1446C274.502 91.1446 275.748 90.5148 276.48 90.0701L277.141 92.8862Z" fill="black"/>
<path d="M288.903 83.6969C288.903 81.9554 287.951 80.7326 286.228 80.7326C284.249 80.7326 283.223 81.9554 283.223 83.6969V93.7015H280.328V70.3574H283.223V79.5839C283.774 78.954 284.872 78.1388 286.705 78.1388C289.673 78.1388 291.761 80.1768 291.761 83.6228V93.7386H288.866V83.6969H288.903Z" fill="black"/>
<path d="M304.845 83.6968C304.845 81.9552 303.892 80.7324 302.17 80.7324C300.191 80.7324 299.165 81.9552 299.165 83.6968V93.7014H296.27V78.2869H299.165V79.5838C299.714 78.9539 300.814 78.1387 302.646 78.1387C305.615 78.1387 307.703 80.1766 307.703 83.6227V93.7385H304.808V83.6968H304.845Z" fill="black"/>
<path d="M318.185 93.8867C314.446 93.8867 311.222 91.7006 311.222 85.9941C311.222 80.2878 314.593 78.1387 318.185 78.1387C321.813 78.1387 325.147 80.3248 325.147 85.9941C325.147 91.7376 321.886 93.8867 318.185 93.8867ZM318.185 80.7324C315.912 80.7324 314.263 82.5482 314.263 85.9941C314.263 89.329 315.949 91.1076 318.185 91.1076C320.421 91.1076 322.106 89.329 322.106 85.9941C322.106 82.5482 320.494 80.7324 318.185 80.7324Z" fill="black"/>
<path d="M331.561 70.3574V93.7016H328.666V70.3574H331.561Z" fill="black"/>
<path d="M342.042 93.8867C338.304 93.8867 335.078 91.7006 335.078 85.9941C335.078 80.2878 338.45 78.1387 342.042 78.1387C345.669 78.1387 349.005 80.3248 349.005 85.9941C349.005 91.7376 345.743 93.8867 342.042 93.8867ZM342.042 80.7324C339.77 80.7324 338.121 82.5482 338.121 85.9941C338.121 89.329 339.806 91.1076 342.042 91.1076C344.277 91.1076 345.962 89.329 345.962 85.9941C345.962 82.5482 344.313 80.7324 342.042 80.7324Z" fill="black"/>
<path d="M364.836 93.5531C364.836 98.259 362.16 100.001 358.57 100.001C356.078 100.001 354.282 99.2594 353.549 98.889L354.061 96.1469C354.978 96.5174 356.48 97.2586 358.533 97.2586C360.475 97.2586 361.941 95.9246 361.941 93.7383V91.8115C361.501 92.3673 360.255 93.5531 357.983 93.5531C355.198 93.5531 351.9 91.6263 351.9 85.957C351.9 80.4359 355.014 78.1016 358.276 78.1016C360.694 78.1016 361.501 78.9908 361.977 79.5096V78.2498H364.872V93.5531H364.836ZM361.941 84.2525C361.941 81.8069 360.438 80.7323 358.57 80.7323C356.773 80.7323 354.905 82.1775 354.905 85.994C354.905 89.5512 356.48 90.8111 358.387 90.8111C360.328 90.8111 361.904 89.6624 361.904 87.1798V84.2525H361.941Z" fill="black"/>
<path d="M370.773 75.3969C369.563 75.3969 368.866 74.767 368.866 73.5813C368.866 72.3585 369.527 71.7285 370.773 71.7285C371.946 71.7285 372.678 72.3585 372.678 73.5813C372.678 74.804 371.946 75.3969 370.773 75.3969ZM372.202 78.3242V93.7387H369.307V78.3242H372.202Z" fill="black"/>
<path d="M386.457 92.8862C385.908 93.1827 384.149 93.8867 382.536 93.8867C379.677 93.8867 376.05 92.4046 376.05 85.9941C376.05 79.8432 379.714 78.1387 382.536 78.1387C384.259 78.1387 385.761 78.8427 386.457 79.2132L385.835 81.844C385.101 81.4736 383.782 80.8066 382.572 80.8066C380.85 80.8066 379.128 82.3628 379.128 85.9941C379.128 89.7366 380.814 91.1446 382.572 91.1446C383.855 91.1446 385.101 90.5148 385.835 90.0701L386.457 92.8862Z" fill="black"/>
<path d="M392.541 93.7377H389.646V70.3936H392.541V84.4371L397.524 78.3232H401.226L395.619 84.8447L402.106 93.7377H398.441L392.541 85.4005V93.7377Z" fill="black"/>
<path d="M411.744 92.3666C411.268 92.9224 410.241 93.8858 408.079 93.8858C404.781 93.8858 402.911 92.1442 402.911 88.9577C402.911 85.6969 405.147 83.9182 408.152 83.9182C409.764 83.9182 411.083 84.5482 411.707 85.1781V83.2884C411.707 81.4356 410.498 80.7687 408.885 80.7687C407.089 80.7687 405.477 81.3615 404.635 81.695L404.304 79.0271C405.22 78.6565 406.723 78.1007 409.215 78.1007C412.66 78.1007 414.602 79.9165 414.602 83.2884V93.7006H411.707V92.3666H411.744ZM411.744 88.5131C411.744 87.3273 410.315 86.5121 408.776 86.5121C407.273 86.5121 405.99 87.1419 405.99 88.9577C405.99 90.6251 407.383 91.218 408.776 91.218C410.424 91.218 411.744 90.1063 411.744 89.0317V88.5131ZM409.801 71.0234H413.026L410.022 76.1369H407.749L409.801 71.0234Z" fill="black"/>
<path d="M119.433 20.1112L92 29.3377V20H119.433V20.1112ZM92.1112 30.7457C92.1112 32.0797 94.2984 33.3025 96.8933 33.3025C97.8572 33.3025 98.784 33.1172 99.5624 32.8578C100.378 32.5984 125.883 23.6684 125.883 23.6684V60.315C125.883 60.315 100.193 69.282 99.4883 69.5414C98.7469 69.8008 97.6718 69.9862 96.8192 69.9862C94.1872 69.9862 91.9629 68.6522 91.9629 66.2807V30.7457H92.1112Z" fill="#172983"/>
<path d="M159.43 44.4926C159.43 50.5695 157.121 53.9042 151.258 53.9042C145.395 53.9042 142.976 50.5695 142.976 44.4926V27.0029H146.457V44.3444C146.457 48.4573 147.593 50.5695 151.258 50.5695C154.923 50.5695 155.949 48.4573 155.949 44.3444V27.0029H159.43V44.4926Z" fill="black"/>
<path d="M174.346 42.2328C174.346 40.2318 173.246 38.8608 171.304 38.8608C169.032 38.8608 167.859 40.269 167.859 42.2699V53.7195H164.561V36.0818H167.859V37.564C168.482 36.8229 169.765 35.8965 171.854 35.8965C175.262 35.8965 177.644 38.231 177.644 42.1587V53.7195H174.346V42.2328Z" fill="black"/>
<path d="M184.423 32.7467C183.031 32.7467 182.261 32.0056 182.261 30.6717C182.261 29.2636 183.031 28.5596 184.423 28.5596C185.779 28.5596 186.586 29.2636 186.586 30.6717C186.586 32.0797 185.779 32.7467 184.423 32.7467ZM186.073 36.0815V53.7194H182.774V36.0815H186.073Z" fill="black"/>
<path d="M188.638 36.082H192.302L196.627 49.2732L200.914 36.082H204.579L198.203 53.7197H195.014L188.638 36.082Z" fill="black"/>
<path d="M208.867 46.2346C209.233 49.4584 211.066 50.7552 213.301 50.7552C215.83 50.7552 217.332 50.1254 218.615 49.4584L219.201 52.6821C217.625 53.4231 216.013 53.9049 213.264 53.9049C208.867 53.9049 205.312 51.1628 205.312 45.0489C205.312 39.0832 208.61 35.8965 212.751 35.8965C217.479 35.8965 220.081 39.3056 220.081 44.4561V46.2346H208.867ZM216.599 43.5667C216.599 40.4912 215.097 38.8608 212.751 38.8608C210.956 38.8608 209.233 39.8984 208.867 43.5667H216.599Z" fill="black"/>
<path d="M231.771 39.7502C231.368 39.565 230.635 39.3056 229.719 39.3056C228.327 39.3056 227.41 40.4542 227.41 42.2699V53.7195H224.112V36.0818H227.41V38.0828C227.959 36.934 228.839 35.8965 230.598 35.8965C231.258 35.8965 231.881 36.0818 232.21 36.23L231.771 39.7502Z" fill="black"/>
<path d="M246.65 53.7197H233.677L241.996 38.861H234.044V36.082H247.052L239.101 50.7554H246.65V53.7197Z" fill="black"/>
<path d="M252 32.7467C250.608 32.7467 249.837 32.0056 249.837 30.6717C249.837 29.2636 250.608 28.5596 252 28.5596C253.356 28.5596 254.163 29.2636 254.163 30.6717C254.163 32.0797 253.356 32.7467 252 32.7467ZM253.649 36.0815V53.7194H250.351V36.0815H253.649Z" fill="black"/>
<path d="M267.172 53.3112C266.586 53.6077 265.816 53.9041 264.313 53.9041C262.299 53.9041 259.953 53.126 259.953 49.2723V38.8601H257.68V36.0811H259.953V29.226L263.25 28.8555V36.0811H266.109V38.8601H263.25V49.2723C263.25 50.5322 263.911 50.9026 264.643 50.9026C265.486 50.9026 266.109 50.6434 266.732 50.3468L267.172 53.3112Z" fill="black"/>
<path d="M279.448 52.1633C278.899 52.7933 277.726 53.9049 275.271 53.9049C271.496 53.9049 269.371 51.9039 269.371 48.2726C269.371 44.5301 271.937 42.5292 275.381 42.5292C277.214 42.5292 278.753 43.2333 279.448 43.9743V41.8252C279.448 39.7132 278.056 38.935 276.224 38.935C274.171 38.935 272.339 39.602 271.349 40.0096L270.983 36.9711C272.046 36.5635 273.768 35.8965 276.59 35.8965C280.511 35.8965 282.747 37.9716 282.747 41.8252V53.7195H279.448V52.1633ZM279.448 47.7538C279.448 46.3829 277.8 45.4565 276.041 45.4565C274.318 45.4565 272.852 46.1976 272.852 48.2726C272.852 50.1624 274.429 50.8664 276.041 50.8664C277.946 50.8664 279.448 49.6066 279.448 48.3468V47.7538Z" fill="black"/>
<path d="M301.253 53.719V30.3378H294.841V27.0029H311.149V30.3378H304.735V53.719H301.253Z" fill="black"/>
<path d="M317.818 53.9049C313.566 53.9049 309.866 51.4222 309.866 44.9007C309.866 38.3792 313.714 35.8965 317.818 35.8965C321.959 35.8965 325.77 38.3792 325.77 44.9007C325.77 51.4222 322.033 53.9049 317.818 53.9049ZM317.818 38.8608C315.216 38.8608 313.347 40.9359 313.347 44.9007C313.347 48.7172 315.29 50.7552 317.818 50.7552C320.383 50.7552 322.289 48.7172 322.289 44.9007C322.289 40.9359 320.419 38.8608 317.818 38.8608Z" fill="black"/>
<path d="M349.371 42.2328C349.371 40.2318 348.271 38.8608 346.33 38.8608C344.057 38.8608 342.884 40.269 342.884 42.2699V53.7195H339.587V42.2328C339.587 40.2318 338.487 38.8608 336.544 38.8608C334.273 38.8608 333.1 40.269 333.1 42.2699V53.7195H329.801V36.0818H333.1V37.564C333.722 36.8229 335.005 35.8965 337.094 35.8965C339.256 35.8965 340.979 36.8229 341.968 38.4904C342.884 37.1564 344.496 35.8965 346.879 35.8965C350.288 35.8965 352.669 38.231 352.669 42.1587V53.7195H349.371V42.2328Z" fill="black"/>
<path d="M366.778 52.1639C366.228 52.7937 365.055 53.9054 362.601 53.9054C358.826 53.9054 356.7 51.9045 356.7 48.2732C356.7 44.5306 359.265 42.5297 362.711 42.5297C364.542 42.5297 366.081 43.2338 366.778 43.9749V41.8257C366.778 39.7136 365.386 38.9355 363.553 38.9355C361.501 38.9355 359.668 39.6025 358.679 40.0101L358.312 36.9716C359.375 36.564 361.097 35.897 363.92 35.897C367.84 35.897 370.076 37.9721 370.076 41.8257V53.7201H366.778V52.1639ZM366.778 47.7544C366.778 46.3834 365.128 45.457 363.37 45.457C361.647 45.457 360.182 46.198 360.182 48.2732C360.182 50.1629 361.757 50.8669 363.37 50.8669C365.276 50.8669 366.778 49.6071 366.778 48.3472V47.7544ZM364.542 27.7451H368.244L364.799 33.5997H362.197L364.542 27.7451Z" fill="black"/>
<path d="M379.86 53.9054C377.112 53.9054 375.207 53.1273 374.144 52.6455L374.731 49.4959C376.123 50.1629 377.882 50.7557 379.86 50.7557C381.399 50.7557 382.867 50.3111 382.867 48.7178C382.867 47.1244 381.18 46.7168 379.311 46.2352C376.892 45.6052 374.107 44.8271 374.107 41.1587C374.107 37.6016 376.563 35.897 380.667 35.897C383.086 35.897 384.808 36.4528 385.981 36.9346L385.431 40.0471C384.075 39.4172 382.755 38.8614 380.74 38.8614C378.762 38.8614 377.553 39.5283 377.553 41.1217C377.553 42.3815 378.982 42.7891 380.667 43.2709C383.233 43.9749 386.42 44.79 386.42 48.6437C386.42 52.0157 384.479 53.9054 379.86 53.9054ZM375.097 27.7451H378.029L380.264 31.0429L382.499 27.7451H385.431L382.023 33.5997H378.504L375.097 27.7451Z" fill="black"/>
<path d="M392.907 46.2346C393.273 49.4584 395.106 50.7552 397.341 50.7552C399.87 50.7552 401.372 50.1254 402.655 49.4584L403.242 52.6821C401.665 53.4231 400.053 53.9049 397.304 53.9049C392.907 53.9049 389.352 51.1628 389.352 45.0489C389.352 39.0832 392.651 35.8965 396.792 35.8965C401.519 35.8965 404.121 39.3056 404.121 44.4561V46.2346H392.907ZM400.64 43.5667C400.64 40.4912 399.138 38.8608 396.792 38.8608C394.997 38.8608 393.273 39.8984 392.907 43.5667H400.64Z" fill="black"/>
<path d="M423.911 53.719H416.581V27.0029H424.46C429.334 27.0029 432.193 29.7079 432.193 34.1174C432.193 37.1558 430.617 38.8233 428.418 39.8979C430.8 40.8983 432.376 43.1956 432.376 46.0488C432.376 50.8659 429.115 53.719 423.911 53.719ZM424.496 30.3378H420.063V38.2673H424.021C426.732 38.2673 428.528 36.9335 428.528 34.3026C428.528 31.5977 426.842 30.3378 424.496 30.3378ZM424.021 41.6023H420.063V50.3841H424.021C426.769 50.3841 428.711 48.8649 428.711 46.1229C428.711 43.2698 426.732 41.6023 424.021 41.6023Z" fill="black"/>
<path d="M445.752 52.1633C445.201 52.7933 444.03 53.9049 441.574 53.9049C437.799 53.9049 435.673 51.9039 435.673 48.2726C435.673 44.5301 438.239 42.5292 441.684 42.5292C443.516 42.5292 445.055 43.2333 445.752 43.9743V41.8252C445.752 39.7132 444.359 38.935 442.528 38.935C440.475 38.935 438.643 39.602 437.653 40.0096L437.287 36.9711C438.349 36.5635 440.072 35.8965 442.894 35.8965C446.815 35.8965 449.05 37.9716 449.05 41.8252V53.7195H445.752V52.1633ZM445.752 47.7538C445.752 46.3829 444.103 45.4565 442.343 45.4565C440.621 45.4565 439.155 46.1976 439.155 48.2726C439.155 50.1624 440.731 50.8664 442.343 50.8664C444.25 50.8664 445.752 49.6066 445.752 48.3468V47.7538Z" fill="black"/>
<path d="M461.84 53.3112C461.253 53.6077 460.484 53.9041 458.982 53.9041C456.966 53.9041 454.621 53.126 454.621 49.2723V38.8601H452.349V36.0811H454.621V29.226L457.919 28.8555V36.0811H460.777V38.8601H457.919V49.2723C457.919 50.5322 458.578 50.9026 459.311 50.9026C460.155 50.9026 460.777 50.6434 461.401 50.3468L461.84 53.3112Z" fill="black"/>
<path d="M466.787 32.7467C465.394 32.7467 464.625 32.0056 464.625 30.6717C464.625 29.2636 465.394 28.5596 466.787 28.5596C468.142 28.5596 468.949 29.2636 468.949 30.6717C468.949 32.0797 468.142 32.7467 466.787 32.7467ZM468.437 36.0815V53.7194H465.138V36.0815H468.437Z" fill="black"/>
</g>
<defs>
<clipPath id="clip0">
<rect width="376.949" height="80" fill="white" transform="translate(92 20)"/>
</clipPath>
</defs>
</svg>
