<svg width="406" height="65" viewBox="0 0 406 65" fill="none" xmlns="http://www.w3.org/2000/svg">
<path d="M51.5275 48.6262V51.0113H44.9684V59.6573H42.5833V40.8745H52.7201V43.2596H44.9684V48.6262H51.5275Z" fill="black"/>
<path d="M60.1749 58.4649C59.8768 58.763 58.9823 59.6574 57.1935 59.6574C54.5102 59.6574 53.0195 58.1667 53.0195 55.7816C53.0195 53.0983 54.8084 51.6076 57.1935 51.6076C58.3861 51.6076 59.5786 52.2039 60.1749 52.5021V51.0114C60.1749 49.5207 59.2805 48.9244 57.7898 48.9244C56.2991 48.9244 55.1065 49.5207 54.2121 49.8188L53.9139 47.7318C54.8084 47.4337 56.0009 46.8374 57.7898 46.8374C60.473 46.8374 62.2619 48.3281 62.2619 51.0114V59.3593H59.8768V58.4649H60.1749ZM60.1749 55.4835C60.1749 54.589 58.9823 53.9928 57.7898 53.9928C56.5972 53.9928 55.4047 54.589 55.4047 56.0798C55.4047 57.2723 56.5972 57.8686 57.7898 57.8686C59.2805 57.8686 60.1749 56.9742 60.1749 56.0798V55.4835Z" fill="black"/>
<path d="M68.5245 59.6573H66.1393V40.8745H68.5245V52.2038L72.6984 47.1355H75.6798L71.2077 52.502L76.5743 59.6573H73.5928L68.8226 53.0983V59.6573H68.5245Z" fill="black"/>
<path d="M84.9179 58.4656C84.6198 59.0618 83.7253 59.6581 81.9365 59.6581C79.5514 59.6581 78.0607 57.8693 78.0607 55.186V47.1362H80.4458V55.186C80.4458 56.6767 81.0421 57.5711 82.5328 57.5711C84.3216 57.5711 85.216 56.3786 85.216 54.8879V47.1362H87.303V59.6581H84.9179V58.4656Z" fill="black"/>
<path d="M93.267 40.8745V59.6573H90.8819V40.8745H93.267V40.8745Z" fill="black"/>
<path d="M102.51 59.3598C102.212 59.6579 101.615 59.6579 100.423 59.6579C98.9321 59.6579 97.4414 59.0617 97.4414 56.3784V48.9249H95.9507V46.8379H97.4414V42.0677L99.8265 41.7695V46.8379H101.913V48.9249H99.8265V56.3784C99.8265 57.2728 100.423 57.571 100.721 57.571C101.317 57.571 101.913 57.2728 102.212 57.2728L102.51 59.3598Z" fill="black"/>
<path d="M111.153 58.4649C110.855 58.763 109.961 59.6574 108.172 59.6574C105.489 59.6574 103.998 58.1667 103.998 55.7816C103.998 53.0983 105.787 51.6076 108.172 51.6076C109.364 51.6076 110.557 52.2039 111.153 52.5021V51.0114C111.153 49.5207 110.259 48.9244 108.768 48.9244C107.277 48.9244 106.085 49.5207 105.19 49.8188V47.7318C106.085 47.4337 107.277 46.8374 109.066 46.8374C111.749 46.8374 113.538 48.3281 113.538 51.0114V59.3593H111.153V58.4649ZM111.153 55.4835C111.153 54.589 109.961 53.9928 108.768 53.9928C107.575 53.9928 106.383 54.589 106.383 56.0798C106.383 57.2723 107.575 57.8686 108.768 57.8686C110.259 57.8686 111.153 56.9742 111.153 56.0798V55.4835Z" fill="black"/>
<path d="M128.443 59.3583C128.145 59.6565 127.548 59.6565 126.356 59.6565C124.865 59.6565 123.374 59.0602 123.374 56.3769V48.9234H121.884V46.8365H123.374V42.0662L125.759 41.7681V46.8365H127.846V48.9234H125.759V56.3769C125.759 57.2714 126.356 57.5695 126.654 57.5695C127.25 57.5695 127.846 57.2714 128.145 57.2714L128.443 59.3583Z" fill="black"/>
<path d="M132.623 54.2916C132.921 56.6767 134.113 57.5711 135.902 57.5711C137.691 57.5711 138.884 57.273 139.778 56.6767L140.076 59.0618C138.884 59.6581 137.691 59.9563 135.902 59.9563C132.921 59.9563 130.237 58.1674 130.237 53.6953C130.237 49.5214 132.623 47.1362 135.604 47.1362C138.884 47.1362 140.672 49.5214 140.672 53.099V54.2916H132.623ZM138.287 52.5028C138.287 50.4158 137.095 49.2232 135.604 49.2232C134.411 49.2232 133.219 49.8195 132.921 52.5028H138.287Z" fill="black"/>
<path d="M151.402 59.0611C151.104 59.3592 149.613 59.9555 148.123 59.9555C145.737 59.9555 142.756 58.7629 142.756 53.6945C142.756 48.6262 145.737 47.4336 148.123 47.4336C149.613 47.4336 150.806 48.0299 151.402 48.328L150.806 50.415C150.21 50.1169 149.017 49.5206 148.123 49.5206C146.632 49.5206 145.439 50.7131 145.439 53.6945C145.439 56.6759 146.93 57.8685 148.123 57.8685C149.315 57.8685 150.21 57.2722 150.806 56.9741L151.402 59.0611Z" fill="black"/>
<path d="M160.945 51.6076C160.945 50.1169 160.051 49.2224 158.858 49.2224C157.368 49.2224 156.473 50.1169 156.473 51.6076V59.6573H154.088V40.8745H156.473V48.328C156.771 47.7317 157.964 47.1355 159.455 47.1355C161.84 47.1355 163.629 48.9243 163.629 51.6076V59.6573H161.244V51.6076H160.945Z" fill="black"/>
<path d="M174.061 51.6076C174.061 50.1169 173.167 49.2225 171.974 49.2225C170.483 49.2225 169.589 50.1169 169.589 51.6076V59.6574H167.204V47.1355H169.589V48.03C169.887 47.4337 171.08 46.8374 172.57 46.8374C174.956 46.8374 176.744 48.6262 176.744 51.3095V59.3593H174.359V51.6076H174.061Z" fill="black"/>
<path d="M184.794 59.6581C181.812 59.6581 179.129 57.8693 179.129 53.3972C179.129 48.9251 181.812 47.1362 184.794 47.1362C187.775 47.1362 190.459 48.9251 190.459 53.3972C190.459 58.1674 187.775 59.6581 184.794 59.6581ZM184.794 49.2232C183.005 49.2232 181.514 50.7139 181.514 53.3972C181.514 56.0804 183.005 57.5711 184.794 57.5711C186.583 57.5711 188.073 56.0804 188.073 53.3972C188.073 50.7139 186.583 49.2232 184.794 49.2232Z" fill="black"/>
<path d="M195.829 40.8745V59.6573H193.444V40.8745H195.829V40.8745Z" fill="black"/>
<path d="M204.177 59.6581C201.196 59.6581 198.513 57.8693 198.513 53.3972C198.513 48.9251 201.196 47.1362 204.177 47.1362C207.159 47.1362 209.842 48.9251 209.842 53.3972C209.842 58.1674 207.159 59.6581 204.177 59.6581ZM204.177 49.2232C202.388 49.2232 200.898 50.7139 200.898 53.3972C200.898 56.0804 202.388 57.5711 204.177 57.5711C205.966 57.5711 207.457 56.0804 207.457 53.3972C207.457 50.7139 206.264 49.2232 204.177 49.2232Z" fill="black"/>
<path d="M222.958 59.6573C222.958 63.5332 220.871 64.7257 217.89 64.7257C215.803 64.7257 214.312 64.1294 213.716 63.8313L214.014 61.7443C214.908 62.0425 216.101 62.6387 217.592 62.6387C219.082 62.6387 220.275 61.4462 220.275 59.6573V58.1666C219.977 58.4648 218.784 59.6573 216.995 59.6573C214.61 59.6573 211.927 58.1666 211.927 53.6945C211.927 49.2224 214.312 47.4336 216.995 47.4336C219.082 47.4336 219.679 47.9037 219.977 48.5V47.7317H222.958V59.6573ZM220.871 51.9057C220.871 49.8187 219.38 48.9243 217.89 48.9243C216.399 48.9243 214.908 50.1169 214.908 53.0983C214.908 56.0797 216.101 56.9741 217.89 56.9741C219.38 56.9741 220.871 56.0797 220.871 53.9927V51.9057Z" fill="black"/>
<path d="M227.728 44.7495C226.834 44.7495 226.237 44.1532 226.237 43.2588C226.237 42.3643 226.834 41.7681 227.728 41.7681C228.622 41.7681 229.219 42.3643 229.219 43.2588C229.219 44.4513 228.622 44.7495 227.728 44.7495ZM228.921 47.1346V59.6565H226.535V47.1346H228.921Z" fill="black"/>
<path d="M240.251 59.0611C239.953 59.3592 238.462 59.9555 236.971 59.9555C234.586 59.9555 231.605 58.7629 231.605 53.6945C231.605 48.6262 234.586 47.4336 236.971 47.4336C238.462 47.4336 239.654 48.0299 240.251 48.328L239.654 50.415C239.058 50.1169 237.866 49.5206 236.971 49.5206C235.48 49.5206 234.288 50.7131 234.288 53.6945C234.288 56.6759 235.779 57.8685 236.971 57.8685C238.164 57.8685 239.058 57.2722 239.654 56.9741L240.251 59.0611Z" fill="black"/>
<path d="M245.322 59.6573H242.937V40.8745H245.322V52.2038L249.496 47.1355H252.477L248.005 52.502L253.372 59.6573H250.39L245.322 53.0983V59.6573Z" fill="black"/>
<path d="M260.823 58.4647C260.525 58.7628 259.63 59.6573 257.842 59.6573C255.158 59.6573 253.668 58.1666 253.668 55.7814C253.668 53.0982 255.456 51.6075 257.842 51.6075C259.034 51.6075 260.227 52.2038 260.823 52.5019V51.0112C260.823 49.5205 259.929 48.9242 258.438 48.9242C256.947 48.9242 255.755 49.5205 254.86 49.8186L254.562 47.7316C255.456 47.4335 256.649 46.8372 258.438 46.8372C261.121 46.8372 262.91 48.3279 262.91 51.0112V59.3591H260.525V58.4647H260.823ZM260.823 55.4833C260.823 54.5889 259.63 53.9926 258.438 53.9926C257.245 53.9926 256.053 54.5889 256.053 56.0796C256.053 57.2721 257.245 57.8684 258.438 57.8684C259.929 57.8684 260.823 56.974 260.823 56.0796V55.4833ZM259.332 41.4707H262.016L259.63 45.6447H257.842L259.332 41.4707Z" fill="black"/>
<path d="M22.9098 0.326172L0.847412 7.77968V0.326172H22.9098ZM0.847412 8.97224C0.847412 10.1648 2.63625 11.0592 4.72324 11.0592C5.61766 11.0592 6.21394 10.7611 6.81022 10.7611C7.70464 10.4629 27.9782 3.30757 27.9782 3.30757V32.8235C27.9782 32.8235 7.4065 39.9788 6.81022 40.277C6.21394 40.5751 5.31952 40.5751 4.72324 40.5751C2.63625 40.5751 0.847412 39.3825 0.847412 37.5937V8.97224Z" fill="#172983"/>
<path d="M55.7057 20.0028C55.7057 24.7731 53.9169 27.4563 49.1467 27.4563C44.3764 27.4563 42.2894 24.7731 42.2894 20.0028V5.99023H44.9727V20.0028C44.9727 23.2824 45.8671 25.0712 48.8485 25.0712C51.8299 25.0712 52.7243 23.2824 52.7243 20.0028V5.99023H55.4076V20.0028H55.7057Z" fill="black"/>
<path d="M67.9271 18.2144C67.9271 16.7237 67.0326 15.5311 65.5419 15.5311C63.7531 15.5311 62.8587 16.7237 62.8587 18.2144V27.4567H60.1754V13.146H62.8587V14.3386C63.455 13.7423 64.3494 13.146 66.1382 13.146C68.8215 13.146 70.9085 14.9348 70.9085 18.2144V27.4567H68.2252V18.2144H67.9271Z" fill="black"/>
<path d="M75.9801 10.4629C74.7876 10.4629 74.1913 9.86666 74.1913 8.6741C74.1913 7.48153 74.7876 6.88525 75.9801 6.88525C77.1727 6.88525 77.769 7.48153 77.769 8.6741C77.769 10.1648 77.1727 10.4629 75.9801 10.4629ZM77.4708 13.1462V27.4569H74.7876V13.1462H77.4708Z" fill="black"/>
<path d="M79.5587 13.146H82.5401L86.1177 23.879L89.6954 13.146H92.6768L87.3103 27.4567H84.627L79.5587 13.146Z" fill="black"/>
<path d="M95.9544 21.4927C96.2525 24.176 97.7432 25.0704 99.532 25.0704C101.619 25.0704 102.812 24.4742 103.706 23.8779L104.302 26.5611C103.11 27.1574 101.619 27.4556 99.532 27.4556C95.9544 27.4556 92.973 25.3686 92.973 20.3002C92.973 15.5299 95.6562 12.8467 98.9358 12.8467C102.812 12.8467 104.899 15.5299 104.899 19.7039V21.1946H95.9544V21.4927ZM102.215 19.4058C102.215 17.0206 101.023 15.5299 99.2339 15.5299C97.7432 15.5299 96.2525 16.4244 95.9544 19.4058H102.215Z" fill="black"/>
<path d="M114.437 16.1267C114.139 16.1267 113.542 15.8286 112.648 15.8286C111.753 15.8286 111.157 16.723 111.157 18.2137V27.456H108.474V13.1453H111.157V14.636C111.455 13.7416 112.35 12.8472 113.84 12.8472C114.437 12.8472 114.735 12.8472 115.033 13.1453L114.437 16.1267Z" fill="black"/>
<path d="M126.665 27.4567H116.23L123.088 15.5311H116.528V13.146H126.963L120.404 25.0716H126.665V27.4567V27.4567Z" fill="black"/>
<path d="M131.135 10.4629C129.943 10.4629 129.346 9.86666 129.346 8.6741C129.346 7.48153 129.943 6.88525 131.135 6.88525C132.328 6.88525 132.924 7.48153 132.924 8.6741C132.924 10.1648 132.03 10.4629 131.135 10.4629ZM132.328 13.1462V27.4569H129.644V13.1462H132.328Z" fill="black"/>
<path d="M143.361 27.1592C142.765 27.4573 142.169 27.7555 140.976 27.7555C139.485 27.7555 137.398 27.1592 137.398 24.1778V15.5317H135.61V13.1466H137.398V7.78007L140.082 7.48193V13.1466H142.467V15.2336H140.082V23.5815C140.082 24.4759 140.678 24.7741 141.274 24.7741C141.87 24.7741 142.467 24.4759 143.063 24.4759L143.361 27.1592Z" fill="black"/>
<path d="M153.196 26.2642C152.897 26.5623 152.003 27.4567 149.916 27.4567C146.935 27.4567 145.146 25.966 145.146 22.9846C145.146 20.0032 147.233 18.5125 149.916 18.5125C151.407 18.5125 152.599 19.1088 153.196 19.7051V17.9162C153.196 16.1274 152.003 15.5311 150.512 15.5311C148.723 15.5311 147.233 16.1274 146.636 16.4255L146.338 14.0404C147.233 13.7423 148.723 13.146 150.81 13.146C154.09 13.146 155.879 14.9348 155.879 17.9162V27.4567H153.196V26.2642V26.2642ZM153.196 22.6865C153.196 21.4939 152.003 20.8976 150.512 20.8976C149.022 20.8976 147.829 21.4939 147.829 23.2828C147.829 24.7735 149.022 25.3697 150.512 25.3697C152.003 25.3697 153.196 24.4753 153.196 23.2828V22.6865Z" fill="black"/>
<path d="M171.087 27.4563V8.6735H166.018V5.99023H179.136V8.6735H173.77V27.4563H171.087Z" fill="black"/>
<path d="M184.507 27.4567C180.929 27.4567 177.948 25.3697 177.948 20.3014C177.948 14.9348 180.929 13.146 184.507 13.146C187.786 13.146 191.066 15.233 191.066 20.3014C191.066 25.6679 188.084 27.4567 184.507 27.4567ZM184.507 15.5311C182.42 15.5311 180.929 17.32 180.929 20.3014C180.929 23.2828 182.42 25.0716 184.507 25.0716C186.594 25.0716 188.084 23.5809 188.084 20.3014C188.084 17.0218 186.594 15.5311 184.507 15.5311Z" fill="black"/>
<path d="M210.44 18.2144C210.44 16.7237 209.248 15.5311 207.757 15.5311C205.968 15.5311 205.074 16.7237 205.074 18.2144V27.4567H202.39V18.2144C202.39 16.7237 201.496 15.5311 200.005 15.5311C198.216 15.5311 197.322 16.7237 197.322 18.2144V27.4567H194.639V13.146H197.322V14.3386C197.918 13.7423 198.813 13.146 200.602 13.146C202.39 13.146 203.881 13.7423 204.477 15.233C205.372 14.0404 206.564 13.146 208.353 13.146C211.037 13.146 213.123 14.9348 213.123 18.2144V27.4567H210.44V18.2144Z" fill="black"/>
<path d="M224.453 26.2651C224.155 26.8614 222.962 27.7558 221.173 27.7558C218.192 27.7558 216.403 26.2651 216.403 23.2837C216.403 20.3023 218.49 18.8116 221.173 18.8116C222.664 18.8116 223.857 19.4079 224.453 20.0042V17.9172C224.453 16.1284 223.26 15.5321 221.77 15.5321C219.981 15.5321 218.49 16.1284 217.894 16.4265L217.596 14.0414C218.49 13.7433 219.981 13.147 222.068 13.147C225.347 13.147 227.136 14.9358 227.136 17.9172V27.4577H224.453V26.2651ZM224.453 22.6875C224.453 21.4949 223.26 20.8986 221.77 20.8986C220.279 20.8986 219.086 21.4949 219.086 23.2837C219.086 24.7744 220.279 25.3707 221.77 25.3707C223.26 25.0726 224.453 24.1782 224.453 22.9856V22.6875ZM222.664 6.58789H225.645L222.962 11.3581H220.875L222.664 6.58789Z" fill="black"/>
<path d="M234.886 27.4577C232.799 27.4577 231.011 26.8614 230.116 26.5633L231.011 24.1782C232.203 24.7744 233.694 25.0726 235.185 25.0726C236.377 25.0726 237.57 24.7744 237.57 23.5819C237.57 22.3893 236.079 22.0912 234.588 21.4949C232.501 20.8986 230.414 20.3023 230.414 17.3209C230.414 14.3395 232.501 13.147 235.781 13.147C237.868 13.147 239.06 13.4451 239.955 14.0414L239.358 16.4265C238.166 15.8302 237.272 15.5321 235.483 15.5321C233.992 15.5321 232.799 16.1284 232.799 17.3209C232.799 18.2154 233.992 18.5135 235.185 19.1098C237.272 19.7061 239.955 20.3023 239.955 23.2837C240.253 25.967 238.762 27.4577 234.886 27.4577ZM231.309 6.58789H233.694L235.483 9.27115L237.272 6.58789H239.657L236.973 11.3581H233.992L231.309 6.58789Z" fill="black"/>
<path d="M245.62 21.4932C245.918 24.1765 247.409 25.0709 249.198 25.0709C251.285 25.0709 252.477 24.4746 253.372 23.8784L253.968 26.5616C252.776 27.1579 251.285 27.456 249.198 27.456C245.62 27.456 242.639 25.3691 242.639 20.3007C242.639 15.5304 245.322 12.8472 248.602 12.8472C252.477 12.8472 254.564 15.5304 254.564 19.7044V21.1951H245.62V21.4932ZM251.881 19.4063C251.881 17.0211 250.689 15.5304 248.9 15.5304C247.409 15.5304 245.918 16.4249 245.62 19.4063H251.881Z" fill="black"/>
<path d="M270.959 27.4563H264.996V5.99023H271.257C275.133 5.99023 277.518 8.07722 277.518 11.6549C277.518 14.04 276.325 15.5307 274.537 16.4251C276.325 17.3196 277.816 19.1084 277.816 21.4935C277.816 25.0712 275.133 27.4563 270.959 27.4563ZM271.257 8.6735H267.679V14.9344H270.959C273.046 14.9344 274.537 13.7419 274.537 11.6549C274.537 9.56792 273.344 8.6735 271.257 8.6735ZM270.959 17.6177H267.679V24.7731H270.959C273.046 24.7731 274.835 23.5805 274.835 21.4935C274.835 19.1084 273.046 17.6177 270.959 17.6177Z" fill="black"/>
<path d="M288.551 26.2642C288.253 26.8604 287.06 27.7549 285.271 27.7549C282.29 27.7549 280.501 26.2642 280.501 23.2828C280.501 20.3014 282.588 18.8107 285.271 18.8107C286.762 18.8107 287.955 19.4069 288.551 20.0032V17.9162C288.551 16.1274 287.358 15.5311 285.868 15.5311C284.079 15.5311 282.588 16.1274 281.992 16.4255L281.694 14.0404C282.588 13.7423 284.079 13.146 286.166 13.146C289.445 13.146 291.234 14.9348 291.234 17.9162V27.4567H288.551V26.2642ZM288.551 22.6865C288.551 21.4939 287.358 20.8976 285.868 20.8976C284.377 20.8976 283.184 21.4939 283.184 23.2828C283.184 24.7735 284.377 25.3697 285.868 25.3697C287.358 25.3697 288.551 24.4753 288.551 23.2828V22.6865Z" fill="black"/>
<path d="M301.671 27.1592C301.075 27.4573 300.479 27.7555 299.286 27.7555C297.796 27.7555 295.709 27.1592 295.709 24.1778V15.5317H293.92V13.1466H296.007V7.78007L298.69 7.48193V13.1466H301.075V15.2336H298.69V23.5815C298.69 24.4759 299.286 24.7741 299.883 24.7741C300.479 24.7741 301.075 24.4759 301.671 24.4759V27.1592Z" fill="black"/>
<path d="M305.846 10.4629C304.654 10.4629 304.057 9.86666 304.057 8.6741C304.057 7.48153 304.654 6.88525 305.846 6.88525C307.039 6.88525 307.635 7.48153 307.635 8.6741C307.635 10.1648 306.741 10.4629 305.846 10.4629ZM307.039 13.1462V27.4569H304.355V13.1462H307.039Z" fill="black"/>
<path d="M315.982 13.146H318.964L322.542 23.879L326.119 13.146H329.101L324.032 27.4567H321.349L315.982 13.146Z" fill="black"/>
<path d="M332.378 21.4927C332.677 24.176 334.167 25.0704 335.956 25.0704C338.043 25.0704 339.236 24.4742 340.13 23.8779L340.726 26.5611C339.534 27.1574 338.043 27.4556 335.956 27.4556C332.378 27.4556 329.397 25.3686 329.397 20.3002C329.397 15.5299 332.08 12.8467 335.36 12.8467C339.236 12.8467 341.323 15.5299 341.323 19.7039V21.1946H332.378V21.4927ZM338.639 19.4058C338.639 17.0206 337.447 15.5299 335.658 15.5299C334.167 15.5299 332.677 16.4244 332.378 19.4058H338.639Z" fill="black"/>
<path d="M362.791 27.4563H350.269L359.214 8.6735H350.866V5.99023H363.388L354.443 24.7731H362.791V27.4563Z" fill="black"/>
<path d="M368.752 5.99023V27.4563H366.069V5.99023H368.752Z" fill="black"/>
<path d="M374.714 6.58789H377.696L375.012 11.3581H372.925L374.714 6.58789ZM375.609 13.147V27.4577H372.925V13.147H375.609Z" fill="black"/>
<path d="M387.836 18.2144C387.836 16.7237 386.942 15.5311 385.451 15.5311C383.662 15.5311 382.768 16.7237 382.768 18.2144V27.4567H380.085V13.146H382.768V14.3386C383.364 13.7423 384.259 13.146 386.047 13.146C388.731 13.146 390.818 14.9348 390.818 18.2144V27.4567H388.134V18.2144H387.836Z" fill="black"/>
<path d="M396.481 21.4949C396.779 24.1782 398.269 25.0726 400.058 25.0726C402.145 25.0726 403.338 24.4763 404.232 23.88L404.829 26.5633C403.636 27.1596 402.145 27.4577 400.058 27.4577C396.481 27.4577 393.499 25.3707 393.499 20.3023C393.499 15.5321 396.182 12.8488 399.462 12.8488C403.338 12.8488 405.425 15.5321 405.425 19.7061V21.1968H396.481V21.4949ZM395.586 6.58789H397.971L399.76 9.27115L401.549 6.58789H403.934L401.251 11.3581H398.269L395.586 6.58789ZM402.742 19.4079C402.742 17.0228 401.549 15.5321 399.76 15.5321C398.269 15.5321 396.779 16.4265 396.481 19.4079H402.742Z" fill="black"/>
</svg>
